<svg width="576" height="632" viewBox="0 0 576 632" fill="none" xmlns="http://www.w3.org/2000/svg">
<path opacity="0.5" fill-rule="evenodd" clip-rule="evenodd" d="M270.208 65.9049C329.007 61.2088 391.831 18.1207 442.018 49.1155C491.731 79.8179 487.429 152.643 502.193 209.177C517.906 269.345 565.151 337.105 530.756 388.912C495.29 442.333 411.702 421.892 349.82 438.691C307.503 450.178 268.564 461.961 225.809 471.694C155.839 487.622 75.8117 620.886 25.9896 569.239C-25.4227 515.944 47.0953 373.681 61.1153 300.969C68.6058 262.121 69.933 224.612 83.0044 187.27C97.4469 146.012 104.177 96.9476 140.856 73.1681C178.002 49.0865 226.08 69.4292 270.208 65.9049Z" fill="url(#paint0_linear)"/>
<defs>
<linearGradient id="paint0_linear" x1="463.886" y1="427.059" x2="149.12" y2="186.798" gradientUnits="userSpaceOnUse">
<stop stop-color="#FFCD79"/>
<stop offset="1" stop-color="#BAE29A"/>
</linearGradient>
</defs>
</svg>
