<svg width="104" height="153" viewBox="0 0 104 153" fill="none" xmlns="http://www.w3.org/2000/svg">
<path d="M85.3263 104.908C85.5022 104.843 86.72 104.478 86.9879 104.421C87.1633 103.88 87.5236 103.419 88.0055 103.117C88.278 102.947 88.5814 102.832 88.8982 102.78C89.2151 102.728 89.5392 102.739 89.8518 102.812C90.1645 102.886 90.4595 103.02 90.72 103.208C90.9804 103.396 91.2011 103.633 91.3694 103.907C91.458 104.054 91.5323 104.209 91.5913 104.37C93.3802 104.76 94.8605 105.647 95.713 106.935C95.9452 107.292 96.1273 107.679 96.2542 108.086C97.6912 112.559 92.6089 116.204 88.8282 117.016C86.826 117.403 84.7683 117.403 82.7661 117.016C75.6162 115.75 68.0061 111.604 65.3594 104.478L68.0115 97.5879C73.9951 100.465 76.8637 104.554 85.3263 104.908Z" fill="#FDEFE5"/>
<path d="M22.6179 108.705C22.4311 108.705 21.1673 108.857 20.8967 108.908C20.5255 108.475 20.0124 108.187 19.4488 108.096C19.1309 108.047 18.8064 108.062 18.4941 108.139C18.1818 108.216 17.8878 108.354 17.6292 108.545C17.3705 108.736 17.1523 108.977 16.9871 109.253C16.8219 109.529 16.713 109.835 16.6668 110.153C16.6411 110.322 16.633 110.494 16.6424 110.665C15.1621 111.723 14.1337 113.13 13.855 114.64C13.7754 115.06 13.7554 115.489 13.7954 115.915C14.2284 120.591 20.3365 121.963 24.1226 121.214C26.1166 120.781 28.0098 119.972 29.7002 118.829C35.7812 114.862 41.164 108.08 40.7959 100.475L35.654 95.1738C31.3023 100.178 30.2739 105.06 22.6179 108.705Z" fill="#FDEFE5"/>
<path d="M41.6327 150.49L47.0967 150.595C48.9099 150.63 50.4119 148.971 50.4525 146.901L50.5228 143.312L41.3621 145.183C40.2417 145.41 39.4136 146.514 39.3892 147.816C39.3621 149.266 40.3635 150.465 41.6327 150.49Z" fill="#FDEFE5"/>
<path d="M37.3203 128.379C37.3203 128.379 40.6409 143.577 42.5488 146.016C42.5488 146.016 48.1211 147.91 50.2996 146.167L52.0614 129.816L37.3203 128.379Z" fill="#FDEFE5"/>
<path d="M69.3238 151.469L63.8598 151.361C62.0466 151.326 60.6123 149.615 60.6501 147.54L60.7205 143.951L69.8028 146.176C70.9123 146.446 71.6972 147.583 71.6701 148.882C71.643 150.335 70.5876 151.491 69.3238 151.466" fill="#FDEFE5"/>
<path d="M53.5908 130.52C53.5908 130.52 59.071 145.044 60.8707 147.48C60.8707 147.48 67.3116 148.335 69.3711 146.603L65.7988 130.52H53.5908Z" fill="#FDEFE5"/>
<path d="M72.3746 106.979C71.4646 104.371 70.3535 101.838 69.0513 99.4018C68.9052 99.1311 67.7577 96.5304 67.4032 96.2246H53.0599V96.6089H37.6883C37.3338 96.5088 36.1863 99.1014 36.0402 99.3801C34.7381 101.816 33.627 104.35 32.7169 106.958C31.373 110.851 30.9977 115.013 31.6235 119.085C32.2216 122.781 33.729 126.289 36.3298 129.038C40.5164 133.468 46.2591 133.98 51.9856 133.91C58.0747 134.064 64.3072 133.793 68.7645 129.073C70.7431 126.942 72.1743 124.362 72.9348 121.555C74.2744 116.822 73.9524 111.537 72.3746 106.979Z" fill="#FDEFE5"/>
<path d="M76.0248 118.107C79.0718 124.931 76.448 129.262 74.7552 130.574C51.9026 143.697 48.3054 118.107 49.3634 103.672L63.1657 101.703C64.2237 104.109 72.9777 111.283 76.0248 118.107Z" fill="#323337"/>
<path d="M35.3753 104.966C35.949 102.733 37.9422 101.134 41.5132 101.112L52.5668 101.047L64.1195 101.439C67.4554 101.627 69.5519 106.134 70.0709 108.233C71.2478 112.992 73.4899 114.965 73.4899 120.906C73.4899 129.552 72.9074 133.36 68.9313 134.493C64.9553 135.626 39.7184 135.336 35.3753 133.579C31.0322 131.823 30.1836 125.93 30.1836 122.343C30.1836 119.687 31.9563 110.976 35.3753 104.966Z" fill="#E23D32"/>
<path d="M50.9725 107.718C53.5752 107.718 55.6852 105.477 55.6852 102.712C55.6852 99.9466 53.5752 97.7051 50.9725 97.7051C48.3697 97.7051 46.2598 99.9466 46.2598 102.712C46.2598 105.477 48.3697 107.718 50.9725 107.718Z" fill="#FDEFE5"/>
<path d="M50.8055 107.753C48.3461 108.19 41.3741 104.799 42.8487 100.954C43.5815 97.9538 47.4002 99.9798 48.3528 101.387C49.1148 102.512 51.0709 105.245 51.8861 105.869C52.6824 106.231 53.2648 107.316 50.8055 107.753Z" fill="#F06057"/>
<path d="M53.3188 107.839C55.812 107.731 61.9377 102.9 59.7133 99.4618C58.3862 96.6883 55.0655 99.4996 54.4206 101.082C53.9047 102.348 52.5487 105.445 51.8788 106.232C51.174 106.759 50.8256 107.947 53.3188 107.839Z" fill="#F06057"/>
<path fill-rule="evenodd" clip-rule="evenodd" d="M59.7133 110.963L56.2828 111.247L56.9358 122.323L60.3664 122.039L59.7133 110.963ZM51.6412 111.632L55.0718 111.347L55.4811 118.29C55.626 120.749 54.0901 122.639 51.9771 122.814C49.8846 122.987 48.1684 121.398 47.9932 118.974L47.9883 118.9L47.5798 111.969L51.0103 111.684L51.4165 118.574C51.4306 118.812 51.4811 118.957 51.5401 119.024C51.5765 119.065 51.6332 119.086 51.747 119.077C51.8664 119.067 51.9314 119.03 51.9705 118.974C52.0231 118.898 52.0569 118.758 52.0484 118.545L52.0467 118.511L51.6412 111.632ZM46.3742 112.07L42.9437 112.355L43.1567 115.971L42.5705 116.02L42.3572 112.403L38.9268 112.688L39.5797 123.764L43.0101 123.479L42.7908 119.757L43.3771 119.709L43.5966 123.431L47.0271 123.146L46.3742 112.07ZM45.6817 112.97L46.2356 122.367L44.2884 122.528L44.069 118.807L41.9993 118.978L42.2187 122.7L40.2715 122.862L39.7175 113.464L41.6647 113.303L41.878 116.919L43.9477 116.748L43.7344 113.131L45.6817 112.97ZM54.3806 112.25L52.4332 112.411L52.7896 118.456C52.8148 118.883 52.7333 119.238 52.5573 119.493C52.3843 119.744 52.1242 119.89 51.8024 119.917C51.481 119.944 51.2116 119.841 51.0163 119.621C50.8257 119.407 50.7093 119.085 50.6785 118.677L50.6755 118.631L50.319 112.586L48.3718 112.748L48.7313 118.846C48.8487 120.837 50.2141 122.118 51.9237 121.976C53.6208 121.835 54.8327 120.364 54.7431 118.407L54.74 118.347L54.3806 112.25ZM57.0748 112.024L59.022 111.863L59.5761 121.26L57.6288 121.421L57.0748 112.024Z" fill="#FFAEA9"/>
<path d="M46.0177 105.238C46.4255 105.238 46.7576 105.448 46.7713 105.711L46.7717 105.728V115.661C46.7717 115.931 46.4341 116.15 46.0177 116.15C45.6099 116.15 45.2778 115.94 45.2641 115.677L45.2637 115.661V105.728C45.2637 105.457 45.6013 105.238 46.0177 105.238Z" fill="#CC2217"/>
<path d="M46.0173 115.367C46.2877 115.367 46.5081 115.513 46.5196 115.696L46.52 115.711V116.582C46.52 116.772 46.295 116.926 46.0173 116.926C45.747 116.926 45.5265 116.78 45.5151 116.597L45.5146 116.582V115.711C45.5146 115.521 45.7397 115.367 46.0173 115.367Z" fill="#FFAB49"/>
<path d="M55.9457 105.238C56.2855 105.238 56.5624 105.449 56.5737 105.713L56.5741 105.73V117.217C56.5741 117.489 56.2928 117.709 55.9457 117.709C55.6059 117.709 55.3291 117.498 55.3177 117.234L55.3174 117.217V105.73C55.3174 105.458 55.5987 105.238 55.9457 105.238Z" fill="#CC2217"/>
<path d="M55.9457 116.67C56.2836 116.67 56.5593 116.826 56.5735 117.022L56.5741 117.038V118.12C56.5741 118.324 56.2928 118.489 55.9457 118.489C55.6078 118.489 55.3322 118.332 55.318 118.136L55.3174 118.12V117.038C55.3174 116.835 55.5987 116.67 55.9457 116.67Z" fill="#FFAB49"/>
<path d="M37.7333 126.895C38.3492 125.789 40.7481 125.09 43.4847 125.219L50.4148 125.547L61.1821 126.055C61.7508 126.082 62.3249 126.143 62.7874 126.301C63.7498 126.631 65.3563 127.424 65.8392 129.129C66.5437 131.616 65.7133 131.976 65.7133 131.976C65.7133 131.976 57.2971 132.374 50.128 132.035C42.9589 131.696 35.6935 130.558 35.6935 130.558L37.2417 127.778L37.7333 126.895Z" fill="#CC2217"/>
<path d="M31.3081 100.44C35.0235 98.6552 39.2043 100.545 40.9743 101.365L33.7579 109.777L24.5672 104.036C25.2828 103.795 25.674 104.013 25.9697 103.757C26.9651 102.898 28.4438 101.815 31.3081 100.44Z" fill="#D13227"/>
<path d="M24.7706 103.927L29.5594 106.763L34.4117 109.47L33.0883 110.544L28.9614 108.282L23.0114 104.454L24.7706 103.927Z" fill="#E23F34"/>
<path d="M23.1474 105.673L27.8806 108.36L32.2898 110.92L31.8904 112.866L29.4193 111.687C29.4193 111.687 27.1996 111.515 25.8506 109.788C24.5016 108.061 22.2739 106.483 22.2739 106.483L23.1474 105.673Z" fill="#D13227"/>
<path d="M23.0107 104.455L28.6939 107.973L33.3126 110.355L31.8273 111.725L27.2898 108.962L23.1563 105.707L23.0107 104.455Z" fill="#B62C23"/>
<path d="M73.2122 100.004C69.1071 97.9776 64.8008 101.339 63.0637 102.305L70.9006 110.625L79.7257 103.896C78.9484 103.623 78.5693 103.879 78.2277 103.587C77.0779 102.603 76.3769 101.566 73.2122 100.004Z" fill="#D13227"/>
<path d="M76.3749 150.979C76.3749 147.09 73.5849 143.789 69.8176 143.219L67.7148 142.9H66.7474C66.7474 142.9 66.8477 144.698 63.5885 144.698C60.3291 144.698 59.8778 142.9 59.8778 142.9H59.4665C59.2391 142.9 59.0547 143.089 59.0547 143.321V150.509C59.0547 151.089 59.5156 151.56 60.0842 151.56H75.8058C76.1201 151.56 76.3749 151.3 76.3749 150.979Z" fill="#3B3F45"/>
<path d="M68.0852 141.475C68.1231 142.052 68.5742 142.902 68.795 143.254C68.5584 143.767 67.9243 144.794 67.2808 144.794C66.4763 144.794 66.287 142.87 66.3817 142.533C66.4763 142.196 68.0379 140.753 68.0852 141.475Z" fill="#3B3F45"/>
<mask id="mask0" style="mask-type:alpha" maskUnits="userSpaceOnUse" x="59" y="142" width="18" height="10">
<path fill-rule="evenodd" clip-rule="evenodd" d="M76.374 150.893C76.374 146.51 72.829 142.957 68.4561 142.957H67.6894H65.5183H63.3472H61.176H59.0049V150.446C59.0049 151.017 59.4671 151.481 60.0373 151.481H75.7875C76.1114 151.481 76.374 151.218 76.374 150.893Z" fill="white"/>
</mask>
<g mask="url(#mask0)">
<path d="M69.7307 147.297L71.1061 148.007L69.6342 150.869L68.2588 150.159L69.7307 147.297Z" fill="#666E79"/>
<path d="M67.7042 146.213L69.0803 146.922L67.3166 150.36L65.9404 149.651L67.7042 146.213Z" fill="#666E79"/>
<path d="M65.715 145.021L67.0967 145.72L64.658 150.567L63.2764 149.869L65.715 145.021Z" fill="#666E79"/>
<path d="M74.3582 146.098C75.6605 145.324 75.1498 146.857 76.3199 147.508L78.7978 152.498H59.0778C58.596 151.775 56.8551 148.025 58.241 147.508C60.7866 146.559 65.2726 149.84 67.131 149.732C68.9894 149.624 74.3094 150.437 73.9969 148.701C73.6355 146.694 73.1709 146.803 74.3582 146.098Z" fill="#555D65"/>
</g>
<path d="M68.786 142.704L68.8003 142.693C68.9348 142.588 69.1296 142.611 69.2355 142.744C69.3414 142.878 69.3182 143.072 69.1837 143.177L69.1408 143.209C69.0315 143.291 68.7838 143.473 68.6899 143.545L68.6785 143.554C68.5264 143.673 68.4027 143.784 68.3072 143.889L68.2903 143.908L70.7633 143.178C71.0285 143.1 71.2534 143.378 71.1257 143.617L71.1181 143.63L70.36 144.9L72.7135 144.096C72.9893 144.002 73.2284 144.303 73.0802 144.546L73.0717 144.559L71.7287 146.55C71.6334 146.691 71.4409 146.729 71.2988 146.634C71.1615 146.543 71.1213 146.361 71.2045 146.222L71.2139 146.207L72.044 144.976L69.7643 145.755C69.4965 145.846 69.2587 145.564 69.3893 145.32L69.3969 145.307L70.1815 143.992L67.8405 144.683C67.6472 144.74 67.4532 144.601 67.4428 144.404L67.4424 144.388C67.4424 143.893 67.7437 143.501 68.2954 143.07L68.3344 143.04C68.4594 142.945 68.7117 142.76 68.786 142.704Z" fill="#7F8389"/>
<path d="M30.1836 118.945C34.9079 119.47 38.7136 106.916 40.0259 100.573C39.3698 100.136 37.795 99.3919 36.7452 99.9169C35.6953 100.442 32.3708 110.197 30.8397 115.008C30.621 115.883 30.1836 117.896 30.1836 118.945Z" fill="#564138"/>
<path d="M72.4369 115.007C70.4566 116.049 66.9518 106.225 65.4666 101.228C65.1365 100.794 64.1794 100.185 62.9912 101.228C62.9912 109.702 72.8927 121.349 73.3878 119.393C73.7838 117.829 72.932 116.093 72.4369 115.007Z" fill="#564138"/>
<path d="M33.5654 151.518C33.5654 147.629 36.3555 144.328 40.1228 143.758L42.2255 143.439H43.1929C43.1929 143.439 43.0926 145.237 46.3519 145.237C49.6111 145.237 50.0624 143.439 50.0624 143.439H50.4738C50.7012 143.439 50.8856 143.628 50.8856 143.861V151.048C50.8856 151.628 50.4247 152.1 49.8561 152.1H34.1346C33.8203 152.1 33.5654 151.839 33.5654 151.518Z" fill="#3B3F45"/>
<path d="M41.8514 142.014C41.8135 142.591 41.3624 143.441 41.1416 143.793C41.3782 144.306 42.0123 145.333 42.6558 145.333C43.4603 145.333 43.6496 143.409 43.5549 143.072C43.4603 142.735 41.8987 141.292 41.8514 142.014Z" fill="#3B3F45"/>
<mask id="mask1" style="mask-type:alpha" maskUnits="userSpaceOnUse" x="33" y="143" width="18" height="10">
<path fill-rule="evenodd" clip-rule="evenodd" d="M33.5654 151.43C33.5654 147.047 37.1104 143.494 41.4834 143.494H42.25H44.4212H46.5923H48.7635H50.9346V150.983C50.9346 151.554 50.4723 152.018 49.9021 152.018H34.152C33.828 152.018 33.5654 151.755 33.5654 151.43Z" fill="white"/>
</mask>
<g mask="url(#mask1)">
<path d="M40.2055 147.838L41.6773 150.7L40.3019 151.41L38.8301 148.548L40.2055 147.838Z" fill="#666E79"/>
<path d="M42.2355 146.754L43.9993 150.192L42.6232 150.901L40.8594 147.463L42.2355 146.754Z" fill="#666E79"/>
<path d="M44.2215 145.562L46.6602 150.41L45.2785 151.108L42.8398 146.261L44.2215 145.562Z" fill="#666E79"/>
<path d="M35.5792 146.639C34.277 145.865 34.7877 147.398 33.6176 148.049L31.1396 153.039H50.8596C51.3415 152.316 53.0824 148.566 51.6965 148.049C49.1509 147.1 44.6649 150.382 42.8065 150.273C40.948 150.165 35.6282 150.978 35.9406 149.242C36.3019 147.235 36.7666 147.344 35.5792 146.639Z" fill="#555D65"/>
</g>
<path d="M40.7026 143.283C40.8047 143.155 40.9895 143.129 41.1232 143.221L41.3071 143.358C41.428 143.447 41.5778 143.558 41.6427 143.609L41.7103 143.662C42.2189 144.073 42.4957 144.453 42.4957 144.927C42.4957 145.127 42.3068 145.272 42.1136 145.226L42.0975 145.222L39.7566 144.531L40.5412 145.846C40.6856 146.088 40.4553 146.377 40.1887 146.299L40.1739 146.294L37.8939 145.515L38.7242 146.746C38.8162 146.882 38.784 147.065 38.6536 147.163L38.6393 147.173C38.502 147.265 38.3178 147.233 38.2195 147.103L38.2093 147.089L36.8663 145.098C36.704 144.857 36.9352 144.551 37.2095 144.631L37.2245 144.635L39.5781 145.439L38.8201 144.169C38.6789 143.933 38.8963 143.648 39.1599 143.713L39.1749 143.717L41.6477 144.447L41.6309 144.428C41.5421 144.33 41.4292 144.227 41.2917 144.118L41.2595 144.093C41.1622 144.017 40.818 143.766 40.7544 143.716C40.6199 143.611 40.5967 143.417 40.7026 143.283Z" fill="#7F8389"/>
<path d="M41.879 142.014C41.8453 142.591 41.4443 143.441 41.248 143.793C41.4584 144.306 42.022 145.333 42.594 145.333C43.3091 145.333 43.4774 143.409 43.3932 143.072C43.3091 142.735 41.921 141.292 41.879 142.014Z" fill="#3B3F45"/>
<mask id="mask2" style="mask-type:alpha" maskUnits="userSpaceOnUse" x="33" y="143" width="18" height="10">
<path fill-rule="evenodd" clip-rule="evenodd" d="M33.5654 151.43C33.5654 147.047 37.1187 143.494 41.5019 143.494H42.2703H44.4466H46.6228H48.7991H50.9752V150.983C50.9752 151.554 50.5119 152.018 49.9404 152.018H34.1534C33.8286 152.018 33.5654 151.755 33.5654 151.43Z" fill="white"/>
</mask>
<g mask="url(#mask2)">
<path d="M40.2243 147.838L41.6996 150.7L40.3209 151.41L38.8457 148.548L40.2243 147.838Z" fill="#666E79"/>
<path d="M42.2573 146.754L44.0252 150.192L42.6458 150.901L40.8779 147.463L42.2573 146.754Z" fill="#666E79"/>
<path d="M44.2491 145.562L46.6935 150.41L45.3086 151.108L42.8643 146.261L44.2491 145.562Z" fill="#666E79"/>
<path d="M35.5857 146.639C34.2804 145.865 34.7923 147.398 33.6195 148.049L31.1357 153.039H50.9019C51.3849 152.316 53.1299 148.566 51.7407 148.049C49.1892 147.1 44.6927 150.382 42.8299 150.273C40.9671 150.165 35.6348 150.978 35.948 149.242C36.3101 147.235 36.7758 147.344 35.5857 146.639Z" fill="#555D65"/>
</g>
<path d="M40.7228 143.283C40.8297 143.155 41.0234 143.129 41.1634 143.221L41.3561 143.358C41.4828 143.447 41.6397 143.558 41.7077 143.609L41.7785 143.662C42.3113 144.073 42.6013 144.453 42.6013 144.927C42.6013 145.127 42.4034 145.272 42.201 145.226L42.1841 145.222L39.7317 144.531L40.5538 145.846C40.705 146.088 40.4637 146.377 40.1845 146.299L40.1689 146.294L37.7803 145.515L38.6502 146.746C38.7466 146.882 38.7128 147.065 38.5763 147.163L38.5613 147.173C38.4174 147.265 38.2245 147.233 38.1215 147.103L38.1108 147.089L36.7039 145.098C36.5338 144.857 36.776 144.551 37.0634 144.631L37.0791 144.635L39.5447 145.439L38.7506 144.169C38.6028 143.933 38.8305 143.648 39.1067 143.713L39.1223 143.717L41.7129 144.447L41.6953 144.428C41.6023 144.33 41.484 144.227 41.34 144.118L41.3063 144.093C41.2043 144.017 40.8437 143.766 40.7771 143.716C40.6362 143.611 40.6119 143.417 40.7228 143.283Z" fill="#7F8389"/>
<path d="M34.4017 50.1241C33.0134 36.5927 36.8373 17.3349 44.1443 5.87382C45.354 3.97942 46.745 2.08503 48.7449 1.04853C49.7971 0.527836 50.9351 0.202324 52.1034 0.087798C55.351 -0.280255 58.7636 0.504564 61.3048 2.52345C63.846 4.54233 65.4183 7.88187 65.0124 11.1186C64.5929 14.5799 62.1789 17.3782 60.068 20.1359C55.5998 25.992 52.1523 32.5604 49.8708 39.5642C49.5704 40.4844 49.2781 41.437 48.661 42.1812C48.044 42.9254 47.1834 43.3828 46.3364 43.8293L34.4017 50.1241Z" fill="#FDEFE5"/>
<path d="M52.7831 44.484C54.8452 38.5491 57.7518 30.8579 60.5041 25.2099C63.481 19.1208 67.1669 12.8936 73.1992 9.81931C77.4562 7.65429 82.8417 7.39719 86.9065 9.90591C90.9713 12.4146 93.1688 17.9273 91.2365 22.2979C90.2569 24.5198 88.4112 26.2302 86.5114 27.7403C82.8958 30.617 78.9203 33.0175 75.3128 35.9024C71.7053 38.7873 68.4037 42.273 66.7339 46.5814C66.5553 47.036 66.3659 47.5394 65.922 47.7721C65.4782 48.0049 64.9369 47.8804 64.4525 47.7451L52.7695 44.4975" fill="#FDEFE5"/>
<path d="M66.2713 26.5759C76.7698 27.6258 80.2693 46.698 80.7067 54.7906C61.8095 51.6411 35.2133 50.8537 24.2773 52.166C24.4961 47.3542 25.9833 36.0246 30.1827 29.2006C45.9305 22.639 53.1482 25.2636 66.2713 26.5759Z" fill="#CAB18C"/>
<path d="M0 71.8494C0 83.9227 16.6226 89.1282 24.9339 90.2218C40.6817 101.377 70.8648 88.9094 78.7387 85.6286C86.6126 82.3478 82.6756 79.7232 95.1426 80.3793C107.61 81.0355 103.016 71.8494 103.016 67.2563C103.016 62.6633 61.0225 43.6347 51.1801 47.5717C41.3378 51.5086 36.7447 50.1963 21.6531 50.1963C6.56156 50.1963 0 56.7579 0 71.8494Z" fill="#CAB18C"/>
<path d="M80.7076 53.8055C75.021 51.1809 62.4665 45.9316 57.7422 45.9316C59.7107 47.9001 72.1776 53.8055 80.7076 53.8055Z" fill="#B49A72"/>
<path d="M40.6813 49.8686H24.9336C27.5582 48.9937 34.1198 47.244 39.369 47.244C45.9306 47.244 53.8044 45.9316 57.7414 45.9316C56.4291 47.244 47.2429 49.8686 40.6813 49.8686Z" fill="#B49A72"/>
<path d="M28.8715 58.6625C28.8715 58.6625 43.4213 50.048 62.3355 53.8071C81.2496 57.5661 99.7364 87.5329 69.1583 98.448C36.5883 111.481 15.8447 89.7527 18.6213 77.6097C18.6213 62.5991 28.8715 58.6625 28.8715 58.6625Z" fill="#FDEFE5"/>
<path d="M48.4577 78.8187C48.4577 78.8187 52.8824 76.4697 55.5075 78.2775C58.1326 80.0852 53.5725 83.6684 51.9894 82.8402C50.4062 82.0121 48.3197 80.8917 48.4577 78.8187Z" fill="#4B2D16"/>
<path d="M27.4398 83.5196C27.4398 83.5196 33.2474 79.0949 35.1824 81.4466C37.1174 83.7984 34.4923 89.1893 30.2056 88.4829C25.9188 87.7766 27.4398 83.5196 27.4398 83.5196Z" fill="#F1A295"/>
<path d="M71.1308 83.6548C73.5745 83.6548 75.5556 82.0142 75.5556 79.9905C75.5556 77.9667 73.5745 76.3262 71.1308 76.3262C68.6871 76.3262 66.7061 77.9667 66.7061 79.9905C66.7061 82.0142 68.6871 83.6548 71.1308 83.6548Z" fill="#F1A295"/>
<path d="M38.1233 80.27C40.1276 80.27 41.7524 78.6451 41.7524 76.6408C41.7524 74.6365 40.1276 73.0117 38.1233 73.0117C36.119 73.0117 34.4941 74.6365 34.4941 76.6408C34.4941 78.6451 36.119 80.27 38.1233 80.27Z" fill="#4B2D16"/>
<path d="M63.7229 79.7993C65.7466 79.7993 67.3872 78.1587 67.3872 76.135C67.3872 74.1113 65.7466 72.4707 63.7229 72.4707C61.6992 72.4707 60.0586 74.1113 60.0586 76.135C60.0586 78.1587 61.6992 79.7993 63.7229 79.7993Z" fill="#4B2D16"/>
<path d="M48.4482 87.7918C48.4482 87.7918 51.0706 90.4385 52.3778 86.5469C52.3778 86.5469 54.1233 90.6767 57.5792 88.5441" stroke="#4B2D16" stroke-miterlimit="10"/>
<path d="M48.2429 113.559C41.4189 110.934 26.1523 94.0926 19.3721 86C21.9967 96.4985 41.0252 112.246 46.9306 114.871C52.836 117.495 50.2114 124.057 51.5237 133.899C56.7729 143.086 56.1168 132.587 54.8045 127.994C53.4922 123.401 54.1483 117.62 60.0537 115.527C76.8513 113.427 83.2379 95.8423 84.3315 87.3123C81.0507 95.1862 71.6021 111.459 60.0537 113.559C45.6183 116.183 58.7414 139.805 54.1483 136.524C49.5552 133.243 56.7729 116.839 48.2429 113.559Z" fill="black"/>
<path fill-rule="evenodd" clip-rule="evenodd" d="M50.4461 121.147C50.4821 121.143 50.5186 121.141 50.5557 121.141H55.1172C55.6695 121.141 56.1172 121.588 56.1172 122.141V123.421C56.1172 123.974 55.6695 124.421 55.1172 124.421H50.5557C50.5186 124.421 50.4821 124.419 50.4461 124.415C50.423 124.419 50.3995 124.421 50.3759 124.421C50.2567 124.421 50.1434 124.371 50.0412 124.279C49.7503 124.104 49.5557 123.786 49.5557 123.421V122.781V122.141C49.5557 121.776 49.7503 121.458 50.0412 121.283C50.1434 121.191 50.2567 121.141 50.3759 121.141C50.3995 121.141 50.423 121.143 50.4461 121.147Z" fill="black"/>
</svg>
