<svg width="106" height="130" viewBox="0 0 106 130" fill="none" xmlns="http://www.w3.org/2000/svg">
<path d="M56.4502 101.932C56.4502 101.932 70.3124 114.445 73.195 116.32C73.195 116.32 80.3459 114.081 81.4951 111.206C81.4951 111.206 77.7043 109.911 76.4861 106.569C75.0063 102.509 74.1478 94.2495 74.1478 94.2495L56.4502 101.932Z" fill="#C79D72"/>
<path d="M53.8438 100.095C53.8438 100.095 47.8078 115.122 46.2368 117.754C46.2368 117.754 40.6145 118.677 38.8168 116.806L40.6951 98.7695L53.8438 100.095Z" fill="#C79D72"/>
<path d="M34.9538 65.8782C35.6341 63.0164 37.9972 60.9666 42.2307 60.9395L55.3354 60.8555L69.0318 61.3574C72.9867 61.5985 75.4722 67.3745 76.0875 70.0639C77.4828 76.1624 80.1409 78.6916 80.1409 86.3039C80.1409 97.3846 79.4504 102.264 74.7365 103.716C70.0227 105.168 40.1029 104.795 34.9538 102.544C29.8049 100.294 28.7988 92.7419 28.7988 88.1459C28.7988 84.7428 30.9005 73.5798 34.9538 65.8782Z" fill="#BAE29A"/>
<rect width="15.3521" height="21.2265" rx="7.67604" transform="matrix(0.99983 -0.0184653 0.016495 0.999864 47.4727 48.6699)" fill="#C79D72"/>
<path d="M54.2494 70.4645C51.27 71.006 42.8234 66.8015 44.6099 62.0331C45.4976 58.3128 50.124 60.8253 51.278 62.5699C52.2013 63.9656 54.571 67.3544 55.5586 68.1282C56.5233 68.5768 57.2289 69.9229 54.2494 70.4645Z" fill="#6DA77F"/>
<path d="M57.2969 70.5666C60.3174 70.4326 67.7386 64.4416 65.0438 60.1777C63.436 56.7382 59.4129 60.2245 58.6317 62.187C58.0067 63.7571 56.364 67.5978 55.5524 68.574C54.6985 69.2274 54.2764 70.7006 57.2969 70.5666Z" fill="#6DA77F"/>
<path fill-rule="evenodd" clip-rule="evenodd" d="M67.428 74.4453L62.8787 74.7979L63.7445 88.5337L68.2941 88.1808L67.428 74.4453ZM56.7229 75.2741L61.2723 74.9212L61.8151 83.531C62.0073 86.5805 59.9705 88.9239 57.1684 89.1413C54.3934 89.3564 52.1175 87.3858 51.8851 84.3792L51.8787 84.2878L51.337 75.6918L55.8862 75.3389L56.4249 83.8831C56.4436 84.1788 56.5106 84.3586 56.5888 84.4408C56.6371 84.4918 56.7123 84.5186 56.8632 84.5068C57.0215 84.4945 57.1078 84.449 57.1596 84.3788C57.2293 84.2845 57.2742 84.1112 57.2629 83.8471L57.2606 83.8046L56.7229 75.2741ZM49.7377 75.817L45.1883 76.1698L45.4708 80.6543L44.6934 80.7147L44.4106 76.23L39.8613 76.5828L40.7272 90.3184L45.2764 89.9655L44.9855 85.35L45.7631 85.2896L46.0541 89.9054L50.6035 89.5525L49.7377 75.817ZM48.8199 76.9349L49.5545 88.5884L46.9722 88.7887L46.6813 84.1732L43.9366 84.386L44.2276 89.0016L41.6452 89.202L40.9106 77.5483L43.4929 77.348L43.7757 81.8326L46.5203 81.6198L46.2375 77.1351L48.8199 76.9349ZM60.3547 76.0418L57.7722 76.2421L58.2448 83.7385C58.2783 84.2686 58.1702 84.7088 57.9367 85.0247C57.7073 85.3352 57.3625 85.5174 56.9357 85.5506C56.5095 85.5837 56.1522 85.4564 55.8932 85.1834C55.6405 84.9174 55.4861 84.5184 55.4453 84.0126L55.4412 83.9559L54.9685 76.4594L52.3862 76.6599L52.8629 84.2217C53.0186 86.6909 54.8293 88.2798 57.0965 88.104C59.3472 87.9294 60.9542 86.1045 60.8355 83.6774L60.8314 83.6037L60.3547 76.0418ZM63.9279 75.7612L66.5101 75.5609L67.2449 87.2143L64.6626 87.4146L63.9279 75.7612Z" fill="#19634A"/>
<path d="M48.4496 67.3438C48.9436 67.3438 49.346 67.6043 49.3626 67.9298L49.3631 67.9506V80.2686C49.3631 80.6038 48.9541 80.8755 48.4496 80.8755C47.9556 80.8755 47.5532 80.615 47.5367 80.2895L47.5361 80.2686V67.9506C47.5361 67.6155 47.9451 67.3438 48.4496 67.3438Z" fill="#6DA77F"/>
<path d="M48.4498 79.9082C48.7773 79.9082 49.0444 80.089 49.0583 80.3158L49.0588 80.3343V81.4153C49.0588 81.6506 48.7862 81.8413 48.4498 81.8413C48.1223 81.8413 47.8552 81.6605 47.8414 81.4337L47.8408 81.4153V80.3343C47.8408 80.099 48.1135 79.9082 48.4498 79.9082Z" fill="#FFAB49"/>
<path d="M60.4771 67.3438C60.8888 67.3438 61.2241 67.6055 61.2379 67.9325L61.2383 67.9534V82.1987C61.2383 82.5354 60.8975 82.8084 60.4771 82.8084C60.0654 82.8084 59.7301 82.5466 59.7163 82.2196L59.7158 82.1987V67.9534C59.7158 67.6167 60.0566 67.3438 60.4771 67.3438Z" fill="#6DA77F"/>
<path d="M60.4771 81.5195C60.8865 81.5195 61.2203 81.7135 61.2376 81.9567L61.2383 81.9765V83.3179C61.2383 83.5703 60.8975 83.7749 60.4771 83.7749C60.0677 83.7749 59.7338 83.5809 59.7165 83.3378L59.7158 83.3179V81.9765C59.7158 81.7241 60.0566 81.5195 60.4771 81.5195Z" fill="#FFAB49"/>
<path d="M38.4132 94.2012C39.1593 92.8297 42.0656 91.963 45.3809 92.1233L53.7767 92.5293L66.8212 93.16C67.5102 93.1933 68.2056 93.2683 68.7659 93.4649C69.9319 93.874 71.8781 94.8569 72.4632 96.9712C73.3166 100.055 72.3107 100.502 72.3107 100.502C72.3107 100.502 62.1145 100.995 53.4292 100.575C44.7439 100.156 35.942 98.7437 35.942 98.7437L37.8176 95.296L38.4132 94.2012Z" fill="#6DA77F"/>
<path d="M16.8533 58.6851C16.7901 58.4759 16.1967 57.1162 16.049 56.832C16.3965 56.2561 16.5368 55.5751 16.4447 54.9104C16.3906 54.5361 16.2651 54.178 16.0753 53.8565C15.8855 53.5351 15.6353 53.2568 15.339 53.0377C15.0428 52.8185 14.7064 52.6629 14.3492 52.5798C13.9921 52.4967 13.6213 52.4878 13.2583 52.5535C13.0649 52.5872 12.8751 52.6414 12.6919 52.7151C11.0359 51.4476 9.1521 50.8153 7.40985 51.0607C6.92462 51.1267 6.44959 51.2627 5.99874 51.4647C1.04229 53.6767 1.61326 61.0254 3.71327 64.9897C4.86023 67.0637 6.38432 68.8855 8.20361 70.3571C14.592 75.7039 23.8153 79.2291 31.989 76.0086L36.0332 68.2911C29.0993 65.2642 23.4236 65.9151 16.8533 58.6851Z" fill="#C79D72"/>
<path d="M30.0516 123.139C30.0516 118.689 33.0687 114.911 37.1429 114.259L39.4169 113.895H40.463C40.463 113.895 40.3546 115.952 43.8792 115.952C47.404 115.952 47.892 113.895 47.892 113.895H48.3368C48.5828 113.895 48.7822 114.11 48.7822 114.376V122.601C48.7822 123.265 48.2838 123.804 47.6689 123.804H30.667C30.3271 123.804 30.0516 123.506 30.0516 123.139Z" fill="#3B3F45"/>
<path d="M39.0135 112.262C38.9725 112.922 38.4846 113.894 38.2458 114.298C38.5017 114.885 39.1875 116.059 39.8834 116.059C40.7534 116.059 40.9581 113.857 40.8558 113.473C40.7534 113.087 39.0646 111.436 39.0135 112.262Z" fill="#3B3F45"/>
<mask id="mask0" mask-type="alpha" maskUnits="userSpaceOnUse" x="30" y="113" width="19" height="11">
<path fill-rule="evenodd" clip-rule="evenodd" d="M30.0513 123.037C30.0513 118.022 33.885 113.957 38.6141 113.957H39.4431H41.7911H44.139H46.487H48.835V122.526C48.835 123.18 48.3351 123.71 47.7184 123.71H30.6856C30.3353 123.71 30.0513 123.409 30.0513 123.037Z" fill="white"/>
</mask>
<g mask="url(#mask0)">
<path d="M37.2344 118.926L35.747 119.739L37.3388 123.013L38.8262 122.2L37.2344 118.926Z" fill="#666E79"/>
<path d="M39.4266 117.686L37.9384 118.497L39.8458 122.431L41.334 121.62L39.4266 117.686Z" fill="#666E79"/>
<path d="M41.5786 116.322L40.0844 117.121L42.7217 122.668L44.2158 121.869L41.5786 116.322Z" fill="#666E79"/>
<path d="M32.2308 117.554C30.8225 116.669 31.3748 118.423 30.1094 119.168L27.4297 124.878H48.7556C49.2766 124.05 51.1593 119.76 49.6606 119.168C46.9077 118.082 42.0563 121.837 40.0466 121.713C38.0368 121.589 32.2837 122.519 32.6215 120.533C33.0124 118.236 33.5148 118.361 32.2308 117.554Z" fill="#555D65"/>
</g>
<path d="M38.2569 113.668L38.2415 113.656C38.096 113.535 37.8853 113.562 37.7708 113.714C37.6563 113.867 37.6814 114.089 37.8269 114.209L37.8733 114.247C37.9914 114.34 38.2593 114.548 38.3609 114.63L38.3732 114.641C38.5376 114.777 38.6714 114.904 38.7747 115.024L38.793 115.045L36.1186 114.21C35.8318 114.121 35.5886 114.44 35.7267 114.712L35.7349 114.728L36.5548 116.181L34.0096 115.262C33.7113 115.154 33.4528 115.498 33.613 115.776L33.6222 115.791L35.0745 118.069C35.1776 118.231 35.3858 118.274 35.5395 118.165C35.688 118.061 35.7314 117.853 35.6415 117.693L35.6313 117.677L34.7336 116.268L37.199 117.159C37.4885 117.264 37.7458 116.941 37.6045 116.662L37.5963 116.646L36.7478 115.142L39.2794 115.932C39.4884 115.998 39.6983 115.839 39.7095 115.614L39.71 115.595C39.71 115.029 39.3841 114.58 38.7875 114.087L38.7453 114.052C38.6101 113.944 38.3373 113.732 38.2569 113.668Z" fill="#7F8389"/>
<path d="M71.3723 129.231C68.5245 125.913 68.3684 120.922 71.0047 117.5L72.4761 115.59L73.2603 114.836C73.2603 114.836 74.4957 116.448 77.1377 113.909C79.7797 111.369 78.8288 109.483 78.8288 109.483L79.1622 109.163C79.3466 108.985 79.634 109.002 79.8045 109.201L85.068 115.334C85.4929 115.829 85.4643 116.59 85.0033 117.033L72.2592 129.284C72.0044 129.529 71.6074 129.505 71.3723 129.231Z" fill="#3B3F45"/>
<path d="M71.1166 114.652C71.5092 115.175 71.7659 116.253 71.8451 116.726C72.4135 116.98 73.6807 117.362 74.2031 116.86C74.8561 116.232 73.5989 114.441 73.2754 114.227C72.9512 114.013 70.6256 113.998 71.1166 114.652Z" fill="#3B3F45"/>
<mask id="mask1" mask-type="alpha" maskUnits="userSpaceOnUse" x="69" y="108" width="17" height="22">
<path fill-rule="evenodd" clip-rule="evenodd" d="M71.3078 129.156C68.0984 125.417 68.3703 119.623 71.915 116.216L72.5364 115.619L74.2964 113.927L76.0563 112.235L77.8162 110.543L79.5762 108.852L85.0602 115.241C85.4784 115.729 85.4432 116.484 84.981 116.929L72.2138 129.201C71.9513 129.454 71.5457 129.434 71.3078 129.156Z" fill="white"/>
</mask>
<g mask="url(#mask1)">
<path d="M74.0671 120.914L73.4718 122.594L76.7646 123.891L77.36 122.211L74.0671 120.914Z" fill="#666E79"/>
<path d="M74.9141 118.413L74.3171 120.093L78.2697 121.654L78.8667 119.975L74.9141 118.413Z" fill="#666E79"/>
<path d="M75.6454 115.85L75.0358 117.525L80.57 119.764L81.1796 118.089L75.6454 115.85Z" fill="#666E79"/>
<path d="M69.4443 123.5C67.8231 123.855 69.3586 124.764 68.8869 126.23L70.532 132.416L86.5096 117.058C86.3705 116.066 85.0364 111.512 83.5348 112.15C80.7778 113.324 79.5451 119.616 77.9601 120.971C76.3751 122.326 72.6597 127.162 71.6424 125.439C70.4662 123.446 70.9226 123.177 69.4443 123.5Z" fill="#555D65"/>
</g>
<path d="M71.4599 116.248L71.4403 116.25C71.2542 116.265 71.113 116.436 71.1251 116.633C71.1371 116.83 71.2978 116.977 71.4839 116.962L71.5425 116.956C71.691 116.941 72.0249 116.902 72.154 116.891L72.1697 116.89C72.3801 116.872 72.5617 116.871 72.7162 116.886L72.7437 116.889L70.2036 118.194C69.9312 118.334 69.9531 118.747 70.2311 118.851L70.2471 118.857L71.7925 119.35L69.295 120.498C69.0023 120.633 69.0287 121.076 69.3269 121.168L69.3434 121.173L71.8911 121.825C72.0718 121.871 72.2556 121.754 72.3016 121.562C72.3459 121.377 72.2455 121.191 72.0759 121.136L72.0574 121.131L70.4825 120.727L72.9019 119.615C73.186 119.484 73.1718 119.058 72.8875 118.952L72.8714 118.946L71.2718 118.435L73.6764 117.2C73.875 117.098 73.9309 116.829 73.7948 116.652L73.7831 116.638C73.4206 116.215 72.8888 116.115 72.1257 116.178L72.0722 116.182C71.9012 116.199 71.5614 116.238 71.4599 116.248Z" fill="#7F8389"/>
<path d="M33.0837 58.9649C38.8921 57.7524 44.1277 61.9936 46.338 63.8169L34.4352 75.5821L22.426 61.6816C23.5107 61.5946 23.9869 62.0505 24.487 61.7909C26.1704 60.9174 28.6061 59.8997 33.0837 58.9649Z" fill="#6DA77F"/>
<path d="M22.542 61.6709L28.5245 67.424L35.6882 74.2589L33.8099 76.2464L27.1786 69.3913L21.9149 61.6709L22.542 61.6709Z" fill="#24936E"/>
<path d="M21.2892 62.3328L26.432 69.7688L31.9328 76.9071L30.1445 78.74L27.1153 75.4792C27.1153 75.4792 23.9832 73.8076 22.832 70.4903C21.6809 67.1729 20.0364 61.6678 20.0364 61.6678L21.2892 62.3328Z" fill="#24936E"/>
<path d="M21.914 61.6681C23.1674 61.6702 26.9075 68.8442 26.9075 68.8442L33.8456 76.1413L31.3047 77.5701L24.6077 69.7542C24.6077 69.7542 21.2887 62.995 21.2888 62.3317C21.5067 62.0485 21.6454 61.8998 21.914 61.6681Z" fill="#19634A"/>
<path d="M60.8584 83.9011C60.6635 83.8873 59.3374 83.8786 59.0522 83.901C58.7253 83.3949 58.2345 83.0266 57.666 82.8607C57.3447 82.7674 57.0078 82.7411 56.6747 82.783C56.3415 82.825 56.0187 82.9344 55.7248 83.1051C55.4309 83.2758 55.1717 83.5043 54.9622 83.7776C54.7526 84.0508 54.5969 84.3633 54.5039 84.6971C54.4557 84.8758 54.4241 85.0585 54.4096 85.2429C52.7195 86.1879 51.4783 87.5543 50.9798 89.1446C50.8456 89.5838 50.7702 90.0392 50.7558 90.4978C50.5563 95.5586 56.681 97.7876 60.7082 97.4813C62.8289 97.2748 64.8978 96.6512 66.803 95.6442C73.6391 92.1679 80.1362 85.575 80.8136 77.4053L76.229 71.085C71.0139 75.8727 69.2681 80.97 60.8584 83.9011Z" fill="#C79D72"/>
<path d="M79.6769 66.3686C77.4441 61.2062 71.0423 61.0693 68.7492 60.6381L69.7183 74.7756L82.7192 75.2102C82.2141 74.3397 81.6802 74.2892 81.586 73.7404C81.2688 71.8939 81.3982 70.3483 79.6769 66.3686Z" fill="#6DA77F"/>
<path d="M82.8486 74.9198L76.1144 74.1882L69.3473 73.274L69.9622 75.1753L75.6903 75.9896L84.2745 76.6001L82.8486 74.9198Z" fill="#24936E"/>
<path d="M84.3666 76.2171L76.2478 75.8711L69.7907 74.5831L70.362 76.942L76.9132 77.5648L83.3919 77.4323L84.3666 76.2171Z" fill="#19634A"/>
<path d="M44.8796 5.17324C44.3502 8.05023 50.0158 11.8862 50.0158 11.8862L66.0286 11.5782C66.0286 11.5782 60.102 0.0585938 57.0807 0.0585938C55.5753 0.0585938 55.5701 1.49006 55.9438 2.92647C56.049 3.33067 55.2071 3.8814 54.8982 3.60028C53.2895 2.13622 51.0973 0.51957 49.4116 0.697925C47.8096 0.867412 48.8734 2.65784 50.2264 4.30263C50.4973 4.63203 49.8766 5.43126 49.4898 5.25143C47.4417 4.29908 45.1639 3.62826 44.8796 5.17324Z" fill="#C79D72"/>
<path d="M25.3937 34.0488C26.2684 20.0243 37.8978 9.09766 51.9495 9.09766H59.7256C74.0451 9.09766 85.8747 20.2754 86.6854 34.572V34.572C87.5659 50.0996 76.1264 63.8257 60.5738 63.8245C57.3683 63.8242 54.2079 63.761 51.0647 63.6433C35.6936 63.0673 24.4363 49.4008 25.3937 34.0488V34.0488Z" fill="#C79D72"/>
<path d="M30.6215 35.0235C31.3431 23.4407 40.9475 14.416 52.5528 14.416H58.9165C70.7429 14.416 80.5126 23.648 81.1815 35.4554V35.4554C81.9078 48.2773 72.4621 59.612 59.6196 59.6096C56.9903 59.6091 54.3978 59.5573 51.8194 59.4608C39.1268 58.986 29.8317 47.7004 30.6215 35.0235V35.0235Z" fill="#EDD49B"/>
<path d="M66.5445 49.1324C66.5445 54.6265 62.0049 57.6174 56.4051 57.6174C50.8052 57.6174 46.2656 54.6265 46.2656 49.1324C46.2656 43.6383 50.8052 38.3066 56.4051 38.3066C62.0049 38.3066 66.5445 43.6383 66.5445 49.1324Z" fill="#B19574"/>
<rect x="55.7871" y="44.3281" width="1.42682" height="6.54175" rx="0.713409" fill="#09060D"/>
<path d="M51.9678 48.6191C54.1164 50.8779 58.8913 50.8779 61.0399 48.6191" stroke="#09060D" stroke-width="2.5" stroke-linecap="round"/>
<path d="M60.6957 43.5545C60.6957 45.1906 58.8153 46.5168 56.4958 46.5168C54.1763 46.5168 52.2959 45.1906 52.2959 43.5545C52.2959 41.9184 54.1763 39.8711 56.4958 39.8711C58.8153 39.8711 60.6957 41.9184 60.6957 43.5545Z" fill="#09060D"/>
<ellipse cx="58.4555" cy="42.3699" rx="0.559998" ry="0.592529" fill="white"/>
<path fill-rule="evenodd" clip-rule="evenodd" d="M31.5006 30.1092C31.03 31.6762 30.7302 33.3196 30.6234 35.0187C30.282 40.4484 31.8088 45.62 34.6679 49.7816C38.2733 46.668 42.3644 44.2413 46.0907 42.1689C50.6931 39.6092 52.6996 33.3776 50.5733 28.6451C49.2628 25.7284 46.6455 24.0066 43.6681 24.5168C37.9393 25.4985 34.4905 27.3779 31.5006 30.1092Z" fill="#AA6C56"/>
<path fill-rule="evenodd" clip-rule="evenodd" d="M79.6112 28.4274C80.4942 30.6113 81.0395 32.9722 81.181 35.4475C81.4665 40.4431 80.1931 45.2106 77.7692 49.1584C74.3503 46.3409 70.5592 44.1008 67.0851 42.1687C62.4828 39.6091 60.4763 33.3775 62.6026 28.645C63.9131 25.7284 66.5304 24.0066 69.5078 24.5168C73.9735 25.2821 77.0538 26.5928 79.6112 28.4274Z" fill="#AA6C56"/>
<ellipse cx="41.7267" cy="37.8105" rx="4.52255" ry="4.78516" fill="#09060D"/>
<ellipse cx="43.2326" cy="36.7469" rx="1.00504" ry="1.06335" fill="white"/>
<ellipse rx="4.52258" ry="4.78516" transform="matrix(-1 0 0 1 70.9667 37.8105)" fill="#09060D"/>
<ellipse rx="1.005" ry="1.06335" transform="matrix(-1 0 0 1 69.4589 36.7469)" fill="white"/>
<ellipse cx="41.7748" cy="48.9734" rx="3.01505" ry="3.19019" fill="#FFBAA0"/>
<ellipse cx="71.4232" cy="48.9735" rx="3.01505" ry="3.19031" fill="#FFBAA0"/>
<path d="M55.4856 75.5239C52.7831 77.4838 52.6468 80.9443 54.8066 83.4352L54.8916 83.5337C55.2491 83.9505 55.6489 84.4443 56.1442 85.0775L56.893 86.0453C57.3523 86.6416 57.8809 87.3295 57.9766 87.4532L58.3122 87.8859C59.1028 88.9015 59.7523 89.7072 60.415 90.4844C62.2634 92.6521 63.9575 94.2766 65.7361 95.441C68.1322 97.0098 70.6218 97.6754 73.1781 97.1446L73.2663 97.1258L71.8902 89.5219C70.6496 89.7927 68.6367 88.4748 65.8701 85.2303L65.7497 85.0884C65.1665 84.3989 64.5678 83.6512 63.8161 82.682L62.855 81.4339L62.8714 81.433C65.1619 81.2848 68.0687 81.3369 70.7867 81.5453L70.9321 81.5566L71.5772 73.814C67.7647 73.5131 63.6337 73.4858 60.6373 73.8579C58.4283 74.1322 56.7664 74.595 55.4856 75.5239Z" fill="#323337"/>
<path d="M56.3104 85.1386C57.6905 87.557 63.3777 86.2171 66.0364 85.5229L70.317 89.3095C70.2389 90.2112 70.656 93.515 68.4814 96.0321C65.7632 99.1785 58.05 96.8156 54.3653 93.4748C51.4175 90.8021 54.4338 86.8038 56.3104 85.1386Z" fill="#C79D72"/>
<path d="M93.0474 80.6576C88.3432 66.0337 81.6617 70.5026 78.2275 70.165C63.0818 72.3481 66.1612 82.0722 66.4217 86.475C66.6824 90.879 70.6495 113.344 74.6638 116.374C78.6779 119.403 98.9933 108.806 101.171 104.051C100.116 95.1463 98.159 90.7455 93.0474 80.6576Z" fill="#3F4244"/>
<path d="M75.3625 95.5819C74.3319 90.7225 73.4248 73.9271 75.2902 71.3636C64.4436 75.2848 68.3394 86.434 69.3817 95.1875C70.6085 105.491 75.8931 116.65 77.9193 117.055C79.9455 117.46 87.626 114.411 84.8389 115.367C82.0519 116.324 77.1663 104.087 75.3625 95.5819Z" fill="#37383B"/>
<path d="M81.2984 110.661L79.6233 96.5744L84.8695 96.5165C85.9553 101.229 87.846 110.945 86.7235 112.108C85.3204 113.561 81.3797 111.345 81.2984 110.661Z" fill="#37383C"/>
<path d="M97.0864 88.6662L97.0735 88.6694C92.797 88.6209 83.6231 93.4702 79.5708 95.9001C79.5391 96.3657 80.0076 97.6093 82.1341 98.8532C84.7922 100.408 84.8835 110.869 86.4985 111.516C90.1176 112.966 102.69 104.785 104.128 103.159C104.131 100.62 102.7 93.3258 101.109 90.8907C99.3073 88.1311 98.5131 88.3231 97.0864 88.6662Z" fill="#4F5256"/>
<path d="M100.227 91.6536C100.165 91.3659 99.8897 91.1881 99.6125 91.2566C95.8719 92.1807 86.2045 96.7968 84.5711 98.3114C84.3575 98.5095 84.3361 98.8482 84.5233 99.0678C84.7106 99.2875 85.0355 99.305 85.2491 99.1069C86.737 97.7272 96.251 93.1844 99.8366 92.2986C100.114 92.2301 100.288 91.9413 100.227 91.6536Z" fill="#37383B"/>
</svg>
