<svg width="264" height="167" viewBox="0 0 264 167" fill="none" xmlns="http://www.w3.org/2000/svg">
<mask id="path-1-inside-1" fill="white">
<path fill-rule="evenodd" clip-rule="evenodd" d="M241.017 123.862C251.202 111.899 257 98.1395 257 83.5C257 37.3842 199.469 0 128.5 0C57.5314 0 0 37.3842 0 83.5C0 129.616 57.5314 167 128.5 167C167.218 167 201.937 155.873 225.496 138.271L246.506 143.722L241.017 123.862Z"/>
</mask>
<path fill-rule="evenodd" clip-rule="evenodd" d="M241.017 123.862C251.202 111.899 257 98.1395 257 83.5C257 37.3842 199.469 0 128.5 0C57.5314 0 0 37.3842 0 83.5C0 129.616 57.5314 167 128.5 167C167.218 167 201.937 155.873 225.496 138.271L246.506 143.722L241.017 123.862Z" fill="white"/>
<path d="M241.017 123.862L239.495 122.566L238.807 123.373L239.09 124.395L241.017 123.862ZM225.496 138.271L225.998 136.335L225.068 136.094L224.298 136.669L225.496 138.271ZM246.506 143.722L246.004 145.658L249.356 146.528L248.434 143.189L246.506 143.722ZM255 83.5C255 97.5827 249.429 110.897 239.495 122.566L242.54 125.159C252.976 112.901 259 98.6963 259 83.5H255ZM128.5 2C163.655 2 195.389 11.263 218.273 26.1336C241.177 41.0166 255 61.3431 255 83.5H259C259 59.5412 244.057 38.1176 220.453 22.7795C196.83 7.4291 164.314 -2 128.5 -2V2ZM2 83.5C2 61.3431 15.8228 41.0166 38.7265 26.1336C61.6112 11.263 93.3453 2 128.5 2V-2C92.6861 -2 60.1702 7.4291 36.547 22.7795C12.9429 38.1176 -2 59.5412 -2 83.5H2ZM128.5 165C93.3453 165 61.6112 155.737 38.7265 140.866C15.8228 125.983 2 105.657 2 83.5H-2C-2 107.459 12.9429 128.882 36.547 144.22C60.1702 159.571 92.6861 169 128.5 169V165ZM224.298 136.669C201.144 153.969 166.865 165 128.5 165V169C167.571 169 202.73 157.777 226.693 139.874L224.298 136.669ZM247.008 141.786L225.998 136.335L224.993 140.207L246.004 145.658L247.008 141.786ZM239.09 124.395L244.578 144.255L248.434 143.189L242.945 123.329L239.09 124.395Z" fill="#564138" mask="url(#path-1-inside-1)"/>
<path d="M26.576 58.976V63.2H19.488V58.976H26.576ZM28.96 54.736V53.584H21.072C21.376 52.672 21.616 51.76 21.84 50.832L20.608 50.608C20.4 51.6 20.128 52.592 19.808 53.584H15.088V54.736H19.376C18.368 57.296 16.832 59.616 14.576 61.152C14.816 61.392 15.184 61.824 15.36 62.096C16.512 61.264 17.488 60.256 18.32 59.152V65.248H19.488V64.336H26.576V65.168H27.792V57.84H19.184C19.76 56.864 20.24 55.824 20.656 54.736H28.96ZM37.184 54.528H42.576V55.216H37.184V54.528ZM37.184 53.264H42.576V53.936H37.184V53.264ZM37.184 52H42.576V52.656H37.184V52ZM35.936 57.184H38.016C37.728 57.968 36.976 58.336 35.312 58.56C35.488 58.72 35.728 59.04 35.824 59.248C37.728 58.896 38.576 58.32 38.928 57.184H40.272V57.776C40.272 58.592 40.496 58.768 41.44 58.768H42.784C43.408 58.768 43.664 58.544 43.744 57.76C43.504 57.696 43.168 57.6 42.992 57.472C42.96 58 42.896 58.064 42.64 58.064H41.552C41.232 58.064 41.184 58.032 41.184 57.776V57.184H43.872V58.112H44.944V56.48H40.304V55.824H43.728V51.392H40.128C40.256 51.2 40.4 50.976 40.544 50.752L39.312 50.576C39.248 50.8 39.12 51.104 39.008 51.392H36.08V55.824H39.2V56.48H34.896V58.112H35.936V57.184ZM42.272 61.456C42.128 62.112 41.968 62.432 41.792 62.576C41.664 62.672 41.536 62.688 41.28 62.688C41.008 62.688 40.304 62.672 39.584 62.592C39.712 62.8 39.792 63.12 39.808 63.328C40.576 63.392 41.296 63.408 41.632 63.392C42.032 63.376 42.304 63.328 42.56 63.12C42.912 62.848 43.136 62.304 43.36 61.136C43.408 61.008 43.424 60.736 43.424 60.736H38.912C38.976 60.544 39.04 60.336 39.088 60.128H45.072V59.392H40.304V58.416H39.216V59.392H34.832V60.128H38.048C37.728 61.312 36.928 62.064 34.912 62.512C35.12 62.688 35.376 63.072 35.488 63.312C37.072 62.912 38.016 62.32 38.56 61.456H42.272ZM34.688 52.688C34.192 52.08 33.088 51.296 32.16 50.816L31.376 51.536C32.304 52.048 33.376 52.864 33.856 53.472L34.688 52.688ZM34.24 55.84C33.696 55.248 32.544 54.48 31.584 54.032L30.832 54.768C31.792 55.28 32.912 56.08 33.44 56.672L34.24 55.84ZM33.872 58H30.752V59.104H32.752V62.144C32.032 62.8 31.264 63.472 30.592 63.952L31.216 65.088C31.984 64.4 32.704 63.728 33.392 63.04C34.416 64.288 35.888 64.848 38 64.928C39.792 64.992 43.2 64.96 44.976 64.896C45.04 64.544 45.216 64.016 45.376 63.744C43.456 63.872 39.76 63.904 37.984 63.84C36.096 63.76 34.656 63.232 33.872 62.048V58ZM50.336 50.656C49.408 53.056 47.888 55.424 46.288 56.928C46.512 57.216 46.848 57.824 46.976 58.096C47.552 57.52 48.128 56.832 48.672 56.064V65.168H49.792V54.352C50.416 53.28 50.976 52.144 51.424 50.992L50.336 50.656ZM60.384 56.176C59.696 56.896 58.592 57.84 57.632 58.56C57.232 57.36 56.928 56.032 56.688 54.656H61.04V53.536H56.496V50.8H55.296V53.536H50.512V54.656H54.848C53.648 56.512 51.808 58.144 49.888 59.2C50.144 59.44 50.528 59.936 50.704 60.176C51.376 59.76 52.032 59.28 52.672 58.736V63.408C51.936 63.568 51.264 63.712 50.704 63.824L51.072 64.976C52.816 64.56 55.264 63.968 57.536 63.424L57.44 62.336C56.208 62.624 54.96 62.912 53.792 63.168V57.712C54.512 56.992 55.168 56.208 55.728 55.376C56.512 59.776 57.952 63.36 60.784 65.056C60.976 64.736 61.36 64.288 61.632 64.064C60 63.168 58.816 61.536 57.984 59.488C59.024 58.816 60.288 57.856 61.264 57.008L60.384 56.176ZM75.104 54.384V62.528H70.544V50.944H69.328V62.528H64.928V54.4H63.728V65.024H64.928V63.728H75.104V64.96H76.32V54.384H75.104ZM83.888 57.584H80.528V54.24H83.888V57.584ZM80.528 62.48V58.64H83.888V62.48H80.528ZM81.872 50.576C81.76 51.328 81.472 52.4 81.232 53.168H79.44V64.816H80.528V63.552H84.976V53.168H82.32C82.592 52.48 82.88 51.6 83.152 50.816L81.872 50.576ZM92.8 53.12H88.016C88.288 52.368 88.512 51.6 88.704 50.816L87.568 50.544C87.056 52.736 86.192 54.944 85.12 56.352C85.376 56.512 85.888 56.832 86.096 57.024C86.656 56.272 87.152 55.296 87.6 54.224H91.664C91.456 60.592 91.216 63.024 90.688 63.584C90.528 63.792 90.352 63.824 90.032 63.824C89.664 63.824 88.704 63.824 87.664 63.728C87.888 64.064 88.032 64.544 88.064 64.896C88.96 64.944 89.872 64.976 90.432 64.912C90.976 64.864 91.344 64.72 91.696 64.272C92.336 63.488 92.544 61.024 92.8 53.728V53.12ZM90.272 60.32C89.76 59.376 88.656 57.84 87.76 56.704L86.832 57.248C87.712 58.4 88.784 59.984 89.264 60.944L90.272 60.32ZM96.352 54.128H97.392V53.056H99.392V54.128H100.448V53.056H101.952V52.08H100.448V50.608H99.392V52.08H97.392V50.608H96.352V52.08H94.816V53.056H96.352V54.128ZM103.792 61.104H105.776V63.312H103.792V61.104ZM105.776 56.864H103.792V54.736H105.776V56.864ZM105.776 60.064H103.792V57.904H105.776V60.064ZM100.512 56.96H98.816V55.312H100.512V56.96ZM96.176 55.312H97.824V56.96H96.176V55.312ZM109.344 63.312H106.864V61.104H109.056V60.064H106.864V57.904H109.056V56.864H106.864V54.736H109.168V53.648H106.816C107.184 52.864 107.552 51.92 107.872 51.056L106.736 50.784C106.496 51.616 106.096 52.784 105.712 53.648H103.952C104.304 52.752 104.608 51.808 104.864 50.88L103.776 50.624C103.264 52.592 102.48 54.608 101.504 56.032V54.464H95.248V57.808H97.776V58.784H95.296V59.696H97.776V59.968C97.776 60.224 97.76 60.512 97.728 60.8H94.736V61.76H97.504C97.152 62.752 96.352 63.76 94.592 64.448C94.848 64.656 95.168 65.04 95.328 65.264C96.864 64.592 97.744 63.744 98.24 62.832C99.136 63.488 100.416 64.512 100.976 65.008L101.68 64.048C101.184 63.68 99.44 62.448 98.624 61.936L98.672 61.76H101.92V60.8H98.848C98.864 60.528 98.88 60.256 98.88 59.984V59.696H101.536V58.784H98.88V57.808H101.504V56.56C101.744 56.752 102.016 56.992 102.16 57.136C102.352 56.88 102.528 56.592 102.704 56.272V65.232H103.792V64.384H109.344V63.312ZM114.176 54.864H122.032V56.448H114.176V54.864ZM114.176 52.336H122.032V53.92H114.176V52.336ZM115.184 58.8C115.52 58.368 115.872 57.92 116.144 57.456H123.232V51.344H113.008V57.456H114.768C113.76 58.928 112.224 60.24 110.672 61.12C110.96 61.312 111.408 61.728 111.6 61.952C112.48 61.408 113.376 60.688 114.192 59.872H116.416C115.36 61.584 113.728 63.088 112.016 64.048C112.288 64.256 112.736 64.688 112.928 64.896C114.752 63.728 116.56 61.936 117.728 59.872H119.888C119.12 61.776 117.904 63.472 116.432 64.576C116.72 64.736 117.184 65.12 117.392 65.312C118.912 64.048 120.256 62.112 121.104 59.872H123.056C122.8 62.624 122.528 63.76 122.176 64.08C122.032 64.24 121.872 64.256 121.6 64.256C121.312 64.256 120.576 64.256 119.808 64.176C119.984 64.464 120.112 64.896 120.128 65.216C120.928 65.264 121.696 65.264 122.096 65.232C122.56 65.216 122.864 65.104 123.168 64.784C123.648 64.288 123.968 62.912 124.272 59.344C124.304 59.168 124.32 58.8 124.32 58.8H115.184ZM141.04 53.28V52.192H135.072V50.624H133.856V52.192H127.984V56.768C127.984 59.072 127.872 62.304 126.56 64.576C126.832 64.704 127.328 65.04 127.536 65.248C128.912 62.832 129.104 59.232 129.104 56.768V53.28H141.04ZM137.2 56.048V57.728H133.328V56.048H137.2ZM138.352 58.688V56.048H140.928V55.072H138.352V53.68H137.2V55.072H133.328V53.68H132.192V55.072H129.648V56.048H132.192V58.688H138.352ZM138.096 60.672C137.44 61.52 136.496 62.176 135.392 62.704C134.304 62.16 133.408 61.488 132.8 60.672H138.096ZM139.088 59.648L138.88 59.696H129.84V60.672H132.304L131.664 60.912C132.304 61.824 133.152 62.592 134.176 63.2C132.672 63.728 130.976 64.048 129.248 64.224C129.424 64.48 129.664 64.928 129.744 65.216C131.728 64.976 133.68 64.544 135.376 63.84C136.896 64.544 138.688 64.992 140.64 65.248C140.768 64.944 141.072 64.48 141.328 64.24C139.616 64.064 138.016 63.728 136.624 63.232C138 62.448 139.12 61.424 139.84 60.048L139.088 59.648ZM153.12 57.92C153.12 61.04 154.384 63.584 156.304 65.536L157.264 65.04C155.424 63.136 154.288 60.768 154.288 57.92C154.288 55.072 155.424 52.704 157.264 50.8L156.304 50.304C154.384 52.256 153.12 54.8 153.12 57.92ZM164.928 60.064C164.736 59.84 164.224 59.312 163.712 58.784C164.144 58.336 164.656 57.712 165.152 57.152L164.368 56.512C164.08 57.008 163.584 57.728 163.168 58.224C162.944 58 162.736 57.792 162.576 57.632C163.408 56.48 164.128 55.232 164.64 53.936L163.968 53.472L163.76 53.536H162.4V50.624H161.232V53.536H158.928V54.624H163.168C162.112 56.816 160.224 58.992 158.48 60.24C158.672 60.432 159.008 60.976 159.136 61.264C159.824 60.736 160.544 60.064 161.232 59.296V65.216H162.4V58.736C163.04 59.472 163.856 60.464 164.208 60.96L164.928 60.064ZM172.976 52.08H164.624V53.2H167.328C167.248 57.376 166.992 62 163.456 64.336C163.776 64.544 164.16 64.96 164.368 65.232C168.032 62.64 168.416 57.712 168.544 53.2H171.776C171.616 60.416 171.408 63.072 170.928 63.632C170.752 63.856 170.592 63.92 170.304 63.904C169.952 63.904 169.088 63.904 168.144 63.824C168.352 64.176 168.512 64.688 168.528 65.04C169.392 65.072 170.272 65.104 170.8 65.04C171.328 64.976 171.68 64.832 172.016 64.336C172.624 63.536 172.784 60.848 172.976 52.736V52.08ZM182.576 58.864V54.624H187.168V58.864H182.576ZM176.768 58.864V54.624H181.344V58.864H176.768ZM182.576 53.456V50.608H181.344V53.456H175.6V61.024H176.768V60.032H181.344V65.216H182.576V60.032H187.168V60.944H188.384V53.456H182.576ZM199.968 61.232V62.864H196.032V61.232H199.968ZM201.024 63.744V60.368H194.976V64.544H196.032V63.744H201.024ZM204.288 58.336H191.808V65.216H192.944V59.344H203.104V63.776C203.104 64 203.056 64.08 202.784 64.08C202.496 64.112 201.6 64.112 200.576 64.08C200.736 64.384 200.896 64.864 200.96 65.184C202.288 65.184 203.12 65.184 203.648 65.008C204.144 64.8 204.288 64.448 204.288 63.808V58.336ZM201.104 56.464H194.864V54.912H201.104V56.464ZM193.728 54.064V57.328H202.288V54.064H193.728ZM198.512 52.128V50.608H197.312V52.128H191.104V53.168H204.896V52.128H198.512ZM210.944 51.248L210.784 51.296H207.376V65.216H208.432V52.368H210.368C210.048 53.456 209.616 54.88 209.2 56.048C210.256 57.28 210.512 58.368 210.528 59.216C210.528 59.696 210.448 60.144 210.224 60.336C210.096 60.4 209.936 60.448 209.728 60.448C209.52 60.464 209.232 60.448 208.896 60.432C209.072 60.736 209.184 61.168 209.2 61.472C209.536 61.488 209.904 61.488 210.192 61.456C210.496 61.408 210.768 61.328 210.976 61.168C211.392 60.864 211.584 60.192 211.568 59.344C211.568 58.368 211.328 57.216 210.256 55.92C210.752 54.624 211.296 53.008 211.728 51.712L210.944 51.248ZM216.192 55.456C215.296 55.664 214.4 55.872 213.568 56.064V53.712H216.048V52.736H213.568V50.816H212.496V56.304C212.112 56.384 211.776 56.448 211.456 56.512L211.776 57.52C213.056 57.216 214.704 56.784 216.288 56.384L216.192 55.456ZM219.344 61.056H213.872V59.536H219.344V61.056ZM213.872 63.584V61.984H219.344V63.584H213.872ZM215.664 56.912C215.568 57.376 215.36 58 215.168 58.528H212.784V65.184H213.872V64.592H219.344V65.12H220.496V58.528H216.304C216.48 58.112 216.672 57.632 216.848 57.168L215.664 56.912ZM218.336 56.256C217.872 56.256 217.808 56.192 217.808 55.776V54.112C218.912 53.712 220.128 53.168 221.04 52.576L220.208 51.792C219.648 52.256 218.72 52.768 217.808 53.168V50.816H216.736V55.776C216.736 56.96 217.008 57.248 218.208 57.248H220C220.96 57.248 221.264 56.832 221.392 55.184C221.072 55.104 220.64 54.928 220.4 54.752C220.368 56.064 220.272 56.256 219.888 56.256H218.336ZM226.88 57.92C226.88 54.8 225.616 52.256 223.696 50.304L222.736 50.8C224.576 52.704 225.712 55.072 225.712 57.92C225.712 60.768 224.576 63.136 222.736 65.04L223.696 65.536C225.616 63.584 226.88 61.04 226.88 57.92ZM240.512 65.712C242.192 65.12 243.28 63.808 243.28 62.08C243.28 60.96 242.8 60.24 241.92 60.24C241.264 60.24 240.704 60.64 240.704 61.392C240.704 62.144 241.248 62.528 241.904 62.528C242 62.528 242.08 62.528 242.176 62.512C242.096 63.6 241.392 64.352 240.16 64.864L240.512 65.712ZM75.6 85.616L74.064 86.064V82.912H75.616V81.824H74.064V78.624H72.912V81.824H70.768V82.912H72.912V86.4C72 86.672 71.152 86.912 70.496 87.072L70.768 88.224L72.912 87.568V91.776C72.912 92.016 72.848 92.08 72.64 92.08C72.432 92.096 71.776 92.096 71.056 92.064C71.216 92.384 71.36 92.912 71.408 93.2C72.464 93.216 73.104 93.184 73.52 92.992C73.92 92.784 74.064 92.448 74.064 91.776V87.216L75.744 86.688L75.6 85.616ZM78.08 89.072H80.688V91.296H78.08V89.072ZM80.688 84.832H78.08V82.688H80.688V84.832ZM80.688 88.032H78.08V85.856H80.688V88.032ZM85.312 91.296H81.776V89.072H84.656V88.032H81.776V85.856H84.656V84.832H81.776V82.688H85.04V81.616H81.856C82.24 80.8 82.672 79.824 83.024 78.944L81.776 78.656C81.536 79.52 81.104 80.704 80.688 81.616H78.24C78.64 80.736 78.976 79.824 79.264 78.88L78.128 78.592C77.472 80.896 76.352 83.088 74.96 84.496C75.2 84.736 75.6 85.248 75.76 85.488C76.176 85.04 76.576 84.528 76.944 83.968V93.2H78.08V92.384H85.312V91.296ZM89.152 93.216C89.92 92.624 90.432 91.648 90.752 90.768L89.872 90.416C89.584 91.232 89.024 92.16 88.32 92.672L89.152 93.216ZM91.76 90.64C91.968 91.392 92.112 92.368 92.096 93.008L93.072 92.848C93.056 92.24 92.896 91.264 92.672 90.512L91.76 90.64ZM93.84 90.592C94.24 91.232 94.608 92.112 94.752 92.704L95.664 92.368C95.504 91.808 95.12 90.944 94.704 90.32L93.84 90.592ZM96 90.4C96.464 90.864 96.96 91.504 97.184 91.952L98 91.504C97.76 91.088 97.264 90.48 96.768 90.032L96 90.4ZM95.232 83.824H92.64V82.944H95.232V83.824ZM98.992 84.576V85.776H96.272V84.576H98.992ZM92.64 84.576H95.232V85.776H92.64V84.576ZM91.616 85.776H89.024V84.576H91.616V85.776ZM91.616 82.944V83.824H89.024V82.944H91.616ZM94.48 81.04H93.376V82.08H87.92V85.792C87.92 87.776 87.792 90.56 86.544 92.56C86.832 92.672 87.312 92.992 87.504 93.152C88.688 91.296 88.96 88.624 89.008 86.544H90.656C90.4 87.744 90.064 89.168 89.76 90.08L90.848 90.24L90.944 89.92H99.504C99.376 91.408 99.232 92.016 99.056 92.224C98.944 92.32 98.816 92.336 98.592 92.336C98.368 92.336 97.856 92.336 97.296 92.272C97.44 92.528 97.52 92.928 97.536 93.184C98.176 93.232 98.768 93.232 99.088 93.2C99.456 93.168 99.728 93.088 99.952 92.864C100.288 92.496 100.464 91.632 100.64 89.504C100.656 89.36 100.672 89.072 100.672 89.072H91.184C91.248 88.784 91.328 88.496 91.392 88.192H100.8V87.344H91.6L91.792 86.544H100.144V83.824H96.272V82.944H100.8V82.08H94.48V81.04ZM97.344 79.696V78.608H96.16V79.696H91.856V78.608H90.688V79.696H86.992V80.656H90.688V81.664H91.856V80.656H96.16V81.664H97.344V80.656H101.072V79.696H97.344ZM113.28 82.56H110.304L110.592 82.48C110.496 82.048 110.224 81.392 109.92 80.912H113.856C113.664 81.424 113.36 82.08 113.104 82.512L113.28 82.56ZM113.2 88.672H110.672V87.296H113.2V88.672ZM108.848 81.056C109.12 81.504 109.392 82.096 109.52 82.56H107.44V90.864H108.528V83.504H111.456V84.576H109.072V85.392H111.456V86.544H109.808V90.032H110.672V89.424H114.08V86.544H112.368V85.392H114.768V84.576H112.368V83.504H115.408V89.6C115.408 89.776 115.36 89.84 115.168 89.84C114.96 89.856 114.336 89.856 113.616 89.824C113.776 90.112 113.936 90.56 113.984 90.848C114.928 90.848 115.584 90.832 116 90.672C116.416 90.48 116.528 90.176 116.528 89.6V82.56H114.192C114.448 82.128 114.752 81.568 115.04 81.024L114.624 80.912H117.088V79.952H112.448V78.608H111.28V79.952H106.864V80.912H109.408L108.848 81.056ZM106.432 81.616C105.936 80.832 104.832 79.744 103.856 79.008L102.944 79.68C103.92 80.448 104.992 81.552 105.472 82.352L106.432 81.616ZM105.952 84.88H102.8V86H104.832V90.096C104.112 90.768 103.296 91.44 102.624 91.936L103.248 93.072C104.032 92.384 104.768 91.712 105.472 91.024C106.464 92.272 107.904 92.832 110 92.912C111.792 92.992 115.168 92.96 116.96 92.88C117.008 92.528 117.2 91.984 117.344 91.712C115.424 91.84 111.744 91.888 109.984 91.808C108.112 91.744 106.704 91.2 105.952 90.016V84.88ZM129.68 87.936V91.504H122.336V87.936H129.68ZM121.168 93.232H122.336V92.576H129.68V93.232H130.896V86.864H121.168V93.232ZM122 83.808V84.864H130.016V83.808H122ZM125.296 78.656C124.048 80.704 121.376 83.136 118.592 84.544C118.864 84.8 119.184 85.216 119.328 85.488C122.064 84.032 124.656 81.76 125.968 79.808C127.456 81.856 130.256 84.096 132.736 85.392C132.944 85.056 133.232 84.64 133.52 84.368C131.008 83.232 128.192 81.008 126.496 78.656H125.296ZM139.888 85.584H136.528V82.24H139.888V85.584ZM136.528 90.48V86.64H139.888V90.48H136.528ZM137.872 78.576C137.76 79.328 137.472 80.4 137.232 81.168H135.44V92.816H136.528V91.552H140.976V81.168H138.32C138.592 80.48 138.88 79.6 139.152 78.816L137.872 78.576ZM148.8 81.12H144.016C144.288 80.368 144.512 79.6 144.704 78.816L143.568 78.544C143.056 80.736 142.192 82.944 141.12 84.352C141.376 84.512 141.888 84.832 142.096 85.024C142.656 84.272 143.152 83.296 143.6 82.224H147.664C147.456 88.592 147.216 91.024 146.688 91.584C146.528 91.792 146.352 91.824 146.032 91.824C145.664 91.824 144.704 91.824 143.664 91.728C143.888 92.064 144.032 92.544 144.064 92.896C144.96 92.944 145.872 92.976 146.432 92.912C146.976 92.864 147.344 92.72 147.696 92.272C148.336 91.488 148.544 89.024 148.8 81.728V81.12ZM146.272 88.32C145.76 87.376 144.656 85.84 143.76 84.704L142.832 85.248C143.712 86.4 144.784 87.984 145.264 88.944L146.272 88.32ZM160.16 84.448H157.056V85.472H164.576V84.448H161.328V81.856H164.912V80.816H161.328V78.608H160.16V80.816H156.704V81.856H160.16V84.448ZM154.912 83.808V86.448H156.032V78.608H154.912V80.768H152.784V78.832H151.76V82.08H152.784V81.712H154.912V82.864H150.944V83.808H152.096C151.936 84.8 151.552 85.552 150.576 86C150.816 86.176 151.12 86.544 151.248 86.784C152.528 86.16 152.992 85.152 153.2 83.808H154.912ZM163.392 88.32C162.688 88.848 161.552 89.504 160.608 89.984C160 89.408 159.472 88.768 159.056 88.048H165.136V87.104H158.608V85.856H157.44V87.104H150.88V88.048H156.256C154.768 88.96 152.576 89.696 150.656 90.048C150.88 90.272 151.184 90.672 151.328 90.928C152.32 90.72 153.392 90.4 154.4 89.984V91.792C153.664 91.888 152.992 91.984 152.416 92.048L152.592 93.056C154.416 92.8 157.04 92.416 159.504 92.048L159.472 91.088C158.128 91.28 156.768 91.472 155.52 91.648V89.488C156.416 89.056 157.216 88.576 157.872 88.048H157.92C159.216 90.688 161.552 92.48 164.672 93.28C164.816 92.992 165.12 92.544 165.376 92.304C163.84 91.968 162.48 91.392 161.36 90.592C162.32 90.144 163.408 89.552 164.272 88.944L163.392 88.32ZM173.552 82.464H174.64V81.152H177.632V82.464H178.752V81.152H181.264V80.112H178.752V78.752H177.632V80.112H174.64V78.752H173.552V80.112H170.96V81.152H173.552V82.464ZM169.76 78.704C168.992 81.168 167.728 83.6 166.352 85.2C166.544 85.488 166.864 86.112 166.976 86.4C167.504 85.776 168 85.056 168.48 84.256V93.216H169.616V82.128C170.096 81.12 170.512 80.064 170.864 79.008L169.76 78.704ZM177.536 89.744V88.368H179.888V89.744H177.536ZM174.32 89.744V88.368H176.576V89.744H174.32ZM176.576 86.144V87.536H174.32V86.144H176.576ZM179.888 86.144V87.536H177.536V86.144H179.888ZM180.928 85.232H173.296V93.216H174.32V90.592H176.576V93.12H177.536V90.592H179.888V92.064C179.888 92.24 179.856 92.272 179.664 92.288C179.472 92.304 178.912 92.304 178.224 92.288C178.352 92.56 178.48 92.96 178.528 93.216C179.472 93.232 180.08 93.216 180.464 93.04C180.832 92.88 180.928 92.592 180.928 92.064V85.232ZM181.328 83.008H171.248V86.432C171.248 88.24 171.12 90.704 169.984 92.48C170.24 92.624 170.672 93.008 170.848 93.216C172.112 91.296 172.32 88.432 172.32 86.448V84.064H181.328V83.008ZM184.512 93.712C186.192 93.12 187.28 91.808 187.28 90.08C187.28 88.96 186.8 88.24 185.92 88.24C185.264 88.24 184.704 88.64 184.704 89.392C184.704 90.144 185.248 90.528 185.904 90.528C186 90.528 186.08 90.528 186.176 90.512C186.096 91.6 185.392 92.352 184.16 92.864L184.512 93.712ZM43.536 111.392C43.808 110.752 44.112 109.728 44.4 108.896L43.696 108.64C43.552 109.376 43.248 110.496 43.008 111.184L43.536 111.392ZM40.448 108.848C40.72 109.616 40.912 110.624 40.944 111.28L41.584 111.104C41.536 110.464 41.328 109.456 41.04 108.688L40.448 108.848ZM40.224 108.064H41.952V111.904H40.224V108.064ZM44.608 111.904H42.768V108.064H44.608V111.904ZM38.896 117.232C40.736 117.136 43.344 116.976 45.888 116.784L45.92 115.824C44.896 115.888 43.872 115.952 42.896 116V114.816H45.664V113.872H42.896V112.768H45.568V107.2H39.296V112.768H41.824V113.872H39.184V114.816H41.824V116.064C40.688 116.112 39.664 116.176 38.832 116.208L38.896 117.232ZM39.376 121.216C40.08 120.512 40.32 119.28 40.48 118.096L39.632 117.872C39.504 118.976 39.2 120.128 38.576 120.784L39.376 121.216ZM40.992 117.92C41.216 118.816 41.376 119.952 41.376 120.704L42.192 120.592C42.192 119.856 42.016 118.704 41.76 117.84L40.992 117.92ZM42.512 117.84C42.864 118.656 43.2 119.712 43.28 120.416L44.096 120.24C43.984 119.536 43.632 118.48 43.264 117.68L42.512 117.84ZM44.032 117.632C44.56 118.368 45.12 119.392 45.344 120.064L46.144 119.712C45.904 119.056 45.328 118.064 44.768 117.328L44.032 117.632ZM51.568 119.376H47.536V115.264H51.568V119.376ZM53.328 111.2V110.08H49.92V106.64H48.752V114.16H46.448V121.2H47.536V120.448H51.568V121.136H52.688V114.16H49.92V111.2H53.328ZM67.408 109.104H64.336V110.768C64.336 111.728 64.672 111.968 65.856 111.968H68C68.848 111.968 69.152 111.68 69.264 110.608C68.976 110.544 68.592 110.416 68.384 110.272C68.336 111.024 68.256 111.12 67.872 111.12H65.968C65.44 111.12 65.344 111.056 65.344 110.752V109.936H68.464V107.232H64.032V108.064H67.408V109.104ZM62.256 109.104H59.12V110.768C59.12 111.728 59.424 111.968 60.608 111.968H62.592C63.408 111.968 63.712 111.696 63.824 110.656C63.536 110.608 63.152 110.48 62.944 110.32C62.896 111.024 62.816 111.12 62.432 111.12H60.704C60.192 111.12 60.112 111.056 60.112 110.768V109.936H63.264V107.232H58.832V108.064H62.256V109.104ZM62.512 114.24H65.136V115.76H62.512V114.24ZM69.168 115.76H66.272V114.24H68.672V113.328H66.272V112.176H65.136V113.328H62.512V112.176H61.408V113.328H59.04V114.24H61.408V115.76H58.528V116.688H69.168V115.76ZM68.928 118.816C68.176 118.224 66.864 117.456 65.696 116.896L64.848 117.424C65.952 117.984 67.104 118.736 67.776 119.328L68.928 118.816ZM61.936 116.864C61.232 117.504 60.048 118.112 58.96 118.544C59.216 118.704 59.648 119.088 59.84 119.296C60.896 118.784 62.176 118 62.992 117.232L61.936 116.864ZM58.224 109.648C57.776 108.848 56.72 107.744 55.776 106.992L54.864 107.6C55.792 108.384 56.816 109.52 57.232 110.32L58.224 109.648ZM57.856 112.88H54.784V114H56.752V118.128C56.048 118.8 55.264 119.472 54.592 119.968L55.216 121.072C55.984 120.368 56.704 119.696 57.376 118.992C58.368 120.256 59.824 120.832 61.936 120.912C63.744 120.976 67.2 120.944 69.008 120.864C69.056 120.528 69.248 120 69.392 119.744C67.44 119.872 63.712 119.92 61.904 119.84C60.032 119.76 58.608 119.216 57.856 118.016V112.88ZM79.44 112.416C78.992 111.328 77.968 109.76 76.912 108.592L75.856 109.12C76.864 110.288 77.888 111.92 78.32 113.024L79.44 112.416ZM77.168 115.52C76.112 115.968 75.04 116.432 74.016 116.864L73.776 107.424L72.56 107.472L72.832 117.36C72 117.712 71.248 118.016 70.624 118.256L71.056 119.488C72.816 118.72 75.232 117.664 77.44 116.656L77.168 115.52ZM85.472 120.256C84.656 119.072 82.96 117.296 81.536 115.856C82.656 113.712 83.264 110.992 83.648 107.568L82.352 107.44C81.648 114.352 79.952 118.224 74.464 120.24C74.752 120.48 75.248 121.024 75.408 121.264C77.904 120.224 79.648 118.832 80.896 116.944C82.256 118.384 83.744 120.064 84.48 121.168L85.472 120.256ZM101.072 108.976V107.792H86.944V108.976H93.056V121.2H94.32V112.784C96.144 113.76 98.288 115.072 99.376 115.968L100.208 114.896C98.944 113.936 96.432 112.496 94.528 111.584L94.32 111.824V108.976H101.072ZM104.016 108.16V109.344H116.016V108.16H104.016ZM105.04 113.344V114.544H114.768V113.344H105.04ZM103.104 118.864V120.064H116.88V118.864H103.104ZM133.136 109.408V108.304H127.072V106.624H125.856V108.304H119.856V112.704C119.856 115.008 119.728 118.224 118.512 120.512C118.784 120.64 119.296 120.976 119.504 121.168C120.816 118.752 120.992 115.152 120.992 112.72V109.408H133.136ZM123.648 110.32C123.36 112.352 122.608 113.968 121.248 114.976C121.504 115.136 121.968 115.504 122.144 115.68C122.864 115.072 123.44 114.32 123.872 113.408C124.528 114.048 125.168 114.752 125.536 115.232L126.256 114.464C125.824 113.92 125.008 113.104 124.272 112.448C124.496 111.824 124.656 111.152 124.768 110.432L123.648 110.32ZM127.648 117.376H132.208V116.352H127.648V114.768C127.904 114.928 128.304 115.28 128.464 115.472C129.168 114.912 129.728 114.208 130.176 113.36C131.056 114.112 131.968 114.976 132.464 115.568L133.216 114.784C132.64 114.128 131.536 113.168 130.608 112.4C130.832 111.792 131.008 111.152 131.12 110.448L130.048 110.32C129.728 112.256 128.96 113.76 127.648 114.736V110.064H126.496V116.352H122.112V117.376H126.496V119.76H121.072V120.816H133.184V119.76H127.648V117.376ZM147.104 110.384V118.528H142.544V106.944H141.328V118.528H136.928V110.4H135.728V121.024H136.928V119.728H147.104V120.96H148.32V110.384H147.104ZM156.592 108.576V110.592H152.912V108.576H156.592ZM152.912 113.632V111.648H156.592V113.632H152.912ZM154.704 115.968C155.12 116.512 155.552 117.136 155.936 117.76C154.896 118.064 153.856 118.352 152.912 118.608V114.752H157.696V107.472H151.792V118.912C151.392 119.024 151.008 119.12 150.688 119.2L151.088 120.4C152.592 119.968 154.592 119.344 156.512 118.768C156.832 119.376 157.104 119.952 157.264 120.416L158.304 119.872C157.872 118.688 156.736 116.848 155.664 115.504L154.704 115.968ZM164.672 107.488H158.912V121.216H160.096V108.672H163.472V117.136C163.472 117.376 163.408 117.44 163.184 117.44C162.944 117.456 162.176 117.472 161.328 117.424C161.52 117.792 161.696 118.384 161.744 118.72C162.848 118.72 163.616 118.704 164.08 118.48C164.56 118.256 164.672 117.856 164.672 117.168V107.488ZM173.904 112.416V116.064H169.728V112.416H173.904ZM175.072 117.2V111.264H168.576V118.48H169.728V117.2H175.072ZM181.104 107.744H166.944V108.928H177.92V119.504C177.92 119.84 177.808 119.952 177.456 119.968C177.088 119.984 175.776 120 174.496 119.936C174.688 120.272 174.928 120.864 175.008 121.2C176.576 121.2 177.68 121.2 178.32 120.976C178.928 120.8 179.136 120.368 179.136 119.52V108.928H181.104V107.744ZM186.112 117.072C185.68 117.072 185.616 116.976 185.616 116.4V112.192L189.44 111.376L189.216 110.304L185.616 111.072V107.056H184.448V111.312L182.528 111.728L182.736 112.816L184.448 112.448V116.384C184.448 117.808 184.768 118.192 185.952 118.192H187.632C188.72 118.192 189.008 117.504 189.136 115.296C188.816 115.216 188.336 115.008 188.064 114.784C188.032 116.656 187.952 117.072 187.536 117.072H186.112ZM188.432 108.016V109.152H191.216C191.152 113.776 190.896 118.144 186.96 120.336C187.248 120.56 187.648 120.976 187.824 121.28C191.936 118.832 192.304 114.128 192.416 109.152H195.776C195.584 116.384 195.36 119.04 194.88 119.632C194.704 119.856 194.528 119.92 194.256 119.904C193.888 119.904 193.04 119.904 192.112 119.824C192.32 120.176 192.48 120.688 192.496 121.04C193.328 121.088 194.224 121.104 194.736 121.04C195.28 120.976 195.632 120.832 195.968 120.336C196.608 119.52 196.768 116.832 196.976 108.672C196.976 108.512 196.992 108.016 196.992 108.016H188.432ZM209.04 108.8C208.8 109.328 208.48 109.92 208.192 110.368H205.136C205.6 109.872 206.016 109.344 206.352 108.8H209.04ZM211.504 113.024C211.472 113.12 211.408 113.136 211.184 113.136H210.128C209.792 113.136 209.76 113.104 209.76 112.848V111.344H211.504V113.024ZM205.28 111.344H206.848C206.736 112.56 206.384 113.28 205.28 113.744V111.344ZM203.568 114.448L203.408 113.344C202.88 113.52 202.352 113.696 201.824 113.856V110.912H203.44C203.632 111.072 203.84 111.264 203.968 111.44C204.064 111.36 204.176 111.28 204.272 111.184V115.6H205.28V113.76C205.472 113.904 205.712 114.208 205.808 114.416C207.168 113.824 207.616 112.864 207.744 111.344H208.848V112.848C208.848 113.744 209.072 113.952 210.016 113.952H211.344H211.504V115.568H212.544V110.368H209.36C209.776 109.728 210.224 108.96 210.512 108.272L209.76 107.776L209.584 107.84H206.912C207.088 107.488 207.248 107.136 207.392 106.784L206.272 106.608C205.824 107.824 204.928 109.296 203.536 110.432V109.824H201.824V106.624H200.72V109.824H198.72V110.912H200.72V114.192C199.888 114.448 199.12 114.688 198.512 114.848L198.816 116L200.72 115.376V119.84C200.72 120.08 200.64 120.128 200.448 120.128C200.256 120.144 199.632 120.144 198.944 120.128C199.104 120.448 199.248 120.944 199.296 121.216C200.288 121.232 200.896 121.184 201.28 121.008C201.68 120.816 201.824 120.496 201.824 119.84V115.024L203.568 114.448ZM213.152 117.2V116.192H208.672C208.752 115.744 208.8 115.28 208.848 114.768H207.76C207.712 115.28 207.664 115.76 207.584 116.192H203.376V117.2H207.312C206.768 118.784 205.568 119.776 202.816 120.336C203.04 120.56 203.312 120.992 203.408 121.248C206.256 120.592 207.6 119.472 208.256 117.776C209.088 119.536 210.512 120.64 212.672 121.168C212.832 120.88 213.12 120.416 213.392 120.192C211.28 119.792 209.888 118.768 209.136 117.2H213.152ZM216.512 121.712C218.192 121.12 219.28 119.808 219.28 118.08C219.28 116.96 218.8 116.24 217.92 116.24C217.264 116.24 216.704 116.64 216.704 117.392C216.704 118.144 217.248 118.528 217.904 118.528C218 118.528 218.08 118.528 218.176 118.512C218.096 119.6 217.392 120.352 216.16 120.864L216.512 121.712Z" fill="#4E4E4E"/>
</svg>
