<svg width="138" height="135" viewBox="0 0 257 246" fill="none" xmlns="http://www.w3.org/2000/svg">
<g filter="url(#filter0_d)">
<path d="M62.0778 1.18552C28.0867 7.56228 7.1963 103.037 1 149.977V235H240C194.856 154.405 96.0689 -5.19124 62.0778 1.18552Z" fill="#24936E"/>
<path d="M62.0778 1.18552C28.0867 7.56228 7.1963 103.037 1 149.977V235H240C194.856 154.405 96.0689 -5.19124 62.0778 1.18552Z" stroke="#564138"/>
</g>
<path d="M84.339 142.5H80.879V141.2H84.339V142.5ZM90.739 136.74H74.699V145.74H77.019V138.72H88.339V143.18C88.339 143.42 88.259 143.48 87.959 143.5C87.739 143.52 87.119 143.52 86.439 143.5V139.62H78.799V145H80.879V144.1H86.039C86.259 144.62 86.439 145.24 86.499 145.7C87.939 145.7 88.999 145.68 89.739 145.32C90.519 144.96 90.739 144.32 90.739 143.22V136.74ZM85.679 134.3H79.439V133.08H85.679V134.3ZM77.179 131.5V135.9H88.099V131.5H77.179ZM83.719 128.72V127.04H81.299V128.72H73.899V130.74H91.379V128.72H83.719ZM98.759 127.82L98.419 127.92H94.159V145.74H96.219V130.04H97.719C97.419 131.4 96.999 133.14 96.619 134.4C97.699 135.72 97.939 136.98 97.959 137.88C97.959 138.46 97.859 138.88 97.639 139.04C97.499 139.14 97.319 139.18 97.099 139.18C96.859 139.2 96.599 139.2 96.259 139.16C96.579 139.76 96.759 140.64 96.779 141.18C97.239 141.2 97.699 141.2 98.039 141.16C98.479 141.08 98.859 140.96 99.159 140.74C99.759 140.3 100.039 139.46 100.019 138.18C100.019 137.04 99.799 135.68 98.599 134.14C99.159 132.58 99.799 130.42 100.319 128.72L98.759 127.82ZM105.499 132.86L102.919 133.36V131.28H105.439V129.42H102.919V127.32H100.779V133.76C100.339 133.84 99.939 133.92 99.579 133.98L100.119 135.94C101.739 135.56 103.759 135.08 105.679 134.64L105.499 132.86ZM108.779 140.1H103.279V138.96H108.779V140.1ZM103.279 143.12V141.9H108.779V143.12H103.279ZM106.719 135.54L104.299 135.12C104.239 135.66 104.059 136.36 103.899 136.98H101.079V145.7H103.279V145.08H108.779V145.62H111.099V136.98H106.199L106.719 135.54ZM108.639 133.72C108.239 133.72 108.179 133.66 108.179 133.08V131.62C109.419 131.16 110.759 130.6 111.859 129.94L110.319 128.38C109.799 128.82 108.999 129.3 108.179 129.72V127.32H106.039V133.08C106.039 135.06 106.459 135.68 108.279 135.68H109.999C111.379 135.68 111.919 135.06 112.139 132.84C111.559 132.7 110.679 132.36 110.259 132.02C110.199 133.48 110.119 133.72 109.739 133.72H108.639Z" fill="white"/>
<defs>
<filter id="filter0_d" x="0.5" y="0.5" width="256.353" height="245" filterUnits="userSpaceOnUse" color-interpolation-filters="sRGB">
<feFlood flood-opacity="0" result="BackgroundImageFix"/>
<feColorMatrix in="SourceAlpha" type="matrix" values="0 0 0 0 0 0 0 0 0 0 0 0 0 0 0 0 0 0 127 0" result="hardAlpha"/>
<feOffset dx="12" dy="6"/>
<feGaussianBlur stdDeviation="2"/>
<feComposite in2="hardAlpha" operator="out"/>
<feColorMatrix type="matrix" values="0 0 0 0 0 0 0 0 0 0 0 0 0 0 0 0 0 0 0.25 0"/>
<feBlend mode="normal" in2="BackgroundImageFix" result="effect1_dropShadow"/>
<feBlend mode="normal" in="SourceGraphic" in2="effect1_dropShadow" result="shape"/>
</filter>
</defs>
</svg>
