<svg width="100" height="78" viewBox="0 0 159 123" fill="none" xmlns="http://www.w3.org/2000/svg">
<g filter="url(#filter0_d)">
<path d="M61.7385 1.36124C21.8246 3.09675 4.61538 54.1497 1 79.4593V112H142C131.877 74.3974 101.652 -0.374275 61.7385 1.36124Z" fill="#19634A"/>
<path d="M61.7385 1.36124C21.8246 3.09675 4.61538 54.1497 1 79.4593V112H142C131.877 74.3974 101.652 -0.374275 61.7385 1.36124Z" stroke="#564138"/>
</g>
<path d="M49.1982 59.94C48.9782 59.7 48.4382 59.18 47.8382 58.6C48.3782 58.04 48.9982 57.32 49.6982 56.64L48.1782 55.38C47.8382 56.02 47.2582 56.92 46.7382 57.6C46.5382 57.42 46.3582 57.26 46.1982 57.12C47.1982 55.64 48.0582 54.02 48.6582 52.38L47.3182 51.5L46.9382 51.6H46.0782V48.08H43.7382V51.6H41.1582V53.74H45.7182C44.4982 56.12 42.5382 58.46 40.5982 59.82C40.9782 60.24 41.5982 61.4 41.8182 61.98C42.4582 61.48 43.0982 60.9 43.7382 60.22V66.74H46.0782V59.56C46.7382 60.32 47.3982 61.16 47.7782 61.74L49.1982 59.94ZM48.4782 49.6V51.84H51.3582C51.2582 56.94 50.9582 62 46.8582 64.88C47.4782 65.34 48.2182 66.12 48.6182 66.76C53.0782 63.38 53.6182 57.62 53.7782 51.84H56.6782C56.5382 60.02 56.3182 63.24 55.7582 63.9C55.5382 64.2 55.3382 64.28 55.0182 64.28C54.5382 64.28 53.5982 64.28 52.5582 64.2C52.9782 64.9 53.2582 65.96 53.2982 66.66C54.3782 66.68 55.4782 66.7 56.1982 66.56C56.9582 66.42 57.4582 66.16 57.9782 65.36C58.7582 64.28 58.9382 60.8 59.1182 50.8C59.1382 50.48 59.1382 49.6 59.1382 49.6H48.4782ZM66.3182 48.82L65.9782 48.92H61.7182V66.74H63.7782V51.04H65.2782C64.9782 52.4 64.5582 54.14 64.1782 55.4C65.2582 56.72 65.4982 57.98 65.5182 58.88C65.5182 59.46 65.4182 59.88 65.1982 60.04C65.0582 60.14 64.8782 60.18 64.6582 60.18C64.4182 60.2 64.1582 60.2 63.8182 60.16C64.1382 60.76 64.3182 61.64 64.3382 62.18C64.7982 62.2 65.2582 62.2 65.5982 62.16C66.0382 62.08 66.4182 61.96 66.7182 61.74C67.3182 61.3 67.5982 60.46 67.5782 59.18C67.5782 58.04 67.3582 56.68 66.1582 55.14C66.7182 53.58 67.3582 51.42 67.8782 49.72L66.3182 48.82ZM73.0582 53.86L70.4782 54.36V52.28H72.9982V50.42H70.4782V48.32H68.3382V54.76C67.8982 54.84 67.4982 54.92 67.1382 54.98L67.6782 56.94C69.2982 56.56 71.3182 56.08 73.2382 55.64L73.0582 53.86ZM76.3382 61.1H70.8382V59.96H76.3382V61.1ZM70.8382 64.12V62.9H76.3382V64.12H70.8382ZM74.2782 56.54L71.8582 56.12C71.7982 56.66 71.6182 57.36 71.4582 57.98H68.6382V66.7H70.8382V66.08H76.3382V66.62H78.6582V57.98H73.7582L74.2782 56.54ZM76.1982 54.72C75.7982 54.72 75.7382 54.66 75.7382 54.08V52.62C76.9782 52.16 78.3182 51.6 79.4182 50.94L77.8782 49.38C77.3582 49.82 76.5582 50.3 75.7382 50.72V48.32H73.5982V54.08C73.5982 56.06 74.0182 56.68 75.8382 56.68H77.5582C78.9382 56.68 79.4782 56.06 79.6982 53.84C79.1182 53.7 78.2382 53.36 77.8182 53.02C77.7582 54.48 77.6782 54.72 77.2982 54.72H76.1982Z" fill="white"/>
<defs>
<filter id="filter0_d" x="0.5" y="0.831543" width="158.152" height="121.669" filterUnits="userSpaceOnUse" color-interpolation-filters="sRGB">
<feFlood flood-opacity="0" result="BackgroundImageFix"/>
<feColorMatrix in="SourceAlpha" type="matrix" values="0 0 0 0 0 0 0 0 0 0 0 0 0 0 0 0 0 0 127 0" result="hardAlpha"/>
<feOffset dx="12" dy="6"/>
<feGaussianBlur stdDeviation="2"/>
<feComposite in2="hardAlpha" operator="out"/>
<feColorMatrix type="matrix" values="0 0 0 0 0 0 0 0 0 0 0 0 0 0 0 0 0 0 0.25 0"/>
<feBlend mode="normal" in2="BackgroundImageFix" result="effect1_dropShadow"/>
<feBlend mode="normal" in="SourceGraphic" in2="effect1_dropShadow" result="shape"/>
</filter>
</defs>
</svg>
