<svg width="135" height="123" viewBox="0 0 135 123" fill="none" xmlns="http://www.w3.org/2000/svg">
<path d="M126.532 99.5138C133.929 101.665 134.494 108.092 133.852 111.037C109.197 126.786 5.18069 118.336 3.63972 111.037C2.09875 103.739 10.5741 102.587 15.197 102.587C19.8199 102.587 25.9838 104.891 31.7624 102.587C37.5411 100.283 86.0816 107.197 94.557 102.587C103.032 97.9777 105.729 101.434 111.508 104.891C117.286 108.349 117.287 96.8249 126.532 99.5138Z" fill="white"/>
<ellipse rx="3.46718" ry="1.9206" transform="matrix(-1 0 0 1 109.779 91.0363)" fill="white"/>
<ellipse rx="3.46718" ry="1.9206" transform="matrix(-1 0 0 1 126.729 87.195)" fill="white"/>
<ellipse rx="1.92621" ry="1.15236" transform="matrix(-1 0 0 1 116.713 94.8775)" fill="white"/>
<path d="M73.2883 103.255C72.161 102.842 68.584 98.0443 66.9364 95.6973C63.765 94.0119 60.4604 94.6397 59.524 95.6911C58.7748 96.5322 59.8603 97.644 59.6405 99.4295C59.554 100.139 59.4347 101.969 59.6494 103.616C61.2078 104.481 65.0777 108.191 67.7213 109.945C70.3649 111.698 75.0261 110.399 77.3119 109.407C79.5978 108.414 78.0098 106.525 77.3925 105.906C76.7752 105.288 74.6973 103.771 73.2883 103.255Z" fill="#93671E"/>
<path d="M73.2953 101.949C72.1678 101.536 72.0263 99.1558 71.3634 96.2255C68.1914 94.5405 60.2237 94.3275 59.2871 95.3787C58.5378 96.2196 59.2135 97.5594 59.645 98.1242C59.5585 98.8332 59.4391 100.663 59.6539 102.31C61.5911 102.759 65.0831 106.885 67.7273 108.638C70.3714 110.391 75.0334 109.092 77.3197 108.1C79.606 107.108 78.0177 105.218 77.4003 104.6C76.7829 103.982 74.7046 102.465 73.2953 101.949Z" fill="#DAA347" stroke="#98691B" stroke-width="0.3"/>
<path d="M64.1763 97.5277C64.6156 98.2784 65.1016 99.6525 63.5303 99.1431C61.959 98.6336 60.2578 98.2967 59.6037 98.1919" stroke="#98691B" stroke-width="0.3"/>
<path d="M59.6002 100.159C60.7984 100.372 63.3921 101.12 64.1815 102.416C64.9708 103.712 65.6034 104.034 65.821 104.033" stroke="#98691B" stroke-width="0.3"/>
<path d="M74.5087 102.966C73.7095 102.992 72.8261 103.022 71.7231 101.114C70.6201 99.2056 71.4259 97.1294 70.7316 95.8987" stroke="#98691B" stroke-width="0.3"/>
<path d="M59.2869 95.3641C59.718 95.9292 60.9027 97.0644 62.1926 97.0843C63.8049 97.1091 64.626 97.2359 64.9791 97.8887C65.3323 98.5415 68.6253 103.238 69.7399 103.56C70.6316 103.817 70.3101 105.193 70.0379 105.849" stroke="#98691B" stroke-width="0.3"/>
<path d="M78.3907 107.452C77.8651 108.914 76.1461 110.823 69.6556 110.495C66.6299 109.954 64.9306 107.917 63.0768 106.064C61.2229 104.211 59.3734 104.448 59.6333 102.324" stroke="#98691B" stroke-width="0.3"/>
<path d="M70.7238 95.5323C70.7182 94.2344 68.3149 92.2958 68.7462 91.3208C64.8216 90.0369 57.172 88.377 57.9713 92.0083C58.9705 96.5475 61.5846 96.8626 62.2392 97.1847C62.8938 97.5069 70.7307 97.1546 70.7238 95.5323Z" fill="#313131"/>
<path d="M70.387 95.5682C71.0441 96.5401 71.0495 97.8394 71.0536 98.813L69.0971 99.4693C68.4454 99.7963 66.4876 100.128 66.4876 100.128C66.3774 99.8036 65.5012 98.5071 64.8455 97.86C64.327 97.3484 63.7512 97.112 64.1857 96.2392C64.5095 95.5886 69.4074 95.5716 70.387 95.5682Z" fill="#DAA347" stroke="#98691B" stroke-width="0.3"/>
<path d="M69.6078 108.503C70.1768 107.51 71.3874 105.442 71.6774 105.119C72.04 104.716 70.955 102.864 69.6559 102.15C68.6167 101.579 67.6906 99.8979 67.3574 99.1288C66.6836 98.139 65.2971 96.6705 65.1419 98.7151C64.9479 101.271 68.2738 98.8287 69.3816 99.0355C70.4893 99.2423 72.3223 98.642 71.6198 97.8039C70.9174 96.9659 68.231 99.0564 68.3795 99.791C68.528 100.526 65.95 100.515 66.3755 101.302C66.8009 102.088 71.0003 99.5736 71.7884 99.9561C72.5765 100.339 72.8107 100.618 72.4052 101.249C71.9998 101.88 66.0131 101.705 67.2264 102.874C68.4398 104.043 72.0428 101.652 72.7879 102.263C73.533 102.874 68.397 104.271 68.2257 105.182C68.0887 105.91 68.3515 107.562 68.5 108.296" stroke="#564138" stroke-width="0.3"/>
<path d="M30.0547 46.854C35.325 44.4724 46.6241 35.9382 51.6149 31.9688L97.755 33.0067C97.3556 34.9914 97.455 40.2112 101.048 45.2126C105.54 51.4644 104.318 67.3234 98.9274 85.1858C93.5371 103.048 95.0346 102.291 98.9274 104.97C102.82 107.649 96.5318 107.649 89.0456 108.542C83.0567 109.257 79.9626 104.672 79.1642 102.291C79.5634 92.764 79.4636 79.2912 75.8702 84.2927C71.3785 90.5445 74.9719 115.552 70.1807 117.933C66.3478 119.839 59.9995 116.147 57.3045 114.063C57.2046 109.498 56.2863 99.5947 53.4116 96.4986C49.8182 92.6284 48.321 102.75 48.9199 109.3C49.5188 115.849 45.626 114.956 40.2359 114.063C34.8458 113.17 35.7442 109.598 34.5464 102.75C33.3486 95.9032 22.269 85.7812 19.8734 72.9798C17.4778 60.1785 23.4668 49.8311 30.0547 46.854Z" fill="#313131"/>
<mask id="path-16-inside-1" fill="white">
<path fill-rule="evenodd" clip-rule="evenodd" d="M88.9642 3.81418C84.7223 1.49312 79.7422 0.156436 74.4153 0.156436C69.0795 0.156436 64.0917 1.49759 59.8453 3.82582C56.8334 1.0821 51.4208 -1.63266 46.3676 2.87546C40.4463 8.15807 45.4586 12.8451 48.705 14.5283L49.3648 14.0348C47.4471 17.4518 46.3668 21.3144 46.3668 25.4042C46.3668 28.5142 46.9915 31.4929 48.1341 34.2441C42.5093 38.5732 33.8909 44.8633 29.4853 46.8542C22.8975 49.8313 16.9085 60.1787 19.3041 72.98C20.6802 80.3337 24.9219 86.8032 28.5099 92.2756C31.168 96.3298 33.4673 99.8367 33.977 102.751C34.2202 104.141 34.377 105.396 34.5175 106.521C35.0693 110.938 35.3708 113.352 39.6666 114.063C39.8605 114.096 40.0525 114.128 40.2424 114.16L40.2444 114.16C45.3319 115.011 48.9278 115.613 48.3506 109.3C47.7517 102.751 49.2489 92.6286 52.8423 96.4988C55.717 99.5949 56.6353 109.499 56.7351 114.063C59.4301 116.147 65.7784 119.839 69.6114 117.934C72.0653 116.714 72.3197 109.559 72.5875 102.028C72.8426 94.8556 73.1097 87.3426 75.3009 84.2929C78.8943 79.2914 78.9941 92.7642 78.5948 102.291C79.3932 104.672 82.4873 109.257 88.4763 108.543C89.7638 108.389 91.0158 108.262 92.1867 108.143L92.1873 108.143C97.8246 107.57 101.581 107.189 98.3581 104.97C98.066 104.769 97.7874 104.587 97.5242 104.416C94.2793 102.3 93.3722 101.708 98.3581 85.186C103.748 67.3236 104.971 51.4646 100.479 45.2128C99.0833 43.2701 98.2147 41.2945 97.6977 39.4883C100.707 35.4651 102.464 30.6193 102.464 25.4042C102.464 21.5696 101.514 17.9346 99.8149 14.6795C102.106 11.468 104.887 5.39263 100.516 2.48701C94.7685 -1.33345 91.6595 -0.644667 88.9642 3.81418Z"/>
</mask>
<path d="M88.9642 3.81418L89.8199 4.3315L89.3244 5.15123L88.4841 4.69144L88.9642 3.81418ZM59.8453 3.82582L60.326 4.70268L59.6998 5.04603L59.1718 4.56507L59.8453 3.82582ZM46.3676 2.87546L47.0333 3.62166V3.62166L46.3676 2.87546ZM48.705 14.5283L49.3039 15.3291L48.8015 15.7048L48.2447 15.416L48.705 14.5283ZM49.3648 14.0348L48.7659 13.234L50.2369 14.5243L49.3648 14.0348ZM48.1341 34.2441L49.0576 33.8605L49.3517 34.5688L48.744 35.0365L48.1341 34.2441ZM29.4853 46.8542L29.0735 45.943L29.4853 46.8542ZM19.3041 72.98L20.287 72.7961L19.3041 72.98ZM28.5099 92.2756L27.6736 92.8239L28.5099 92.2756ZM33.977 102.751L32.992 102.923H32.992L33.977 102.751ZM34.5175 106.521L33.5252 106.645L34.5175 106.521ZM39.6666 114.063L39.5031 115.05H39.5031L39.6666 114.063ZM40.2424 114.16L40.078 115.146L40.0774 115.146L40.2424 114.16ZM40.2444 114.16L40.4088 113.173L40.4094 113.174L40.2444 114.16ZM48.3506 109.3L47.3547 109.391L48.3506 109.3ZM52.8423 96.4988L53.5751 95.8184L52.8423 96.4988ZM56.7351 114.063L56.1234 114.855L55.7458 114.563L55.7354 114.085L56.7351 114.063ZM69.6114 117.934L69.1662 117.038L69.6114 117.934ZM72.5875 102.028L71.5882 101.992L72.5875 102.028ZM75.3009 84.2929L76.113 84.8764L75.3009 84.2929ZM78.5948 102.291L77.6467 102.609L77.588 102.433L77.5957 102.249L78.5948 102.291ZM88.4763 108.543L88.3578 107.55H88.3578L88.4763 108.543ZM92.1867 108.143L92.2981 109.137L92.2877 109.138L92.1867 108.143ZM92.1873 108.143L92.0758 107.149L92.0862 107.148L92.1873 108.143ZM98.3581 104.97L98.9251 104.146L98.9251 104.146L98.3581 104.97ZM97.5242 104.416L96.9779 105.253H96.9779L97.5242 104.416ZM98.3581 85.186L99.3154 85.4749H99.3154L98.3581 85.186ZM100.479 45.2128L101.291 44.6293H101.291L100.479 45.2128ZM97.6977 39.4883L96.7363 39.7635L96.5998 39.2866L96.897 38.8893L97.6977 39.4883ZM99.8149 14.6795L98.9284 15.1422L98.6445 14.5983L99.0008 14.0988L99.8149 14.6795ZM100.516 2.48701L101.07 1.65422L101.07 1.65422L100.516 2.48701ZM88.4841 4.69144C84.3894 2.45088 79.5744 1.15644 74.4153 1.15644V-0.843564C79.9101 -0.843564 85.0552 0.535352 89.4442 2.93692L88.4841 4.69144ZM74.4153 1.15644C69.2476 1.15644 64.4252 2.45521 60.326 4.70268L59.3645 2.94897C63.7583 0.539965 68.9114 -0.843564 74.4153 -0.843564V1.15644ZM45.7019 2.12925C48.4707 -0.340894 51.407 -0.865709 54.0624 -0.350493C56.6641 0.154295 58.931 1.64025 60.5187 3.08658L59.1718 4.56507C57.7476 3.26768 55.8023 2.02439 53.6815 1.61289C51.6144 1.21183 49.3177 1.58369 47.0333 3.62166L45.7019 2.12925ZM48.2447 15.416C46.5255 14.5247 44.2363 12.796 43.1864 10.4619C42.6483 9.26559 42.4329 7.89871 42.81 6.43811C43.1842 4.98862 44.1169 3.54323 45.7019 2.12925L47.0333 3.62166C45.6576 4.84899 44.9963 5.97046 44.7465 6.93812C44.4995 7.89466 44.6298 8.79523 45.0104 9.64143C45.7979 11.3923 47.6381 12.8487 49.1653 13.6405L48.2447 15.416ZM49.9637 14.8357L49.3039 15.3291L48.1061 13.7274L48.7659 13.234L49.9637 14.8357ZM50.2369 14.5243C48.399 17.7989 47.3668 21.4939 47.3668 25.4042H45.3668C45.3668 21.135 46.4952 17.1047 48.4928 13.5454L50.2369 14.5243ZM47.3668 25.4042C47.3668 28.3787 47.964 31.2272 49.0576 33.8605L47.2105 34.6276C46.019 31.7585 45.3668 28.6497 45.3668 25.4042H47.3668ZM29.0735 45.943C31.1839 44.9893 34.3727 42.9679 37.7828 40.6041C41.1733 38.254 44.7201 35.6098 47.5241 33.4516L48.744 35.0365C45.9233 37.2075 42.3485 39.8729 38.9222 42.2479C35.5155 44.6092 32.1923 46.7283 29.8971 47.7655L29.0735 45.943ZM18.3211 73.164C15.8613 60.0194 21.9717 49.1523 29.0735 45.943L29.8971 47.7655C23.8232 50.5103 17.9557 60.338 20.287 72.7961L18.3211 73.164ZM27.6736 92.8239C24.1043 87.38 19.7401 80.7466 18.3211 73.164L20.287 72.7961C21.6203 79.9208 25.7394 86.2263 29.3462 91.7273L27.6736 92.8239ZM32.992 102.923C32.7661 101.632 32.1284 100.143 31.1749 98.4263C30.2255 96.717 29.0082 94.8594 27.6736 92.8239L29.3462 91.7273C30.6697 93.746 31.9311 95.6689 32.9233 97.4551C33.9114 99.2341 34.6782 100.956 34.9621 102.578L32.992 102.923ZM33.5252 106.645C33.3845 105.518 33.2304 104.286 32.992 102.923L34.9621 102.578C35.21 103.996 35.3694 105.273 35.5098 106.397L33.5252 106.645ZM39.5031 115.05C37.1524 114.661 35.6824 113.754 34.8109 112.162C34.0172 110.712 33.7919 108.78 33.5252 106.645L35.5098 106.397C35.7949 108.679 35.9962 110.162 36.5652 111.201C37.0562 112.098 37.8849 112.755 39.83 113.077L39.5031 115.05ZM40.0774 115.146C39.8873 115.114 39.6961 115.082 39.5031 115.05L39.83 113.077C40.0249 113.109 40.2177 113.141 40.4075 113.173L40.0774 115.146ZM40.08 115.146L40.078 115.146L40.4068 113.173L40.4088 113.173L40.08 115.146ZM49.3464 109.209C49.4972 110.858 49.3916 112.189 48.9682 113.222C48.5225 114.309 47.7512 114.997 46.7637 115.356C45.8317 115.696 44.7534 115.726 43.6643 115.645C42.5658 115.563 41.3383 115.357 40.0793 115.146L40.4094 113.174C41.6942 113.389 42.824 113.577 43.8125 113.65C44.8105 113.724 45.549 113.67 46.0798 113.477C46.5551 113.304 46.8925 113.012 47.1177 112.463C47.3652 111.86 47.4926 110.899 47.3547 109.391L49.3464 109.209ZM52.1095 97.1792C51.731 96.7716 51.487 96.6687 51.3869 96.6476C51.3391 96.6375 51.2859 96.6297 51.1634 96.7273C51.0091 96.8504 50.8037 97.1061 50.5832 97.5591C50.3683 98.0008 50.1684 98.5689 49.9918 99.2449C49.279 101.973 49.0549 106.021 49.3464 109.209L47.3547 109.391C47.0473 106.03 47.2724 101.742 48.0568 98.7393C48.2545 97.9826 48.4945 97.2807 48.7848 96.684C49.0697 96.0985 49.4352 95.5472 49.9171 95.1632C50.4309 94.7538 51.0796 94.539 51.7992 94.6905C52.4664 94.8311 53.0552 95.2584 53.5751 95.8184L52.1095 97.1792ZM55.7354 114.085C55.6863 111.842 55.4351 108.276 54.8443 104.903C54.5488 103.216 54.1724 101.6 53.7033 100.232C53.2273 98.8431 52.6862 97.8004 52.1095 97.1792L53.5751 95.8184C54.4357 96.7453 55.0874 98.1016 55.5952 99.5833C56.11 101.085 56.5083 102.811 56.8143 104.558C57.4262 108.051 57.6841 111.72 57.7349 114.042L55.7354 114.085ZM70.0565 118.829C67.7358 119.983 64.8325 119.39 62.3805 118.425C59.8704 117.438 57.5277 115.94 56.1234 114.855L57.3468 113.272C58.6375 114.27 60.8166 115.661 63.1126 116.564C65.4667 117.49 67.654 117.79 69.1662 117.038L70.0565 118.829ZM73.5869 102.064C73.4536 105.811 73.3222 109.541 72.9096 112.486C72.7034 113.958 72.4201 115.29 72.0061 116.355C71.6027 117.393 71.0067 118.357 70.0565 118.829L69.1662 117.038C69.443 116.901 69.799 116.513 70.1419 115.63C70.4741 114.776 70.7313 113.619 70.9289 112.209C71.324 109.389 71.4536 105.776 71.5882 101.992L73.5869 102.064ZM76.113 84.8764C75.1838 86.1697 74.5845 88.5698 74.2113 91.7317C73.8445 94.8389 73.7148 98.4663 73.5869 102.064L71.5882 101.992C71.7153 98.4173 71.8467 94.702 72.2251 91.4972C72.5969 88.3471 73.2269 85.4658 74.4888 83.7094L76.113 84.8764ZM77.5957 102.249C77.7952 97.489 77.8664 91.8042 77.4509 87.951C77.3474 86.9916 77.2161 86.1693 77.0561 85.5153C76.8905 84.838 76.7155 84.4339 76.5752 84.2383C76.5105 84.1483 76.4928 84.1589 76.5433 84.183C76.6155 84.2174 76.6986 84.2189 76.7467 84.2061C76.7584 84.203 76.5388 84.2837 76.113 84.8764L74.4888 83.7094C74.9613 83.0517 75.5308 82.4593 76.2343 82.2729C76.6282 82.1685 77.0328 82.2008 77.4036 82.3775C77.7526 82.5438 78.0106 82.8082 78.2001 83.0724C78.5682 83.5854 78.8159 84.2921 78.9989 85.0401C79.1875 85.8115 79.3307 86.729 79.4393 87.7366C79.8722 91.751 79.7937 97.5659 79.5939 102.333L77.5957 102.249ZM88.5948 109.536C81.9295 110.331 78.5183 105.209 77.6467 102.609L79.543 101.973C80.2682 104.136 83.0452 108.183 88.3578 107.55L88.5948 109.536ZM92.2877 109.138C91.1157 109.257 89.8722 109.383 88.5948 109.536L88.3578 107.55C89.6553 107.395 90.9158 107.267 92.0856 107.148L92.2877 109.138ZM92.2987 109.137L92.2981 109.137L92.0752 107.149L92.0758 107.149L92.2987 109.137ZM98.9251 104.146C99.3617 104.447 99.7316 104.75 100.004 105.064C100.267 105.365 100.527 105.778 100.546 106.285C100.566 106.847 100.285 107.274 99.9647 107.552C99.6667 107.812 99.2917 107.987 98.9325 108.115C98.2066 108.375 97.2199 108.556 96.1196 108.708C95.0036 108.862 93.6922 108.995 92.2884 109.138L92.0862 107.148C93.501 107.004 94.7732 106.875 95.8464 106.727C96.9352 106.577 97.7432 106.417 98.2583 106.232C98.5196 106.139 98.6266 106.066 98.6522 106.043C98.6556 106.04 98.5396 106.153 98.5471 106.358C98.5526 106.508 98.622 106.522 98.4951 106.376C98.3781 106.242 98.1603 106.048 97.7911 105.794L98.9251 104.146ZM98.0704 103.578C98.3325 103.749 98.6212 103.937 98.9251 104.146L97.7911 105.794C97.5108 105.601 97.2422 105.426 96.9779 105.253L98.0704 103.578ZM99.3154 85.4749C98.0706 89.6001 97.1997 92.7108 96.6417 95.0915C96.0809 97.4838 95.8505 99.0807 95.8546 100.199C95.8586 101.288 96.0842 101.846 96.3812 102.238C96.7195 102.684 97.2215 103.024 98.0704 103.578L96.9779 105.253C96.2044 104.749 95.3762 104.222 94.7876 103.446C94.1577 102.615 93.8597 101.596 93.8546 100.207C93.8496 98.8478 94.1245 97.0666 94.6945 94.6351C95.2672 92.1919 96.1527 89.0329 97.4007 84.8971L99.3154 85.4749ZM101.291 44.6293C103.753 48.0558 104.542 53.8933 104.123 60.9052C103.699 67.9831 102.026 76.4926 99.3154 85.4749L97.4007 84.8971C100.08 76.017 101.714 67.6659 102.126 60.7857C102.542 53.8395 101.697 48.6217 99.667 45.7963L101.291 44.6293ZM98.6591 39.2131C99.1476 40.9197 99.9689 42.7889 101.291 44.6293L99.667 45.7963C98.1977 43.7513 97.2818 41.6693 96.7363 39.7635L98.6591 39.2131ZM96.897 38.8893C99.7864 35.0268 101.464 30.3885 101.464 25.4042H103.464C103.464 30.85 101.628 35.9034 98.4985 40.0873L96.897 38.8893ZM101.464 25.4042C101.464 21.7375 100.556 18.2606 98.9284 15.1422L100.701 14.2167C102.472 17.6085 103.464 21.4016 103.464 25.4042H101.464ZM99.0008 14.0988C100.102 12.5546 101.283 10.3683 101.681 8.28127C102.073 6.22817 101.692 4.46965 99.9624 3.31981L101.07 1.65422C103.711 3.40999 104.125 6.14196 103.646 8.65582C103.173 11.1357 101.818 13.5928 100.629 15.2601L99.0008 14.0988ZM99.9624 3.31981C97.1358 1.4409 95.1862 0.836543 93.7318 1.03653C92.342 1.22763 91.1065 2.20313 89.8199 4.3315L88.1084 3.29686C89.5171 0.966377 91.1838 -0.631933 93.4593 -0.944825C95.6701 -1.24882 98.1487 -0.287343 101.07 1.65422L99.9624 3.31981Z" fill="#564138" mask="url(#path-16-inside-1)"/>
<path d="M81.5363 56.1809C80.6117 52.4934 78.326 51.3154 77.2987 51.1874C76.143 46.9621 67.3597 40.432 41.4714 48.1144C15.5831 55.7968 18.6137 74.6187 23.365 83.0693C29.4005 88.447 42.8583 98.5109 48.4058 95.7452C53.9533 92.9796 55.3401 100.483 55.3401 104.58H73.8318V93.8246L75.3725 71.9298C77.8123 68.2167 82.4609 59.8685 81.5363 56.1809Z" fill="#E4421E" stroke="#A01D1D"/>
<path d="M41.5076 102.131C44.1112 97.5245 47.1469 95.999 48.3393 95.8122L47.974 94.7759C46.3524 95.2682 42.6399 97.2914 40.7627 101.446C38.8855 105.601 33.4373 110.696 30.9479 112.724L31.8417 113.546C33.9788 111.661 38.904 106.738 41.5076 102.131Z" fill="#C4C4C4" stroke="white" stroke-width="0.6"/>
<path d="M53.9189 97.182C53.6621 92.5726 52.2239 82.5087 48.5256 79.1284" stroke="#A01D1D"/>
<path d="M51.9922 86.4268C50.8365 84.8903 47.6775 81.5869 44.2873 80.665" stroke="#A01D1D"/>
<path d="M67.7676 62.2275C66.9971 63.636 65.1479 66.5297 63.9152 66.837" stroke="#A01D1D"/>
<path d="M69.3041 63.8492C69.2356 64.6251 68.9108 66.287 68.1598 66.7282" stroke="#A01D1D"/>
<path d="M71.6198 67.605C71.7483 69.1415 71.3116 72.3681 68.5379 72.9827" stroke="#A01D1D"/>
<path d="M77.759 79.2656L84.2764 69.0771L77.2221 82.6837L75.2106 75.3657L77.759 79.2656Z" fill="#C4C4C4"/>
<path d="M91.4121 43.0638L97.74 36.8755C109.587 51.418 101.936 79.0333 96.6293 91.0231L79.2283 92.9569C79.722 90.8942 74.7216 88.8048 74.7216 84.5063C74.7216 82.9592 74.7855 79.9128 75.4921 77.5922L75.8773 71.8304C75.8773 68.8846 79.0043 70.3071 80.115 68.3733C83.1398 63.1068 83.1775 53.6355 82.9307 48.0918L91.4121 43.0638Z" fill="#E4421E" stroke="#A01D1D"/>
<path d="M69.1667 63.377C64.9536 57.0934 58.7871 53.6905 52.7177 49.9265L53.4433 48.5655C58.0891 50.9393 64.4456 52.2231 71.2939 63.6753C77.6101 74.2378 79.7103 81.9037 74.323 87.9631L74.3246 85.6581C78.1815 79.5107 73.3797 69.6606 69.1667 63.377Z" fill="#C4C4C4" stroke="white" stroke-width="0.6"/>
<path d="M54.3191 37.9489C54.0037 39.5012 55.574 44.5105 56.3986 46.8211C56.4567 47.8492 54.7392 48.6871 53.8732 48.9776C52.8355 49.3934 50.2638 50.3666 48.2784 50.9332C46.2931 51.4997 40.8404 56.5155 38.3622 58.9526C38.395 59.7158 38.2598 61.593 37.4568 62.9972C36.6539 64.4014 37.4162 69.8741 37.8977 72.4349C37.2189 72.6939 35.7072 73.4973 35.0911 74.6393C34.475 75.7813 36.226 75.9366 37.1785 75.8715C37.0386 76.1834 36.212 77.5051 34.025 80.2965C31.2913 83.7857 28.8061 82.765 26.6458 80.248C24.4856 77.731 22.9382 77.1281 19.4203 75.1292C15.9024 73.1302 10.2356 62.7032 9.411 60.3926C8.5864 58.082 23.5836 37.3845 25.0616 38.4315C26.2439 39.2692 29.1793 39.7045 30.4992 39.8174C30.7085 39.0614 31.2818 37.6096 31.9007 37.8508C32.6744 38.1522 39.5721 31.9409 41.094 31.5393C42.6158 31.1377 54.7134 36.0086 54.3191 37.9489Z" fill="#BDC0BA" stroke="white" stroke-width="0.6"/>
<path d="M30.9936 52.993L30.4536 52.3639L37.6043 45.1004L37.8159 45.4969L30.9936 52.993Z" fill="#6DC2FF" stroke="white" stroke-width="0.6"/>
<path d="M34.7803 49.7582L37.9799 45.6136L37.7683 45.2171L33.9594 49.1766L34.7803 49.7582Z" fill="#6DC2FF" stroke="white" stroke-width="0.6"/>
<path d="M53.8975 48.2549C50.6056 46.1695 43.2687 42.501 40.2554 44.5098C36.4887 47.0207 35.6965 49.1726 34.9992 51.8848C34.4414 54.0546 31.8201 55.3053 30.5791 55.6594" stroke="white" stroke-width="0.6"/>
<path d="M39.0749 44.4193C39.2684 43.5698 39.5139 41.3758 38.9475 39.396C38.3811 37.4162 36.1757 36.1173 35.1438 35.7153" stroke="white" stroke-width="0.6"/>
<path d="M51.3244 40.765C51.3426 42.011 51.1592 44.7419 50.2805 45.6977" stroke="white" stroke-width="0.6"/>
<path d="M47.9295 42.0595C48.0559 42.8068 48.192 44.4652 47.7249 45.1208" stroke="white" stroke-width="0.6"/>
<path d="M47.2763 43.3229C47.4879 43.7195 47.8412 44.611 47.5608 45.0044" stroke="white" stroke-width="0.6"/>
<path d="M44.8771 39.4041C44.9658 40.7824 45.2183 43.6415 45.5191 44.0518" stroke="white" stroke-width="0.6"/>
<path d="M44.2973 41.9525C44.3216 42.3808 44.4782 43.3633 44.9104 43.8667" stroke="white" stroke-width="0.6"/>
<path d="M42.9826 41.0211C42.8669 41.7613 42.7999 43.3581 43.4568 43.8235" stroke="white" stroke-width="0.6"/>
<path d="M54.4029 44.4245C54.1233 45.0482 53.3678 46.5019 52.5828 47.3266" stroke="white" stroke-width="0.6"/>
<path d="M30.7377 55.7741C28.7728 53.5601 25.0144 48.2671 25.701 44.807C26.3876 41.3469 25.3693 39.1458 24.7743 38.4777" stroke="white" stroke-width="0.6"/>
<path d="M34.873 74.9663C33.3361 75.8509 29.4416 77.3842 26.1591 76.4405C22.8766 75.4967 21.0241 74.8588 20.5082 74.6578" stroke="white" stroke-width="0.6"/>
<path d="M54.0615 48.3721C50.3513 48.3751 42.584 48.3823 41.1968 48.3864C39.8096 48.3904 37.8371 47.8977 37.0243 47.6509" stroke="white" stroke-width="0.6"/>
<path d="M46.3398 52.272C42.742 53.5052 35.2834 55.7856 34.2323 55.041C33.1811 54.2964 33.2152 54.1561 33.3636 54.179" stroke="white" stroke-width="0.6"/>
<path d="M39.2803 41.3569C36.8123 41.5823 31.6317 41.6131 30.6534 39.9336" stroke="white" stroke-width="0.6"/>
<path d="M32.0463 43.8779C30.5923 47.5829 27.9662 49.3725 26.835 49.8041C26.2864 48.8401 25.2872 46.636 25.6784 45.5321C26.1675 44.1522 33.8638 39.2466 32.0463 43.8779Z" fill="#FAFAFA" stroke="white" stroke-width="0.6"/>
<path d="M26.9015 47.6302C27.9075 47.0276 29.8908 45.6542 29.777 44.9817C29.6347 44.141 24.1392 48.3859 26.9015 47.6302Z" fill="#C4C4C4" stroke="white" stroke-width="0.6"/>
<path d="M32.1866 42.0041L32.3225 42.1004C32.2808 42.0633 32.2354 42.0313 32.1866 42.0041L29.0373 39.7735L24.7701 38.4775C25.2555 39.068 25.989 41.1846 25.832 42.1896C25.6932 43.0779 26.1639 44.1514 25.8609 44.9233C27.6011 43.7048 30.9627 41.3233 32.1866 42.0041Z" fill="#FAFAFA"/>
<path d="M32.3225 42.1004L29.0373 39.7735L24.7701 38.4775C25.2555 39.068 25.989 41.1846 25.832 42.1896C25.6932 43.0779 26.1639 44.1514 25.8609 44.9233C27.6704 43.6562 31.2333 41.1316 32.3225 42.1004Z" stroke="white" stroke-width="0.6"/>
<path d="M54.0425 41.4569C52.6249 39.6307 48.7967 36.2617 44.8246 37.3949C40.8525 38.5281 39.3606 39.2801 39.1112 39.5144" stroke="white" stroke-width="0.6"/>
<path d="M29.0659 54.1705C29.3871 55.3846 31.9545 57.2853 33.1981 58.0839C34.5181 59.0064 31.8725 63.0647 28.5177 61.1819C25.163 59.2991 22.6955 55.8248 24.6816 53.0384C26.6678 50.252 28.6645 52.6529 29.0659 54.1705Z" fill="#DFDFDF" stroke="white" stroke-width="0.6"/>
<path d="M24.2488 56.026C25.2969 56.7243 28.488 56.4523 29.9525 56.229C31.5568 56.0481 32.2681 60.8415 28.4978 61.6475C24.7276 62.4535 20.5655 61.4791 20.2046 58.0759C19.8436 54.6726 22.9386 55.1531 24.2488 56.026Z" fill="#DFDFDF" stroke="white" stroke-width="0.6"/>
<path d="M38.3672 58.9531C37.1173 58.9724 34.2232 58.7317 32.646 57.6147" stroke="white" stroke-width="0.6"/>
<path d="M38.1178 44.726C38.1002 45.3054 38.906 44.5445 39.1943 44.2556C38.743 45.0045 37.5827 46.5172 37.4864 45.2652C37.3902 44.0132 38.5533 43.8836 39.1469 43.9753C38.8112 43.9841 38.1353 44.1465 38.1178 44.726Z" fill="#868686" stroke="white" stroke-width="0.6"/>
<path d="M49.0604 96.0769C49.0604 96.0769 49.4383 98.0412 52.0635 97.8031C54.6886 97.5651 53.1055 95.7968 53.1055 95.7968L49.6872 94.5791L49.0604 96.0769Z" fill="#C4C4C4" stroke="white" stroke-width="0.6"/>
<path d="M48.9079 96.0452L33.8837 79.8807L35.1871 78.4322L49.6832 94.509L48.9079 96.0452Z" fill="#C4C4C4" stroke="white" stroke-width="0.6"/>
<path d="M43.9021 43.586C43.9021 47.5808 52.1206 48.3235 56.2299 48.1954L97.4508 35.903L98.9918 39.1794C100.918 38.9233 102.459 34.6463 102.459 30.3447C102.459 14.5958 70.8691 19.7706 55.8446 22.8435C40.8202 25.9165 43.9021 38.5924 43.9021 43.586Z" fill="#E4421E" stroke="#A01D1D"/>
<path d="M92.4424 53.3926C90.6446 55.9534 86.3556 61.6896 83.5818 64.1479" stroke="#A01D1D"/>
<path d="M60.8525 46.4783C60.495 46.3436 60.1198 46.2 59.7302 46.0486C50.7622 42.2425 48.0011 31.8101 47.7543 26.8882C45.0576 29.577 43.9019 35.3388 44.2871 37.6435C44.6232 39.6543 53.8221 43.7521 59.7302 46.0486C60.094 46.203 60.468 46.3465 60.8525 46.4783Z" fill="#BE3010"/>
<path d="M51.1162 112.297C49.7898 111.811 45.581 106.166 43.6424 103.405C39.9108 101.422 36.0224 102.16 34.9206 103.397C34.0392 104.387 35.3164 105.695 35.0578 107.796C34.956 108.631 34.8156 110.784 35.0682 112.723C36.9019 113.739 41.4553 118.106 44.5659 120.169C47.6765 122.232 53.161 120.704 55.8506 119.536C58.5401 118.368 56.6717 116.145 55.9454 115.417C55.219 114.689 52.7741 112.905 51.1162 112.297Z" fill="#93671E"/>
<path d="M51.1235 110.76C49.7969 110.274 49.6303 107.474 48.8504 104.026C45.1181 102.043 35.743 101.793 34.6409 103.03C33.7593 104.019 34.5543 105.595 35.062 106.26C34.9602 107.094 34.8198 109.247 35.0725 111.186C37.3519 111.713 41.4608 116.568 44.572 118.631C47.6831 120.693 53.1687 119.166 55.8588 117.998C58.5488 116.83 56.68 114.607 55.9536 113.88C55.2271 113.152 52.7817 111.368 51.1235 110.76Z" fill="#DAA347" stroke="#98691B" stroke-width="0.3"/>
<path d="M40.3939 105.558C40.9109 106.442 41.4827 108.058 39.6338 107.459C37.785 106.86 35.7834 106.463 35.0137 106.34" stroke="#98691B" stroke-width="0.3"/>
<path d="M35.0102 108.654C36.42 108.904 39.4719 109.784 40.4006 111.309C41.3294 112.834 42.0737 113.213 42.3298 113.212" stroke="#98691B" stroke-width="0.3"/>
<path d="M52.5526 111.958C51.6122 111.988 50.5728 112.023 49.275 109.778C47.9772 107.533 48.9253 105.09 48.1084 103.642" stroke="#98691B" stroke-width="0.3"/>
<path d="M34.6413 103.013C35.1486 103.678 36.5426 105.014 38.0603 105.037C39.9574 105.066 40.9235 105.216 41.339 105.984C41.7546 106.752 45.6293 112.278 46.9408 112.656C47.99 112.959 47.6117 114.578 47.2914 115.35" stroke="#98691B" stroke-width="0.3"/>
<path d="M57.1193 117.236C56.5009 118.956 54.4782 121.202 46.8413 120.816C43.2811 120.18 41.2817 117.783 39.1004 115.602C36.9191 113.422 34.7428 113.702 35.0486 111.201" stroke="#98691B" stroke-width="0.3"/>
<path d="M48.0992 103.21C48.0927 101.683 45.2648 99.4018 45.7724 98.2546C41.1544 96.7439 32.1538 94.7908 33.0943 99.0635C34.2699 104.404 37.3458 104.775 38.1159 105.154C38.8861 105.533 48.1073 105.119 48.0992 103.21Z" fill="#313131"/>
<path d="M47.7023 103.253C48.4755 104.396 48.4819 105.925 48.4866 107.071L46.1846 107.843C45.4178 108.228 43.1141 108.618 43.1141 108.618C42.9845 108.236 41.9536 106.711 41.182 105.949C40.572 105.347 39.8944 105.069 40.4056 104.042C40.7866 103.277 46.5497 103.257 47.7023 103.253Z" fill="#DAA347" stroke="#98691B" stroke-width="0.3"/>
<path d="M46.7852 118.473C47.4547 117.304 48.8791 114.871 49.2204 114.491C49.647 114.016 48.3703 111.837 46.8418 110.997C45.619 110.325 44.5293 108.347 44.1373 107.442C43.3445 106.278 41.7131 104.55 41.5305 106.956C41.3023 109.963 45.2156 107.089 46.519 107.333C47.8224 107.576 49.9792 106.869 49.1527 105.883C48.3262 104.897 45.1652 107.357 45.34 108.221C45.5147 109.086 42.4814 109.074 42.982 109.999C43.4826 110.924 48.4237 107.966 49.351 108.416C50.2783 108.866 50.5538 109.194 50.0768 109.937C49.5998 110.68 42.5555 110.474 43.9832 111.849C45.4109 113.225 49.6503 110.412 50.527 111.13C51.4038 111.849 45.3605 113.493 45.159 114.564C44.9979 115.421 45.307 117.365 45.4818 118.229" stroke="#564138" stroke-width="0.3"/>
<path d="M46.9359 2.87533C52.8572 -2.40728 59.272 2.22795 61.7393 5.20589L49.2732 14.5281C46.0269 12.845 41.0145 8.15794 46.9359 2.87533Z" fill="#313131"/>
<path d="M101.084 2.48701C105.759 5.59443 102.253 12.3272 99.9157 15.3051C95.5008 13.104 87.2163 7.76963 89.3979 4.04072C92.1248 -0.620404 95.241 -1.39726 101.084 2.48701Z" fill="#313131"/>
<ellipse rx="28.0485" ry="25.2478" transform="matrix(-1 0 0 1 74.9837 25.404)" fill="#313131"/>
<ellipse rx="2.72694" ry="2.71899" transform="matrix(-1 0 0 1 90.6471 22.719)" fill="#FAFAFA"/>
<ellipse rx="1.94782" ry="1.94214" transform="matrix(-1 0 0 1 90.6469 22.719)" fill="#595959"/>
<ellipse rx="2.72694" ry="2.71899" transform="matrix(-1 0 0 1 72.7272 22.719)" fill="#FAFAFA"/>
<ellipse rx="10.1286" ry="8.93383" transform="matrix(-1 0 0 1 82.1282 34.9338)" fill="#C4C4C4"/>
<ellipse rx="6.23301" ry="4.2727" transform="matrix(-1 0 0 1 84.35 37.2644)" fill="#313131"/>
<ellipse rx="1.94782" ry="1.94214" transform="matrix(-1 0 0 1 72.727 22.719)" fill="#595959"/>
<ellipse rx="3.50607" ry="2.71899" transform="matrix(-1 0 0 1 64.5057 28.719)" fill="#FFBABA"/>
<ellipse rx="2.72694" ry="1.94214" transform="matrix(-1 0 0 1 96.7272 28.719)" fill="#FFBABA"/>
<path d="M78.9597 56.0816C80.5644 57.948 79.9874 60.6912 79.7306 62.6118C82.8128 53.7771 75.4925 47.6312 68.9434 47.247C64.2403 46.9712 62.4966 48.5317 60.7028 47.65L60.0828 47.2469C60.2931 47.4172 60.4983 47.5495 60.7028 47.65L68.9434 53.0087C74.3368 51.8563 76.6479 53.3928 78.9597 56.0816Z" fill="#E4421E" stroke="#A01D1D"/>
<path d="M84.7377 46.8626C82.5804 49.6282 82.5547 53.1365 82.8115 54.545C84.3525 50.2428 90.0027 49.1673 91.6721 49.5514C91.6721 47.5438 95.3634 43.3725 98.0481 39.9104C98.3306 39.6698 98.5239 39.4272 98.6064 39.1802C98.4266 39.4193 98.2399 39.663 98.0481 39.9104C95.6946 41.9143 87.1454 43.7761 84.7377 46.8626Z" fill="#E4421E" stroke="#A01D1D"/>
<ellipse rx="3.46718" ry="1.9206" transform="matrix(-1 0 0 1 21.1725 98.7184)" fill="white"/>
<ellipse rx="5.00815" ry="2.68884" transform="matrix(-1 0 0 1 8.84537 97.182)" fill="white"/>
</svg>
