<svg width="277" height="170" viewBox="0 0 277 170" fill="none" xmlns="http://www.w3.org/2000/svg">
<path d="M38.6017 153C46.9163 148.208 42.0661 135.697 38.6017 130.04C17.7549 113.737 -3.74783 80.1205 1.92164 56.9019C9.47789 25.9562 24.429 8.58629 127.89 1.9313C231.351 -4.72369 260.641 24.891 273.397 71.4759C286.152 118.061 246.147 174.155 163 167.5C79.8532 160.845 66.4747 148.342 38.6017 153Z" fill="white" stroke="#564138" stroke-width="2"/>
<path d="M40.904 55.416V59.064H36.728V55.416H40.904ZM42.072 60.2V54.264H35.576V61.48H36.728V60.2H42.072ZM48.104 50.744H33.944V51.928H44.92V62.504C44.92 62.84 44.808 62.952 44.456 62.968C44.088 62.984 42.776 63 41.496 62.936C41.688 63.272 41.928 63.864 42.008 64.2C43.576 64.2 44.68 64.2 45.32 63.976C45.928 63.8 46.136 63.368 46.136 62.52V51.928H48.104V50.744ZM54.216 49.944C53.224 52.392 51.448 54.6 49.432 55.96C49.72 56.168 50.232 56.616 50.44 56.872C52.456 55.368 54.312 52.984 55.464 50.296L54.216 49.944ZM52.024 55.624V56.776H55.288C54.92 59.48 54.04 62.008 50.28 63.256C50.552 63.512 50.888 63.992 51.048 64.296C55.112 62.824 56.136 59.928 56.552 56.776H60.68C60.488 60.808 60.264 62.408 59.848 62.808C59.704 62.984 59.512 63.016 59.176 63.016C58.808 63.016 57.816 63 56.776 62.904C57 63.256 57.144 63.736 57.176 64.088C58.168 64.136 59.16 64.168 59.688 64.12C60.248 64.056 60.584 63.96 60.92 63.56C61.464 62.952 61.704 61.112 61.928 56.2C61.944 56.04 61.96 55.624 61.96 55.624H52.024ZM58.616 50.36C59.8 52.728 61.816 55.304 63.576 56.728C63.8 56.392 64.248 55.928 64.552 55.672C62.824 54.456 60.776 52.056 59.736 49.912L58.616 50.36ZM67.672 51.416H71.736V54.488H67.672V51.416ZM69.32 57.256C69.384 56.68 69.432 56.104 69.464 55.544H72.856V50.344H66.568V55.544H68.312C68.152 58.44 67.768 61.704 65.592 63.432C65.88 63.608 66.248 63.992 66.408 64.248C68.088 62.856 68.84 60.648 69.192 58.328H71.816C71.672 61.48 71.512 62.696 71.224 63.016C71.08 63.16 70.952 63.192 70.68 63.192C70.392 63.192 69.64 63.192 68.856 63.112C69.048 63.384 69.16 63.832 69.192 64.152C69.96 64.184 70.744 64.2 71.144 64.152C71.624 64.12 71.896 64.024 72.168 63.704C72.6 63.208 72.76 61.752 72.952 57.768C72.952 57.624 72.968 57.256 72.968 57.256H69.32ZM75.64 51.528H74.488V60.328H75.64V51.528ZM78.376 49.928V62.648C78.376 62.952 78.248 63.048 77.96 63.048C77.656 63.064 76.648 63.08 75.528 63.032C75.72 63.368 75.896 63.912 75.96 64.232C77.416 64.232 78.312 64.216 78.84 64.024C79.336 63.816 79.56 63.448 79.56 62.648V49.928H78.376ZM96.168 52.92V51.832H89.368C89.64 51.192 89.88 50.536 90.088 49.864L88.936 49.608C88.376 51.608 87.384 53.56 86.168 54.808C86.456 54.968 86.92 55.336 87.144 55.528C87.768 54.824 88.344 53.928 88.856 52.92H96.168ZM86.584 57.72L86.424 56.616L84.856 57.128V53.928H86.472V52.824H84.856V49.624H83.704V52.824H81.672V53.928H83.704V57.48C82.872 57.736 82.12 57.96 81.528 58.12L81.816 59.272C82.392 59.096 83.032 58.888 83.704 58.664V62.728C83.704 62.968 83.624 63.032 83.416 63.032C83.24 63.032 82.616 63.032 81.928 63.016C82.088 63.352 82.248 63.864 82.28 64.168C83.304 64.184 83.912 64.136 84.296 63.944C84.696 63.736 84.856 63.416 84.856 62.744V58.296L86.584 57.72ZM90.504 63.064C89.48 63.064 89.288 62.92 89.288 62.248V58.104L91.208 57.352V61.544H92.264V56.952L94.2 56.2C94.184 58.088 94.168 59.464 94.12 59.688C94.072 59.96 93.96 60.008 93.768 60.008C93.624 60.008 93.192 60.008 92.872 59.992C93.016 60.248 93.112 60.696 93.144 61.032C93.528 61.048 94.056 61.032 94.424 60.92C94.856 60.808 95.112 60.52 95.16 59.96C95.224 59.496 95.24 57.48 95.256 55.304L95.304 55.112L94.536 54.824L94.328 54.968L94.232 55.048L92.264 55.816V53.416H91.208V56.232L89.288 56.984V54.696H88.216V57.384L86.568 58.04L86.936 59.016L88.216 58.52V62.248C88.216 63.72 88.712 64.088 90.472 64.088H94.28C95.784 64.088 96.12 63.56 96.296 61.688C95.976 61.624 95.528 61.448 95.272 61.272C95.176 62.76 95.032 63.064 94.216 63.064H90.504ZM100.424 57.256V55.304H104.376C104.456 55.976 104.552 56.632 104.68 57.256H100.424ZM104.152 52.376C104.184 53.032 104.216 53.656 104.28 54.28H100.424V52.376H104.152ZM109.656 52.376V54.28H105.448C105.384 53.672 105.352 53.032 105.32 52.376H109.656ZM105.848 57.256C105.736 56.648 105.624 55.992 105.544 55.304H109.656V57.256H105.848ZM109.288 58.488C108.664 59.256 107.832 59.928 106.856 60.488C106.552 59.864 106.296 59.128 106.088 58.312H110.84V51.336H105.288C105.288 50.792 105.288 50.232 105.288 49.656H104.088C104.088 50.232 104.104 50.792 104.12 51.336H99.256V59.256H100.424V58.312H104.904C105.144 59.336 105.448 60.248 105.832 61.048C103.64 62.088 100.904 62.76 98.104 63.16C98.328 63.416 98.664 63.96 98.792 64.232C101.464 63.768 104.136 63.08 106.376 62.008C107.304 63.4 108.552 64.216 110.248 64.216C111.64 64.216 112.104 63.592 112.344 61.304C112.024 61.208 111.608 60.968 111.336 60.744C111.192 62.568 110.984 63.08 110.264 63.08C109.096 63.08 108.152 62.504 107.416 61.448C108.6 60.776 109.624 59.96 110.424 59L109.288 58.488ZM123 59.528V61.576H119.112V59.528H123ZM124.088 62.504V58.6H118.056V63.48H119.112V62.504H124.088ZM119.24 53.896C119.096 53.432 118.808 52.76 118.488 52.216H123.48C123.256 52.76 122.92 53.432 122.648 53.896H119.24ZM127.88 52.216V51.128H121.544V49.624H120.344V51.128H114.152V52.216H117.208C117.48 52.712 117.784 53.384 117.96 53.896H114.824V64.2H115.944V54.936H118.808C118.648 56.424 118.072 57.16 116.056 57.576C116.264 57.768 116.536 58.168 116.632 58.408C118.968 57.848 119.688 56.856 119.88 54.936H121.784V56.536C121.784 57.528 122.056 57.784 123.176 57.784H124.824C125.672 57.784 125.96 57.464 126.072 56.184C125.768 56.12 125.336 55.976 125.16 55.816C125.112 56.76 125.048 56.872 124.696 56.872H123.304C122.904 56.872 122.84 56.84 122.84 56.52V54.936H126.184V62.744C126.184 63 126.104 63.08 125.832 63.08C125.544 63.096 124.584 63.112 123.544 63.064C123.72 63.368 123.896 63.912 123.944 64.216C125.256 64.216 126.136 64.2 126.664 64.024C127.176 63.832 127.336 63.448 127.336 62.744V53.896H123.96C124.248 53.416 124.568 52.824 124.872 52.216H127.88ZM140.2 54.456H133.848V51.432H140.2V54.456ZM141.4 50.296H132.696V55.592H141.4V50.296ZM134.856 58.424V62.216H131.512V58.424H134.856ZM130.376 64.232H131.512V63.368H134.856V64.088H136.024V57.272H130.376V64.232ZM138.92 62.216V58.424H142.552V62.216H138.92ZM137.768 57.272V64.232H138.92V63.368H142.552V64.12H143.72V57.272H137.768ZM152.008 58.712H153.896V59.64H152.008V58.712ZM151.272 60.264H154.664V58.088H151.272V60.264ZM150.248 57.4H155.688V60.952H150.248V57.4ZM149.32 61.704H156.664V56.664H149.32V61.704ZM150.824 52.728H155.128V53.784H150.824V52.728ZM153.448 55.224V54.504H156.152V52.024H149.832V54.504H152.44V55.224H148.232V55.976H157.8V55.224H153.448ZM147.48 62.552V51.272H158.52V62.552H147.48ZM146.376 50.264V64.2H147.48V63.576H158.52V64.2H159.656V50.264H146.376ZM165.144 54.936H175.4V53.736H170.92V49.64H169.672V53.736H165.144V50.04H163.928V55.336C163.928 58.12 163.704 61.064 161.688 63.32C161.96 63.528 162.408 63.96 162.6 64.248C164.072 62.632 164.696 60.696 164.952 58.696H171.672V64.216H172.936V57.48H165.08C165.128 56.76 165.144 56.04 165.144 55.32V54.936ZM182.536 61.96V59.304H185.544V58.216H182.536V56.312H181.384V58.216H178.328V59.304H181.384V62.104C179.976 62.28 178.696 62.44 177.688 62.552L177.88 63.736C179.992 63.432 183.112 63 186.088 62.568L186.056 61.496L182.536 61.96ZM182.904 53.048C183.32 53.544 183.768 54.12 184.168 54.696C182.888 54.76 181.624 54.808 180.488 54.856C180.936 53.912 181.4 52.728 181.8 51.72H186.024V50.664H177.864V51.72H180.472C180.168 52.712 179.72 53.96 179.288 54.904L177.832 54.968L177.928 56.104C179.752 55.992 182.328 55.864 184.84 55.688C185.064 56.056 185.24 56.392 185.384 56.68L186.312 56.12C185.864 55.144 184.744 53.656 183.784 52.552L182.904 53.048ZM187.848 51.528H186.712V60.328H187.848V51.528ZM190.472 50.056V62.616C190.472 62.92 190.376 63 190.088 63.016C189.784 63.016 188.776 63.032 187.736 62.984C187.896 63.336 188.072 63.896 188.136 64.216C189.432 64.216 190.376 64.2 190.904 64.008C191.432 63.8 191.624 63.432 191.624 62.616V50.056H190.472ZM198.44 51.672V54.696H195.448V51.672H198.44ZM195.448 58.968V55.784H198.44V58.968H195.448ZM199.544 60.072V50.6H194.328V61.544H195.448V60.072H199.544ZM202.072 58.04C202.152 57.32 202.168 56.616 202.168 55.96V55.24H206.632V58.04H202.072ZM206.632 51.416V54.152H202.168V51.416H206.632ZM207.784 50.296H201.016V55.96C201.016 58.44 200.744 61.448 198.056 63.512C198.296 63.672 198.744 64.072 198.936 64.328C200.744 62.936 201.56 61.032 201.912 59.128H206.632V62.648C206.632 62.936 206.52 63.032 206.216 63.048C205.96 63.048 204.952 63.064 203.912 63.032C204.104 63.336 204.296 63.864 204.36 64.184C205.72 64.184 206.6 64.152 207.112 63.976C207.624 63.768 207.784 63.4 207.784 62.648V50.296ZM222.824 50.376H215.496V51.352H222.824V50.376ZM213.464 49.656C212.536 52.072 210.984 54.44 209.368 55.96C209.576 56.232 209.928 56.856 210.04 57.112C210.648 56.504 211.24 55.8 211.816 55V64.168H212.936V53.288C213.56 52.248 214.12 51.112 214.568 49.992L213.464 49.656ZM222.072 60.136V62.488H216.28V60.136H222.072ZM215.128 64.216H216.28V63.464H222.072V64.168H223.256V59.176H215.128V64.216ZM215.304 57.944H223.08V56.984H215.304V57.944ZM223.112 54.776H215.304V55.752H223.112V54.776ZM213.992 52.568V53.56H224.328V52.568H213.992ZM229.144 54.936H239.4V53.736H234.92V49.64H233.672V53.736H229.144V50.04H227.928V55.336C227.928 58.12 227.704 61.064 225.688 63.32C225.96 63.528 226.408 63.96 226.6 64.248C228.072 62.632 228.696 60.696 228.952 58.696H235.672V64.216H236.936V57.48H229.08C229.128 56.76 229.144 56.04 229.144 55.32V54.936ZM254.872 62.2C255.08 62.2 255.368 62.152 255.528 62.072C255.72 61.976 255.864 61.816 255.944 61.592C256.024 61.368 256.072 60.712 256.104 60.136C255.832 60.056 255.496 59.896 255.304 59.72C255.288 60.296 255.272 60.744 255.24 60.936C255.208 61.128 255.144 61.24 255.08 61.272C255.032 61.32 254.888 61.32 254.792 61.32H254.376C254.264 61.32 254.2 61.304 254.136 61.272C254.088 61.208 254.088 61.048 254.088 60.776V57.944H250.36V59.208C250.36 60.04 250.168 61 249.096 61.784C249.304 61.928 249.688 62.296 249.832 62.488C251.064 61.56 251.336 60.28 251.336 59.24V58.856H253.064V60.712C253.064 61.512 253.128 61.736 253.32 61.928C253.528 62.12 253.864 62.2 254.152 62.2H254.872ZM248.248 58.824C247.976 59.72 247.592 60.488 247.096 61.128C246.728 60.6 246.408 59.96 246.168 59.144C246.232 59.032 246.296 58.936 246.36 58.824H248.248ZM248.792 57.928L248.6 57.96H246.808C246.968 57.624 247.112 57.272 247.224 56.92L246.28 56.68C245.8 58.168 244.92 59.512 243.864 60.408C244.088 59 244.152 57.592 244.152 56.456V53.496H248.232V54.568L245.016 54.776L245.064 55.576L248.232 55.368V55.816C248.232 56.92 248.696 57.16 250.408 57.16H254.024C255.24 57.16 255.608 56.872 255.72 55.64C255.432 55.592 254.984 55.464 254.76 55.32C254.696 56.168 254.568 56.296 253.912 56.296H250.472C249.496 56.296 249.352 56.216 249.352 55.816V55.304L253.4 55.048L253.336 54.248L249.352 54.504V53.496H254.568C254.36 54.056 254.136 54.616 253.928 55.016L254.904 55.32C255.288 54.664 255.672 53.64 256.008 52.728L255.176 52.504L254.984 52.552H249.4V51.512H254.872V50.632H249.4V49.624H248.232V52.552H243.032V56.44C243.032 58.552 242.904 61.464 241.64 63.544C241.896 63.656 242.376 64.04 242.568 64.248C243.224 63.176 243.608 61.864 243.848 60.52C244.056 60.712 244.376 61.016 244.504 61.176C244.872 60.84 245.224 60.456 245.56 60.024C245.832 60.728 246.136 61.336 246.472 61.816C245.672 62.6 244.696 63.128 243.624 63.448C243.832 63.656 244.056 64.04 244.168 64.28C245.272 63.896 246.28 63.336 247.096 62.552C248.344 63.752 250.04 64.04 252.216 64.04H255.976C256.024 63.752 256.2 63.272 256.36 63.032C255.688 63.048 252.76 63.048 252.28 63.048C250.424 63.048 248.888 62.824 247.752 61.848C248.52 60.888 249.08 59.656 249.4 58.088L248.792 57.928ZM259.512 64.712C261.192 64.12 262.28 62.808 262.28 61.08C262.28 59.96 261.8 59.24 260.92 59.24C260.264 59.24 259.704 59.64 259.704 60.392C259.704 61.144 260.248 61.528 260.904 61.528C261 61.528 261.08 61.528 261.176 61.512C261.096 62.6 260.392 63.352 259.16 63.864L259.512 64.712ZM39.592 79.576V81.592H35.912V79.576H39.592ZM35.912 84.632V82.648H39.592V84.632H35.912ZM37.704 86.968C38.12 87.512 38.552 88.136 38.936 88.76C37.896 89.064 36.856 89.352 35.912 89.608V85.752H40.696V78.472H34.792V89.912C34.392 90.024 34.008 90.12 33.688 90.2L34.088 91.4C35.592 90.968 37.592 90.344 39.512 89.768C39.832 90.376 40.104 90.952 40.264 91.416L41.304 90.872C40.872 89.688 39.736 87.848 38.664 86.504L37.704 86.968ZM47.672 78.488H41.912V92.216H43.096V79.672H46.472V88.136C46.472 88.376 46.408 88.44 46.184 88.44C45.944 88.456 45.176 88.472 44.328 88.424C44.52 88.792 44.696 89.384 44.744 89.72C45.848 89.72 46.616 89.704 47.08 89.48C47.56 89.256 47.672 88.856 47.672 88.168V78.488ZM56.904 83.416V87.064H52.728V83.416H56.904ZM58.072 88.2V82.264H51.576V89.48H52.728V88.2H58.072ZM64.104 78.744H49.944V79.928H60.92V90.504C60.92 90.84 60.808 90.952 60.456 90.968C60.088 90.984 58.776 91 57.496 90.936C57.688 91.272 57.928 91.864 58.008 92.2C59.576 92.2 60.68 92.2 61.32 91.976C61.928 91.8 62.136 91.368 62.136 90.52V79.928H64.104V78.744ZM79.464 77.768H78.376V84.392C78.376 84.584 78.296 84.648 78.088 84.664C77.832 84.68 77.064 84.68 76.2 84.648C76.36 84.936 76.52 85.336 76.568 85.64C77.688 85.64 78.424 85.64 78.872 85.464C79.336 85.288 79.464 85 79.464 84.392V77.768ZM75.816 78.232H74.744V83.576H75.816V78.232ZM69.464 82.28H66.664V85.256H67.624V83.08H69.464V85.672H70.488V83.08H72.44V84.216C72.44 84.344 72.408 84.392 72.264 84.392C72.12 84.408 71.72 84.408 71.192 84.392C71.304 84.616 71.464 84.92 71.512 85.16C72.216 85.16 72.696 85.16 73.016 85.016C73.368 84.888 73.416 84.664 73.416 84.216V82.28H70.488V81.432H73.896V80.568H70.488V79.576H73.336V78.744H70.488V77.608H69.464V78.744H67.992C68.104 78.456 68.232 78.184 68.328 77.896L67.384 77.672C67.112 78.552 66.664 79.448 66.12 80.088C66.344 80.2 66.776 80.408 66.968 80.552C67.176 80.28 67.384 79.944 67.576 79.576H69.464V80.568H65.88V81.432H69.464V82.28ZM78.424 87.4C77.688 87.944 76.456 88.648 75.464 89.128C74.888 88.584 74.408 87.976 74.024 87.272H80.072V86.28H73.592V85.336H72.408V86.28H65.944V87.272H71.496C69.944 88.216 67.672 88.968 65.672 89.336C65.896 89.56 66.2 89.944 66.328 90.216C67.352 89.992 68.456 89.672 69.512 89.256V90.872C68.904 90.968 68.36 91.048 67.88 91.112L68.072 92.104L74.376 91.08L74.312 90.12C73.064 90.312 71.8 90.52 70.648 90.696V88.76C71.512 88.344 72.312 87.88 72.968 87.384C74.184 89.96 76.408 91.592 79.656 92.248C79.8 91.96 80.088 91.512 80.328 91.288C78.696 91.016 77.32 90.488 76.232 89.72C77.224 89.272 78.376 88.648 79.288 88.024L78.424 87.4ZM85.592 77.672C84.696 80.104 83.224 82.488 81.64 84.024C81.864 84.28 82.216 84.936 82.328 85.208C82.872 84.648 83.416 84.008 83.912 83.304V92.2H85.096V81.464C85.72 80.36 86.296 79.192 86.728 78.04L85.592 77.672ZM96.328 81.416V80.28H89.672C89.992 79.576 90.296 78.856 90.552 78.12L89.416 77.816C88.632 80.152 87.336 82.456 85.896 83.944C86.168 84.136 86.632 84.536 86.824 84.744C87.624 83.848 88.408 82.696 89.096 81.416H90.2V92.216H91.4V88.344H96.184V87.224H91.4V84.808H95.96V83.704H91.4V81.416H96.328ZM100.84 77.688C100.04 80.104 98.76 82.504 97.336 84.056C97.544 84.344 97.864 85 97.96 85.256C98.504 84.648 99.016 83.928 99.512 83.144V92.232H100.648V81.096C101.144 80.104 101.576 79.048 101.928 77.992L100.84 77.688ZM108.52 87.992H105.816V85.512H108.52V87.992ZM110.088 82.856V81.944H107.624V80.136H106.648V81.944H104.248V82.856H106.648V84.616H104.904V88.872H109.464V84.616H107.624V82.856H110.088ZM103.592 90.2V79.624H110.632V90.2H103.592ZM102.488 78.584V92.2H103.592V91.256H110.632V92.072H111.768V78.584H102.488ZM120.184 78.104C120.072 80.216 120.072 87.848 113.592 91.16C113.96 91.4 114.344 91.784 114.552 92.072C118.6 89.88 120.248 86.024 120.952 82.824C121.72 86.024 123.48 90.12 127.608 92.072C127.784 91.752 128.152 91.352 128.488 91.096C122.472 88.344 121.608 80.952 121.464 78.84C121.48 78.568 121.48 78.312 121.496 78.104H120.184ZM134.04 77.864C132.984 80.376 131.224 82.792 129.4 84.312C129.624 84.6 129.992 85.224 130.12 85.512C130.824 84.872 131.528 84.104 132.2 83.256V92.184H133.4V81.576C134.088 80.52 134.696 79.384 135.176 78.248L134.04 77.864ZM139.032 90.872C138.152 90.872 137.976 90.68 137.976 89.784V85.144C139.96 84.088 142.104 82.872 143.608 81.656L142.76 80.632C141.576 81.704 139.752 82.952 137.976 83.944V77.992H136.776V89.768C136.776 91.512 137.288 91.992 138.952 91.992H142.232C143.88 91.992 144.232 91.08 144.424 88.488C144.072 88.408 143.592 88.184 143.288 87.976C143.176 90.296 143.032 90.872 142.152 90.872H139.032ZM150.44 79.672V82.696H147.448V79.672H150.44ZM147.448 86.968V83.784H150.44V86.968H147.448ZM151.544 88.072V78.6H146.328V89.544H147.448V88.072H151.544ZM154.072 86.04C154.152 85.32 154.168 84.616 154.168 83.96V83.24H158.632V86.04H154.072ZM158.632 79.416V82.152H154.168V79.416H158.632ZM159.784 78.296H153.016V83.96C153.016 86.44 152.744 89.448 150.056 91.512C150.296 91.672 150.744 92.072 150.936 92.328C152.744 90.936 153.56 89.032 153.912 87.128H158.632V90.648C158.632 90.936 158.52 91.032 158.216 91.048C157.96 91.048 156.952 91.064 155.912 91.032C156.104 91.336 156.296 91.864 156.36 92.184C157.72 92.184 158.6 92.152 159.112 91.976C159.624 91.768 159.784 91.4 159.784 90.648V78.296ZM174.824 78.376H167.496V79.352H174.824V78.376ZM165.464 77.656C164.536 80.072 162.984 82.44 161.368 83.96C161.576 84.232 161.928 84.856 162.04 85.112C162.648 84.504 163.24 83.8 163.816 83V92.168H164.936V81.288C165.56 80.248 166.12 79.112 166.568 77.992L165.464 77.656ZM174.072 88.136V90.488H168.28V88.136H174.072ZM167.128 92.216H168.28V91.464H174.072V92.168H175.256V87.176H167.128V92.216ZM167.304 85.944H175.08V84.984H167.304V85.944ZM175.112 82.776H167.304V83.752H175.112V82.776ZM165.992 80.568V81.56H176.328V80.568H165.992ZM181.144 82.936H191.4V81.736H186.92V77.64H185.672V81.736H181.144V78.04H179.928V83.336C179.928 86.12 179.704 89.064 177.688 91.32C177.96 91.528 178.408 91.96 178.6 92.248C180.072 90.632 180.696 88.696 180.952 86.696H187.672V92.216H188.936V85.48H181.08C181.128 84.76 181.144 84.04 181.144 83.32V82.936ZM195.512 92.712C197.192 92.12 198.28 90.808 198.28 89.08C198.28 87.96 197.8 87.24 196.92 87.24C196.264 87.24 195.704 87.64 195.704 88.392C195.704 89.144 196.248 89.528 196.904 89.528C197 89.528 197.08 89.528 197.176 89.512C197.096 90.6 196.392 91.352 195.16 91.864L195.512 92.712ZM38.328 116.808C37.352 117.688 35.432 118.776 33.896 119.4C34.184 119.624 34.584 120.024 34.792 120.248C36.296 119.576 38.2 118.488 39.432 117.528L38.328 116.808ZM42.472 117.56C44.184 118.408 46.008 119.48 47.064 120.264L48.168 119.448C46.984 118.664 45.08 117.608 43.336 116.776L42.472 117.56ZM46.616 115.432C46.744 113.096 46.84 109.4 46.856 106.632H43.448V107.656H45.752C45.752 108.264 45.736 108.904 45.72 109.544H43.608V110.552H45.704C45.688 111.208 45.656 111.864 45.64 112.504H43.576V113.512H45.592C45.56 114.216 45.528 114.856 45.48 115.432H42.824V110.056H40.312V108.392H43.128V107.384H40.312V105.752H39.272V111.016H41.784V115.432H40.248V111.72H39.256V115.432H36.504L36.44 113.512H38.472V112.504H36.392L36.328 110.552H38.456V109.544H36.296L36.232 107.848C37.144 107.48 38.136 107.048 38.968 106.616L38.04 105.768C37.528 106.12 36.712 106.584 35.912 106.968L35.112 106.728L35.416 115.432H33.768V116.552H48.264V115.432H46.616ZM52.12 113.672C52.152 113.144 52.152 112.632 52.152 112.168V111.128H55.064V113.672H52.12ZM55.064 107.592V110.056H52.152V107.592H55.064ZM56.184 106.488H51.048V112.168C51.048 114.472 50.92 117.528 49.544 119.656C49.816 119.768 50.296 120.056 50.504 120.248C51.48 118.744 51.88 116.696 52.056 114.76H55.064V118.536C55.064 118.76 55 118.824 54.776 118.84C54.568 118.84 53.88 118.84 53.112 118.824C53.272 119.128 53.432 119.608 53.48 119.912C54.536 119.912 55.208 119.896 55.624 119.704C56.056 119.512 56.184 119.176 56.184 118.536V106.488ZM59 113.672C59.032 113.08 59.048 112.504 59.048 111.976V111.128H62.28V113.672H59ZM62.28 107.592V110.056H59.048V107.592H62.28ZM63.432 106.488H57.912V111.976C57.912 114.328 57.768 117.464 56.152 119.64C56.44 119.752 56.92 120.072 57.128 120.28C58.248 118.744 58.728 116.696 58.92 114.76H62.28V118.6C62.28 118.856 62.184 118.936 61.928 118.952C61.704 118.968 60.856 118.968 59.96 118.936C60.12 119.24 60.312 119.784 60.328 120.104C61.576 120.104 62.344 120.072 62.824 119.88C63.272 119.688 63.432 119.304 63.432 118.616V106.488ZM76.616 112.68C76.056 114.2 75.16 115.432 74.072 116.44C72.856 115.416 71.928 114.152 71.288 112.68H76.616ZM77.368 111.48L77.176 111.544H70.904C71.08 110.808 71.192 110.088 71.288 109.432H79.88V108.28H71.432C71.576 107.064 71.608 106.104 71.64 105.608H70.408C70.408 106.04 70.376 107.016 70.232 108.28H66.168V109.432H70.088C69.64 112.504 68.52 116.6 65.64 118.904C66.008 119.128 66.424 119.416 66.664 119.72C68.568 118.088 69.736 115.704 70.44 113.352C71.128 114.84 72.04 116.136 73.176 117.16C71.832 118.136 70.28 118.824 68.632 119.24C68.888 119.464 69.16 119.928 69.304 120.232C71.064 119.736 72.696 119 74.12 117.928C75.592 119.016 77.368 119.784 79.528 120.216C79.672 119.896 80.008 119.4 80.28 119.16C78.216 118.776 76.472 118.12 75.032 117.16C76.456 115.848 77.56 114.104 78.184 111.848L77.368 111.48ZM84.76 105.704C83.992 108.168 82.728 110.6 81.352 112.2C81.544 112.488 81.864 113.112 81.976 113.4C82.504 112.776 83 112.056 83.48 111.256V120.216H84.616V109.128C85.096 108.12 85.512 107.064 85.864 106.008L84.76 105.704ZM89.432 107.48V108.936H87.208V107.48H89.432ZM87.208 111.384V109.832H89.432V111.384H87.208ZM90.376 106.536H86.104V120.184H87.208V112.312H90.376V106.536ZM92.312 111.384V109.832H94.664V111.384H92.312ZM94.664 107.48V108.936H92.312V107.48H94.664ZM95.784 106.536H91.336V112.312H94.664V118.648C94.664 118.968 94.552 119.064 94.248 119.08C93.944 119.096 92.84 119.096 91.704 119.064C91.848 119.368 92.04 119.896 92.104 120.2C93.608 120.2 94.536 120.184 95.08 119.992C95.608 119.8 95.784 119.432 95.784 118.664V106.536ZM102.216 105.944C101.224 108.392 99.448 110.6 97.432 111.96C97.72 112.168 98.232 112.616 98.44 112.872C100.456 111.368 102.312 108.984 103.464 106.296L102.216 105.944ZM100.024 111.624V112.776H103.288C102.92 115.48 102.04 118.008 98.28 119.256C98.552 119.512 98.888 119.992 99.048 120.296C103.112 118.824 104.136 115.928 104.552 112.776H108.68C108.488 116.808 108.264 118.408 107.848 118.808C107.704 118.984 107.512 119.016 107.176 119.016C106.808 119.016 105.816 119 104.776 118.904C105 119.256 105.144 119.736 105.176 120.088C106.168 120.136 107.16 120.168 107.688 120.12C108.248 120.056 108.584 119.96 108.92 119.56C109.464 118.952 109.704 117.112 109.928 112.2C109.944 112.04 109.96 111.624 109.96 111.624H100.024ZM106.616 106.36C107.8 108.728 109.816 111.304 111.576 112.728C111.8 112.392 112.248 111.928 112.552 111.672C110.824 110.456 108.776 108.056 107.736 105.912L106.616 106.36ZM127.896 107H121.576V105.608H120.344V107H114.072V108.04H127.896V107ZM117.256 109.928H124.776V111.384H117.256V109.928ZM126.024 112.248V109.064H116.088V112.248H126.024ZM128.104 116.12H121.592V115.864C123.336 115.384 125.208 114.648 126.552 113.816L125.768 113.176L125.48 113.224H115.416V114.2H123.768C122.936 114.568 121.976 114.92 121.064 115.176H120.36V116.12H113.928V117.144H120.36V118.984C120.36 119.224 120.28 119.272 119.976 119.288C119.704 119.288 118.616 119.304 117.528 119.272C117.688 119.56 117.88 119.96 117.944 120.248C119.368 120.248 120.296 120.264 120.84 120.12C121.4 119.96 121.592 119.672 121.592 119.016V117.144H128.104V116.12ZM139.4 116.44C139.112 117.128 138.648 118.088 138.248 118.696L138.76 118.84H134.904L135.64 118.616C135.464 118.008 135.064 117.128 134.632 116.44H139.4ZM133.752 113.352H140.216V115.448H133.752V113.352ZM139.784 116.44H141.4V112.36H132.616V116.44H134.424L133.528 116.68C133.912 117.336 134.296 118.216 134.456 118.84H130.104V119.848H143.928V118.84H139.368C139.752 118.248 140.184 117.432 140.568 116.648L139.784 116.44ZM143.016 107.624C142.488 108.2 141.608 108.952 140.824 109.528C140.44 109.16 140.072 108.76 139.736 108.344C140.504 107.8 141.416 107.08 142.152 106.392L141.256 105.752C140.728 106.312 139.912 107.048 139.192 107.624C138.744 107 138.376 106.328 138.072 105.656L137.064 105.976C137.736 107.48 138.664 108.856 139.768 110.04H134.344C135.272 109.048 136.056 107.88 136.568 106.568L135.816 106.168L135.592 106.216H131.048V107.224H135.016C134.6 108.008 134.04 108.76 133.4 109.432C132.904 108.888 132.024 108.248 131.272 107.8L130.616 108.456C131.352 108.92 132.2 109.592 132.696 110.104C131.704 111 130.568 111.736 129.48 112.184C129.72 112.392 130.04 112.808 130.2 113.048C131.528 112.44 132.888 111.512 134.056 110.344V111.064H139.944V110.216C141.032 111.336 142.296 112.248 143.656 112.856C143.832 112.552 144.168 112.12 144.44 111.88C143.416 111.48 142.424 110.872 141.528 110.152C142.312 109.608 143.208 108.904 143.912 108.248L143.016 107.624ZM158.104 109.384V117.528H153.544V105.944H152.328V117.528H147.928V109.4H146.728V120.024H147.928V118.728H158.104V119.96H159.32V109.384H158.104ZM171.16 111.448H168.056V112.472H175.576V111.448H172.328V108.856H175.912V107.816H172.328V105.608H171.16V107.816H167.704V108.856H171.16V111.448ZM165.912 110.808V113.448H167.032V105.608H165.912V107.768H163.784V105.832H162.76V109.08H163.784V108.712H165.912V109.864H161.944V110.808H163.096C162.936 111.8 162.552 112.552 161.576 113C161.816 113.176 162.12 113.544 162.248 113.784C163.528 113.16 163.992 112.152 164.2 110.808H165.912ZM174.392 115.32C173.688 115.848 172.552 116.504 171.608 116.984C171 116.408 170.472 115.768 170.056 115.048H176.136V114.104H169.608V112.856H168.44V114.104H161.88V115.048H167.256C165.768 115.96 163.576 116.696 161.656 117.048C161.88 117.272 162.184 117.672 162.328 117.928C163.32 117.72 164.392 117.4 165.4 116.984V118.792C164.664 118.888 163.992 118.984 163.416 119.048L163.592 120.056C165.416 119.8 168.04 119.416 170.504 119.048L170.472 118.088C169.128 118.28 167.768 118.472 166.52 118.648V116.488C167.416 116.056 168.216 115.576 168.872 115.048H168.92C170.216 117.688 172.552 119.48 175.672 120.28C175.816 119.992 176.12 119.544 176.376 119.304C174.84 118.968 173.48 118.392 172.36 117.592C173.32 117.144 174.408 116.552 175.272 115.944L174.392 115.32ZM184.552 109.464H185.64V108.152H188.632V109.464H189.752V108.152H192.264V107.112H189.752V105.752H188.632V107.112H185.64V105.752H184.552V107.112H181.96V108.152H184.552V109.464ZM180.76 105.704C179.992 108.168 178.728 110.6 177.352 112.2C177.544 112.488 177.864 113.112 177.976 113.4C178.504 112.776 179 112.056 179.48 111.256V120.216H180.616V109.128C181.096 108.12 181.512 107.064 181.864 106.008L180.76 105.704ZM188.536 116.744V115.368H190.888V116.744H188.536ZM185.32 116.744V115.368H187.576V116.744H185.32ZM187.576 113.144V114.536H185.32V113.144H187.576ZM190.888 113.144V114.536H188.536V113.144H190.888ZM191.928 112.232H184.296V120.216H185.32V117.592H187.576V120.12H188.536V117.592H190.888V119.064C190.888 119.24 190.856 119.272 190.664 119.288C190.472 119.304 189.912 119.304 189.224 119.288C189.352 119.56 189.48 119.96 189.528 120.216C190.472 120.232 191.08 120.216 191.464 120.04C191.832 119.88 191.928 119.592 191.928 119.064V112.232ZM192.328 110.008H182.248V113.432C182.248 115.24 182.12 117.704 180.984 119.48C181.24 119.624 181.672 120.008 181.848 120.216C183.112 118.296 183.32 115.432 183.32 113.448V111.064H192.328V110.008Z" fill="#4E4E4E"/>
</svg>
