<svg width="129" height="97" viewBox="0 0 246 181" fill="none" xmlns="http://www.w3.org/2000/svg">
<g filter="url(#filter0_d)">
<g filter="url(#filter1_d)">
<path d="M70.8823 1.66921C32.9341 12.2299 11.149 116.957 5 168H229C192.106 108.156 108.831 -8.89147 70.8823 1.66921Z" fill="#6DA77F"/>
<path d="M70.8823 1.66921C32.9341 12.2299 11.149 116.957 5 168H229C192.106 108.156 108.831 -8.89147 70.8823 1.66921Z" stroke="#564138"/>
</g>
<path d="M82.72 102.16V97.86H87.24V102.16H82.72ZM75.7 102.16V97.86H80.2V102.16H75.7ZM82.72 95.52V92.06H80.2V95.52H73.3V105.6H75.7V104.5H80.2V110.74H82.72V104.5H87.24V105.5H89.74V95.52H82.72ZM97.62 92.82L97.28 92.92H93.02V110.74H95.08V95.04H96.58C96.28 96.4 95.86 98.14 95.48 99.4C96.56 100.72 96.8 101.98 96.82 102.88C96.82 103.46 96.72 103.88 96.5 104.04C96.36 104.14 96.18 104.18 95.96 104.18C95.72 104.2 95.46 104.2 95.12 104.16C95.44 104.76 95.62 105.64 95.64 106.18C96.1 106.2 96.56 106.2 96.9 106.16C97.34 106.08 97.72 105.96 98.02 105.74C98.62 105.3 98.9 104.46 98.88 103.18C98.88 102.04 98.66 100.68 97.46 99.14C98.02 97.58 98.66 95.42 99.18 93.72L97.62 92.82ZM104.36 97.86L101.78 98.36V96.28H104.3V94.42H101.78V92.32H99.64V98.76C99.2 98.84 98.8 98.92 98.44 98.98L98.98 100.94C100.6 100.56 102.62 100.08 104.54 99.64L104.36 97.86ZM107.64 105.1H102.14V103.96H107.64V105.1ZM102.14 108.12V106.9H107.64V108.12H102.14ZM105.58 100.54L103.16 100.12C103.1 100.66 102.92 101.36 102.76 101.98H99.94V110.7H102.14V110.08H107.64V110.62H109.96V101.98H105.06L105.58 100.54ZM107.5 98.72C107.1 98.72 107.04 98.66 107.04 98.08V96.62C108.28 96.16 109.62 95.6 110.72 94.94L109.18 93.38C108.66 93.82 107.86 94.3 107.04 94.72V92.32H104.9V98.08C104.9 100.06 105.32 100.68 107.14 100.68H108.86C110.24 100.68 110.78 100.06 111 97.84C110.42 97.7 109.54 97.36 109.12 97.02C109.06 98.48 108.98 98.72 108.6 98.72H107.5Z" fill="white"/>
</g>
<defs>
<filter id="filter0_d" x="4.43652" y="0.5" width="241.459" height="178" filterUnits="userSpaceOnUse" color-interpolation-filters="sRGB">
<feFlood flood-opacity="0" result="BackgroundImageFix"/>
<feColorMatrix in="SourceAlpha" type="matrix" values="0 0 0 0 0 0 0 0 0 0 0 0 0 0 0 0 0 0 127 0" result="hardAlpha"/>
<feOffset dx="12" dy="6"/>
<feGaussianBlur stdDeviation="2"/>
<feComposite in2="hardAlpha" operator="out"/>
<feColorMatrix type="matrix" values="0 0 0 0 0 0 0 0 0 0 0 0 0 0 0 0 0 0 0.25 0"/>
<feBlend mode="normal" in2="BackgroundImageFix" result="effect1_dropShadow"/>
<feBlend mode="normal" in="SourceGraphic" in2="effect1_dropShadow" result="shape"/>
</filter>
<filter id="filter1_d" x="0.436523" y="0.5" width="233.459" height="180" filterUnits="userSpaceOnUse" color-interpolation-filters="sRGB">
<feFlood flood-opacity="0" result="BackgroundImageFix"/>
<feColorMatrix in="SourceAlpha" type="matrix" values="0 0 0 0 0 0 0 0 0 0 0 0 0 0 0 0 0 0 127 0" result="hardAlpha"/>
<feOffset dy="8"/>
<feGaussianBlur stdDeviation="2"/>
<feComposite in2="hardAlpha" operator="out"/>
<feColorMatrix type="matrix" values="0 0 0 0 0 0 0 0 0 0 0 0 0 0 0 0 0 0 0.25 0"/>
<feBlend mode="normal" in2="BackgroundImageFix" result="effect1_dropShadow"/>
<feBlend mode="normal" in="SourceGraphic" in2="effect1_dropShadow" result="shape"/>
</filter>
</defs>
</svg>
