<svg width="505" height="517" viewBox="0 0 505 517" fill="none" xmlns="http://www.w3.org/2000/svg">
<path d="M417.58 238.553C535.98 209.967 478.914 82.3697 435.58 22.1445H10.0804C9.74706 100.655 9.28039 279.821 10.0804 368.397C45.5804 513.844 171.08 511.831 269.58 487.17C368.08 462.51 269.58 274.285 417.58 238.553Z" stroke="#BAE29A" stroke-width="3"/>
<path d="M433.58 254.658C551.98 226.072 494.914 98.4752 451.58 38.25H26.0804C25.7471 116.761 25.2804 295.927 26.0804 384.503C61.5804 529.949 187.08 527.936 285.58 503.276C384.08 478.615 285.58 290.391 433.58 254.658Z" stroke="#BAE29A"/>
<path d="M408.639 216.408C527.039 187.822 469.972 60.2252 426.639 0H0.196383C0.196685 78.5 -0.245724 257.506 0.196289 346C35.6963 491.446 162.139 489.686 260.639 465.026C359.139 440.365 260.639 252.141 408.639 216.408Z" fill="#19634A"/>
</svg>
