<svg width="181" height="120" viewBox="0 0 181 120" fill="none" xmlns="http://www.w3.org/2000/svg">
<path d="M64.8608 68.3446L144.489 59.7175L152.5 88L62.0002 88L64.8608 68.3446Z" fill="#59443C"/>
<path d="M79.1955 8.75657C78.6191 12.2122 85.9054 16.6023 85.9054 16.6023L106.139 15.6874C106.139 15.6874 98.2748 2.12552 94.4553 2.22868C92.3037 2.2868 92.6352 4.46542 93.335 6.35713C93.4795 6.74798 92.7251 7.30454 92.4082 7.03384C90.2984 5.23127 87.1174 2.95685 84.7804 3.25446C82.549 3.53862 84.4949 6.07567 86.4897 8.12866C86.7873 8.43498 86.2429 9.21612 85.8522 9.0436C83.0551 7.80848 79.5381 6.70276 79.1955 8.75657Z" fill="#564138"/>
<path d="M60.3273 62.6279C59.0543 28.6813 84.7382 14.9414 97.7393 12.3148C128.677 11.5893 144.278 37.4392 147.152 49.642C150.027 61.8449 142.345 74.3776 132.769 82.4276C131.164 83.777 125.07 86.0996 117.048 87.871L78.9995 87.871C68.6768 84.4653 60.8661 76.9955 60.3273 62.6279Z" fill="#59443C"/>
<path d="M87.8812 48.2249C82.7333 44.4885 76.894 47.0362 72.9298 50.1334C72.0852 50.7933 70.642 49.8984 70.9875 48.8838C81.5712 17.7955 99.2041 35.3839 98.9843 37.7242C98.9843 37.7242 105.135 30.2384 116.186 32.7247C139.939 38.0689 142.175 55.4332 144.218 57.4079C144.644 57.8197 143.927 57.4026 142.675 56.6671C137.566 53.6661 132.798 48.9082 127.359 46.5564C122.084 44.2752 115.749 44.9966 113.358 51.7849C111.513 57.0229 128.552 61.2545 130.75 61.3312C132.947 61.408 143.42 69.5446 135.607 79.8407C132.92 83.3816 130.125 86.2085 122 88L97.2802 88.0006C90.6998 88.0008 84.7197 88.001 80.5 88.001C77.5 88 75.6598 86.6159 74.7557 85.7737C67.6951 79.1959 69.9094 68.3271 71.8991 63.7149C80.1002 60.6374 94.7781 53.2309 87.8812 48.2249Z" fill="#D0BFB1"/>
<path d="M100.324 66.2563L100.184 67.7497L100.324 66.2563ZM118.525 69.4575C119.353 69.4175 119.991 68.7143 119.951 67.8869C119.911 67.0594 119.208 66.421 118.38 66.4609L118.525 69.4575ZM83.2845 69.5345C86.0848 69.7976 89.7996 69.243 92.9893 68.7096C94.6303 68.4352 96.135 68.1648 97.4305 67.9751C98.7638 67.7798 99.6814 67.7025 100.184 67.7497L100.465 64.7628C99.5523 64.6771 98.2928 64.8168 96.9958 65.0068C95.6608 65.2023 94.0817 65.4853 92.4945 65.7507C89.2276 66.297 85.9075 66.7677 83.565 66.5476L83.2845 69.5345ZM100.184 67.7497C103.674 68.0775 105.733 70.0749 118.525 69.4575L118.38 66.4609C105.634 67.0762 105.203 65.208 100.465 64.7628L100.184 67.7497Z" fill="#544036"/>
<ellipse cx="100.885" cy="57.4126" rx="9.6744" ry="7.63037" transform="rotate(-5.75098 100.885 57.4126)" fill="#684F43" fill-opacity="0.43"/>
<ellipse cx="103.679" cy="59.5648" rx="2.58273" ry="1.93705" transform="rotate(-15.2433 103.679 59.5648)" fill="#564138"/>
<ellipse cx="103.679" cy="59.5648" rx="2.58273" ry="1.93705" transform="rotate(-15.2433 103.679 59.5648)" fill="#564138"/>
<ellipse cx="95.6877" cy="60.1134" rx="2.58273" ry="1.93705" transform="rotate(17.9824 95.6877 60.1134)" fill="#564138"/>
<ellipse cx="95.6877" cy="60.1134" rx="2.58273" ry="1.93705" transform="rotate(17.9824 95.6877 60.1134)" fill="#564138"/>
<path d="M99.8541 56.0939C97.9025 55.9107 95.4695 54.9038 93.4256 55.49C97.871 52.1768 104.215 53.5165 106.67 54.4666C106.756 54.482 106.825 54.5087 106.874 54.5483C106.809 54.5215 106.741 54.4942 106.67 54.4666C105.475 54.2532 100.933 56.1952 99.8541 56.0939Z" fill="#FAFAFA"/>
<mask id="path-10-inside-1" fill="white">
<ellipse cx="80.8639" cy="52.4955" rx="4.00323" ry="3.74496" transform="rotate(5.3665 80.8639 52.4955)"/>
</mask>
<ellipse cx="80.8639" cy="52.4955" rx="4.00323" ry="3.74496" transform="rotate(5.3665 80.8639 52.4955)" fill="#543B2D"/>
<path d="M79.8715 52.4023C79.9145 51.9455 80.1546 51.6126 80.3753 51.4419C80.5897 51.276 80.8138 51.2302 80.9813 51.246L80.0461 61.2022C84.6787 61.6373 89.3471 58.4536 89.8277 53.3376L79.8715 52.4023ZM80.9813 51.246C81.1488 51.2617 81.3605 51.3484 81.5403 51.5514C81.7253 51.7602 81.8993 52.132 81.8563 52.5888L71.9002 51.6535C71.4196 56.7695 75.4134 60.767 80.0461 61.2022L80.9813 51.246ZM81.8563 52.5888C81.8134 53.0455 81.5733 53.3784 81.3526 53.5491C81.1382 53.715 80.9141 53.7608 80.7466 53.7451L81.6818 43.7889C77.0492 43.3537 72.3808 46.5374 71.9002 51.6535L81.8563 52.5888ZM80.7466 53.7451C80.5791 53.7293 80.3674 53.6426 80.1876 53.4397C80.0026 53.2309 79.8286 52.8591 79.8715 52.4023L89.8277 53.3376C90.3083 48.2215 86.3145 44.2241 81.6818 43.7889L80.7466 53.7451Z" fill="#443025" mask="url(#path-10-inside-1)"/>
<ellipse cx="81.0214" cy="50.8238" rx="1.93705" ry="0.774819" transform="rotate(0.119083 81.0214 50.8238)" fill="#FAFAFA"/>
<mask id="path-13-inside-2" fill="white">
<ellipse cx="123.189" cy="52.0619" rx="4.00323" ry="3.74496" transform="rotate(5.3665 123.189 52.0619)"/>
</mask>
<ellipse cx="123.189" cy="52.0619" rx="4.00323" ry="3.74496" transform="rotate(5.3665 123.189 52.0619)" fill="#543B2D"/>
<path d="M122.196 51.9687C122.239 51.512 122.479 51.179 122.7 51.0083C122.914 50.8424 123.139 50.7967 123.306 50.8124L122.371 60.7686C127.003 61.2037 131.672 58.02 132.152 52.904L122.196 51.9687ZM123.306 50.8124C123.474 50.8281 123.685 50.9148 123.865 51.1178C124.05 51.3266 124.224 51.6984 124.181 52.1552L114.225 51.2199C113.744 56.3359 117.738 60.3334 122.371 60.7686L123.306 50.8124ZM124.181 52.1552C124.138 52.6119 123.898 52.9448 123.677 53.1155C123.463 53.2814 123.239 53.3272 123.071 53.3115L124.007 43.3553C119.374 42.9201 114.705 46.1038 114.225 51.2199L124.181 52.1552ZM123.071 53.3115C122.904 53.2957 122.692 53.209 122.512 53.0061C122.327 52.7973 122.153 52.4255 122.196 51.9687L132.152 52.904C132.633 47.7879 128.639 43.7905 124.007 43.3553L123.071 53.3115Z" fill="#443025" mask="url(#path-13-inside-2)"/>
<ellipse cx="123.346" cy="50.3902" rx="1.93705" ry="0.774819" transform="rotate(0.119083 123.346 50.3902)" fill="#FAFAFA"/>
<path d="M178.843 88.0029C160.072 90.1481 157.649 87.352 147.737 91.7571C133.257 98.1927 131.958 85.2718 132.721 79.422C134.33 67.087 144.139 60.6515 157.927 60.6514C169.189 60.6513 186.601 87.1163 178.843 88.0029Z" fill="#59443C"/>
<path d="M123.912 101.14C123.136 90.965 130.851 77.1456 136.306 69.6881C135.694 70.5896 135.317 72.8132 135.097 75.0863C134.792 78.2275 133.504 81.1985 131.621 83.7312C128.468 87.9722 125.458 93.9357 125.549 100.113C125.583 102.363 124.083 103.383 123.912 101.14Z" fill="#B9B09A"/>
<path d="M142.566 73.7659C141.954 74.6684 141.584 76.8969 141.373 79.1791C141.079 82.351 139.782 85.3446 137.746 87.7943C135.679 90.2812 133.615 93.3708 132.475 96.898C131.709 99.2655 131.356 101.827 131.546 104.433C131.709 106.681 129.563 108.167 128.851 106.029C127.632 102.37 127.482 98.2454 128.638 94.2948C130.985 86.269 138.753 78.9743 142.566 73.7659Z" fill="#B9B09A"/>
<path d="M152.286 82.8865C144.181 89.8722 139.945 96.4778 137.738 101.633C136.865 103.673 134.203 103.634 134.779 101.491C134.992 100.697 135.273 99.8779 135.634 99.0416C138.4 92.6407 144.694 84.7258 149.684 79.127C150.909 77.7523 153.119 78.6891 153.04 80.5288L153.001 81.4318C152.977 81.9911 152.71 82.521 152.286 82.8865Z" fill="#B9B09A"/>
<path d="M67.749 87.7509C49.6128 89.4738 47.1065 86.634 40.2864 90.3302C30.1452 95.8263 25.7019 81.7768 25.8105 76.0892C26.0415 63.9854 34.7942 60.7431 48.0875 60.9967C58.9456 61.2038 75.2451 87.0389 67.749 87.7509Z" fill="#59443C"/>
<path d="M18.5115 98.4543C17.2227 88.757 23.4642 75.163 28.0696 67.6824C27.5648 68.5715 27.3694 70.6475 27.325 72.788C27.2595 75.9433 26.2126 79.0083 24.5509 81.6913C21.9472 85.8953 19.6237 91.6126 20.0318 97.3361C20.1919 99.5803 18.8079 100.685 18.5115 98.4543Z" fill="#B9B09A"/>
<path d="M34.4 71.121C33.8947 72.011 33.7065 74.0905 33.6709 76.2381C33.6181 79.4232 32.5639 82.5089 30.7412 85.1214C28.9816 87.6436 27.2853 90.7189 26.476 94.1306C25.9533 96.3342 25.7967 98.6759 26.1024 101.026C26.3932 103.261 24.3662 104.888 23.5332 102.794C22.2083 99.4628 21.8116 95.6618 22.5882 91.923C24.2279 84.0284 31.1348 76.4202 34.4 71.121Z" fill="#B9B09A"/>
<path d="M44.4205 79.1639C37.3527 86.3185 33.7934 92.842 32.0246 97.9117C31.2938 100.006 28.6652 100.161 29.1183 97.9895C29.2564 97.3275 29.4401 96.646 29.6775 95.9485C31.8254 89.6392 37.1919 81.6336 41.5384 75.8793C42.6482 74.4099 44.9261 75.1657 44.9934 77.0059L45.0173 77.657C45.0377 78.2165 44.814 78.7656 44.4205 79.1639Z" fill="#B9B09A"/>
</svg>
