<svg width="125" height="143" viewBox="0 0 125 143" fill="none" xmlns="http://www.w3.org/2000/svg">
<path d="M54.5557 112.092C54.5557 112.092 58.4476 130.94 60.6838 133.963C60.6838 133.963 67.2147 136.313 69.768 134.151L71.8329 113.874L54.5557 112.092Z" fill="#BBB0A6"/>
<path d="M73.626 114.744C73.626 114.744 80.049 132.756 82.1583 135.777C82.1583 135.777 89.7074 136.837 92.1212 134.689L87.9343 114.744H73.626Z" fill="#BBB0A6"/>
<path d="M111.58 86.2697C111.786 86.1892 113.213 85.7361 113.527 85.6656C113.733 84.9949 114.155 84.4221 114.72 84.048C115.039 83.8371 115.395 83.6952 115.766 83.6303C116.138 83.5655 116.518 83.579 116.884 83.6701C117.251 83.7612 117.596 83.928 117.902 84.1611C118.207 84.3941 118.466 84.6887 118.663 85.0279C118.767 85.21 118.854 85.4022 118.923 85.6018C121.019 86.0851 122.754 87.1859 123.754 88.7834C124.026 89.2259 124.239 89.7058 124.388 90.2098C126.072 95.7574 120.115 100.278 115.684 101.285C113.338 101.765 110.926 101.765 108.579 101.285C100.199 99.7143 91.2798 94.5727 88.1777 85.7361L91.2862 77.1914C98.2992 80.759 101.661 85.8301 111.58 86.2697Z" fill="#BBB0A6"/>
<path d="M27.4918 97.9952C27.2729 97.9952 25.7916 98.1832 25.4744 98.247C25.0394 97.7092 24.438 97.3524 23.7775 97.2401C23.4049 97.1792 23.0246 97.1971 22.6585 97.2925C22.2925 97.388 21.9479 97.5593 21.6447 97.7964C21.3416 98.0336 21.0858 98.3319 20.8922 98.6742C20.6986 99.0165 20.571 99.396 20.5168 99.7908C20.4867 100.001 20.4771 100.213 20.4882 100.425C18.7532 101.737 17.5479 103.482 17.2212 105.355C17.128 105.876 17.1045 106.408 17.1514 106.936C17.6589 112.735 24.8179 114.437 29.2553 113.507C31.5925 112.971 33.8113 111.967 35.7926 110.55C42.9198 105.63 49.2287 97.22 48.7973 87.7894L42.7707 81.2148C37.6703 87.4202 36.465 93.4746 27.4918 97.9952Z" fill="#BBB0A6"/>
<path d="M51.0668 83.1083C51.7854 80.24 54.2818 78.1856 58.7543 78.1585L72.5984 78.0742L87.0677 78.5773C91.2458 78.8189 93.8716 84.6079 94.5216 87.3034C95.9956 93.4157 98.8037 95.9506 98.8037 103.58C98.8037 114.686 98.0742 119.576 93.0943 121.032C88.1145 122.487 56.5064 122.113 51.0668 119.857C45.6273 117.601 44.5645 110.033 44.5645 105.426C44.5645 102.015 46.7847 90.8273 51.0668 83.1083Z" fill="#FFDFA8"/>
<rect width="15.3521" height="21.2265" rx="7.67604" transform="matrix(0.99983 -0.0184653 0.016495 0.999864 63.7539 65.3887)" fill="#BBB0A6"/>
<path d="M70.5317 87.1835C67.5522 87.725 59.1056 83.5204 60.8921 78.7519C61.7799 75.0315 66.4062 77.544 67.5603 79.2887C68.4835 80.6844 70.8533 84.0733 71.8408 84.8471C72.8055 85.2958 73.5112 86.6419 70.5317 87.1835Z" fill="#FFB943"/>
<path d="M73.5782 87.2853C76.5986 87.1514 84.0198 81.1603 81.325 76.8964C79.7173 73.4569 75.6942 76.9432 74.913 78.9058C74.288 80.4758 72.6452 84.3165 71.8337 85.2928C70.9798 85.9462 70.5577 87.4194 73.5782 87.2853Z" fill="#FFB943"/>
<path fill-rule="evenodd" clip-rule="evenodd" d="M83.7082 91.1641L79.159 91.5167L80.0248 105.253L84.5743 104.9L83.7082 91.1641ZM73.0032 91.993L77.5526 91.6401L78.0954 100.25C78.2875 103.299 76.2508 105.643 73.4487 105.86C70.6737 106.075 68.3978 104.105 68.1654 101.098L68.159 101.007L67.6172 92.4107L72.1665 92.0578L72.7052 100.602C72.7239 100.898 72.7909 101.078 72.8691 101.16C72.9174 101.211 72.9925 101.237 73.1435 101.226C73.3018 101.213 73.388 101.168 73.4399 101.098C73.5096 101.003 73.5544 100.83 73.5432 100.566L73.5409 100.524L73.0032 91.993ZM66.0179 92.5359L61.4685 92.8888L61.7511 97.3733L60.9736 97.4336L60.6909 92.9489L56.1416 93.3018L57.0074 107.037L61.5567 106.684L61.2658 102.069L62.0433 102.009L62.3344 106.624L66.8837 106.271L66.0179 92.5359ZM65.1002 93.6536L65.8348 105.307L63.2524 105.507L62.9616 100.892L60.2169 101.105L60.5078 105.72L57.9255 105.921L57.1909 94.267L59.7732 94.0667L60.0559 98.5513L62.8006 98.3385L62.5178 93.8538L65.1002 93.6536ZM76.6349 92.7607L74.0525 92.961L74.5251 100.457C74.5585 100.988 74.4505 101.428 74.217 101.744C73.9875 102.054 73.6427 102.236 73.2159 102.27C72.7897 102.303 72.4324 102.175 72.1734 101.902C71.9207 101.636 71.7664 101.237 71.7255 100.732L71.7214 100.675L71.2487 93.1783L68.6665 93.3788L69.1432 100.941C69.2989 103.41 71.1096 104.999 73.3768 104.823C75.6274 104.648 77.2345 102.823 77.1157 100.396L77.1116 100.323L76.6349 92.7607ZM80.2082 92.4799L82.7904 92.2795L83.5252 103.933L80.9429 104.134L80.2082 92.4799Z" fill="#FF6F1E"/>
<path d="M64.7309 84.0625C65.2249 84.0625 65.6273 84.323 65.6439 84.6485L65.6444 84.6694V96.9874C65.6444 97.3225 65.2354 97.5942 64.7309 97.5942C64.2369 97.5942 63.8345 97.3337 63.8179 97.0082L63.8174 96.9874V84.6694C63.8174 84.3342 64.2264 84.0625 64.7309 84.0625Z" fill="#FF6F1E"/>
<path d="M64.7311 96.627C65.0586 96.627 65.3257 96.8078 65.3395 97.0345L65.3401 97.053V98.1338C65.3401 98.3691 65.0674 98.5598 64.7311 98.5598C64.4036 98.5598 64.1365 98.379 64.1226 98.1523L64.1221 98.1338V97.053C64.1221 96.8177 64.3947 96.627 64.7311 96.627Z" fill="#FFB943"/>
<path d="M76.7593 84.0625C77.171 84.0625 77.5063 84.3242 77.5201 84.6512L77.5206 84.6722V98.9174C77.5206 99.2541 77.1797 99.5271 76.7593 99.5271C76.3476 99.5271 76.0123 99.2654 75.9985 98.9384L75.998 98.9174V84.6722C75.998 84.3355 76.3389 84.0625 76.7593 84.0625Z" fill="#FF6F1E"/>
<path d="M76.7593 98.2383C77.1687 98.2383 77.5026 98.4322 77.5199 98.6754L77.5206 98.6952V100.037C77.5206 100.289 77.1797 100.494 76.7593 100.494C76.3499 100.494 76.016 100.3 75.9988 100.057L75.998 100.037V98.6952C75.998 98.4429 76.3389 98.2383 76.7593 98.2383Z" fill="#FFB943"/>
<path d="M54.6955 110.92C55.4415 109.548 58.3478 108.682 61.6632 108.842L70.059 109.248L83.1034 109.879C83.7924 109.912 84.4878 109.987 85.0482 110.184C86.2141 110.593 88.1604 111.576 88.7454 113.69C89.5989 116.774 88.5929 117.221 88.5929 117.221C88.5929 117.221 78.3967 117.714 69.7114 117.294C61.0262 116.874 52.2243 115.462 52.2243 115.462L54.0998 112.015L54.6955 110.92Z" fill="#FF6F1E"/>
<path d="M46.8344 78.1133C51.1891 75.9004 56.0891 78.2445 58.1637 79.2608L49.7057 89.6932L38.9338 82.5738C39.7725 82.274 40.231 82.5442 40.5776 82.2274C41.7443 81.1614 43.4774 79.8193 46.8344 78.1133Z" fill="#FFB943"/>
<path d="M39.1728 82.439L44.7854 85.9552L50.4726 89.3124L48.9214 90.6451L44.0846 87.8397L37.1108 83.0923L39.1728 82.439Z" fill="#FFB12E"/>
<path d="M37.2691 84.6016L42.8166 87.9328L47.9844 91.1074L47.5163 93.521L44.62 92.0594C44.62 92.0594 42.0185 91.8456 40.4374 89.7041C38.8563 87.5625 36.2453 85.6059 36.2453 85.6059L37.2691 84.6016Z" fill="#FFB943"/>
<path d="M37.1104 83.0938L43.7713 87.4567L49.1847 90.4101L47.4438 92.1089L42.1256 88.6827L37.2809 84.6457L37.1104 83.0938Z" fill="#EB9709"/>
<path d="M95.9484 77.573C91.137 75.0599 86.0898 79.2289 84.0539 80.4259L93.2391 90.7446L103.582 82.3993C102.671 82.0614 102.227 82.3787 101.827 82.016C100.479 80.7956 99.6575 79.5103 95.9484 77.573Z" fill="#FFB943"/>
<path d="M99.6555 140.789C99.6555 135.966 96.3856 131.871 91.9701 131.164L89.5055 130.77H88.3717C88.3717 130.77 88.4892 132.999 84.6693 132.999C80.8492 132.999 80.3202 130.77 80.3202 130.77H79.8382C79.5716 130.77 79.3555 131.003 79.3555 131.292V140.205C79.3555 140.925 79.8957 141.509 80.5621 141.509H98.9886C99.357 141.509 99.6555 141.187 99.6555 140.789Z" fill="#3B3F45"/>
<path d="M89.9417 129.001C89.9861 129.717 90.5149 130.771 90.7737 131.208C90.4964 131.844 89.7532 133.117 88.9989 133.117C88.056 133.117 87.8342 130.731 87.9451 130.314C88.056 129.896 89.8863 128.106 89.9417 129.001Z" fill="#3B3F45"/>
<mask id="mask0" mask-type="alpha" maskUnits="userSpaceOnUse" x="79" y="130" width="21" height="12">
<path fill-rule="evenodd" clip-rule="evenodd" d="M99.6553 140.679C99.6553 135.244 95.5004 130.838 90.3751 130.838H89.4766H86.9319H84.3873H81.8426H79.2979V140.125C79.2979 140.833 79.8396 141.408 80.5079 141.408H98.968C99.3476 141.408 99.6553 141.082 99.6553 140.679Z" fill="white"/>
</mask>
<g mask="url(#mask0)">
<path d="M91.8716 136.223L93.4836 137.104L91.7585 140.653L90.1465 139.772L91.8716 136.223Z" fill="#666E79"/>
<path d="M89.495 134.881L91.1079 135.76L89.0406 140.024L87.4277 139.145L89.495 134.881Z" fill="#666E79"/>
<path d="M87.1639 133.402L88.7833 134.268L85.925 140.279L84.3057 139.413L87.1639 133.402Z" fill="#666E79"/>
<path d="M97.2948 134.737C98.8211 133.778 98.2225 135.678 99.594 136.485L102.498 142.674H79.3854C78.8207 141.777 76.7803 137.127 78.4046 136.485C81.3881 135.309 86.646 139.378 88.8241 139.244C91.0023 139.11 97.2375 140.118 96.8713 137.965C96.4477 135.476 95.9032 135.612 97.2948 134.737Z" fill="#555D65"/>
</g>
<path d="M90.7623 130.527L90.779 130.513C90.9366 130.383 91.165 130.412 91.2891 130.577C91.4132 130.743 91.386 130.983 91.2284 131.114L91.1781 131.154C91.0501 131.255 90.7597 131.48 90.6496 131.57L90.6363 131.581C90.458 131.728 90.3131 131.866 90.2011 131.996L90.1813 132.02L93.0797 131.115C93.3906 131.018 93.6542 131.364 93.5045 131.659L93.4956 131.676L92.6071 133.251L95.3655 132.254C95.6888 132.137 95.9689 132.51 95.7953 132.811L95.7853 132.828L94.2113 135.297C94.0996 135.472 93.874 135.519 93.7073 135.401C93.5464 135.288 93.4994 135.063 93.5968 134.89L93.6078 134.871L94.5808 133.345L91.9088 134.311C91.595 134.424 91.3162 134.074 91.4694 133.772L91.4783 133.755L92.3979 132.124L89.6542 132.981C89.4276 133.052 89.2001 132.88 89.188 132.636L89.1875 132.615C89.1875 132.002 89.5407 131.515 90.1872 130.981L90.2329 130.943C90.3795 130.826 90.6751 130.597 90.7623 130.527Z" fill="#7F8389"/>
<path d="M49.4824 141.458C49.4824 136.635 52.7525 132.541 57.168 131.834L59.6325 131.439H60.7663C60.7663 131.439 60.6487 133.669 64.4688 133.669C68.2888 133.669 68.8177 131.439 68.8177 131.439H69.2999C69.5664 131.439 69.7825 131.673 69.7825 131.962V140.875C69.7825 141.594 69.2423 142.179 68.5759 142.179H50.1495C49.7811 142.179 49.4824 141.856 49.4824 141.458Z" fill="#3B3F45"/>
<path d="M59.1962 129.671C59.1518 130.387 58.623 131.441 58.3643 131.878C58.6416 132.514 59.3848 133.787 60.1391 133.787C61.0819 133.787 61.3038 131.401 61.1928 130.984C61.0819 130.565 59.2517 128.776 59.1962 129.671Z" fill="#3B3F45"/>
<mask id="mask1" mask-type="alpha" maskUnits="userSpaceOnUse" x="49" y="131" width="21" height="12">
<path fill-rule="evenodd" clip-rule="evenodd" d="M49.4824 141.349C49.4824 135.914 53.6373 131.508 58.7626 131.508H59.6612H62.2059H64.7506H67.2953H69.8399V140.795C69.8399 141.503 69.2982 142.078 68.6298 142.078H50.1699C49.7902 142.078 49.4824 141.752 49.4824 141.349Z" fill="white"/>
</mask>
<g mask="url(#mask1)">
<path d="M57.2683 136.893L58.9933 140.441L57.3813 141.323L55.6562 137.774L57.2683 136.893Z" fill="#666E79"/>
<path d="M59.6471 135.551L61.7143 139.815L60.1014 140.694L58.0342 136.43L59.6471 135.551Z" fill="#666E79"/>
<path d="M61.9768 134.072L64.835 140.083L63.2157 140.949L60.3574 134.938L61.9768 134.072Z" fill="#666E79"/>
<path d="M51.846 135.407C50.3197 134.448 50.9183 136.348 49.5469 137.155L46.6426 143.344H69.7554C70.3201 142.447 72.3606 137.797 70.7362 137.155C67.7526 135.979 62.4949 140.048 60.3167 139.914C58.1385 139.78 51.9034 140.788 52.2696 138.635C52.693 136.146 53.2376 136.282 51.846 135.407Z" fill="#555D65"/>
</g>
<path d="M57.8484 131.247C57.9681 131.087 58.1847 131.055 58.3414 131.17L58.557 131.34C58.6986 131.45 58.8742 131.588 58.9503 131.651L59.0295 131.717C59.6256 132.226 59.95 132.697 59.95 133.285C59.95 133.533 59.7287 133.714 59.5022 133.656L59.4833 133.651L56.7396 132.794L57.6593 134.425C57.8285 134.725 57.5585 135.083 57.2462 134.986L57.2288 134.981L54.5565 134.015L55.5297 135.541C55.6375 135.71 55.5997 135.937 55.447 136.058L55.4302 136.071C55.2693 136.184 55.0534 136.144 54.9382 135.984L54.9262 135.966L53.3522 133.497C53.1619 133.199 53.4329 132.819 53.7544 132.918L53.772 132.924L56.5305 133.921L55.642 132.345C55.4766 132.052 55.7314 131.699 56.0403 131.78L56.0579 131.785L58.9561 132.689L58.9364 132.666C58.8324 132.545 58.7 132.418 58.5389 132.282L58.5012 132.251C58.3871 132.157 57.9836 131.845 57.9091 131.783C57.7515 131.653 57.7243 131.413 57.8484 131.247Z" fill="#7F8389"/>
<path d="M59.2278 129.671C59.1883 130.387 58.7183 131.441 58.4883 131.878C58.7348 132.514 59.3954 133.787 60.0658 133.787C60.9039 133.787 61.1011 131.401 61.0025 130.984C60.9039 130.565 59.2771 128.776 59.2278 129.671Z" fill="#3B3F45"/>
<mask id="mask2" mask-type="alpha" maskUnits="userSpaceOnUse" x="49" y="131" width="21" height="12">
<path fill-rule="evenodd" clip-rule="evenodd" d="M49.4824 141.349C49.4824 135.914 53.647 131.508 58.7844 131.508H59.685H62.2357H64.7863H67.337H69.8876V140.795C69.8876 141.503 69.3446 142.078 68.6747 142.078H50.1715C49.7909 142.078 49.4824 141.752 49.4824 141.349Z" fill="white"/>
</mask>
<g mask="url(#mask2)">
<path d="M57.2867 136.893L59.0157 140.441L57.3999 141.323L55.6709 137.774L57.2867 136.893Z" fill="#666E79"/>
<path d="M59.6694 135.551L61.7415 139.815L60.1248 140.694L58.0527 136.43L59.6694 135.551Z" fill="#666E79"/>
<path d="M62.004 134.072L64.869 140.083L63.2458 140.949L60.3809 134.938L62.004 134.072Z" fill="#666E79"/>
<path d="M51.8504 135.407C50.3205 134.448 50.9205 136.348 49.5459 137.155L46.6348 143.344H69.8017C70.3678 142.447 72.413 137.797 70.7848 137.155C67.7943 135.979 62.5242 140.048 60.3409 139.914C58.1576 139.78 51.9079 140.788 52.2749 138.635C52.6994 136.146 53.2452 136.282 51.8504 135.407Z" fill="#555D65"/>
</g>
<path d="M57.8712 131.247C57.9965 131.087 58.2235 131.055 58.3876 131.17L58.6135 131.34C58.7619 131.45 58.9459 131.588 59.0255 131.651L59.1086 131.717C59.733 132.226 60.0729 132.697 60.0729 133.285C60.0729 133.533 59.841 133.714 59.6038 133.656L59.584 133.651L56.7096 132.794L57.6731 134.425C57.8504 134.725 57.5675 135.083 57.2403 134.986L57.222 134.981L54.4225 134.015L55.442 135.541C55.555 135.71 55.5154 135.937 55.3554 136.058L55.3378 136.071C55.1692 136.184 54.9431 136.144 54.8223 135.984L54.8098 135.966L53.1608 133.497C52.9615 133.199 53.2454 132.819 53.5822 132.918L53.6006 132.924L56.4905 133.921L55.5597 132.345C55.3865 132.052 55.6534 131.699 55.977 131.78L55.9954 131.785L59.0316 132.689L59.011 132.666C58.9021 132.545 58.7633 132.418 58.5946 132.282L58.5551 132.251C58.4356 132.157 58.0129 131.845 57.9348 131.783C57.7697 131.653 57.7412 131.413 57.8712 131.247Z" fill="#7F8389"/>
<path d="M26.0086 81.5369C29.0131 80.216 31.8032 82.0069 32.5865 85.3045L32.6177 85.4346C32.7509 85.9828 32.9216 86.6113 33.1498 87.4017L33.5032 88.6026C33.7221 89.3407 33.9752 90.191 34.0204 90.3444L34.178 90.882C34.5462 92.1464 34.8262 93.1694 35.0767 94.1884C35.7753 97.0303 36.1312 99.4348 36.0803 101.66C36.0117 104.658 35.1834 107.241 33.3799 109.221L33.3174 109.289L28.0957 103.864C28.9813 102.91 29.0389 100.391 27.9932 96.1373L27.9472 95.9518C27.7225 95.052 27.4604 94.1064 27.1075 92.9022L26.6493 91.3576L26.6397 91.3716C25.2807 93.3272 23.7446 95.9416 22.4336 98.4744L22.3636 98.61L15.9365 94.9054C17.7686 91.348 19.9884 87.6584 21.9061 85.1987C23.3198 83.3854 24.5846 82.1629 26.0086 81.5369Z" fill="#323337"/>
<path d="M5.92477 105.468C8.84771 90.221 15.9403 93.7144 19.2789 92.8848C34.4307 92.8848 32.5349 103.016 32.7917 107.441C33.0485 111.867 31.7645 134.821 28.1691 138.417C24.5738 142.012 3.35666 134.37 0.660156 129.945C0.66015 120.921 2.07261 116.254 5.92477 105.468Z" fill="#3F4244"/>
<path d="M27.6091 117.495C28.0503 112.519 26.9837 95.6996 24.865 93.418C35.9078 95.7687 33.401 107.404 33.401 116.251C33.401 126.665 29.5398 138.507 27.6091 139.199C25.6786 139.89 17.8274 137.955 20.659 138.507C23.4906 139.062 26.8369 126.204 27.6091 117.495Z" fill="#37383B"/>
<path d="M23.5161 133.265V119.021L18.3798 119.713C17.8662 124.553 17.1472 134.482 18.3798 135.478C19.9207 136.722 23.5161 133.956 23.5161 133.265Z" fill="#37383C"/>
<path d="M5.33061 113.569L5.34368 113.571C9.55536 112.906 19.1687 116.429 23.4488 118.272C23.5344 118.733 23.2176 120.042 21.2659 121.591C18.8262 123.526 19.9581 133.988 18.441 134.867C15.0415 136.836 1.68738 130.475 0.0790859 129.058C-0.220525 126.523 0.339075 119.031 1.62318 116.37C3.07789 113.355 3.88359 113.432 5.33061 113.569Z" fill="#4F5256"/>
<path d="M2.52489 117.013C2.55223 116.714 2.80327 116.495 3.08562 116.524C6.89514 116.914 17.003 120.166 18.7975 121.456C19.0321 121.624 19.0932 121.962 18.9338 122.211C18.7744 122.459 18.455 122.523 18.2203 122.355C16.5858 121.18 6.63833 117.98 2.98662 117.606C2.70427 117.577 2.49755 117.311 2.52489 117.013Z" fill="#37383B"/>
<path d="M102.497 55.1365C102.497 75.3462 92.4583 81.0928 72.3389 81.0928C52.2196 81.0928 38.9531 75.3462 38.9531 55.1365C38.9531 34.9269 50.6518 19.6172 70.7711 19.6172C90.8904 19.6172 102.497 34.9269 102.497 55.1365Z" fill="#BBB0A6"/>
<path d="M54.1721 20.7865C54.1721 26.7146 51.4976 27.1292 47.4396 30.5444C44.0273 37.4726 37.1104 31.2028 37.1104 25.2747C37.1104 19.3467 37.5715 16.3951 42.8283 13.175C46.7018 10.8022 54.1721 14.8584 54.1721 20.7865Z" fill="#BBB0A6"/>
<path d="M87.9255 23.0368C87.9255 28.9651 90.6 29.3797 94.658 32.7951C98.0703 39.7234 104.987 33.4535 104.987 27.5252C104.987 21.5969 104.526 18.6453 99.2693 15.425C95.3958 13.0522 87.9255 17.1085 87.9255 23.0368Z" fill="#BBB0A6"/>
<path d="M81.141 70.8464C81.141 76.3435 77.586 77.4819 70.8117 77.4819C64.0373 77.4819 59.6523 76.3435 59.6523 70.8464C59.6523 65.3494 64.0373 59.1367 70.8117 59.1367C77.586 59.1367 81.141 65.3494 81.141 70.8464Z" fill="#E9E7E7"/>
<path d="M58.2415 56.8921C58.3152 57.4492 58.4823 59.28 57.443 59.2153C57.1266 59.1956 56.8858 58.0503 57.1769 57.8543C58.3105 57.091 60.0786 58.2709 58.7294 59.4265C57.4633 60.511 56.2514 57.9481 57.7425 57.9481C58.416 57.9481 58.6407 58.1192 58.6407 58.8868C58.6407 59.7445 57.8511 58.0999 57.8423 57.69C57.8034 55.8792 59.5013 57.9001 58.3524 58.4527C57.95 58.6462 57.9418 57.2328 58.0751 57.0212C58.6393 56.1258 59.2495 57.5429 59.2395 57.9951C59.1908 60.2122 56.7118 57.6406 58.0751 57.0095C58.5759 56.7777 59.821 56.5921 59.8383 57.3615C59.8532 58.0235 60.0997 58.7929 59.3393 58.7929C57.0495 58.7929 58.9566 56.3781 59.5944 57.7839C60.0084 58.6965 59.2395 59.1745 59.2395 58.4761C59.2395 58.1454 59.7753 59.2848 59.8273 59.5321C59.9796 60.2577 59.1363 60.0778 58.6851 60.0601C58.0776 60.0363 57.6709 57.1571 58.929 57.5375C59.8953 57.8296 58.8597 60.7665 58.5963 59.4969C58.4766 58.9198 58.2061 58.1903 58.9956 58.1593C59.7605 58.1294 60.1242 58.3663 60.0158 59.2271C59.8516 60.5297 59.4244 59.7085 60.1378 59.1215C60.3823 58.9202 60.8888 58.9658 60.4815 58.5348C60.2811 58.3227 60.3192 57.8688 60.1488 57.7487C59.9759 57.6267 60.4509 58.061 60.6368 58.1593" stroke="black" stroke-width="3" stroke-linecap="round"/>
<path d="M81.6531 57.6382C81.5793 58.1953 81.4123 60.0261 82.4515 59.9614C82.7679 59.9417 83.0087 58.7963 82.7176 58.6004C81.584 57.8371 79.816 59.017 81.1651 60.1726C82.4312 61.2571 83.6432 58.6942 82.1521 58.6942C81.4785 58.6942 81.2538 58.8653 81.2538 59.6329C81.2538 60.4906 82.0435 58.8459 82.0523 58.4361C82.0912 56.6252 80.3932 58.6462 81.5422 59.1988C81.9446 59.3923 81.9527 57.9789 81.8194 57.7673C81.2552 56.8719 80.6451 58.289 80.655 58.7412C80.7037 60.9583 83.1827 58.3867 81.8194 57.7556C81.3187 57.5238 80.0735 57.3382 80.0562 58.1076C80.0413 58.7695 79.7948 59.539 80.5552 59.539C82.845 59.539 80.9379 57.1242 80.3002 58.53C79.8861 59.4426 80.655 59.9206 80.655 59.2222C80.655 58.8915 80.1192 60.0309 80.0673 60.2782C79.9149 61.0038 80.7583 60.8239 81.2095 60.8062C81.817 60.7824 82.2236 57.9032 80.9655 58.2836C79.9992 58.5757 81.0348 61.5126 81.2982 60.243C81.4179 59.6659 81.6885 58.9364 80.899 58.9054C80.134 58.8755 79.7703 59.1124 79.8788 59.9732C80.0429 61.2758 80.4701 60.4546 79.7568 59.8676C79.5122 59.6663 79.0057 59.7119 79.413 59.2809C79.6134 59.0688 79.5753 58.6149 79.7457 58.4948C79.9186 58.3728 79.4436 58.8071 79.2578 58.9054" stroke="black" stroke-width="3" stroke-linecap="round"/>
<path d="M69.9204 62.8723C67.9976 62.4257 69.5206 62.362 70.5335 62.1413C70.8141 62.0802 72.3204 61.8115 72.5629 62.1322C73.4624 63.3219 71.3466 63.6081 70.6889 63.5211C70.1416 63.4487 69.0541 61.7406 69.1086 61.7301C70.0323 61.5524 71.839 61.1827 72.7183 61.6479C73.4288 62.0238 72.9401 62.4094 72.4074 62.7718C72.0208 63.0348 71.2782 63.0207 70.8444 63.119C70.0439 63.3005 69.2674 63.3657 68.4523 63.3657C68.2187 63.3657 67.7965 63.1423 68.245 63.0368C68.8421 62.8964 69.4524 62.7078 70.0672 62.7078C70.7436 62.7078 71.5252 62.5752 72.157 62.8723C72.438 63.0045 71.7115 63.2611 71.6561 63.2744C70.6293 63.5197 69.2195 63.4798 68.1932 63.2744C68.0333 63.2424 67.0884 62.8783 67.6146 62.6347C68.3171 62.3095 69.3013 62.2144 70.0585 62.2144C70.8184 62.2144 71.6416 62.1234 72.3988 62.2235C72.5454 62.2429 73.0174 62.3789 72.6147 62.3789C71.3308 62.3789 70.047 62.3789 68.7632 62.3789C68.5481 62.3789 66.1641 62.3142 66.2157 62.123C66.3197 61.7379 68.0642 61.6962 68.3659 61.6387C69.4772 61.4271 70.9624 61.1436 72.0965 61.4103C72.4899 61.5028 73.6183 61.8877 73.9273 62.251C74.2631 62.6458 72.7417 62.9737 72.632 63.0002C71.4666 63.2821 73.6697 62.8499 73.9618 62.7078C74.8242 62.2886 73.7692 62.2024 73.1846 62.0134C71.1184 61.3453 76.1483 61.2575 74.7736 62.5799C73.6238 63.6859 71.2433 63.9213 69.7995 63.3657C68.909 63.0231 67.9038 63.2508 66.967 63.2013C66.6075 63.1822 66.1579 62.3416 66.5352 62.0499C67.9367 60.9663 69.4986 61.0631 71.1639 61.0631C72.1955 61.0631 74.2544 60.6752 74.8599 61.8855C75.5994 63.3633 74.1296 63.2013 73.1846 63.2013" stroke="black" stroke-width="3" stroke-linecap="round"/>
<path d="M68.1895 75.043H73.3541" stroke="black" stroke-width="3" stroke-linecap="round"/>
<ellipse cx="51.5653" cy="67.5031" rx="3.75674" ry="1.98743" fill="#EEA9A9"/>
<ellipse cx="89.1327" cy="67.5031" rx="3.75674" ry="1.98743" fill="#EEA9A9"/>
<path fill-rule="evenodd" clip-rule="evenodd" d="M71.8509 5.98828C71.8518 5.98828 71.8501 5.98828 71.8509 5.98828C72.3796 5.98828 73.2894 6.27154 73.6236 6.99972C73.7999 7.38398 73.7717 7.6558 73.7418 8.12354C73.375 7.62998 72.3782 7.29941 71.8509 7.29941C71.185 7.29941 70.4818 7.69699 69.96 8.12354C69.9361 7.65357 69.9019 7.38398 70.0782 6.99972C70.4124 6.27154 71.3084 5.98828 71.8509 5.98828Z" fill="#272727"/>
<path fill-rule="evenodd" clip-rule="evenodd" d="M71.8914 7.11134C71.899 7.11134 71.8838 7.11132 71.8914 7.11134C76.6501 7.11134 84.8381 9.66056 87.8455 16.2141C89.4324 19.6723 89.1789 22.1186 88.9091 26.3281C85.6081 21.8862 76.6376 18.9111 71.8913 18.9111C65.8979 18.9111 59.5696 22.4893 54.8737 26.3281C54.6587 22.0985 54.3504 19.6723 55.9373 16.2141C58.9447 9.66056 67.0087 7.11127 71.8914 7.11134Z" fill="#614D4E"/>
<path fill-rule="evenodd" clip-rule="evenodd" d="M71.897 16.1055C71.9041 16.1055 71.8899 16.1055 71.897 16.1055C78.3102 16.1055 88.6106 18.9477 87.7898 28.5796C84.707 25.459 76.3295 23.6058 71.897 23.6058C66.2997 23.6058 60.3898 25.8827 56.0043 28.5796C55.3374 18.7109 65.3727 16.1054 71.897 16.1055Z" fill="#715E5F"/>
<path d="M66.3984 10.4453H65.7592L65.4783 11.9767H64.3693L64.6502 10.4453H64.0109L63.3184 14.1541H63.9576L64.253 12.581H65.3621L65.0666 14.1541H65.7059L66.3984 10.4453Z" fill="white"/>
<path fill-rule="evenodd" clip-rule="evenodd" d="M68.6373 10.4453L69.1594 14.1541H68.493L68.4184 13.4769H67.2199L66.8867 14.1541H66.1855L68.1151 10.4453H68.6373ZM67.4886 12.9136H68.3689L68.1998 11.4866L67.4886 12.9136Z" fill="white"/>
<path fill-rule="evenodd" clip-rule="evenodd" d="M71.4131 10.4453C72.0042 10.4453 72.3462 10.8464 72.3462 11.4246C72.3462 12.0861 71.8967 12.7164 71.0614 12.7164H70.3921L70.1234 14.1541H69.4785L70.1771 10.4453H71.4131ZM71.0857 12.1064C71.5058 12.1064 71.6964 11.7627 71.6964 11.4815C71.6964 11.2471 71.5938 11.0544 71.3055 11.0544H70.7095L70.5092 12.1064H71.0857Z" fill="white"/>
<path fill-rule="evenodd" clip-rule="evenodd" d="M74.3867 10.4453C74.9779 10.4453 75.3198 10.8464 75.3198 11.4246C75.3198 12.0861 74.8704 12.7164 74.035 12.7164H73.3657L73.097 14.1541H72.4521L73.1507 10.4453H74.3867ZM74.0598 12.1064C74.4799 12.1064 74.6705 11.7627 74.6705 11.4815C74.6705 11.2471 74.5679 11.0544 74.2796 11.0544H73.6836L73.4833 12.1064H74.0598Z" fill="white"/>
<path d="M78.293 10.4453H77.583L76.6881 11.9819L76.3185 10.4453H75.6377L76.265 12.6331L75.9781 14.1541H76.62L76.9021 12.6591L78.293 10.4453Z" fill="white"/>
<path fill-rule="evenodd" clip-rule="evenodd" d="M78.9 10.4414H79.671L79.036 12.9829H78.5674L78.9 10.4414ZM78.6639 13.3711C78.8705 13.3711 79.0419 13.5526 79.0419 13.7653C79.0419 13.978 78.8705 14.1492 78.6639 14.1492C78.4573 14.1492 78.291 13.978 78.291 13.7653C78.291 13.5526 78.4573 13.3711 78.6639 13.3711Z" fill="white"/>
<path fill-rule="evenodd" clip-rule="evenodd" d="M67.2739 9.77567C67.4558 9.49371 67.7572 9.32227 68.0823 9.32227H68.5976C68.9329 9.32227 69.2332 9.50294 69.4109 9.78338C69.5891 9.50211 69.8901 9.32227 70.2242 9.32227H71.466C71.8228 9.32227 72.1763 9.40962 72.4856 9.60174C72.6621 9.42705 72.8979 9.32227 73.153 9.32227H74.3947C74.6603 9.32227 74.9242 9.37069 75.1693 9.47473C75.3209 9.3763 75.4969 9.32227 75.6791 9.32227H76.3663C76.6068 9.32227 76.8309 9.41566 77.0043 9.5739C77.1797 9.41371 77.4052 9.32227 77.6424 9.32227H78.359C78.4514 9.32227 78.5418 9.33613 78.6282 9.36244C78.7141 9.33625 78.8047 9.32227 78.8979 9.32227H79.6489C79.9523 9.32227 80.2387 9.47212 80.4246 9.72817C80.6105 9.98423 80.6752 10.3177 80.5996 10.6315L79.9812 13.1996C79.9733 13.2321 79.9641 13.2639 79.9537 13.295C79.9949 13.4333 80.017 13.5797 80.017 13.73C80.017 14.542 79.3934 15.166 78.6672 15.166C78.2078 15.166 77.8025 14.9207 77.5601 14.5459C77.4017 14.908 77.0584 15.1503 76.6706 15.1503H76.0227C75.7282 15.1503 75.4494 15.0092 75.2629 14.7658C75.0765 14.5225 75.0021 14.2027 75.0604 13.8945L75.1488 13.4276C74.8587 13.5877 74.5294 13.6815 74.1749 13.7003L74.0616 14.3069C73.9702 14.7972 73.5671 15.1503 73.099 15.1503H72.4511C72.1568 15.1503 71.878 15.0094 71.6917 14.7663C71.5051 14.5233 71.4307 14.2037 71.4886 13.8957L71.5314 13.6681C71.4384 13.6843 71.3433 13.6951 71.2462 13.7003L71.133 14.3069C71.0416 14.7972 70.6385 15.1503 70.1702 15.1503H69.5223C69.453 15.1503 69.3844 15.1424 69.3177 15.1273C69.2509 15.1425 69.1823 15.1503 69.113 15.1503H68.4553C68.1319 15.1503 67.8421 14.9826 67.6625 14.7205C67.4795 14.988 67.1861 15.1503 66.8699 15.1503H66.1779C66.1074 15.1503 66.0382 15.1423 65.971 15.1268C65.904 15.1422 65.8345 15.1503 65.7637 15.1503H65.1158C64.9126 15.1503 64.7169 15.0831 64.5538 14.9615C64.3935 15.0811 64.199 15.1503 63.9918 15.1503H63.344C63.0497 15.1503 62.771 15.0094 62.5845 14.7663C62.3981 14.5233 62.3235 14.2037 62.3816 13.8957L63.0835 10.1641C63.1755 9.67452 63.5782 9.32227 64.0458 9.32227H64.6937C64.8968 9.32227 65.0926 9.38944 65.2557 9.51103C65.416 9.39143 65.6105 9.32227 65.8177 9.32227H66.4656C66.7599 9.32227 67.0385 9.4632 67.225 9.70625C67.2422 9.72876 67.2585 9.75193 67.2739 9.77567ZM78.9425 13.983C78.9875 13.9296 79.0188 13.8631 79.0304 13.7895C79.0336 13.7689 79.0353 13.7478 79.0353 13.7262C79.0353 13.7046 79.0336 13.6834 79.0304 13.6626C79.0014 13.4764 78.8482 13.3279 78.6672 13.3279C78.6349 13.3279 78.6036 13.3326 78.5739 13.3414C78.4182 13.3875 78.304 13.5458 78.304 13.7262C78.304 13.8151 78.304 13.983 78.5739 14.114C78.8054 14.114 78.9425 13.983 78.9425 13.983ZM78.5742 12.938H79.0307L79.6491 10.3701H78.8982L78.5742 12.938ZM68.5987 10.3701H68.0833L66.179 14.1016H66.871L67.1999 13.4203H68.3827L68.4564 14.1016H69.1141L68.5987 10.3701ZM68.1661 11.4155L67.4642 12.8516H68.3329L68.1661 11.4155ZM69.5223 14.1016H70.1702L70.4402 12.6551H71.1126C71.1208 12.6551 71.1291 12.6551 71.1372 12.6549C71.3731 12.6514 71.5779 12.5973 71.7498 12.5065C72.1607 12.2895 72.3847 11.8625 72.4024 11.413C72.4031 11.3939 72.4035 11.3746 72.4035 11.3554C72.4035 11.0365 72.3003 10.7711 72.1091 10.5964C71.9516 10.4525 71.7344 10.3701 71.466 10.3701H70.2242L69.5223 14.1016ZM71.5986 11.8383C71.7019 11.7158 71.7509 11.5564 71.7509 11.4131C71.7509 11.3936 71.7502 11.3744 71.7488 11.3555C71.7447 11.3032 71.7349 11.2538 71.7182 11.2091C71.7158 11.2024 71.7131 11.1959 71.7104 11.1895C71.6681 11.0919 71.5907 11.0196 71.4662 10.9938C71.4335 10.987 71.3976 10.9834 71.3582 10.9834H70.7594L70.5581 12.042H71.1373C71.1806 12.042 71.2216 12.0384 71.26 12.0315C71.2711 12.0296 71.2819 12.0274 71.2924 12.0249C71.3152 12.0196 71.3372 12.0131 71.3582 12.0056C71.4579 11.9699 71.5377 11.9105 71.5986 11.8383ZM72.4512 14.1016H73.0991L73.369 12.6551H74.0415C74.0497 12.6551 74.0578 12.6551 74.066 12.6549C74.5736 12.6474 74.9367 12.4057 75.1404 12.067C75.2575 11.8724 75.322 11.6457 75.3311 11.413C75.332 11.3939 75.3323 11.3746 75.3323 11.3554C75.3323 11.0293 75.2244 10.7592 75.0248 10.5847C74.9343 10.5056 74.8249 10.4462 74.6983 10.4102C74.606 10.384 74.5047 10.3701 74.3949 10.3701H73.1531L72.4512 14.1016ZM74.5273 11.8383C74.6306 11.7158 74.6797 11.5564 74.6797 11.4131C74.6797 11.3936 74.679 11.3744 74.6775 11.3555C74.6734 11.3032 74.6636 11.2538 74.6469 11.2091C74.6445 11.2024 74.6419 11.1959 74.6391 11.1895C74.597 11.0919 74.5194 11.0196 74.395 10.9938C74.3623 10.987 74.3264 10.9834 74.287 10.9834H73.6882L73.487 12.042H74.0662C74.1095 12.042 74.1503 12.0384 74.1887 12.0315C74.1998 12.0296 74.2106 12.0274 74.2211 12.0249C74.244 12.0196 74.2659 12.0131 74.287 12.0056C74.3867 11.9699 74.4664 11.9105 74.5273 11.8383ZM76.0232 14.1016H76.6711L76.9558 12.5975L78.3596 10.3701H77.6429L76.7398 11.9162L76.3668 10.3701H75.6796L76.3128 12.5713L76.0232 14.1016ZM65.1161 14.1016L65.4156 12.5188H64.2915L63.9921 14.1016H63.3442L64.0461 10.3701H64.694L64.4093 11.9109H65.5334L65.818 10.3701H66.4659L65.764 14.1016H65.1161Z" fill="#3F3334"/>
</svg>
