<svg width="319" height="163" viewBox="0 0 319 163" fill="none" xmlns="http://www.w3.org/2000/svg">
<rect width="42.2694" height="42.2694" rx="4" transform="matrix(0.713578 -0.700575 0.713578 0.700575 21.5186 133.387)" fill="#564138"/>
<rect width="42.2694" height="42.2694" rx="4" transform="matrix(0.713578 -0.700575 0.713578 0.700575 125 133.613)" fill="#564138"/>
<rect width="42.2694" height="42.2694" rx="4" transform="matrix(0.713578 -0.700575 0.713578 0.700575 229 133.613)" fill="#564138"/>
<rect y="39.3496" width="319" height="104.481" rx="15" fill="#564138"/>
<path d="M149.363 28.9348C154.782 26.3563 158.676 27.718 159.946 28.7212C164.277 35.6885 160.083 35.5525 155.996 40.7056C151.908 45.8586 147.68 54.9828 149.955 58.4642C152.231 61.9456 160.623 62.4375 160.468 54.7246C160.313 47.0117 185.44 35.0406 169.506 21.4734C153.573 7.9062 140.997 18.7421 137.976 22.1099C134.956 25.4778 130.957 35.0382 138.255 35.9932C145.553 36.9481 142.59 32.158 149.363 28.9348Z" fill="#6DA77F" stroke="#FAFAFA"/>
<path d="M161.51 65.508C161.558 67.9093 159.649 69.8955 157.246 69.9441C154.843 69.9926 152.856 68.0849 152.808 65.6837C152.76 63.2825 154.669 61.2962 157.072 61.2477C159.475 61.1991 161.462 63.1068 161.51 65.508Z" fill="#6DA77F" stroke="#FAFAFA"/>
<path d="M191.311 44.7112C196.273 45.7697 198.184 48.6878 198.519 50.0146C197.834 56.9183 195.091 54.6688 189.695 56.0228C184.299 57.3767 176.763 61.3228 176.495 64.8299C176.228 68.337 181.603 72.9859 185.472 67.731C189.342 62.4761 212.361 67.3747 208.664 50.0714C204.968 32.7681 190.951 33.5666 187.19 34.2719C183.43 34.9771 175.822 39.3339 180.225 43.7307C184.628 48.1274 185.108 43.3881 191.311 44.7112Z" fill="#24936E" stroke="#FAFAFA"/>
<path d="M180.555 75.4503C179.376 77.0522 177.121 77.3951 175.519 76.2163C173.916 75.0375 173.574 72.7833 174.753 71.1814C175.933 69.5795 178.188 69.2366 179.79 70.4154C181.393 71.5942 181.735 73.8484 180.555 75.4503Z" fill="#24936E" stroke="#FAFAFA"/>
<path d="M117.52 52.9695C119.238 49.1484 121.928 48.1133 123.058 48.0734C128.515 49.8254 126.22 51.648 126.375 56.2381C126.53 60.8282 128.405 67.5959 131.192 68.4208C133.978 69.2457 138.668 65.7156 135.097 61.6798C131.526 57.644 139.488 39.9179 124.869 39.8955C110.25 39.8731 108.456 51.3239 108.371 54.4816C108.286 57.6392 110.482 64.5355 114.799 61.746C119.116 58.9565 115.372 57.7458 117.52 52.9695Z" fill="#19634A" stroke="#FAFAFA"/>
<path d="M140.414 67.0499C141.471 68.2441 141.359 70.0687 140.164 71.1251C138.969 72.1815 137.144 72.0697 136.087 70.8755C135.03 69.6813 135.142 67.8568 136.337 66.8003C137.532 65.7439 139.357 65.8557 140.414 67.0499Z" fill="#19634A" stroke="#FAFAFA"/>
<path d="M50.8459 112.514H53.1459V94.8641H50.8459V112.514ZM62.2459 94.7641V98.9641H60.9209V94.7641H62.2459ZM65.7709 98.9641H64.3709V94.7641H65.7709V98.9641ZM65.6959 108.039C67.9459 108.039 68.6459 107.114 68.9709 103.989C68.2709 103.839 67.1959 103.414 66.6209 102.989C66.4959 105.139 66.3209 105.564 65.4709 105.564H62.1709C61.0709 105.564 60.9209 105.389 60.9209 104.389V101.364H68.2709V92.3641H58.3709V104.414C58.3709 105.114 58.4209 105.689 58.5209 106.164C56.7959 103.239 56.6209 98.8391 56.7209 92.6641C57.2459 92.4891 57.7459 92.2891 58.2209 92.0891L56.1209 90.2641C54.4459 91.1141 51.7459 92.0141 49.1459 92.6641L47.0209 92.0391V101.514C47.0209 104.739 46.8959 108.839 45.5959 111.864C46.1959 112.164 47.2459 113.064 47.5959 113.664C49.3209 110.164 49.5709 104.989 49.5709 101.539V94.6891C51.0959 94.3641 52.6959 93.9641 54.2209 93.4891C54.1209 106.464 55.4709 112.214 67.6959 113.589C67.9459 112.814 68.5709 111.539 69.0959 110.914C64.5459 110.564 61.6209 109.564 59.7709 107.764C60.2709 107.964 60.9459 108.039 61.8209 108.039H65.6959ZM89.4209 96.2391V108.564H83.7459V90.9141H80.6459V108.564H75.2209V96.2891H72.1709V113.289H75.2209V111.639H89.4209V113.214H92.5209V96.2391H89.4209ZM100.171 106.214V104.589H104.346V106.214H100.171ZM104.346 100.839V102.389H100.171V100.839H104.346ZM107.221 98.3391H97.3459V113.439H100.171V108.389H104.346V110.614C104.346 110.914 104.246 111.014 103.946 111.014C103.621 111.039 102.621 111.039 101.696 110.989C102.071 111.664 102.496 112.764 102.646 113.514C104.171 113.514 105.321 113.464 106.121 113.039C106.971 112.614 107.221 111.914 107.221 110.639V98.3391ZM114.346 110.264C114.346 110.614 114.221 110.714 113.821 110.714C113.396 110.739 112.096 110.739 110.821 110.689C111.271 111.464 111.746 112.689 111.896 113.489C113.696 113.514 115.046 113.439 115.996 112.989C116.996 112.514 117.271 111.789 117.271 110.314V97.8891H114.346V110.264ZM112.096 98.5891H109.371V108.789H112.096V98.5891ZM113.521 93.9391C114.146 93.0641 114.821 92.0891 115.421 91.1141L112.196 90.1641C111.696 91.3141 110.896 92.7891 110.146 93.9391H103.196L104.571 93.4641C104.146 92.5141 103.146 91.1641 102.246 90.2141L99.4209 91.1891C100.121 92.0141 100.846 93.0891 101.296 93.9391H95.9709V96.6141H118.596V93.9391H113.521ZM129.496 106.114H135.596C134.996 107.039 134.246 107.814 133.321 108.439C131.796 108.039 130.221 107.664 128.671 107.339L129.496 106.114ZM125.296 97.4641H127.921V99.7891H125.296V97.4641ZM130.721 93.6891H133.546V95.1141H130.721V93.6891ZM139.346 97.4641V99.7891H136.346V97.4641H139.346ZM130.721 99.7891V97.4641H133.546V99.7891H130.721ZM143.721 106.114V103.714H131.096C131.446 103.164 131.771 102.639 132.096 102.114H142.321V95.1141H136.346V93.6891H143.121V91.1141H121.346V93.6891H127.921V95.1141H122.496V102.114H128.696C128.371 102.639 128.046 103.164 127.696 103.714H120.896V106.114H126.096C125.346 107.189 124.621 108.164 123.996 108.964L126.871 109.864L127.146 109.489C127.971 109.664 128.771 109.864 129.571 110.064C127.346 110.639 124.646 110.939 121.346 111.064C121.796 111.714 122.271 112.764 122.471 113.614C127.321 113.239 131.021 112.589 133.821 111.214C136.646 112.039 139.171 112.914 141.071 113.689L142.896 111.264C141.196 110.664 139.021 109.989 136.596 109.314C137.521 108.439 138.296 107.389 138.921 106.114H143.721ZM152.821 92.1641C151.921 91.5141 150.221 90.6891 148.921 90.2391L147.396 92.2641C148.671 92.7891 150.396 93.7141 151.196 94.4141L152.821 92.1641ZM156.821 101.564H159.746V102.714H156.821V101.564ZM159.746 96.3141H156.821V95.1641H159.746V96.3141ZM159.746 99.5141H156.821V98.3641H159.746V99.5141ZM168.696 106.614H158.696V105.064H168.296V102.714H162.571V101.564H166.846V99.5141H162.571V98.3641H166.821V96.3141H162.571V95.1641H167.696V92.8391H163.071C163.496 92.2141 163.921 91.5141 164.346 90.7891L161.096 90.2641C160.846 91.0391 160.446 91.9641 160.021 92.8391H157.596C157.971 92.2391 158.296 91.6141 158.596 90.9891L155.721 90.1391C154.671 92.4391 152.871 94.7141 150.921 96.2391L150.996 96.1391C150.096 95.5141 148.346 94.7641 147.096 94.3141L145.571 96.3141C146.871 96.8391 148.596 97.7141 149.421 98.3391L150.721 96.5391C151.371 97.0641 152.421 98.0141 152.921 98.5391C153.246 98.2641 153.596 97.9391 153.921 97.6141V105.064H155.671V106.614H145.996V109.289H155.671V113.589H158.696V109.289H168.696V106.614ZM151.271 98.3141C149.571 100.239 147.596 102.239 146.221 103.389L148.296 105.614C149.871 103.914 151.446 102.064 152.871 100.289L151.271 98.3141ZM177.721 92.2141V94.7641H181.246V96.4391H183.996V94.7641H187.696V96.4391H190.496V94.7641H193.846V92.2141H190.496V90.3891H187.696V92.2141H183.996V90.3891H181.246V92.2141H177.721ZM188.496 107.789V106.414H190.871V107.789H188.496ZM183.896 107.789V106.414H186.146V107.789H183.896ZM186.146 103.064V104.489H183.896V103.064H186.146ZM190.871 103.064V104.489H188.496V103.064H190.871ZM193.396 100.914H181.421V113.539H183.896V109.739H186.146V113.489H188.496V109.739H190.871V111.039C190.871 111.289 190.821 111.339 190.596 111.339C190.346 111.364 189.721 111.364 189.021 111.339C189.321 111.989 189.621 112.914 189.671 113.589C190.971 113.614 191.871 113.564 192.546 113.189C193.246 112.789 193.396 112.189 193.396 111.064V100.914ZM193.971 97.1141H177.846V102.564C177.846 105.314 177.696 109.089 175.946 111.764V95.9391C176.671 94.3391 177.321 92.6891 177.846 91.0891L175.096 90.2641C173.996 93.9391 172.146 97.5891 170.146 99.9141C170.621 100.689 171.346 102.414 171.571 103.114C172.096 102.514 172.621 101.814 173.121 101.064V113.564H175.946V111.864C176.521 112.214 177.621 113.164 178.046 113.664C180.171 110.639 180.546 105.864 180.546 102.614V99.6641H193.971V97.1141ZM215.246 103.414C217.596 103.414 218.421 102.364 218.746 98.8141C217.921 98.6141 216.696 98.1391 216.071 97.6641C215.946 100.189 215.771 100.639 214.971 100.639H212.296C211.371 100.639 211.246 100.489 211.246 99.5391V97.3141C213.521 96.6891 215.971 95.8891 217.996 95.0141L215.771 92.6641C214.596 93.2891 212.946 94.0141 211.246 94.6141V90.2641H208.271V99.5391C208.271 102.489 208.996 103.414 211.896 103.414H215.246ZM198.896 107.764H215.896V104.914H198.896V107.764ZM207.471 100.114L204.171 100.464V96.6641H207.271V94.0141H204.171V90.2641H201.221V100.739L199.796 100.889V92.7891H197.046V101.139L195.671 101.264L195.971 104.214C199.096 103.839 203.471 103.339 207.546 102.814L207.471 100.114ZM196.021 113.064H218.571V110.114H196.021V113.064ZM226.221 90.3141C224.971 93.9391 222.771 97.5141 220.471 99.8141C220.971 100.539 221.796 102.164 222.071 102.889C222.696 102.239 223.321 101.464 223.946 100.639V113.539H226.871V95.9891C227.721 94.4391 228.421 92.7891 229.046 91.2141L226.221 90.3141ZM243.771 98.4891H237.621V90.6141H234.521V98.4891H228.096V101.414H234.521V113.589H237.621V101.414H243.771V98.4891ZM253.796 94.6641V96.0391H251.046V98.0891H253.796V103.464H255.996V98.0891H258.771V96.0391H255.996V94.6641H262.246V96.0391H259.496V98.0891H262.246V103.639H264.446V98.0891H268.171V96.0391H264.446V94.6641H268.646V92.1891H259.621V90.2641H256.521V92.1891H247.271V99.7391C247.271 103.364 247.121 108.464 245.446 111.989C246.046 112.264 247.246 113.164 247.721 113.664C249.671 109.839 249.996 103.714 249.996 99.7391V94.6641H253.796ZM261.446 98.6141H259.821V99.5391C259.821 100.464 259.671 101.789 258.696 102.614C259.121 102.814 259.846 103.364 260.146 103.739C261.271 102.589 261.446 100.964 261.446 99.6391V98.6141ZM258.446 102.364V98.6641H256.796V102.364H258.446ZM253.021 98.6391H251.396V99.6141C251.396 100.564 251.246 101.939 250.371 102.789C250.796 103.039 251.446 103.539 251.746 103.914C252.846 102.689 253.021 101.039 253.021 99.6641V98.6391ZM261.896 108.514C262.496 109.089 263.121 109.739 263.746 110.414C261.821 110.464 259.921 110.489 258.071 110.514C260.246 109.064 262.546 107.289 264.446 105.664L261.946 104.314C260.871 105.414 259.446 106.639 257.946 107.814C257.546 107.514 257.071 107.164 256.546 106.814C257.546 106.014 258.621 105.064 259.621 104.139L257.221 102.864C256.571 103.714 255.621 104.764 254.696 105.639C254.221 105.389 253.796 105.139 253.371 104.914L251.496 106.639C252.871 107.414 254.571 108.539 255.721 109.489C255.171 109.864 254.621 110.239 254.096 110.589C252.746 110.589 251.521 110.614 250.446 110.614L250.646 113.064C254.496 112.964 260.171 112.814 265.571 112.614C265.821 112.964 266.046 113.314 266.221 113.614L268.721 112.364C267.821 110.914 265.846 108.839 264.221 107.389L261.896 108.514ZM267.221 102.114C267.121 102.114 267.071 102.089 267.021 102.014V101.464V98.6141H265.296V101.339C265.296 102.464 265.371 102.814 265.671 103.114C265.921 103.414 266.371 103.539 266.796 103.539H267.571C267.821 103.539 268.171 103.489 268.346 103.389C268.596 103.264 268.796 103.064 268.946 102.814C269.071 102.589 269.146 101.889 269.196 101.264C268.746 101.139 268.196 100.839 267.896 100.589C267.896 101.139 267.871 101.564 267.821 101.764C267.746 101.939 267.721 102.039 267.646 102.064C267.621 102.089 267.521 102.114 267.446 102.114H267.221ZM280.396 104.989H283.621C283.246 101.514 288.696 101.089 288.696 97.4141C288.696 94.0891 286.046 92.4141 282.421 92.4141C279.746 92.4141 277.546 93.6141 275.971 95.4641L278.021 97.3641C279.246 96.0641 280.471 95.3891 282.021 95.3891C283.971 95.3891 285.171 96.2391 285.171 97.7391C285.171 100.164 279.871 101.064 280.396 104.989ZM282.021 111.639C283.296 111.639 284.221 110.739 284.221 109.439C284.221 108.114 283.296 107.214 282.021 107.214C280.771 107.214 279.821 108.114 279.821 109.439C279.821 110.739 280.746 111.639 282.021 111.639Z" fill="white"/>
</svg>
