<svg width="284" height="281" viewBox="0 0 284 281" fill="none" xmlns="http://www.w3.org/2000/svg">
<rect x="91.75" y="93.25" width="18.5" height="7.5" transform="rotate(-90 91.75 93.25)" fill="#FF6D6D" stroke="#564138" stroke-width="1.5"/>
<rect x="185.75" y="93.25" width="18.5" height="7.5" transform="rotate(-90 185.75 93.25)" fill="#FF6D6D" stroke="#564138" stroke-width="1.5"/>
<rect x="56.1729" y="105.025" width="174.858" height="153.696" fill="url(#paint0_linear)" stroke="#564138" stroke-width="2"/>
<path d="M223.718 154.287H207.468L218.427 181.874H241.101L223.718 154.287Z" fill="#FF6D6D" stroke="#564138" stroke-width="2"/>
<path d="M207.467 154.287H189.706L196.886 182.252L218.427 181.874L207.467 154.287Z" fill="white" stroke="#564138" stroke-width="2"/>
<path d="M175.345 182.252L171.188 154.287H189.706L196.886 182.252H175.345Z" fill="#FF6D6D" stroke="#564138" stroke-width="2"/>
<path d="M111.481 182.252L116.394 154.287H134.533L133.022 182.252H111.481Z" fill="white" stroke="#564138" stroke-width="2"/>
<path d="M154.183 182.252L152.672 154.287H171.079L175.346 182.252H154.183Z" fill="white" stroke="#564138" stroke-width="2"/>
<path d="M154.184 182.252L152.673 154.287H134.533L133.021 182.252H154.184Z" fill="#FF6D6D" stroke="#564138" stroke-width="2"/>
<path d="M90.6973 182.252L98.6332 154.287H116.395L111.482 182.252H90.6973Z" fill="#FF6D6D" stroke="#564138" stroke-width="2"/>
<path d="M98.2547 154.287H80.4933L69.5342 182.252H90.6967L98.2547 154.287Z" fill="white" stroke="#564138" stroke-width="2"/>
<rect x="48.6152" y="94.002" width="188.463" height="10.8487" rx="5.42433" fill="#FFB943" stroke="#564138" stroke-width="2"/>
<rect x="48.6152" y="258.449" width="184.684" height="8.58125" rx="4.29063" fill="#C4C4C4" stroke="#564138" stroke-width="2"/>
<rect x="65.999" y="115.605" width="33.5228" height="28.2322" fill="#85C8DE" stroke="#564138" stroke-width="2"/>
<rect x="147.627" y="115.605" width="33.5228" height="28.2322" fill="#85C8DE" stroke="#564138" stroke-width="2"/>
<rect x="106.812" y="115.605" width="33.5228" height="28.2322" fill="#85C8DE" stroke="#564138" stroke-width="2"/>
<rect x="188.439" y="115.605" width="33.5228" height="28.2322" fill="#85C8DE" stroke="#564138" stroke-width="2"/>
<path d="M47.4209 182.252L64.2421 154.287H80.4919L69.1548 182.252H47.4209Z" fill="#FF6D6D" stroke="#564138" stroke-width="2"/>
<rect x="65.999" y="208.572" width="53.9295" height="34.2786" fill="#85C8DE" stroke="#564138" stroke-width="2"/>
<rect x="165.764" y="209.324" width="53.9295" height="34.2786" fill="#85C8DE" stroke="#564138" stroke-width="2"/>
<rect x="62.9766" y="243.338" width="59.2201" height="6.31384" rx="3.15692" fill="#FCFCFC" stroke="#564138" stroke-width="2"/>
<rect x="162.743" y="244.094" width="59.2201" height="6.31384" rx="3.15692" fill="#FCFCFC" stroke="#564138" stroke-width="2"/>
<rect x="130.241" y="208.572" width="25.2089" height="45.6156" fill="#E78945" stroke="#564138" stroke-width="2"/>
<path d="M131.511 254.674H154.185C156.63 254.674 158.669 256.412 159.133 258.72H126.564C127.028 256.412 129.067 254.674 131.511 254.674Z" fill="#A85F2A" stroke="#564138" stroke-width="2"/>
<path d="M68.7777 182.252H47.6152C46.6074 187.543 47.2373 198.275 57.8185 198.88C68.3998 199.484 69.5335 188.046 68.7777 182.252Z" fill="#FF6D6D" stroke="#564138" stroke-width="2"/>
<path d="M112.201 182.252H91.039C90.0312 187.543 90.6611 198.275 101.242 198.88C111.824 199.484 112.957 188.046 112.201 182.252Z" fill="#FF6D6D" stroke="#564138" stroke-width="2"/>
<path d="M175.688 182.252H154.525C153.518 187.543 154.147 198.275 164.729 198.88C175.31 199.484 176.444 188.046 175.688 182.252Z" fill="white" stroke="#564138" stroke-width="2"/>
<path d="M218.77 182.252H197.607C196.6 187.543 197.229 198.275 207.811 198.88C218.392 199.484 219.526 188.046 218.77 182.252Z" fill="white" stroke="#564138" stroke-width="2"/>
<path d="M90.2835 182.252H69.121C68.1133 187.543 68.7431 198.275 79.3244 198.88C89.9056 199.484 91.0393 188.046 90.2835 182.252Z" fill="white" stroke="#564138" stroke-width="2"/>
<path d="M154.526 182.252H133.363C132.355 187.543 132.985 198.275 143.567 198.88C154.148 199.484 155.282 188.046 154.526 182.252Z" fill="#FF6D6D" stroke="#564138" stroke-width="2"/>
<path d="M132.949 182.252H111.786C110.778 187.543 111.408 198.275 121.989 198.88C132.571 199.484 133.704 188.046 132.949 182.252Z" fill="white" stroke="#564138" stroke-width="2"/>
<path d="M197.194 182.252H176.031C175.023 187.543 175.653 198.275 186.235 198.88C196.816 199.484 197.949 188.046 197.194 182.252Z" fill="#FF6D6D" stroke="#564138" stroke-width="2"/>
<path d="M241.029 182.252H219.866C218.858 187.543 219.488 198.275 230.069 198.88C240.651 199.484 241.784 188.046 241.029 182.252Z" fill="#FF6D6D" stroke="#564138" stroke-width="2"/>
<rect x="66.8428" y="116.52" width="2.27268" height="26.1358" fill="white"/>
<rect x="148.66" y="116.52" width="2.27268" height="26.1358" fill="white"/>
<rect x="107.751" y="116.52" width="2.27268" height="26.1358" fill="white"/>
<rect x="189.431" y="116.52" width="2.27268" height="26.1358" fill="white"/>
<circle cx="36.6576" cy="252.542" r="20.5404" fill="#6DA77F" stroke="#564138" stroke-width="2"/>
<circle cx="14.9359" cy="246.938" r="6.93594" fill="#8EBF53" stroke="#564138" stroke-width="2"/>
<circle cx="14.7382" cy="265.391" r="13.7382" fill="#8EBF53" stroke="#564138" stroke-width="2"/>
<mask id="path-41-inside-1" fill="white">
<path fill-rule="evenodd" clip-rule="evenodd" d="M241.632 248.977C236.026 246.892 232.033 241.492 232.033 235.16C232.033 227.02 238.632 220.422 246.771 220.422C254.786 220.422 261.306 226.819 261.505 234.785C261.632 234.783 261.76 234.781 261.888 234.781C273.784 234.781 283.428 244.425 283.428 256.322C283.428 268.218 273.784 277.862 261.888 277.862C249.992 277.862 240.348 268.218 240.348 256.322C240.348 253.743 240.801 251.269 241.632 248.977Z"/>
</mask>
<path fill-rule="evenodd" clip-rule="evenodd" d="M241.632 248.977C236.026 246.892 232.033 241.492 232.033 235.16C232.033 227.02 238.632 220.422 246.771 220.422C254.786 220.422 261.306 226.819 261.505 234.785C261.632 234.783 261.76 234.781 261.888 234.781C273.784 234.781 283.428 244.425 283.428 256.322C283.428 268.218 273.784 277.862 261.888 277.862C249.992 277.862 240.348 268.218 240.348 256.322C240.348 253.743 240.801 251.269 241.632 248.977Z" fill="#6DA77F"/>
<path d="M241.632 248.977L243.512 249.659L244.188 247.795L242.33 247.103L241.632 248.977ZM261.505 234.785L259.505 234.835L259.555 236.819L261.54 236.784L261.505 234.785ZM242.33 247.103C237.482 245.299 234.033 240.63 234.033 235.16H230.033C230.033 242.355 234.571 248.484 240.935 250.852L242.33 247.103ZM234.033 235.16C234.033 228.125 239.736 222.422 246.771 222.422V218.422C237.527 218.422 230.033 225.916 230.033 235.16H234.033ZM246.771 222.422C253.698 222.422 259.333 227.951 259.505 234.835L263.504 234.735C263.278 225.687 255.873 218.422 246.771 218.422V222.422ZM261.54 236.784C261.656 236.782 261.772 236.781 261.888 236.781V232.781C261.748 232.781 261.609 232.783 261.47 232.785L261.54 236.784ZM261.888 236.781C272.68 236.781 281.428 245.53 281.428 256.322H285.428C285.428 243.321 274.889 232.781 261.888 232.781V236.781ZM281.428 256.322C281.428 267.114 272.68 275.862 261.888 275.862V279.862C274.889 279.862 285.428 269.323 285.428 256.322H281.428ZM261.888 275.862C251.096 275.862 242.348 267.114 242.348 256.322H238.348C238.348 269.323 248.887 279.862 261.888 279.862V275.862ZM242.348 256.322C242.348 253.979 242.759 251.736 243.512 249.659L239.752 248.296C238.843 250.803 238.348 253.507 238.348 256.322H242.348Z" fill="#564138" mask="url(#path-41-inside-1)"/>
<circle cx="237.7" cy="245.741" r="6.93594" fill="#8EBF53" stroke="#564138" stroke-width="2"/>
<rect x="28.5" y="78.5" width="78" height="230" rx="39" transform="rotate(-90 28.5 78.5)" fill="#FFB943" stroke="#564138"/>
<rect x="38.5" y="69.5" width="59" height="210" rx="29.5" transform="rotate(-90 38.5 69.5)" fill="#FF6D6D" stroke="#564138"/>
<circle cx="65" cy="6" r="3.5" fill="#FF6D6D" stroke="#564138" />
<circle cx="46" cy="14" r="3.5" fill="#FF6D6D" stroke="#564138"/>
<circle cx="34" cy="38" r="3.5" fill="#FF6D6D" stroke="#564138"/>
<circle cx="42" cy="61" r="3.5" fill="#FF6D6D" stroke="#564138"/>
<circle cx="65" cy="74" r="3.5" fill="#FF6D6D" stroke="#564138"/>
<circle cx="145" cy="6" r="3.5" fill="#FF6D6D" stroke="#564138"/>
<circle cx="145" cy="74" r="3.5" fill="#FF6D6D" stroke="#564138"/>
<circle cx="105" cy="6" r="3.5" fill="#FF6D6D" stroke="#564138"/>
<circle cx="105" cy="74" r="3.5" fill="#FF6D6D" stroke="#564138"/>
<circle cx="185" cy="6" r="3.5" fill="#FF6D6D" stroke="#564138"/>
<circle cx="185" cy="74" r="3.5" fill="#FF6D6D" stroke="#564138"/>
<circle cx="85" cy="6" r="3.5" fill="#FF6D6D" stroke="#564138"/>
<circle cx="85" cy="74" r="3.5" fill="#FF6D6D" stroke="#564138"/>
<circle cx="165" cy="6" r="3.5" fill="#FF6D6D" stroke="#564138"/>
<circle cx="165" cy="74" r="3.5" fill="#FF6D6D" stroke="#564138"/>
<circle cx="125" cy="6" r="3.5" fill="#FF6D6D" stroke="#564138"/>
<circle cx="125" cy="74" r="3.5" fill="#FF6D6D" stroke="#564138"/>
<circle cx="205" cy="6" r="3.5" fill="#FF6D6D" stroke="#564138"/>
<circle cx="205" cy="74" r="3.5" fill="#FF6D6D" stroke="#564138"/>
<circle cx="225" cy="6" r="3.5" fill="#FF6D6D" stroke="#564138"/>
<circle cx="245" cy="17" r="3.5" fill="#FF6D6D" stroke="#564138"/>
<circle cx="253" cy="40" r="3.5" fill="#FF6D6D" stroke="#564138"/>
<circle cx="245" cy="64" r="3.5" fill="#FF6D6D" stroke="#564138"/>
<circle cx="225" cy="74" r="3.5" fill="#FF6D6D" stroke="#564138"/>
<path d="M68.768 32.488C69.104 33.568 69.344 34.912 69.392 35.824L70.664 35.44C70.592 34.504 70.28 33.088 69.896 31.984L68.768 32.32V31.312H70.784V36.52H68.768V32.488ZM74.576 32.368L73.424 31.96C73.256 32.92 72.848 34.312 72.512 35.272V31.312H74.576V32.368ZM72.512 36.52V35.488L73.496 35.848C73.808 35.152 74.192 34.12 74.576 33.112V36.52H72.512ZM66.176 45.328C69.08 45.208 73.184 44.992 77.072 44.752L77.12 42.544C75.728 42.592 74.288 42.664 72.896 42.712V41.656H76.736V39.496H72.896V38.44H76.784V29.392H66.632V38.44H70.376V39.496H66.68V41.656H70.376V42.808C68.768 42.856 67.304 42.904 66.104 42.928L66.176 45.328ZM67.424 51.088C68.432 49.984 68.84 48.16 69.128 46.456L67.208 45.88C66.992 47.464 66.44 49.12 65.576 50.128L67.424 51.088ZM69.296 46.024C69.56 47.368 69.752 49.096 69.704 50.224L71.552 50.008C71.528 48.856 71.336 47.152 71.048 45.808L69.296 46.024ZM71.696 45.928C72.152 47.2 72.56 48.856 72.656 49.936L74.432 49.576C74.288 48.472 73.856 46.864 73.4 45.592L71.696 45.928ZM74.024 45.712C74.768 46.912 75.488 48.496 75.776 49.552L77.576 48.808C77.264 47.752 76.496 46.216 75.728 45.088L74.024 45.712ZM84.656 47.56H80.216V42.544H84.656V47.56ZM88.184 36.256V33.616H83.552V28.696H80.768V39.952H77.624V51.064H80.216V50.128H84.656V50.968H87.392V39.952H83.552V36.256H88.184ZM113.984 33.16C113.288 32.032 111.704 30.448 110.432 29.344L108.272 30.808C109.568 31.96 111.056 33.664 111.68 34.768L113.984 33.16ZM110.912 38.968C110.288 40.12 109.496 41.2 108.632 42.232C108.368 41.008 108.128 39.616 107.936 38.176H114.176V35.464H107.648C107.456 33.352 107.36 31.12 107.408 28.888H104.408C104.432 31.072 104.504 33.304 104.696 35.464H100.088V32.224C101.48 31.936 102.8 31.624 104 31.264L102.08 28.84C99.632 29.632 95.912 30.4 92.552 30.856C92.864 31.504 93.248 32.56 93.368 33.256C94.592 33.112 95.912 32.944 97.208 32.728V35.464H92.672V38.176H97.208V41.392C95.312 41.728 93.584 41.992 92.216 42.208L92.912 45.088C94.184 44.848 95.672 44.536 97.208 44.224V47.704C97.208 48.088 97.064 48.208 96.632 48.208C96.2 48.232 94.808 48.256 93.464 48.184C93.872 48.976 94.352 50.272 94.472 51.064C96.416 51.088 97.856 50.968 98.792 50.512C99.752 50.056 100.088 49.288 100.088 47.728V43.624L104 42.832L103.784 40.24C102.56 40.456 101.312 40.696 100.088 40.912V38.176H104.96C105.248 40.528 105.656 42.712 106.184 44.608C104.528 45.976 102.68 47.152 100.832 47.992C101.528 48.64 102.32 49.624 102.728 50.296C104.264 49.504 105.776 48.52 107.168 47.368C108.2 49.72 109.544 51.16 111.296 51.16C113.48 51.16 114.368 50.104 114.824 45.904C114.056 45.592 113.096 44.944 112.472 44.272C112.352 47.104 112.064 48.256 111.56 48.256C110.84 48.256 110.096 47.152 109.448 45.304C111.008 43.744 112.352 41.992 113.432 40.048L110.912 38.968ZM137.36 32.2H133.16V34.528C133.16 36.448 133.712 37 135.872 37H138.44C139.952 37 140.576 36.544 140.816 34.888C140.192 34.768 139.256 34.48 138.824 34.168C138.728 34.984 138.632 35.128 138.152 35.128H136.208C135.608 35.128 135.488 35.032 135.488 34.504V34.024H139.784V29.392H132.704V31.192H137.36V32.2ZM129.488 32.2H125.288V34.528C125.288 36.448 125.888 37 128 37H130.52C131.96 37 132.608 36.544 132.848 34.912C132.2 34.792 131.288 34.504 130.88 34.192C130.784 34.984 130.688 35.128 130.208 35.128H128.36C127.736 35.128 127.64 35.032 127.64 34.528V34.024H131.888V29.392H124.952V31.192H129.488V32.2ZM124.208 33.184C123.608 31.984 122.096 30.376 120.848 29.224L118.592 30.664C119.816 31.864 121.256 33.592 121.784 34.768L124.208 33.184ZM131.192 40.528H133.976V42.112H131.192V40.528ZM129.824 44.224H135.416L133.592 45.256C135.176 46.024 136.856 47.128 137.768 47.872L140.672 46.816C139.592 46.048 137.696 45.016 136.04 44.224H140.72V42.112H136.688V40.528H139.976V38.44H136.688V37.168H133.976V38.44H131.192V37.168H128.552V38.44H125.336V40.528H128.552V42.112H124.64V44.224H129.2C128.192 44.992 126.512 45.664 124.952 46.144C125.528 46.528 126.488 47.344 126.968 47.824C125.576 47.488 124.52 46.792 123.872 45.664V37.984H118.76V40.6H121.232V45.904C120.32 46.72 119.264 47.512 118.4 48.136L119.744 50.848C120.896 49.816 121.832 48.88 122.744 47.92C124.184 49.792 126.152 50.488 129.032 50.608C132.032 50.752 137.336 50.704 140.384 50.536C140.504 49.768 140.912 48.52 141.224 47.872C137.864 48.16 131.984 48.232 129.032 48.088C128.312 48.064 127.664 47.992 127.064 47.848C128.696 47.176 130.712 46.072 131.912 44.944L129.824 44.224ZM152.216 38.728L150.272 39.28V35.824H152.456V33.208H150.272V28.696H147.68V33.208H145.16V35.824H147.68V39.976C146.6 40.24 145.592 40.504 144.776 40.672L145.4 43.408C146.096 43.216 146.888 43 147.68 42.76V48.064C147.68 48.376 147.56 48.472 147.272 48.472C146.984 48.496 146.144 48.496 145.28 48.448C145.616 49.216 145.928 50.392 146 51.088C147.584 51.112 148.592 51.016 149.336 50.56C150.056 50.104 150.272 49.384 150.272 48.064V41.992C151.04 41.776 151.808 41.536 152.576 41.296L152.216 38.728ZM161.624 42.904H157.88L158.408 42.784C158.312 42.328 158.072 41.68 157.832 41.104H162.128C161.936 41.68 161.672 42.352 161.456 42.856L161.624 42.904ZM157.064 32.992H155.648V31.408H157.064V32.992ZM159.224 31.408H160.688V32.992H159.224V31.408ZM162.848 31.408H164.336V32.992H162.848V31.408ZM167.336 41.104V38.968H161.192V37.864H166.304V35.824H161.192V34.888H166.664V29.512H153.44V34.888H158.48V35.824H153.728V37.864H158.48V38.968H152.552V41.104H156.008L155.336 41.248C155.528 41.752 155.744 42.4 155.864 42.904H152.744V45.016H158.48V46.12H153.368V48.184H158.48V51.208H161.192V48.184H166.52V46.12H161.192V45.016H167.072V42.904H163.904C164.192 42.376 164.552 41.752 164.936 41.104H167.336ZM190.016 34.552C189.68 34.408 189.368 34.264 189.152 34.12C189.08 35.296 188.96 35.512 188.504 35.512H186.872C186.296 35.512 186.2 35.464 186.2 34.864V32.968H190.016V34.552ZM193.52 42.808H187.856V40.768H191.984V38.368H174.008C179.456 37.528 180.992 35.872 181.616 32.968H183.392V34.888C183.392 37.024 183.92 37.72 186.416 37.72H188.816C190.568 37.72 191.24 37.12 191.504 35.008C191.336 34.984 191.144 34.912 190.928 34.864H192.944V30.568H184.112V28.672H181.184V30.568H172.328V34.888H175.136V32.968H178.592C178.088 34.768 176.912 35.776 172.16 36.256C172.688 36.784 173.312 37.792 173.528 38.44L173.984 38.368V40.768H185.024V42.808H177.272C177.44 42.232 177.584 41.68 177.728 41.128L174.944 40.792C174.608 42.328 174.104 44.2 173.648 45.424L176.36 45.832L176.552 45.208H181.16C178.568 46.576 174.992 47.608 171.632 48.112C172.16 48.688 172.928 49.768 173.312 50.44C177.584 49.576 182.096 47.704 184.976 45.208H185.024V48.112C185.024 48.424 184.904 48.496 184.52 48.52C184.16 48.52 182.864 48.52 181.712 48.472C182.12 49.192 182.576 50.32 182.72 51.088C184.424 51.112 185.696 51.04 186.608 50.632C187.568 50.224 187.856 49.528 187.856 48.16V45.208H193.52V42.808ZM215.504 45.712V47.968H209.552V45.712H215.504ZM206.984 51.088H209.552V50.224H215.504V50.992H218.192V43.456H206.984V51.088ZM209.912 39.76C210.944 38.8 211.832 37.792 212.432 36.856C213.104 37.816 214.064 38.824 215.12 39.76H209.912ZM211.04 34.408C210.944 34.552 210.848 34.72 210.752 34.888V33.28H214.4V35.2H217.088V33.28H219.896V30.856H217.088V28.696H214.4V30.856H210.752V28.696H208.112V30.856H205.448V33.28H208.112V35.128H210.584C209.432 36.808 207.56 38.608 205.544 39.832L205.328 38.32L203.576 38.8V35.824H205.424V33.208H203.576V28.696H200.84V33.208H198.056V35.824H200.84V39.544C199.616 39.88 198.488 40.168 197.576 40.36L198.176 43.12C198.992 42.88 199.904 42.616 200.84 42.352V47.848C200.84 48.208 200.72 48.304 200.432 48.304C200.12 48.328 199.136 48.328 198.2 48.28C198.56 49.072 198.92 50.296 198.992 51.064C200.648 51.064 201.776 50.968 202.568 50.488C203.336 50.056 203.576 49.288 203.576 47.872V41.512L204.8 41.128C205.16 41.656 205.472 42.304 205.664 42.76C206.768 42.208 207.824 41.512 208.808 40.72V42.016H216.248V40.672C217.16 41.392 218.12 41.992 219.056 42.472C219.44 41.656 219.992 40.624 220.544 39.976C217.952 38.968 215.36 36.832 213.632 34.408H211.04Z" fill="white"/>
<path d="M68.768 32.488L69.0545 32.3989L68.468 32.488H68.768ZM69.392 35.824L69.0924 35.8398L69.1125 36.2217L69.4787 36.1112L69.392 35.824ZM70.664 35.44L70.7507 35.7272L70.9816 35.6575L70.9631 35.417L70.664 35.44ZM69.896 31.984L70.1793 31.8854L70.0852 31.6146L69.8104 31.6965L69.896 31.984ZM68.768 32.32H68.468V32.7224L68.8536 32.6075L68.768 32.32ZM68.768 31.312V31.012H68.468V31.312H68.768ZM70.784 31.312H71.084V31.012H70.784V31.312ZM70.784 36.52V36.82H71.084V36.52H70.784ZM68.768 36.52H68.468V36.82H68.768V36.52ZM74.576 32.368L74.4758 32.6508L74.876 32.7925V32.368H74.576ZM73.424 31.96L73.5242 31.6772L73.1897 31.5587L73.1285 31.9083L73.424 31.96ZM72.512 35.272H72.212L72.7952 35.3711L72.512 35.272ZM72.512 31.312V31.012H72.212V31.312H72.512ZM74.576 31.312H74.876V31.012H74.576V31.312ZM72.512 36.52H72.212V36.82H72.512V36.52ZM72.512 35.488L72.6151 35.2063L72.212 35.0588V35.488H72.512ZM73.496 35.848L73.3929 36.1297L73.6554 36.2258L73.7698 35.9707L73.496 35.848ZM74.576 33.112H74.876L74.2957 33.0052L74.576 33.112ZM74.576 36.52V36.82H74.876V36.52H74.576ZM66.176 45.328L65.8761 45.337L65.8852 45.6403L66.1884 45.6277L66.176 45.328ZM77.072 44.752L77.0905 45.0514L77.3659 45.0344L77.3719 44.7585L77.072 44.752ZM77.12 42.544L77.4199 42.5505L77.4268 42.2332L77.1097 42.2442L77.12 42.544ZM72.896 42.712H72.596V43.0225L72.9063 43.0118L72.896 42.712ZM72.896 41.656V41.356H72.596V41.656H72.896ZM76.736 41.656V41.956H77.036V41.656H76.736ZM76.736 39.496H77.036V39.196H76.736V39.496ZM72.896 39.496H72.596V39.796H72.896V39.496ZM72.896 38.44V38.14H72.596V38.44H72.896ZM76.784 38.44V38.74H77.084V38.44H76.784ZM76.784 29.392H77.084V29.092H76.784V29.392ZM66.632 29.392V29.092H66.332V29.392H66.632ZM66.632 38.44H66.332V38.74H66.632V38.44ZM70.376 38.44H70.676V38.14H70.376V38.44ZM70.376 39.496V39.796H70.676V39.496H70.376ZM66.68 39.496V39.196H66.38V39.496H66.68ZM66.68 41.656H66.38V41.956H66.68V41.656ZM70.376 41.656H70.676V41.356H70.376V41.656ZM70.376 42.808L70.385 43.1079L70.676 43.0992V42.808H70.376ZM66.104 42.928L66.098 42.6281L65.795 42.6341L65.8041 42.937L66.104 42.928ZM67.424 51.088L67.2857 51.3542L67.4902 51.4604L67.6455 51.2903L67.424 51.088ZM69.128 46.456L69.4238 46.506L69.468 46.2448L69.2142 46.1687L69.128 46.456ZM67.208 45.88L67.2942 45.5927L66.9582 45.4918L66.9108 45.8395L67.208 45.88ZM65.576 50.128L65.3482 49.9328L65.1021 50.2199L65.4377 50.3942L65.576 50.128ZM69.296 46.024L69.2593 45.7263L68.9395 45.7657L69.0016 46.0818L69.296 46.024ZM69.704 50.224L69.4043 50.2112L69.3893 50.5628L69.7388 50.522L69.704 50.224ZM71.552 50.008L71.5868 50.306L71.8576 50.2743L71.8519 50.0018L71.552 50.008ZM71.048 45.808L71.3413 45.7451L71.2838 45.4767L71.0113 45.5103L71.048 45.808ZM71.696 45.928L71.638 45.6337L71.296 45.7011L71.4136 46.0292L71.696 45.928ZM72.656 49.936L72.3572 49.9626L72.3869 50.2967L72.7156 50.23L72.656 49.936ZM74.432 49.576L74.4916 49.87L74.7656 49.8145L74.7295 49.5372L74.432 49.576ZM73.4 45.592L73.6824 45.4908L73.5953 45.2477L73.342 45.2977L73.4 45.592ZM74.024 45.712L73.9208 45.4303L73.5749 45.557L73.769 45.8701L74.024 45.712ZM75.776 49.552L75.4866 49.6309L75.5761 49.9592L75.8906 49.8293L75.776 49.552ZM77.576 48.808L77.6906 49.0853L77.9402 48.9821L77.8637 48.723L77.576 48.808ZM75.728 45.088L75.976 44.9192L75.8444 44.7259L75.6248 44.8063L75.728 45.088ZM84.656 47.56V47.86H84.956V47.56H84.656ZM80.216 47.56H79.916V47.86H80.216V47.56ZM80.216 42.544V42.244H79.916V42.544H80.216ZM84.656 42.544H84.956V42.244H84.656V42.544ZM88.184 36.256V36.556H88.484V36.256H88.184ZM88.184 33.616H88.484V33.316H88.184V33.616ZM83.552 33.616H83.252V33.916H83.552V33.616ZM83.552 28.696H83.852V28.396H83.552V28.696ZM80.768 28.696V28.396H80.468V28.696H80.768ZM80.768 39.952V40.252H81.068V39.952H80.768ZM77.624 39.952V39.652H77.324V39.952H77.624ZM77.624 51.064H77.324V51.364H77.624V51.064ZM80.216 51.064V51.364H80.516V51.064H80.216ZM80.216 50.128V49.828H79.916V50.128H80.216ZM84.656 50.128H84.956V49.828H84.656V50.128ZM84.656 50.968H84.356V51.268H84.656V50.968ZM87.392 50.968V51.268H87.692V50.968H87.392ZM87.392 39.952H87.692V39.652H87.392V39.952ZM83.552 39.952H83.252V40.252H83.552V39.952ZM83.552 36.256V35.956H83.252V36.256H83.552ZM68.4815 32.5771C68.8108 33.6355 69.0458 34.9548 69.0924 35.8398L69.6916 35.8082C69.6422 34.8692 69.3972 33.5005 69.0545 32.3989L68.4815 32.5771ZM69.4787 36.1112L70.7507 35.7272L70.5773 35.1528L69.3053 35.5368L69.4787 36.1112ZM70.9631 35.417C70.8888 34.4505 70.5701 33.0089 70.1793 31.8854L69.6127 32.0826C69.9899 33.1671 70.2952 34.5575 70.3649 35.463L70.9631 35.417ZM69.8104 31.6965L68.6824 32.0325L68.8536 32.6075L69.9816 32.2715L69.8104 31.6965ZM69.068 32.32V31.312H68.468V32.32H69.068ZM68.768 31.612H70.784V31.012H68.768V31.612ZM70.484 31.312V36.52H71.084V31.312H70.484ZM70.784 36.22H68.768V36.82H70.784V36.22ZM69.068 36.52V32.488H68.468V36.52H69.068ZM74.6762 32.0852L73.5242 31.6772L73.3238 32.2428L74.4758 32.6508L74.6762 32.0852ZM73.1285 31.9083C72.9645 32.8457 72.5622 34.2205 72.2288 35.1729L72.7952 35.3711C73.1338 34.4035 73.5475 32.9943 73.7195 32.0117L73.1285 31.9083ZM72.812 35.272V31.312H72.212V35.272H72.812ZM72.512 31.612H74.576V31.012H72.512V31.612ZM74.276 31.312V32.368H74.876V31.312H74.276ZM72.812 36.52V35.488H72.212V36.52H72.812ZM72.4089 35.7697L73.3929 36.1297L73.5991 35.5663L72.6151 35.2063L72.4089 35.7697ZM73.7698 35.9707C74.0863 35.2645 74.4747 34.2207 74.8563 33.2188L74.2957 33.0052C73.9093 34.0193 73.5297 35.0395 73.2222 35.7253L73.7698 35.9707ZM74.276 33.112V36.52H74.876V33.112H74.276ZM74.576 36.22H72.512V36.82H74.576V36.22ZM66.1884 45.6277C69.0949 45.5076 73.201 45.2915 77.0905 45.0514L77.0535 44.4526C73.167 44.6925 69.0651 44.9084 66.1636 45.0283L66.1884 45.6277ZM77.3719 44.7585L77.4199 42.5505L76.8201 42.5375L76.7721 44.7455L77.3719 44.7585ZM77.1097 42.2442C76.4123 42.2682 75.7031 42.2983 74.9953 42.3283C74.2871 42.3583 73.5803 42.3882 72.8857 42.4122L72.9063 43.0118C73.6037 42.9878 74.3129 42.9577 75.0207 42.9277C75.7289 42.8977 76.4357 42.8678 77.1303 42.8438L77.1097 42.2442ZM73.196 42.712V41.656H72.596V42.712H73.196ZM72.896 41.956H76.736V41.356H72.896V41.956ZM77.036 41.656V39.496H76.436V41.656H77.036ZM76.736 39.196H72.896V39.796H76.736V39.196ZM73.196 39.496V38.44H72.596V39.496H73.196ZM72.896 38.74H76.784V38.14H72.896V38.74ZM77.084 38.44V29.392H76.484V38.44H77.084ZM76.784 29.092H66.632V29.692H76.784V29.092ZM66.332 29.392V38.44H66.932V29.392H66.332ZM66.632 38.74H70.376V38.14H66.632V38.74ZM70.076 38.44V39.496H70.676V38.44H70.076ZM70.376 39.196H66.68V39.796H70.376V39.196ZM66.38 39.496V41.656H66.98V39.496H66.38ZM66.68 41.956H70.376V41.356H66.68V41.956ZM70.076 41.656V42.808H70.676V41.656H70.076ZM70.367 42.5081C68.7575 42.5562 67.296 42.6041 66.098 42.6281L66.11 43.2279C67.312 43.2039 68.7785 43.1558 70.385 43.1079L70.367 42.5081ZM65.8041 42.937L65.8761 45.337L66.4759 45.319L66.4039 42.919L65.8041 42.937ZM67.6455 51.2903C68.1896 50.6944 68.5604 49.9178 68.8311 49.0903C69.1023 48.2613 69.2792 47.3614 69.4238 46.506L68.8322 46.406C68.6888 47.2546 68.5177 48.1187 68.2609 48.9037C68.0036 49.6902 67.6664 50.3776 67.2025 50.8857L67.6455 51.2903ZM69.2142 46.1687L67.2942 45.5927L67.1218 46.1673L69.0418 46.7433L69.2142 46.1687ZM66.9108 45.8395C66.6983 47.3975 66.1584 48.9875 65.3482 49.9328L65.8038 50.3232C66.7216 49.2525 67.2857 47.5305 67.5052 45.9205L66.9108 45.8395ZM65.4377 50.3942L67.2857 51.3542L67.5623 50.8218L65.7143 49.8618L65.4377 50.3942ZM69.0016 46.0818C69.2632 47.4136 69.4509 49.116 69.4043 50.2112L70.0037 50.2368C70.0531 49.076 69.8568 47.3224 69.5904 45.9662L69.0016 46.0818ZM69.7388 50.522L71.5868 50.306L71.5172 49.71L69.6692 49.926L69.7388 50.522ZM71.8519 50.0018C71.8275 48.8302 71.6332 47.1072 71.3413 45.7451L70.7547 45.8709C71.0388 47.1968 71.2285 48.8818 71.2521 50.0142L71.8519 50.0018ZM71.0113 45.5103L69.2593 45.7263L69.3327 46.3217L71.0847 46.1057L71.0113 45.5103ZM71.4136 46.0292C71.864 47.2856 72.2641 48.9156 72.3572 49.9626L72.9548 49.9094C72.8559 48.7964 72.44 47.1144 71.9784 45.8268L71.4136 46.0292ZM72.7156 50.23L74.4916 49.87L74.3724 49.282L72.5964 49.642L72.7156 50.23ZM74.7295 49.5372C74.5818 48.405 74.1428 46.7751 73.6824 45.4908L73.1176 45.6932C73.5692 46.9529 73.9942 48.539 74.1345 49.6148L74.7295 49.5372ZM73.342 45.2977L71.638 45.6337L71.754 46.2223L73.458 45.8863L73.342 45.2977ZM73.769 45.8701C74.5016 47.0517 75.2079 48.6091 75.4866 49.6309L76.0654 49.4731C75.7681 48.3829 75.0344 46.7723 74.279 45.5539L73.769 45.8701ZM75.8906 49.8293L77.6906 49.0853L77.4614 48.5307L75.6614 49.2747L75.8906 49.8293ZM77.8637 48.723C77.5408 47.6301 76.7568 46.066 75.976 44.9192L75.48 45.2568C76.2352 46.366 76.9872 47.8739 77.2883 48.893L77.8637 48.723ZM75.6248 44.8063L73.9208 45.4303L74.1272 45.9937L75.8312 45.3697L75.6248 44.8063ZM84.656 47.26H80.216V47.86H84.656V47.26ZM80.516 47.56V42.544H79.916V47.56H80.516ZM80.216 42.844H84.656V42.244H80.216V42.844ZM84.356 42.544V47.56H84.956V42.544H84.356ZM88.484 36.256V33.616H87.884V36.256H88.484ZM88.184 33.316H83.552V33.916H88.184V33.316ZM83.852 33.616V28.696H83.252V33.616H83.852ZM83.552 28.396H80.768V28.996H83.552V28.396ZM80.468 28.696V39.952H81.068V28.696H80.468ZM80.768 39.652H77.624V40.252H80.768V39.652ZM77.324 39.952V51.064H77.924V39.952H77.324ZM77.624 51.364H80.216V50.764H77.624V51.364ZM80.516 51.064V50.128H79.916V51.064H80.516ZM80.216 50.428H84.656V49.828H80.216V50.428ZM84.356 50.128V50.968H84.956V50.128H84.356ZM84.656 51.268H87.392V50.668H84.656V51.268ZM87.692 50.968V39.952H87.092V50.968H87.692ZM87.392 39.652H83.552V40.252H87.392V39.652ZM83.852 39.952V36.256H83.252V39.952H83.852ZM83.552 36.556H88.184V35.956H83.552V36.556ZM113.984 33.16L114.156 33.406L114.388 33.2437L114.239 33.0025L113.984 33.16ZM110.432 29.344L110.629 29.1174L110.455 28.9663L110.264 29.0957L110.432 29.344ZM108.272 30.808L108.104 30.5597L107.784 30.776L108.073 31.0322L108.272 30.808ZM111.68 34.768L111.419 34.9156L111.581 35.2028L111.852 35.014L111.68 34.768ZM110.912 38.968L111.03 38.6923L110.779 38.5844L110.648 38.8251L110.912 38.968ZM108.632 42.232L108.339 42.2953L108.468 42.8951L108.862 42.4246L108.632 42.232ZM107.936 38.176V37.876H107.593L107.639 38.2156L107.936 38.176ZM114.176 38.176V38.476H114.476V38.176H114.176ZM114.176 35.464H114.476V35.164H114.176V35.464ZM107.648 35.464L107.349 35.4912L107.374 35.764H107.648V35.464ZM107.408 28.888L107.708 28.8944L107.715 28.588H107.408V28.888ZM104.408 28.888V28.588H104.105L104.108 28.8913L104.408 28.888ZM104.696 35.464V35.764H105.024L104.995 35.4374L104.696 35.464ZM100.088 35.464H99.788V35.764H100.088V35.464ZM100.088 32.224L100.027 31.9302L99.788 31.9797V32.224H100.088ZM104 31.264L104.086 31.5513L104.51 31.4243L104.235 31.0777L104 31.264ZM102.08 28.84L102.315 28.6537L102.186 28.4904L101.988 28.5546L102.08 28.84ZM92.552 30.856L92.5117 30.5587L92.1026 30.6142L92.2817 30.9861L92.552 30.856ZM93.368 33.256L93.0724 33.307L93.1207 33.5872L93.4031 33.5539L93.368 33.256ZM97.208 32.728H97.508V32.3739L97.1587 32.4321L97.208 32.728ZM97.208 35.464V35.764H97.508V35.464H97.208ZM92.672 35.464V35.164H92.372V35.464H92.672ZM92.672 38.176H92.372V38.476H92.672V38.176ZM97.208 38.176H97.508V37.876H97.208V38.176ZM97.208 41.392L97.2603 41.6874L97.508 41.6435V41.392H97.208ZM92.216 42.208L92.1692 41.9117L91.848 41.9624L91.9244 42.2785L92.216 42.208ZM92.912 45.088L92.6204 45.1585L92.6874 45.4357L92.9676 45.3828L92.912 45.088ZM97.208 44.224H97.508V43.8569L97.1483 43.93L97.208 44.224ZM96.632 48.208V47.908H96.6237L96.6154 47.9085L96.632 48.208ZM93.464 48.184L93.48 47.8844L92.9578 47.8565L93.1973 48.3214L93.464 48.184ZM94.472 51.064L94.1754 51.1089L94.2136 51.3608L94.4683 51.364L94.472 51.064ZM98.792 50.512L98.6633 50.241L98.6606 50.2423L98.792 50.512ZM100.088 43.624L100.028 43.33L99.788 43.3786V43.624H100.088ZM104 42.832L104.06 43.126L104.321 43.0731L104.299 42.8071L104 42.832ZM103.784 40.24L104.083 40.2151L104.056 39.8874L103.732 39.9446L103.784 40.24ZM100.088 40.912H99.788V41.2696L100.14 41.2074L100.088 40.912ZM100.088 38.176V37.876H99.788V38.176H100.088ZM104.96 38.176L105.258 38.1395L105.226 37.876H104.96V38.176ZM106.184 44.608L106.375 44.8393L106.525 44.7152L106.473 44.5275L106.184 44.608ZM100.832 47.992L100.708 47.7189L100.298 47.905L100.628 48.2116L100.832 47.992ZM102.728 50.296L102.472 50.4517L102.617 50.6909L102.865 50.5626L102.728 50.296ZM107.168 47.368L107.443 47.2475L107.283 46.8834L106.977 47.1369L107.168 47.368ZM114.824 45.904L115.122 45.9364L115.147 45.7113L114.937 45.6261L114.824 45.904ZM112.472 44.272L112.692 44.0679L112.203 43.5411L112.172 44.2593L112.472 44.272ZM109.448 45.304L109.236 45.0919L109.102 45.2253L109.165 45.4033L109.448 45.304ZM113.432 40.048L113.694 40.1937L113.856 39.9032L113.55 39.7723L113.432 40.048ZM114.239 33.0025C113.518 31.8329 111.903 30.2238 110.629 29.1174L110.235 29.5706C111.505 30.6722 113.058 32.2311 113.729 33.3175L114.239 33.0025ZM110.264 29.0957L108.104 30.5597L108.44 31.0563L110.6 29.5923L110.264 29.0957ZM108.073 31.0322C109.355 32.1722 110.817 33.851 111.419 34.9156L111.941 34.6204C111.295 33.477 109.781 31.7478 108.471 30.5838L108.073 31.0322ZM111.852 35.014L114.156 33.406L113.812 32.914L111.508 34.522L111.852 35.014ZM110.648 38.8251C110.037 39.9534 109.258 41.0165 108.402 42.0394L108.862 42.4246C109.734 41.3835 110.539 40.2866 111.176 39.1109L110.648 38.8251ZM108.925 42.1687C108.663 40.9534 108.424 39.5694 108.233 38.1363L107.639 38.2156C107.832 39.6626 108.073 41.0626 108.339 42.2953L108.925 42.1687ZM107.936 38.476H114.176V37.876H107.936V38.476ZM114.476 38.176V35.464H113.876V38.176H114.476ZM114.176 35.164H107.648V35.764H114.176V35.164ZM107.947 35.4368C107.756 33.3346 107.66 31.1139 107.708 28.8944L107.108 28.8815C107.06 31.1261 107.156 33.3694 107.349 35.4912L107.947 35.4368ZM107.408 28.588H104.408V29.188H107.408V28.588ZM104.108 28.8913C104.132 31.0791 104.204 33.3197 104.397 35.4906L104.995 35.4374C104.804 33.2883 104.732 31.0649 104.708 28.8847L104.108 28.8913ZM104.696 35.164H100.088V35.764H104.696V35.164ZM100.388 35.464V32.224H99.788V35.464H100.388ZM100.149 32.5178C101.545 32.2288 102.875 31.9148 104.086 31.5513L103.914 30.9767C102.725 31.3332 101.415 31.6432 100.027 31.9302L100.149 32.5178ZM104.235 31.0777L102.315 28.6537L101.845 29.0263L103.765 31.4503L104.235 31.0777ZM101.988 28.5546C99.5624 29.3392 95.8613 30.1041 92.5117 30.5587L92.5923 31.1533C95.9627 30.6959 99.7016 29.9248 102.172 29.1254L101.988 28.5546ZM92.2817 30.9861C92.5863 31.6187 92.9586 32.6473 93.0724 33.307L93.6636 33.205C93.5374 32.4727 93.1417 31.3893 92.8223 30.7259L92.2817 30.9861ZM93.4031 33.5539C94.6286 33.4098 95.9542 33.2411 97.2573 33.0239L97.1587 32.4321C95.8698 32.6469 94.5554 32.8142 93.3329 32.9581L93.4031 33.5539ZM96.908 32.728V35.464H97.508V32.728H96.908ZM97.208 35.164H92.672V35.764H97.208V35.164ZM92.372 35.464V38.176H92.972V35.464H92.372ZM92.672 38.476H97.208V37.876H92.672V38.476ZM96.908 38.176V41.392H97.508V38.176H96.908ZM97.1557 41.0966C95.2632 41.432 93.5389 41.6954 92.1692 41.9117L92.2628 42.5043C93.6291 42.2886 95.3608 42.024 97.2603 41.6874L97.1557 41.0966ZM91.9244 42.2785L92.6204 45.1585L93.2036 45.0175L92.5076 42.1375L91.9244 42.2785ZM92.9676 45.3828C94.2424 45.1423 95.7346 44.8294 97.2677 44.518L97.1483 43.93C95.6094 44.2426 94.1256 44.5537 92.8564 44.7932L92.9676 45.3828ZM96.908 44.224V47.704H97.508V44.224H96.908ZM96.908 47.704C96.908 47.8727 96.8734 47.8838 96.8855 47.8733C96.8874 47.8716 96.8779 47.8814 96.8364 47.891C96.7932 47.9011 96.7285 47.908 96.632 47.908V48.508C96.8559 48.508 97.0997 48.4817 97.2785 48.3267C97.4706 48.1602 97.508 47.9193 97.508 47.704H96.908ZM96.6154 47.9085C96.1946 47.9318 94.8136 47.9559 93.48 47.8844L93.448 48.4836C94.8024 48.5561 96.2054 48.5322 96.6486 48.5075L96.6154 47.9085ZM93.1973 48.3214C93.5963 49.0959 94.0619 50.3599 94.1754 51.1089L94.7686 51.0191C94.6421 50.1841 94.1477 48.8561 93.7307 48.0466L93.1973 48.3214ZM94.4683 51.364C96.4068 51.3879 97.9153 51.2728 98.9234 50.7817L98.6606 50.2423C97.7967 50.6632 96.4252 50.7881 94.4757 50.764L94.4683 51.364ZM98.9207 50.783C99.4545 50.5295 99.835 50.1764 100.073 49.6593C100.304 49.1565 100.388 48.5229 100.388 47.728H99.788C99.788 48.4931 99.7044 49.0235 99.5274 49.4087C99.357 49.7796 99.0895 50.0385 98.6633 50.241L98.9207 50.783ZM100.388 47.728V43.624H99.788V47.728H100.388ZM100.148 43.918L104.06 43.126L103.94 42.538L100.028 43.33L100.148 43.918ZM104.299 42.8071L104.083 40.2151L103.485 40.2649L103.701 42.8569L104.299 42.8071ZM103.732 39.9446C103.119 40.0528 102.499 40.167 101.882 40.281C101.263 40.395 100.647 40.5088 100.036 40.6166L100.14 41.2074C100.753 41.0992 101.373 40.985 101.99 40.871C102.609 40.757 103.225 40.6432 103.836 40.5354L103.732 39.9446ZM100.388 40.912V38.176H99.788V40.912H100.388ZM100.088 38.476H104.96V37.876H100.088V38.476ZM104.662 38.2125C104.952 40.5753 105.362 42.7746 105.895 44.6885L106.473 44.5275C105.95 42.6494 105.544 40.4807 105.258 38.1395L104.662 38.2125ZM105.993 44.3767C104.355 45.7295 102.53 46.8908 100.708 47.7189L100.956 48.2651C102.83 47.4132 104.701 46.2225 106.375 44.8393L105.993 44.3767ZM100.628 48.2116C101.304 48.8413 102.078 49.8039 102.472 50.4517L102.984 50.1403C102.562 49.4441 101.752 48.4387 101.036 47.7724L100.628 48.2116ZM102.865 50.5626C104.42 49.7612 105.95 48.7654 107.359 47.5991L106.977 47.1369C105.602 48.2746 104.108 49.2468 102.591 50.0294L102.865 50.5626ZM106.893 47.4885C107.933 49.858 109.35 51.46 111.296 51.46V50.86C109.738 50.86 108.467 49.582 107.443 47.2475L106.893 47.4885ZM111.296 51.46C111.864 51.46 112.372 51.3918 112.819 51.2065C113.272 51.019 113.647 50.718 113.954 50.279C114.554 49.421 114.894 48.0365 115.122 45.9364L114.526 45.8716C114.298 47.9715 113.966 49.215 113.462 49.935C113.217 50.285 112.932 50.5105 112.59 50.6522C112.242 50.7962 111.82 50.86 111.296 50.86V51.46ZM114.937 45.6261C114.209 45.3304 113.286 44.7074 112.692 44.0679L112.252 44.4761C112.906 45.1806 113.903 45.8536 114.711 46.1819L114.937 45.6261ZM112.172 44.2593C112.112 45.6727 112.011 46.6449 111.868 47.2577C111.796 47.5665 111.718 47.7588 111.647 47.8673C111.613 47.9196 111.587 47.9418 111.574 47.9503C111.565 47.9566 111.562 47.956 111.56 47.956V48.556C111.823 48.556 112.017 48.3977 112.149 48.1962C112.278 48.0002 112.374 47.7275 112.452 47.3943C112.609 46.7231 112.712 45.7033 112.772 44.2847L112.172 44.2593ZM111.56 47.956C111.356 47.956 111.068 47.7917 110.722 47.3003C110.388 46.8255 110.051 46.1167 109.731 45.2047L109.165 45.4033C109.493 46.3393 109.852 47.1065 110.232 47.6457C110.6 48.1683 111.044 48.556 111.56 48.556V47.956ZM109.66 45.5161C111.239 43.9375 112.6 42.1634 113.694 40.1937L113.17 39.9023C112.104 41.8206 110.777 43.5505 109.236 45.0919L109.66 45.5161ZM113.55 39.7723L111.03 38.6923L110.794 39.2437L113.314 40.3237L113.55 39.7723ZM137.36 32.2V32.5H137.66V32.2H137.36ZM133.16 32.2V31.9H132.86V32.2H133.16ZM140.816 34.888L141.113 34.931L141.154 34.6475L140.873 34.5934L140.816 34.888ZM138.824 34.168L139 33.9248L138.586 33.6258L138.526 34.1329L138.824 34.168ZM135.488 34.024V33.724H135.188V34.024H135.488ZM139.784 34.024V34.324H140.084V34.024H139.784ZM139.784 29.392H140.084V29.092H139.784V29.392ZM132.704 29.392V29.092H132.404V29.392H132.704ZM132.704 31.192H132.404V31.492H132.704V31.192ZM137.36 31.192H137.66V30.892H137.36V31.192ZM129.488 32.2V32.5H129.788V32.2H129.488ZM125.288 32.2V31.9H124.988V32.2H125.288ZM132.848 34.912L133.145 34.9556L133.187 34.6697L132.903 34.617L132.848 34.912ZM130.88 34.192L131.062 33.9537L130.645 33.6349L130.582 34.1559L130.88 34.192ZM127.64 34.024V33.724H127.34V34.024H127.64ZM131.888 34.024V34.324H132.188V34.024H131.888ZM131.888 29.392H132.188V29.092H131.888V29.392ZM124.952 29.392V29.092H124.652V29.392H124.952ZM124.952 31.192H124.652V31.492H124.952V31.192ZM129.488 31.192H129.788V30.892H129.488V31.192ZM124.208 33.184L124.372 33.4351L124.596 33.2889L124.476 33.0498L124.208 33.184ZM120.848 29.224L121.051 29.0036L120.882 28.8467L120.687 28.9711L120.848 29.224ZM118.592 30.664L118.431 30.4111L118.113 30.6141L118.382 30.8782L118.592 30.664ZM121.784 34.768L121.51 34.8909L121.654 35.2112L121.948 35.0191L121.784 34.768ZM131.192 40.528V40.228H130.892V40.528H131.192ZM133.976 40.528H134.276V40.228H133.976V40.528ZM133.976 42.112V42.412H134.276V42.112H133.976ZM131.192 42.112H130.892V42.412H131.192V42.112ZM129.824 44.224V43.924L129.726 44.5076L129.824 44.224ZM135.416 44.224L135.564 44.4851L136.555 43.924H135.416V44.224ZM133.592 45.256L133.444 44.9949L132.947 45.2765L133.461 45.5259L133.592 45.256ZM137.768 47.872L137.578 48.1045L137.71 48.2122L137.871 48.1539L137.768 47.872ZM140.672 46.816L140.775 47.0979L141.312 46.9027L140.846 46.5715L140.672 46.816ZM136.04 44.224V43.924L135.911 44.4946L136.04 44.224ZM140.72 44.224V44.524H141.02V44.224H140.72ZM140.72 42.112H141.02V41.812H140.72V42.112ZM136.688 42.112H136.388V42.412H136.688V42.112ZM136.688 40.528V40.228H136.388V40.528H136.688ZM139.976 40.528V40.828H140.276V40.528H139.976ZM139.976 38.44H140.276V38.14H139.976V38.44ZM136.688 38.44H136.388V38.74H136.688V38.44ZM136.688 37.168H136.988V36.868H136.688V37.168ZM133.976 37.168V36.868H133.676V37.168H133.976ZM133.976 38.44V38.74H134.276V38.44H133.976ZM131.192 38.44H130.892V38.74H131.192V38.44ZM131.192 37.168H131.492V36.868H131.192V37.168ZM128.552 37.168V36.868H128.252V37.168H128.552ZM128.552 38.44V38.74H128.852V38.44H128.552ZM125.336 38.44V38.14H125.036V38.44H125.336ZM125.336 40.528H125.036V40.828H125.336V40.528ZM128.552 40.528H128.852V40.228H128.552V40.528ZM128.552 42.112V42.412H128.852V42.112H128.552ZM124.64 42.112V41.812H124.34V42.112H124.64ZM124.64 44.224H124.34V44.524H124.64V44.224ZM129.2 44.224L129.382 44.4626L130.089 43.924H129.2V44.224ZM124.952 46.144L124.864 45.8573L124.26 46.0431L124.786 46.3936L124.952 46.144ZM126.968 47.824L126.898 48.1156L127.934 48.3658L127.18 47.6119L126.968 47.824ZM123.872 45.664H123.572V45.744L123.612 45.8134L123.872 45.664ZM123.872 37.984H124.172V37.684H123.872V37.984ZM118.76 37.984V37.684H118.46V37.984H118.76ZM118.76 40.6H118.46V40.9H118.76V40.6ZM121.232 40.6H121.532V40.3H121.232V40.6ZM121.232 45.904L121.432 46.1276L121.532 46.0381V45.904H121.232ZM118.4 48.136L118.224 47.8928L118.018 48.0416L118.131 48.2692L118.4 48.136ZM119.744 50.848L119.475 50.9812L119.65 51.3347L119.944 51.0715L119.744 50.848ZM122.744 47.92L122.982 47.7371L122.768 47.4592L122.526 47.7134L122.744 47.92ZM129.032 50.608L129.046 50.3083L129.044 50.3083L129.032 50.608ZM140.384 50.536L140.401 50.8355L140.643 50.8222L140.68 50.5823L140.384 50.536ZM141.224 47.872L141.494 48.0021L141.723 47.5282L141.198 47.5731L141.224 47.872ZM129.032 48.088L129.047 47.7883L129.042 47.7882L129.032 48.088ZM127.064 47.848L126.95 47.5706L126.093 47.9234L126.994 48.1397L127.064 47.848ZM131.912 44.944L132.117 45.1626L132.479 44.8223L132.01 44.6604L131.912 44.944ZM137.36 31.9H133.16V32.5H137.36V31.9ZM132.86 32.2V34.528H133.46V32.2H132.86ZM132.86 34.528C132.86 35.4939 132.993 36.2322 133.502 36.7041C134.003 37.1683 134.791 37.3 135.872 37.3V36.7C134.793 36.7 134.225 36.5557 133.91 36.2639C133.603 35.9798 133.46 35.4821 133.46 34.528H132.86ZM135.872 37.3H138.44V36.7H135.872V37.3ZM138.44 37.3C139.214 37.3 139.841 37.1862 140.3 36.7929C140.76 36.3995 140.99 35.7802 141.113 34.931L140.519 34.845C140.402 35.6518 140.2 36.0885 139.91 36.3371C139.619 36.5858 139.178 36.7 138.44 36.7V37.3ZM140.873 34.5934C140.575 34.5361 140.198 34.4378 139.846 34.3163C139.486 34.1927 139.179 34.0541 139 33.9248L138.648 34.4112C138.901 34.5939 139.278 34.7553 139.65 34.8837C140.03 35.0142 140.433 35.1199 140.759 35.1826L140.873 34.5934ZM138.526 34.1329C138.502 34.3347 138.48 34.4829 138.454 34.5939C138.427 34.7068 138.402 34.7589 138.386 34.7827C138.38 34.7909 138.375 34.828 138.152 34.828V35.428C138.409 35.428 138.692 35.3931 138.878 35.1253C138.958 35.0111 139.005 34.8741 139.038 34.7306C139.072 34.5851 139.098 34.4093 139.122 34.2031L138.526 34.1329ZM138.152 34.828H136.208V35.428H138.152V34.828ZM136.208 34.828C136.062 34.828 135.964 34.8219 135.896 34.8095C135.828 34.7974 135.815 34.7834 135.818 34.7862C135.826 34.7926 135.817 34.7931 135.807 34.7521C135.796 34.705 135.788 34.6293 135.788 34.504H135.188C135.188 34.7563 135.207 35.0522 135.428 35.2418C135.536 35.3346 135.665 35.3776 135.789 35.4C135.912 35.4221 136.054 35.428 136.208 35.428V34.828ZM135.788 34.504V34.024H135.188V34.504H135.788ZM135.488 34.324H139.784V33.724H135.488V34.324ZM140.084 34.024V29.392H139.484V34.024H140.084ZM139.784 29.092H132.704V29.692H139.784V29.092ZM132.404 29.392V31.192H133.004V29.392H132.404ZM132.704 31.492H137.36V30.892H132.704V31.492ZM137.06 31.192V32.2H137.66V31.192H137.06ZM129.488 31.9H125.288V32.5H129.488V31.9ZM124.988 32.2V34.528H125.588V32.2H124.988ZM124.988 34.528C124.988 35.4988 125.135 36.2352 125.65 36.7055C126.156 37.1676 126.941 37.3 128 37.3V36.7C126.947 36.7 126.376 36.5564 126.054 36.2625C125.741 35.9768 125.588 35.4772 125.588 34.528H124.988ZM128 37.3H130.52V36.7H128V37.3ZM130.52 37.3C131.261 37.3 131.874 37.1851 132.329 36.796C132.784 36.4071 133.021 35.7962 133.145 34.9556L132.551 34.8684C132.435 35.6598 132.228 36.0929 131.939 36.34C131.65 36.5869 131.219 36.7 130.52 36.7V37.3ZM132.903 34.617C132.594 34.5598 132.219 34.4618 131.873 34.3408C131.52 34.2174 131.227 34.0799 131.062 33.9537L130.698 34.4303C130.941 34.6161 131.308 34.7786 131.675 34.9072C132.049 35.0382 132.454 35.1442 132.793 35.207L132.903 34.617ZM130.582 34.1559C130.558 34.3516 130.536 34.495 130.51 34.6023C130.484 34.7113 130.459 34.7609 130.444 34.7831C130.438 34.7906 130.431 34.828 130.208 34.828V35.428C130.465 35.428 130.746 35.3934 130.932 35.1309C131.013 35.0181 131.06 34.8832 131.094 34.7425C131.128 34.6 131.154 34.4284 131.178 34.2281L130.582 34.1559ZM130.208 34.828H128.36V35.428H130.208V34.828ZM128.36 34.828C128.208 34.828 128.106 34.8218 128.036 34.8096C127.966 34.7974 127.955 34.7835 127.961 34.7887C127.972 34.7983 127.966 34.8034 127.957 34.7658C127.946 34.7213 127.94 34.6497 127.94 34.528H127.34C127.34 34.6583 127.346 34.7877 127.373 34.9029C127.401 35.0251 127.458 35.1487 127.571 35.2452C127.679 35.3375 127.809 35.3791 127.933 35.4007C128.056 35.4221 128.2 35.428 128.36 35.428V34.828ZM127.94 34.528V34.024H127.34V34.528H127.94ZM127.64 34.324H131.888V33.724H127.64V34.324ZM132.188 34.024V29.392H131.588V34.024H132.188ZM131.888 29.092H124.952V29.692H131.888V29.092ZM124.652 29.392V31.192H125.252V29.392H124.652ZM124.952 31.492H129.488V30.892H124.952V31.492ZM129.188 31.192V32.2H129.788V31.192H129.188ZM124.476 33.0498C123.849 31.7959 122.299 30.1555 121.051 29.0036L120.645 29.4444C121.893 30.5965 123.367 32.1721 123.94 33.3182L124.476 33.0498ZM120.687 28.9711L118.431 30.4111L118.753 30.9169L121.009 29.4769L120.687 28.9711ZM118.382 30.8782C119.6 32.0728 121.006 33.7684 121.51 34.8909L122.058 34.6451C121.506 33.4156 120.032 31.6552 118.802 30.4498L118.382 30.8782ZM121.948 35.0191L124.372 33.4351L124.044 32.9329L121.62 34.5169L121.948 35.0191ZM131.192 40.828H133.976V40.228H131.192V40.828ZM133.676 40.528V42.112H134.276V40.528H133.676ZM133.976 41.812H131.192V42.412H133.976V41.812ZM131.492 42.112V40.528H130.892V42.112H131.492ZM129.824 44.524H135.416V43.924H129.824V44.524ZM135.268 43.9629L133.444 44.9949L133.74 45.5171L135.564 44.4851L135.268 43.9629ZM133.461 45.5259C135.025 46.2841 136.685 47.3757 137.578 48.1045L137.958 47.6395C137.027 46.8803 135.327 45.7639 133.723 44.9861L133.461 45.5259ZM137.871 48.1539L140.775 47.0979L140.569 46.5341L137.665 47.5901L137.871 48.1539ZM140.846 46.5715C139.745 45.7885 137.83 44.7478 136.169 43.9534L135.911 44.4946C137.562 45.2842 139.439 46.3075 140.498 47.0605L140.846 46.5715ZM136.04 44.524H140.72V43.924H136.04V44.524ZM141.02 44.224V42.112H140.42V44.224H141.02ZM140.72 41.812H136.688V42.412H140.72V41.812ZM136.988 42.112V40.528H136.388V42.112H136.988ZM136.688 40.828H139.976V40.228H136.688V40.828ZM140.276 40.528V38.44H139.676V40.528H140.276ZM139.976 38.14H136.688V38.74H139.976V38.14ZM136.988 38.44V37.168H136.388V38.44H136.988ZM136.688 36.868H133.976V37.468H136.688V36.868ZM133.676 37.168V38.44H134.276V37.168H133.676ZM133.976 38.14H131.192V38.74H133.976V38.14ZM131.492 38.44V37.168H130.892V38.44H131.492ZM131.192 36.868H128.552V37.468H131.192V36.868ZM128.252 37.168V38.44H128.852V37.168H128.252ZM128.552 38.14H125.336V38.74H128.552V38.14ZM125.036 38.44V40.528H125.636V38.44H125.036ZM125.336 40.828H128.552V40.228H125.336V40.828ZM128.252 40.528V42.112H128.852V40.528H128.252ZM128.552 41.812H124.64V42.412H128.552V41.812ZM124.34 42.112V44.224H124.94V42.112H124.34ZM124.64 44.524H129.2V43.924H124.64V44.524ZM129.018 43.9854C128.055 44.7193 126.419 45.3789 124.864 45.8573L125.04 46.4307C126.605 45.9491 128.329 45.2647 129.382 44.4626L129.018 43.9854ZM124.786 46.3936C125.342 46.7643 126.286 47.5667 126.756 48.0361L127.18 47.6119C126.69 47.1213 125.714 46.2917 125.118 45.8944L124.786 46.3936ZM127.038 47.5324C125.709 47.2114 124.731 46.5565 124.132 45.5146L123.612 45.8134C124.309 47.0275 125.443 47.7646 126.898 48.1156L127.038 47.5324ZM124.172 45.664V37.984H123.572V45.664H124.172ZM123.872 37.684H118.76V38.284H123.872V37.684ZM118.46 37.984V40.6H119.06V37.984H118.46ZM118.76 40.9H121.232V40.3H118.76V40.9ZM120.932 40.6V45.904H121.532V40.6H120.932ZM121.032 45.6804C120.132 46.4857 119.086 47.2704 118.224 47.8928L118.576 48.3792C119.442 47.7536 120.508 46.9543 121.432 46.1276L121.032 45.6804ZM118.131 48.2692L119.475 50.9812L120.013 50.7148L118.669 48.0028L118.131 48.2692ZM119.944 51.0715C121.104 50.0327 122.046 49.0908 122.961 48.1266L122.526 47.7134C121.618 48.6692 120.688 49.5993 119.544 50.6245L119.944 51.0715ZM122.506 48.1029C124.022 50.0735 126.094 50.7858 129.02 50.9077L129.044 50.3083C126.21 50.1902 124.346 49.5105 122.982 47.7371L122.506 48.1029ZM129.018 50.9077C132.029 51.0522 137.344 51.004 140.401 50.8355L140.367 50.2365C137.328 50.404 132.035 50.4518 129.046 50.3083L129.018 50.9077ZM140.68 50.5823C140.795 49.8461 141.194 48.6262 141.494 48.0021L140.954 47.7419C140.63 48.4138 140.213 49.6899 140.088 50.4897L140.68 50.5823ZM141.198 47.5731C137.853 47.8599 131.986 47.9318 129.047 47.7884L129.017 48.3876C131.982 48.5322 137.875 48.4601 141.25 48.1709L141.198 47.5731ZM129.042 47.7882C128.335 47.7646 127.709 47.6942 127.134 47.5563L126.994 48.1397C127.619 48.2898 128.289 48.3634 129.022 48.3878L129.042 47.7882ZM127.178 48.1254C128.825 47.4471 130.879 46.3264 132.117 45.1626L131.707 44.7254C130.545 45.8176 128.567 46.9049 126.95 47.5706L127.178 48.1254ZM132.01 44.6604L129.922 43.9404L129.726 44.5076L131.814 45.2276L132.01 44.6604ZM152.216 38.728L152.513 38.6864L152.465 38.3454L152.134 38.4394L152.216 38.728ZM150.272 39.28H149.972V39.677L150.354 39.5686L150.272 39.28ZM150.272 35.824V35.524H149.972V35.824H150.272ZM152.456 35.824V36.124H152.756V35.824H152.456ZM152.456 33.208H152.756V32.908H152.456V33.208ZM150.272 33.208H149.972V33.508H150.272V33.208ZM150.272 28.696H150.572V28.396H150.272V28.696ZM147.68 28.696V28.396H147.38V28.696H147.68ZM147.68 33.208V33.508H147.98V33.208H147.68ZM145.16 33.208V32.908H144.86V33.208H145.16ZM145.16 35.824H144.86V36.124H145.16V35.824ZM147.68 35.824H147.98V35.524H147.68V35.824ZM147.68 39.976L147.751 40.2674L147.98 40.2115V39.976H147.68ZM144.776 40.672L144.716 40.3782L144.415 40.44L144.484 40.7387L144.776 40.672ZM145.4 43.408L145.108 43.4747L145.177 43.7806L145.48 43.6972L145.4 43.408ZM147.68 42.76H147.98V42.3556L147.593 42.4729L147.68 42.76ZM147.272 48.472V48.172H147.26L147.247 48.173L147.272 48.472ZM145.28 48.448L145.297 48.1485L144.81 48.1214L145.005 48.5682L145.28 48.448ZM146 51.088L145.702 51.1189L145.729 51.3839L145.995 51.388L146 51.088ZM149.336 50.56L149.493 50.8158L149.497 50.8134L149.336 50.56ZM150.272 41.992L150.191 41.7032L149.972 41.7647V41.992H150.272ZM152.576 41.296L152.665 41.5823L152.908 41.5064L152.873 41.2544L152.576 41.296ZM161.624 42.904V43.204L161.706 42.6155L161.624 42.904ZM157.88 42.904L157.814 42.6115L157.88 43.204V42.904ZM158.408 42.784L158.474 43.0765L158.762 43.0111L158.702 42.7222L158.408 42.784ZM157.832 41.104V40.804H157.382L157.555 41.2194L157.832 41.104ZM162.128 41.104L162.413 41.1989L162.544 40.804H162.128V41.104ZM161.456 42.856L161.18 42.7378L161.046 43.0509L161.374 43.1445L161.456 42.856ZM157.064 32.992V33.292H157.364V32.992H157.064ZM155.648 32.992H155.348V33.292H155.648V32.992ZM155.648 31.408V31.108H155.348V31.408H155.648ZM157.064 31.408H157.364V31.108H157.064V31.408ZM159.224 31.408V31.108H158.924V31.408H159.224ZM160.688 31.408H160.988V31.108H160.688V31.408ZM160.688 32.992V33.292H160.988V32.992H160.688ZM159.224 32.992H158.924V33.292H159.224V32.992ZM162.848 31.408V31.108H162.548V31.408H162.848ZM164.336 31.408H164.636V31.108H164.336V31.408ZM164.336 32.992V33.292H164.636V32.992H164.336ZM162.848 32.992H162.548V33.292H162.848V32.992ZM167.336 41.104V41.404H167.636V41.104H167.336ZM167.336 38.968H167.636V38.668H167.336V38.968ZM161.192 38.968H160.892V39.268H161.192V38.968ZM161.192 37.864V37.564H160.892V37.864H161.192ZM166.304 37.864V38.164H166.604V37.864H166.304ZM166.304 35.824H166.604V35.524H166.304V35.824ZM161.192 35.824H160.892V36.124H161.192V35.824ZM161.192 34.888V34.588H160.892V34.888H161.192ZM166.664 34.888V35.188H166.964V34.888H166.664ZM166.664 29.512H166.964V29.212H166.664V29.512ZM153.44 29.512V29.212H153.14V29.512H153.44ZM153.44 34.888H153.14V35.188H153.44V34.888ZM158.48 34.888H158.78V34.588H158.48V34.888ZM158.48 35.824V36.124H158.78V35.824H158.48ZM153.728 35.824V35.524H153.428V35.824H153.728ZM153.728 37.864H153.428V38.164H153.728V37.864ZM158.48 37.864H158.78V37.564H158.48V37.864ZM158.48 38.968V39.268H158.78V38.968H158.48ZM152.552 38.968V38.668H152.252V38.968H152.552ZM152.552 41.104H152.252V41.404H152.552V41.104ZM156.008 41.104L156.071 41.3973L156.008 40.804V41.104ZM155.336 41.248L155.273 40.9547L154.931 41.0279L155.056 41.3548L155.336 41.248ZM155.864 42.904V43.204H156.244L156.156 42.8345L155.864 42.904ZM152.744 42.904V42.604H152.444V42.904H152.744ZM152.744 45.016H152.444V45.316H152.744V45.016ZM158.48 45.016H158.78V44.716H158.48V45.016ZM158.48 46.12V46.42H158.78V46.12H158.48ZM153.368 46.12V45.82H153.068V46.12H153.368ZM153.368 48.184H153.068V48.484H153.368V48.184ZM158.48 48.184H158.78V47.884H158.48V48.184ZM158.48 51.208H158.18V51.508H158.48V51.208ZM161.192 51.208V51.508H161.492V51.208H161.192ZM161.192 48.184V47.884H160.892V48.184H161.192ZM166.52 48.184V48.484H166.82V48.184H166.52ZM166.52 46.12H166.82V45.82H166.52V46.12ZM161.192 46.12H160.892V46.42H161.192V46.12ZM161.192 45.016V44.716H160.892V45.016H161.192ZM167.072 45.016V45.316H167.372V45.016H167.072ZM167.072 42.904H167.372V42.604H167.072V42.904ZM163.904 42.904L163.641 42.7603L163.399 43.204H163.904V42.904ZM164.936 41.104V40.804H164.765L164.678 40.9511L164.936 41.104ZM152.134 38.4394L150.19 38.9914L150.354 39.5686L152.298 39.0166L152.134 38.4394ZM150.572 39.28V35.824H149.972V39.28H150.572ZM150.272 36.124H152.456V35.524H150.272V36.124ZM152.756 35.824V33.208H152.156V35.824H152.756ZM152.456 32.908H150.272V33.508H152.456V32.908ZM150.572 33.208V28.696H149.972V33.208H150.572ZM150.272 28.396H147.68V28.996H150.272V28.396ZM147.38 28.696V33.208H147.98V28.696H147.38ZM147.68 32.908H145.16V33.508H147.68V32.908ZM144.86 33.208V35.824H145.46V33.208H144.86ZM145.16 36.124H147.68V35.524H145.16V36.124ZM147.38 35.824V39.976H147.98V35.824H147.38ZM147.609 39.6846C146.521 39.9505 145.524 40.2116 144.716 40.3782L144.836 40.9658C145.66 40.7964 146.679 40.5295 147.751 40.2674L147.609 39.6846ZM144.484 40.7387L145.108 43.4747L145.692 43.3413L145.068 40.6053L144.484 40.7387ZM145.48 43.6972C146.174 43.5056 146.971 43.2884 147.767 43.0471L147.593 42.4729C146.805 42.7116 146.018 42.9264 145.32 43.1188L145.48 43.6972ZM147.38 42.76V48.064H147.98V42.76H147.38ZM147.38 48.064C147.38 48.1249 147.374 48.1581 147.369 48.1737C147.365 48.1864 147.365 48.179 147.377 48.168C147.388 48.1574 147.394 48.1584 147.38 48.1624C147.362 48.167 147.33 48.172 147.272 48.172V48.772C147.434 48.772 147.638 48.7484 147.791 48.602C147.948 48.4526 147.98 48.2454 147.98 48.064H147.38ZM147.247 48.173C146.98 48.1953 146.157 48.1963 145.297 48.1485L145.263 48.7475C146.131 48.7957 146.988 48.7967 147.297 48.771L147.247 48.173ZM145.005 48.5682C145.33 49.3103 145.633 50.4562 145.702 51.1189L146.298 51.0571C146.223 50.3278 145.902 49.1217 145.555 48.3278L145.005 48.5682ZM145.995 51.388C147.573 51.4119 148.666 51.3227 149.493 50.8158L149.179 50.3042C148.518 50.7093 147.595 50.8121 146.005 50.788L145.995 51.388ZM149.497 50.8134C149.914 50.5493 150.19 50.2015 150.356 49.7372C150.518 49.2859 150.572 48.7345 150.572 48.064H149.972C149.972 48.7135 149.918 49.1821 149.792 49.5348C149.67 49.8745 149.478 50.1147 149.175 50.3066L149.497 50.8134ZM150.572 48.064V41.992H149.972V48.064H150.572ZM150.353 42.2808C151.126 42.0634 151.898 41.8221 152.665 41.5823L152.487 41.0097C151.718 41.2499 150.954 41.4886 150.191 41.7032L150.353 42.2808ZM152.873 41.2544L152.513 38.6864L151.919 38.7696L152.279 41.3376L152.873 41.2544ZM161.624 42.604H157.88V43.204H161.624V42.604ZM157.946 43.1965L158.474 43.0765L158.342 42.4915L157.814 42.6115L157.946 43.1965ZM158.702 42.7222C158.599 42.2364 158.35 41.566 158.109 40.9886L157.555 41.2194C157.794 41.794 158.025 42.4196 158.114 42.8458L158.702 42.7222ZM157.832 41.404H162.128V40.804H157.832V41.404ZM161.843 41.0091C161.655 41.5754 161.394 42.2394 161.18 42.7378L161.732 42.9742C161.95 42.4646 162.217 41.7846 162.413 41.1989L161.843 41.0091ZM161.374 43.1445L161.542 43.1925L161.706 42.6155L161.538 42.5675L161.374 43.1445ZM157.064 32.692H155.648V33.292H157.064V32.692ZM155.948 32.992V31.408H155.348V32.992H155.948ZM155.648 31.708H157.064V31.108H155.648V31.708ZM156.764 31.408V32.992H157.364V31.408H156.764ZM159.224 31.708H160.688V31.108H159.224V31.708ZM160.388 31.408V32.992H160.988V31.408H160.388ZM160.688 32.692H159.224V33.292H160.688V32.692ZM159.524 32.992V31.408H158.924V32.992H159.524ZM162.848 31.708H164.336V31.108H162.848V31.708ZM164.036 31.408V32.992H164.636V31.408H164.036ZM164.336 32.692H162.848V33.292H164.336V32.692ZM163.148 32.992V31.408H162.548V32.992H163.148ZM167.636 41.104V38.968H167.036V41.104H167.636ZM167.336 38.668H161.192V39.268H167.336V38.668ZM161.492 38.968V37.864H160.892V38.968H161.492ZM161.192 38.164H166.304V37.564H161.192V38.164ZM166.604 37.864V35.824H166.004V37.864H166.604ZM166.304 35.524H161.192V36.124H166.304V35.524ZM161.492 35.824V34.888H160.892V35.824H161.492ZM161.192 35.188H166.664V34.588H161.192V35.188ZM166.964 34.888V29.512H166.364V34.888H166.964ZM166.664 29.212H153.44V29.812H166.664V29.212ZM153.14 29.512V34.888H153.74V29.512H153.14ZM153.44 35.188H158.48V34.588H153.44V35.188ZM158.18 34.888V35.824H158.78V34.888H158.18ZM158.48 35.524H153.728V36.124H158.48V35.524ZM153.428 35.824V37.864H154.028V35.824H153.428ZM153.728 38.164H158.48V37.564H153.728V38.164ZM158.18 37.864V38.968H158.78V37.864H158.18ZM158.48 38.668H152.552V39.268H158.48V38.668ZM152.252 38.968V41.104H152.852V38.968H152.252ZM152.552 41.404H156.008V40.804H152.552V41.404ZM155.945 40.8107L155.273 40.9547L155.399 41.5413L156.071 41.3973L155.945 40.8107ZM155.056 41.3548C155.245 41.8522 155.456 42.4869 155.572 42.9735L156.156 42.8345C156.032 42.3131 155.811 41.6518 155.616 41.1412L155.056 41.3548ZM155.864 42.604H152.744V43.204H155.864V42.604ZM152.444 42.904V45.016H153.044V42.904H152.444ZM152.744 45.316H158.48V44.716H152.744V45.316ZM158.18 45.016V46.12H158.78V45.016H158.18ZM158.48 45.82H153.368V46.42H158.48V45.82ZM153.068 46.12V48.184H153.668V46.12H153.068ZM153.368 48.484H158.48V47.884H153.368V48.484ZM158.18 48.184V51.208H158.78V48.184H158.18ZM158.48 51.508H161.192V50.908H158.48V51.508ZM161.492 51.208V48.184H160.892V51.208H161.492ZM161.192 48.484H166.52V47.884H161.192V48.484ZM166.82 48.184V46.12H166.22V48.184H166.82ZM166.52 45.82H161.192V46.42H166.52V45.82ZM161.492 46.12V45.016H160.892V46.12H161.492ZM161.192 45.316H167.072V44.716H161.192V45.316ZM167.372 45.016V42.904H166.772V45.016H167.372ZM167.072 42.604H163.904V43.204H167.072V42.604ZM164.167 43.0477C164.453 42.5241 164.811 41.9035 165.194 41.2569L164.678 40.9511C164.293 41.6005 163.931 42.2279 163.641 42.7603L164.167 43.0477ZM164.936 41.404H167.336V40.804H164.936V41.404ZM190.016 34.552L189.898 34.8277L190.316 35.007V34.552H190.016ZM189.152 34.12L189.318 33.8704L188.884 33.5811L188.853 34.1017L189.152 34.12ZM186.2 32.968V32.668H185.9V32.968H186.2ZM190.016 32.968H190.316V32.668H190.016V32.968ZM193.52 42.808H193.82V42.508H193.52V42.808ZM187.856 42.808H187.556V43.108H187.856V42.808ZM187.856 40.768V40.468H187.556V40.768H187.856ZM191.984 40.768V41.068H192.284V40.768H191.984ZM191.984 38.368H192.284V38.068H191.984V38.368ZM174.008 38.368L173.962 38.0715L174.008 38.668V38.368ZM181.616 32.968V32.668H181.374L181.323 32.905L181.616 32.968ZM183.392 32.968H183.692V32.668H183.392V32.968ZM191.504 35.008L191.802 35.0452L191.838 34.7527L191.546 34.711L191.504 35.008ZM190.928 34.864V34.564L190.863 35.1569L190.928 34.864ZM192.944 34.864V35.164H193.244V34.864H192.944ZM192.944 30.568H193.244V30.268H192.944V30.568ZM184.112 30.568H183.812V30.868H184.112V30.568ZM184.112 28.672H184.412V28.372H184.112V28.672ZM181.184 28.672V28.372H180.884V28.672H181.184ZM181.184 30.568V30.868H181.484V30.568H181.184ZM172.328 30.568V30.268H172.028V30.568H172.328ZM172.328 34.888H172.028V35.188H172.328V34.888ZM175.136 34.888V35.188H175.436V34.888H175.136ZM175.136 32.968V32.668H174.836V32.968H175.136ZM178.592 32.968L178.881 33.0489L178.988 32.668H178.592V32.968ZM172.16 36.256L172.13 35.9575L171.501 36.0211L171.948 36.4681L172.16 36.256ZM173.528 38.44L173.243 38.5349L173.324 38.776L173.575 38.7363L173.528 38.44ZM173.984 38.368H174.284V38.0169L173.937 38.0717L173.984 38.368ZM173.984 40.768H173.684V41.068H173.984V40.768ZM185.024 40.768H185.324V40.468H185.024V40.768ZM185.024 42.808V43.108H185.324V42.808H185.024ZM177.272 42.808L176.984 42.724L176.872 43.108H177.272V42.808ZM177.728 41.128L178.018 41.2037L178.105 40.8713L177.764 40.8302L177.728 41.128ZM174.944 40.792L174.98 40.4942L174.709 40.4615L174.651 40.7279L174.944 40.792ZM173.648 45.424L173.367 45.3193L173.238 45.6657L173.603 45.7207L173.648 45.424ZM176.36 45.832L176.315 46.1287L176.571 46.1671L176.647 45.9202L176.36 45.832ZM176.552 45.208V44.908H176.33L176.265 45.1198L176.552 45.208ZM181.16 45.208L181.3 45.4733L181.16 44.908V45.208ZM171.632 48.112L171.587 47.8153L171.03 47.899L171.411 48.3147L171.632 48.112ZM173.312 50.44L173.052 50.5888L173.159 50.777L173.371 50.734L173.312 50.44ZM184.976 45.208V44.908H184.864L184.78 44.9813L184.976 45.208ZM185.024 45.208H185.324V44.908H185.024V45.208ZM184.52 48.52V48.82H184.529L184.539 48.8194L184.52 48.52ZM181.712 48.472L181.724 48.1723L181.185 48.1498L181.451 48.6199L181.712 48.472ZM182.72 51.088L182.425 51.1433L182.47 51.3845L182.716 51.388L182.72 51.088ZM186.608 50.632L186.491 50.3559L186.485 50.3582L186.608 50.632ZM187.856 45.208V44.908H187.556V45.208H187.856ZM193.52 45.208V45.508H193.82V45.208H193.52ZM190.134 34.2763C189.797 34.1315 189.509 33.9971 189.318 33.8704L188.986 34.3696C189.227 34.5309 189.563 34.6845 189.898 34.8277L190.134 34.2763ZM188.853 34.1017C188.835 34.3928 188.814 34.6161 188.788 34.7881C188.761 34.9628 188.731 35.0663 188.701 35.1277C188.676 35.1812 188.658 35.1892 188.652 35.1921C188.637 35.1996 188.599 35.212 188.504 35.212V35.812C188.637 35.812 188.785 35.7973 188.923 35.7277C189.07 35.6533 189.172 35.5338 189.243 35.3863C189.309 35.2467 189.351 35.0757 189.381 34.8792C189.412 34.6799 189.433 34.4352 189.451 34.1383L188.853 34.1017ZM188.504 35.212H186.872V35.812H188.504V35.212ZM186.872 35.212C186.727 35.212 186.634 35.2086 186.57 35.1986C186.507 35.1889 186.507 35.1779 186.521 35.1907C186.538 35.2059 186.529 35.2125 186.518 35.1588C186.506 35.1012 186.5 35.0112 186.5 34.864H185.9C185.9 35.0168 185.906 35.1578 185.93 35.2779C185.955 35.402 186.006 35.5331 186.119 35.6353C186.229 35.7351 186.361 35.7736 186.478 35.7916C186.594 35.8094 186.729 35.812 186.872 35.812V35.212ZM186.5 34.864V32.968H185.9V34.864H186.5ZM186.2 33.268H190.016V32.668H186.2V33.268ZM189.716 32.968V34.552H190.316V32.968H189.716ZM193.52 42.508H187.856V43.108H193.52V42.508ZM188.156 42.808V40.768H187.556V42.808H188.156ZM187.856 41.068H191.984V40.468H187.856V41.068ZM192.284 40.768V38.368H191.684V40.768H192.284ZM191.984 38.068H174.008V38.668H191.984V38.068ZM174.054 38.6645C176.795 38.2419 178.601 37.608 179.804 36.6795C181.022 35.7398 181.588 34.5252 181.909 33.031L181.323 32.905C181.02 34.3148 180.506 35.3802 179.438 36.2045C178.355 37.04 176.669 37.6541 173.962 38.0715L174.054 38.6645ZM181.616 33.268H183.392V32.668H181.616V33.268ZM183.092 32.968V34.888H183.692V32.968H183.092ZM183.092 34.888C183.092 35.9554 183.217 36.7818 183.757 37.3178C184.294 37.8518 185.165 38.02 186.416 38.02V37.42C185.171 37.42 184.53 37.2402 184.179 36.8921C183.831 36.5462 183.692 35.9566 183.692 34.888H183.092ZM186.416 38.02H188.816V37.42H186.416V38.02ZM188.816 38.02C189.716 38.02 190.423 37.8682 190.929 37.3697C191.425 36.8804 191.668 36.1135 191.802 35.0452L191.206 34.9708C191.076 36.0144 190.851 36.6036 190.507 36.9423C190.173 37.2718 189.668 37.42 188.816 37.42V38.02ZM191.546 34.711C191.485 34.7022 191.412 34.6835 191.315 34.6562C191.224 34.6305 191.111 34.5974 190.993 34.5711L190.863 35.1569C190.961 35.1786 191.052 35.2055 191.153 35.2338C191.248 35.2605 191.355 35.2898 191.462 35.305L191.546 34.711ZM190.928 35.164H192.944V34.564H190.928V35.164ZM193.244 34.864V30.568H192.644V34.864H193.244ZM192.944 30.268H184.112V30.868H192.944V30.268ZM184.412 30.568V28.672H183.812V30.568H184.412ZM184.112 28.372H181.184V28.972H184.112V28.372ZM180.884 28.672V30.568H181.484V28.672H180.884ZM181.184 30.268H172.328V30.868H181.184V30.268ZM172.028 30.568V34.888H172.628V30.568H172.028ZM172.328 35.188H175.136V34.588H172.328V35.188ZM175.436 34.888V32.968H174.836V34.888H175.436ZM175.136 33.268H178.592V32.668H175.136V33.268ZM178.303 32.8871C178.067 33.7288 177.689 34.3562 176.821 34.8458C175.927 35.3506 174.498 35.7183 172.13 35.9575L172.19 36.5545C174.574 36.3137 176.109 35.9374 177.117 35.3682C178.151 34.7838 178.613 34.0072 178.881 33.0489L178.303 32.8871ZM171.948 36.4681C172.19 36.7106 172.465 37.0743 172.706 37.4618C172.949 37.85 173.146 38.2417 173.243 38.5349L173.813 38.3451C173.694 37.9903 173.471 37.554 173.216 37.1442C172.959 36.7337 172.658 36.3294 172.372 36.0439L171.948 36.4681ZM173.575 38.7363L174.031 38.6643L173.937 38.0717L173.481 38.1437L173.575 38.7363ZM173.684 38.368V40.768H174.284V38.368H173.684ZM173.984 41.068H185.024V40.468H173.984V41.068ZM184.724 40.768V42.808H185.324V40.768H184.724ZM185.024 42.508H177.272V43.108H185.024V42.508ZM177.56 42.892C177.729 42.3112 177.874 41.7552 178.018 41.2037L177.438 41.0523C177.294 41.6048 177.151 42.1528 176.984 42.724L177.56 42.892ZM177.764 40.8302L174.98 40.4942L174.908 41.0898L177.692 41.4258L177.764 40.8302ZM174.651 40.7279C174.316 42.2571 173.816 44.1138 173.367 45.3193L173.929 45.5287C174.392 44.2862 174.9 42.3989 175.237 40.8561L174.651 40.7279ZM173.603 45.7207L176.315 46.1287L176.405 45.5353L173.693 45.1273L173.603 45.7207ZM176.647 45.9202L176.839 45.2962L176.265 45.1198L176.073 45.7438L176.647 45.9202ZM176.552 45.508H181.16V44.908H176.552V45.508ZM181.02 44.9427C178.466 46.2905 174.925 47.3147 171.587 47.8153L171.677 48.4087C175.059 47.9013 178.67 46.8615 181.3 45.4733L181.02 44.9427ZM171.411 48.3147C171.922 48.8721 172.677 49.9334 173.052 50.5888L173.572 50.2912C173.179 49.6026 172.398 48.5039 171.853 47.9093L171.411 48.3147ZM173.371 50.734C177.675 49.8636 182.241 47.9753 185.172 45.4347L184.78 44.9813C181.951 47.4327 177.493 49.2884 173.253 50.146L173.371 50.734ZM184.976 45.508H185.024V44.908H184.976V45.508ZM184.724 45.208V48.112H185.324V45.208H184.724ZM184.724 48.112C184.724 48.1741 184.718 48.2005 184.715 48.2079C184.715 48.2085 184.72 48.196 184.733 48.1862C184.741 48.1805 184.735 48.1881 184.694 48.1976C184.652 48.2072 184.591 48.2149 184.501 48.2206L184.539 48.8194C184.723 48.8079 184.939 48.7847 185.099 48.6618C185.291 48.5141 185.324 48.2949 185.324 48.112H184.724ZM184.52 48.22C184.16 48.22 182.869 48.22 181.724 48.1723L181.7 48.7717C182.859 48.82 184.16 48.82 184.52 48.82V48.22ZM181.451 48.6199C181.847 49.3195 182.289 50.4161 182.425 51.1433L183.015 51.0327C182.863 50.2239 182.393 49.0645 181.973 48.3241L181.451 48.6199ZM182.716 51.388C184.412 51.4119 185.75 51.3447 186.731 50.9058L186.485 50.3582C185.642 50.7353 184.436 50.8121 182.724 50.788L182.716 51.388ZM186.725 50.9081C187.258 50.6817 187.632 50.3606 187.862 49.8869C188.084 49.4287 188.156 48.8573 188.156 48.16H187.556C187.556 48.8307 187.484 49.2913 187.322 49.6251C187.168 49.9434 186.918 50.1743 186.491 50.3559L186.725 50.9081ZM188.156 48.16V45.208H187.556V48.16H188.156ZM187.856 45.508H193.52V44.908H187.856V45.508ZM193.82 45.208V42.808H193.22V45.208H193.82ZM215.504 45.712H215.804V45.412H215.504V45.712ZM215.504 47.968V48.268H215.804V47.968H215.504ZM209.552 47.968H209.252V48.268H209.552V47.968ZM209.552 45.712V45.412H209.252V45.712H209.552ZM206.984 51.088H206.684V51.388H206.984V51.088ZM209.552 51.088V51.388H209.852V51.088H209.552ZM209.552 50.224V49.924H209.252V50.224H209.552ZM215.504 50.224H215.804V49.924H215.504V50.224ZM215.504 50.992H215.204V51.292H215.504V50.992ZM218.192 50.992V51.292H218.492V50.992H218.192ZM218.192 43.456H218.492V43.156H218.192V43.456ZM206.984 43.456V43.156H206.684V43.456H206.984ZM209.912 39.76L209.708 39.5403L209.149 40.06H209.912V39.76ZM212.432 36.856L212.678 36.684L212.421 36.3172L212.179 36.6941L212.432 36.856ZM215.12 39.76V40.06H215.911L215.319 39.5355L215.12 39.76ZM211.04 34.408V34.108H210.879L210.79 34.2416L211.04 34.408ZM210.752 34.888H210.452V36.0177L211.012 35.0368L210.752 34.888ZM210.752 33.28V32.98H210.452V33.28H210.752ZM214.4 33.28H214.7V32.98H214.4V33.28ZM214.4 35.2H214.1V35.5H214.4V35.2ZM217.088 35.2V35.5H217.388V35.2H217.088ZM217.088 33.28V32.98H216.788V33.28H217.088ZM219.896 33.28V33.58H220.196V33.28H219.896ZM219.896 30.856H220.196V30.556H219.896V30.856ZM217.088 30.856H216.788V31.156H217.088V30.856ZM217.088 28.696H217.388V28.396H217.088V28.696ZM214.4 28.696V28.396H214.1V28.696H214.4ZM214.4 30.856V31.156H214.7V30.856H214.4ZM210.752 30.856H210.452V31.156H210.752V30.856ZM210.752 28.696H211.052V28.396H210.752V28.696ZM208.112 28.696V28.396H207.812V28.696H208.112ZM208.112 30.856V31.156H208.412V30.856H208.112ZM205.448 30.856V30.556H205.148V30.856H205.448ZM205.448 33.28H205.148V33.58H205.448V33.28ZM208.112 33.28H208.412V32.98H208.112V33.28ZM208.112 35.128H207.812V35.428H208.112V35.128ZM210.584 35.128L210.831 35.2977L211.153 34.828H210.584V35.128ZM205.544 39.832L205.247 39.8744L205.311 40.3243L205.7 40.0884L205.544 39.832ZM205.328 38.32L205.625 38.2776L205.577 37.9408L205.249 38.0307L205.328 38.32ZM203.576 38.8H203.276V39.1932L203.655 39.0893L203.576 38.8ZM203.576 35.824V35.524H203.276V35.824H203.576ZM205.424 35.824V36.124H205.724V35.824H205.424ZM205.424 33.208H205.724V32.908H205.424V33.208ZM203.576 33.208H203.276V33.508H203.576V33.208ZM203.576 28.696H203.876V28.396H203.576V28.696ZM200.84 28.696V28.396H200.54V28.696H200.84ZM200.84 33.208V33.508H201.14V33.208H200.84ZM198.056 33.208V32.908H197.756V33.208H198.056ZM198.056 35.824H197.756V36.124H198.056V35.824ZM200.84 35.824H201.14V35.524H200.84V35.824ZM200.84 39.544L200.919 39.8333L201.14 39.7727V39.544H200.84ZM197.576 40.36L197.514 40.0664L197.219 40.1286L197.283 40.4237L197.576 40.36ZM198.176 43.12L197.883 43.1837L197.951 43.4988L198.261 43.4078L198.176 43.12ZM200.84 42.352H201.14V41.9557L200.759 42.0633L200.84 42.352ZM200.432 48.304V48.004H200.42L200.409 48.0049L200.432 48.304ZM198.2 48.28L198.215 47.9804L197.723 47.9551L197.927 48.4041L198.2 48.28ZM198.992 51.064L198.693 51.092L198.719 51.364H198.992V51.064ZM202.568 50.488L202.421 50.2264L202.413 50.2314L202.568 50.488ZM203.576 41.512L203.486 41.2258L203.276 41.2917V41.512H203.576ZM204.8 41.128L205.048 40.959L204.923 40.7751L204.71 40.8418L204.8 41.128ZM205.664 42.76L205.388 42.8764L205.512 43.1715L205.798 43.0283L205.664 42.76ZM208.808 40.72H209.108V40.0934L208.62 40.4863L208.808 40.72ZM208.808 42.016H208.508V42.316H208.808V42.016ZM216.248 42.016V42.316H216.548V42.016H216.248ZM216.248 40.672L216.434 40.4365L215.948 40.0529V40.672H216.248ZM219.056 42.472L218.919 42.7389L219.195 42.8806L219.327 42.5997L219.056 42.472ZM220.544 39.976L220.772 40.1705L221.046 39.8493L220.653 39.6964L220.544 39.976ZM213.632 34.408L213.876 34.2339L213.787 34.108H213.632V34.408ZM215.204 45.712V47.968H215.804V45.712H215.204ZM215.504 47.668H209.552V48.268H215.504V47.668ZM209.852 47.968V45.712H209.252V47.968H209.852ZM209.552 46.012H215.504V45.412H209.552V46.012ZM206.984 51.388H209.552V50.788H206.984V51.388ZM209.852 51.088V50.224H209.252V51.088H209.852ZM209.552 50.524H215.504V49.924H209.552V50.524ZM215.204 50.224V50.992H215.804V50.224H215.204ZM215.504 51.292H218.192V50.692H215.504V51.292ZM218.492 50.992V43.456H217.892V50.992H218.492ZM218.192 43.156H206.984V43.756H218.192V43.156ZM206.684 43.456V51.088H207.284V43.456H206.684ZM210.116 39.9797C211.16 39.0087 212.067 37.9816 212.685 37.0179L212.179 36.6941C211.597 37.6024 210.728 38.5913 209.708 39.5403L210.116 39.9797ZM212.186 37.028C212.876 38.014 213.855 39.0394 214.921 39.9845L215.319 39.5355C214.273 38.6086 213.332 37.618 212.678 36.684L212.186 37.028ZM215.12 39.46H209.912V40.06H215.12V39.46ZM210.79 34.2416C210.688 34.3958 210.586 34.5734 210.492 34.7392L211.012 35.0368C211.11 34.8666 211.2 34.7082 211.29 34.5744L210.79 34.2416ZM211.052 34.888V33.28H210.452V34.888H211.052ZM210.752 33.58H214.4V32.98H210.752V33.58ZM214.1 33.28V35.2H214.7V33.28H214.1ZM214.4 35.5H217.088V34.9H214.4V35.5ZM217.388 35.2V33.28H216.788V35.2H217.388ZM217.088 33.58H219.896V32.98H217.088V33.58ZM220.196 33.28V30.856H219.596V33.28H220.196ZM219.896 30.556H217.088V31.156H219.896V30.556ZM217.388 30.856V28.696H216.788V30.856H217.388ZM217.088 28.396H214.4V28.996H217.088V28.396ZM214.1 28.696V30.856H214.7V28.696H214.1ZM214.4 30.556H210.752V31.156H214.4V30.556ZM211.052 30.856V28.696H210.452V30.856H211.052ZM210.752 28.396H208.112V28.996H210.752V28.396ZM207.812 28.696V30.856H208.412V28.696H207.812ZM208.112 30.556H205.448V31.156H208.112V30.556ZM205.148 30.856V33.28H205.748V30.856H205.148ZM205.448 33.58H208.112V32.98H205.448V33.58ZM207.812 33.28V35.128H208.412V33.28H207.812ZM208.112 35.428H210.584V34.828H208.112V35.428ZM210.337 34.9583C209.209 36.6023 207.369 38.3731 205.388 39.5756L205.7 40.0884C207.751 38.8429 209.655 37.0137 210.831 35.2977L210.337 34.9583ZM205.841 39.7896L205.625 38.2776L205.031 38.3624L205.247 39.8744L205.841 39.7896ZM205.249 38.0307L203.497 38.5107L203.655 39.0893L205.407 38.6093L205.249 38.0307ZM203.876 38.8V35.824H203.276V38.8H203.876ZM203.576 36.124H205.424V35.524H203.576V36.124ZM205.724 35.824V33.208H205.124V35.824H205.724ZM205.424 32.908H203.576V33.508H205.424V32.908ZM203.876 33.208V28.696H203.276V33.208H203.876ZM203.576 28.396H200.84V28.996H203.576V28.396ZM200.54 28.696V33.208H201.14V28.696H200.54ZM200.84 32.908H198.056V33.508H200.84V32.908ZM197.756 33.208V35.824H198.356V33.208H197.756ZM198.056 36.124H200.84V35.524H198.056V36.124ZM200.54 35.824V39.544H201.14V35.824H200.54ZM200.761 39.2547C199.539 39.5901 198.417 39.8763 197.514 40.0664L197.638 40.6536C198.559 40.4597 199.693 40.1699 200.919 39.8333L200.761 39.2547ZM197.283 40.4237L197.883 43.1837L198.469 43.0563L197.869 40.2963L197.283 40.4237ZM198.261 43.4078C199.076 43.1681 199.987 42.9044 200.921 42.6407L200.759 42.0633C199.821 42.3276 198.908 42.5919 198.091 42.8322L198.261 43.4078ZM200.54 42.352V47.848H201.14V42.352H200.54ZM200.54 47.848C200.54 47.9236 200.533 47.969 200.527 47.9945C200.521 48.0178 200.517 48.0143 200.527 48.0036C200.538 47.992 200.547 47.9915 200.536 47.9947C200.521 47.9988 200.49 48.004 200.432 48.004V48.604C200.594 48.604 200.805 48.5807 200.961 48.4184C201.111 48.2611 201.14 48.0441 201.14 47.848H200.54ZM200.409 48.0049C200.117 48.0274 199.148 48.0282 198.215 47.9804L198.185 48.5796C199.124 48.6278 200.123 48.6286 200.455 48.6031L200.409 48.0049ZM197.927 48.4041C198.277 49.1735 198.625 50.3648 198.693 51.092L199.291 51.036C199.215 50.2272 198.843 48.9705 198.473 48.1559L197.927 48.4041ZM198.992 51.364C200.636 51.364 201.849 51.2744 202.723 50.7446L202.413 50.2314C201.703 50.6616 200.66 50.764 198.992 50.764V51.364ZM202.715 50.7495C203.163 50.4974 203.462 50.1404 203.641 49.6528C203.816 49.1793 203.876 48.5906 203.876 47.872H203.276C203.276 48.5694 203.216 49.0727 203.079 49.4452C202.946 49.8036 202.741 50.0466 202.421 50.2265L202.715 50.7495ZM203.876 47.872V41.512H203.276V47.872H203.876ZM203.666 41.7982L204.89 41.4142L204.71 40.8418L203.486 41.2258L203.666 41.7982ZM204.552 41.297C204.896 41.8019 205.199 42.4297 205.388 42.8764L205.94 42.6436C205.745 42.1783 205.424 41.5101 205.048 40.959L204.552 41.297ZM205.798 43.0283C206.924 42.4656 207.998 41.7574 208.996 40.9537L208.62 40.4863C207.65 41.2666 206.612 41.9504 205.53 42.4917L205.798 43.0283ZM208.508 40.72V42.016H209.108V40.72H208.508ZM208.808 42.316H216.248V41.716H208.808V42.316ZM216.548 42.016V40.672H215.948V42.016H216.548ZM216.062 40.9075C216.991 41.6405 217.967 42.2508 218.919 42.7389L219.193 42.2051C218.273 41.7332 217.329 41.1435 216.434 40.4365L216.062 40.9075ZM219.327 42.5997C219.71 41.7869 220.248 40.7861 220.772 40.1705L220.316 39.7815C219.736 40.4619 219.17 41.5251 218.785 42.3443L219.327 42.5997ZM220.653 39.6964C218.123 38.7125 215.575 36.6173 213.876 34.2339L213.388 34.5821C215.145 37.0467 217.781 39.2235 220.435 40.2556L220.653 39.6964ZM213.632 34.108H211.04V34.708H213.632V34.108Z" fill="#564138"/>
<defs>
<linearGradient id="paint0_linear" x1="144.587" y1="218.97" x2="199.878" y2="104.307" gradientUnits="userSpaceOnUse">
<stop stop-color="#FFD998"/>
<stop offset="1" stop-color="#BAE29A"/>
</linearGradient>
</defs>
</svg>
