<svg width="20" height="20" viewBox="0 0 20 20" fill="none" xmlns="http://www.w3.org/2000/svg">
<g clip-path="url(#clip0)">
<path d="M17.3771 2.53331C13.8342 1.58411 10.4326 8.19392 11.5326 12.8281C11.5853 13.0499 11.7553 13.2249 11.9755 13.2839L16.6798 14.5444C16.8983 14.603 17.1337 14.5379 17.2912 14.3711C20.5821 10.8854 20.8904 3.47473 17.3771 2.53331ZM16.6309 13.2473L12.6664 12.185C12.4721 11.0636 12.5582 9.73569 12.9161 8.39995C14.0671 4.10462 17.5227 1.7901 18.4738 5.65887C19.0635 8.0573 18.1859 11.3826 16.6309 13.2473Z" fill="#6DA77F"/>
<path d="M16.1034 15.674L11.9105 14.5506C11.5797 14.462 11.2396 14.6583 11.151 14.989L10.7497 16.4865C10.3514 17.9728 11.2366 19.5059 12.7229 19.9042C14.2126 20.3034 15.7414 19.4209 16.1406 17.9311L16.5419 16.4336C16.6305 16.103 16.4342 15.7627 16.1034 15.674ZM14.9426 17.61C14.721 18.4374 13.8717 18.9283 13.044 18.7062C12.2182 18.485 11.7265 17.6332 11.9477 16.8075L12.1885 15.909L15.1834 16.7115L14.9426 17.61Z" fill="#6DA77F"/>
<path d="M8.47706 10.3817C9.16117 7.49971 8.09239 3.52595 6.04015 1.38681C3.80241 -0.945768 1.11462 -0.269528 0.331451 2.91645C-0.375562 5.79244 0.682904 9.76876 2.71848 11.9248C2.87526 12.0908 3.11001 12.1568 3.32988 12.098L8.03418 10.8375C8.25436 10.7785 8.42443 10.6035 8.47706 10.3817ZM7.34329 9.73861L3.37879 10.8009C2.64992 9.92693 2.0605 8.73382 1.70257 7.39809C0.556864 3.12198 2.37405 -0.643111 5.14516 2.24536C6.83487 4.00666 7.76362 7.31201 7.34329 9.73861Z" fill="#6DA77F"/>
<path d="M8.85848 12.5417C8.77007 12.2118 8.43052 12.0146 8.09899 12.1033L3.90605 13.2268C3.57522 13.3154 3.37891 13.6555 3.46759 13.9863L3.86884 15.4838C4.20251 16.7291 5.33287 17.5523 6.56493 17.5523C8.38719 17.5523 9.73765 15.8229 9.25973 14.0392L8.85848 12.5417ZM6.96556 16.2589C6.13984 16.4803 5.28806 15.9884 5.0668 15.1627L4.82608 14.2642L7.82102 13.4617L8.06174 14.3602C8.28351 15.1878 7.79327 16.0372 6.96556 16.2589Z" fill="#6DA77F"/>
</g>
<defs>
<clipPath id="clip0">
<rect width="20" height="20" fill="white"/>
</clipPath>
</defs>
</svg>
