<?xml version="1.0" encoding="utf-8"?>
<!-- Generator: Adobe Illustrator 24.2.3, SVG Export Plug-In . SVG Version: 6.00 Build 0)  -->
<svg version="1.1" id="圖層_1" focusable="false" xmlns="http://www.w3.org/2000/svg" xmlns:xlink="http://www.w3.org/1999/xlink"
	 x="0px" y="0px" viewBox="0 0 24.9 24.7" style="enable-background:new 0 0 24.9 24.7;" xml:space="preserve">
<style type="text/css">
	.st0{fill:#6DA77F;}
</style>
<path class="st0" d="M7.5,8.6h1.2v-5H7.5C6.1,3.6,5,4.7,5,6.1S6.1,8.6,7.5,8.6z M0,18.6C0,19.9,1.1,21,2.5,21h1.2v-5H2.5
	C1.1,16.1,0,17.2,0,18.6z M13.1,13.6c-1.4,0-3,0.5-4.1,1.2c-1,0.6-1.7,1.2-4.1,1.2v5l2.2,0.6c1,0.3,2.1,0.5,3.1,0.6
	c1.3,0.1,2.6,0,3.8-0.2c4.3-0.9,5.8-2.9,5.8-4.7C19.9,14.8,16.6,13.6,13.1,13.6L13.1,13.6z M19.1,2.7c-1.2-0.3-2.5-0.3-3.8-0.2
	c-1.1,0.1-2.1,0.3-3.1,0.6L10,3.6v5c2.3,0,3.1,0.6,4.1,1.2c1.1,0.7,2.7,1.2,4.1,1.2c3.5,0,6.8-1.2,6.8-3.7
	C24.9,5.6,23.4,3.6,19.1,2.7L19.1,2.7z"/>
</svg>
