<svg width="179" height="64" viewBox="0 0 179 64" fill="none" xmlns="http://www.w3.org/2000/svg">
<path opacity="0.5" d="M25.0384 51.2259C37.7438 51.2259 48.0436 40.9007 48.0436 28.1638C48.0436 15.4269 37.7438 5.10156 25.0384 5.10156C12.333 5.10156 2.0332 15.4269 2.0332 28.1638C2.0332 40.9007 12.333 51.2259 25.0384 51.2259Z" fill="#B3B3B3"/>
<path d="M32.3544 27.3328C33.1186 27.3328 33.7381 26.7118 33.7381 25.9457C33.7381 25.1796 33.1186 24.5586 32.3544 24.5586C31.5902 24.5586 30.9707 25.1796 30.9707 25.9457C30.9707 26.7118 31.5902 27.3328 32.3544 27.3328Z" fill="#F2F2F2"/>
<path d="M92.2371 60.1044H71.2773L72.7693 58.9947C74.0688 57.9092 75.7653 56.6909 76.3789 55.2073C76.6671 54.4715 77.0089 53.7579 77.4016 53.0724C78.2198 51.7818 78.9297 49.5141 80.2532 48.7422C80.9751 50.0569 82.6596 50.5153 83.6823 51.5888C84.4283 52.3487 84.8855 53.398 85.5593 54.1941C86.2331 54.9902 86.943 55.2918 87.4965 55.9793C88.0499 56.6668 88.3868 57.5473 89.1569 57.9333C89.4987 58.0784 89.8531 58.1914 90.2157 58.271C90.6618 58.4179 91.0722 58.657 91.4204 58.9728C91.7686 59.2886 92.0468 59.6741 92.2371 60.1044Z" fill="#F2F2F2"/>
<path d="M78.0639 49.8509C76.8035 50.4788 75.6436 51.2919 74.6228 52.2633C74.0488 52.917 73.434 53.5334 72.7819 54.1087C72.2531 54.4919 71.6937 54.8308 71.1094 55.1219C70.045 55.7227 69.0201 56.3915 68.0413 57.1242L67.933 56.9915C66.6095 55.2063 63.5774 53.1679 62.2418 51.3948C61.8809 50.8882 60.6416 49.8871 60.8221 49.284C60.9355 48.0407 61.1162 46.8046 61.3635 45.581C61.5922 44.3496 61.9222 43.1393 62.3501 41.9625C62.6953 41.2484 62.9383 40.489 63.072 39.7069C63.1369 39.3143 63.1038 38.9116 62.9757 38.5349C62.8476 38.1582 62.6286 37.8191 62.3381 37.5478C62.0975 37.3549 61.7967 37.2101 61.7004 36.9206C61.6581 36.7585 61.6581 36.5882 61.7004 36.4261C61.8507 35.4994 61.8507 34.5545 61.7004 33.6278C61.6274 33.1616 61.4396 32.7211 61.1538 32.3462C60.8681 31.9713 60.4935 31.6738 60.064 31.4808C59.8784 31.4466 59.7068 31.3585 59.5707 31.2275C59.4466 31.0078 59.4121 30.7484 59.4745 30.5037C59.4062 29.0494 58.7915 27.6748 57.7539 26.656C58.6278 26.4906 59.5301 26.5656 60.3648 26.8731C60.7478 27.1024 61.0697 27.421 61.3033 27.8019L65.8996 34.2912C66.4443 35.0036 66.9388 35.7532 67.3795 36.5347C67.6557 37.1767 67.9857 37.7941 68.3661 38.3801C68.9905 39.074 69.6706 39.7154 70.3995 40.2979C72.7939 42.5897 75.2484 48.114 78.0639 49.8509Z" fill="#F2F2F2"/>
<path d="M55.4678 45.4364C56.3676 46.0782 57.4784 46.3501 58.5721 46.1963C56.2799 47.3444 54.3171 49.0588 52.8689 51.1778C51.7539 52.6011 50.675 54.0646 49.6323 55.5683L49.4277 55.4839C50.5106 51.8653 51.7018 48.0055 54.5173 45.4605C54.6188 45.3545 54.7481 45.2793 54.8903 45.2434C55.1002 45.2321 55.3066 45.3011 55.4678 45.4364Z" fill="#F2F2F2"/>
<path d="M52.2189 31.4579C51.882 31.9163 51.533 32.3746 51.1841 32.7968C49.0005 35.432 46.6106 37.8884 44.0371 40.1424C44.778 39.0861 45.1502 37.8141 45.0959 36.5239C45.0835 35.9078 45.1076 35.2916 45.1681 34.6784C45.4088 33.2189 46.612 32.0851 46.8767 30.6377C46.9592 29.8357 46.9592 29.0273 46.8767 28.2254C46.8217 26.6617 47.2412 25.1182 48.0799 23.7987L48.2483 23.4609C48.7319 23.7708 49.1424 24.1824 49.4515 24.6671C49.8004 25.1375 51.906 30.7945 52.2189 31.4579Z" fill="#F2F2F2"/>
<path d="M78.0639 49.8507C75.2484 48.1138 72.7939 42.6137 70.4236 40.2978C69.6947 39.7153 69.0146 39.0738 68.3902 38.38C68.0015 37.7948 67.6634 37.1774 67.3795 36.5345C66.9466 35.7538 66.4601 35.0042 65.9236 34.291L61.3635 27.8017C61.1299 27.4209 60.8079 27.1022 60.425 26.873C59.5718 26.5543 58.6472 26.4791 57.7539 26.6559" stroke="#F2F2F2" stroke-width="0.5" stroke-miterlimit="10"/>
<path d="M44.0004 40.1543L43.7477 40.3955C42.2163 41.5037 40.9774 42.9693 40.1381 44.6654C39.8253 45.4856 39.6809 46.3541 39.3199 47.0778C39.1569 47.4828 38.8872 47.8358 38.5397 48.0993C38.1922 48.3627 37.7798 48.5266 37.3467 48.5734" stroke="#F2F2F2" stroke-width="0.5" stroke-miterlimit="10"/>
<path d="M57.7539 26.6562C55.3475 26.8854 53.7472 29.2857 52.171 31.481C51.8341 31.9393 51.4852 32.3977 51.1363 32.8198C48.9527 35.4551 46.5627 37.9114 43.9893 40.1655" stroke="#F2F2F2" stroke-width="0.5" stroke-miterlimit="10"/>
<path d="M37.3958 48.6328C35.8798 48.7776 36.4212 50.3335 35.8317 51.0452C35.6386 51.3244 35.3661 51.5388 35.0496 51.6603C34.6886 51.7689 34.2916 51.6603 33.9547 51.7809C33.3771 52.0463 33.4373 52.8544 33.341 53.4817C33.1675 54.0324 32.8778 54.5394 32.4917 54.9681C32.1056 55.3968 31.632 55.7373 31.1031 55.9664C30.0489 56.4267 29.1355 57.1593 28.4561 58.0893" stroke="#F2F2F2" stroke-width="0.5" stroke-miterlimit="10"/>
<path d="M57.7539 26.6562C58.7678 27.6894 59.3563 29.0675 59.4023 30.516C59.3399 30.7607 59.3744 31.02 59.4985 31.2397C59.6347 31.3708 59.8062 31.4589 59.9919 31.493C60.4213 31.6861 60.7959 31.9836 61.0816 32.3585C61.3674 32.7334 61.5553 33.1739 61.6282 33.64C61.7785 34.5667 61.7785 35.5117 61.6282 36.4384C61.5859 36.6005 61.5859 36.7708 61.6282 36.9329C61.7245 37.2224 62.0253 37.3671 62.2659 37.5601C62.5564 37.8314 62.7755 38.1705 62.9035 38.5472C63.0316 38.9239 63.0647 39.3265 62.9999 39.7192C62.8661 40.5013 62.6231 41.2606 62.2779 41.9748C61.85 43.1516 61.52 44.3619 61.2913 45.5933C61.0512 46.8253 60.8785 48.0695 60.7739 49.3204" stroke="#F2F2F2" stroke-width="0.5" stroke-miterlimit="10"/>
<path d="M60.8216 49.3086C60.6411 49.9117 61.8804 50.9128 62.2413 51.4194C63.5769 53.1925 66.6089 55.2309 67.9325 57.0161" stroke="#F2F2F2" stroke-width="0.5" stroke-miterlimit="10"/>
<path d="M52.2183 31.4569C51.9055 30.7935 49.8119 25.1365 49.4269 24.5817C49.1178 24.0969 48.7072 23.6853 48.2237 23.3755C47.8069 23.059 47.3182 22.8514 46.8015 22.7714C46.2848 22.6914 45.7564 22.7415 45.2638 22.9171C44.6381 23.0739 43.9764 23.3272 43.2785 23.5685C41.4893 24.3527 39.7422 25.2304 38.0446 26.1979C37.3621 26.4662 36.7218 26.8318 36.1436 27.2835" stroke="#F2F2F2" stroke-width="0.5" stroke-miterlimit="10"/>
<path d="M48.0318 23.7383C47.1931 25.0578 46.7736 26.6014 46.8286 28.165C46.9111 28.967 46.9111 29.7753 46.8286 30.5773C46.5638 32.0248 45.3607 33.1586 45.12 34.618C45.0595 35.2312 45.0354 35.8475 45.0478 36.4635C45.1021 37.7537 44.7299 39.0257 43.989 40.082V40.082C43.9169 40.1743 43.8318 40.2556 43.7363 40.3233" stroke="#F2F2F2" stroke-width="0.5" stroke-miterlimit="10"/>
<path d="M45.2162 22.689L43.3151 20.156C42.2563 18.7448 40.9087 17.1768 39.116 17.4059C38.5714 16.2912 37.9648 15.2079 37.2991 14.1613C36.7096 13.2567 35.8673 12.2917 34.8085 12.4244C33.7497 12.5571 33.1722 13.7512 32.7992 14.7644C32.1735 16.4531 31.596 18.1417 30.9342 19.8424C30.0799 22.0859 29.0091 24.5948 26.7471 25.3306" stroke="#F2F2F2" stroke-width="0.5" stroke-miterlimit="10"/>
<path d="M26.7467 25.3301C24.8336 27.658 25.76 31.554 23.7146 33.7733C23.2694 34.2558 22.7039 34.6297 22.2828 35.1363C21.1518 36.4993 21.1758 38.6101 19.8764 39.8043C19.2748 40.3712 18.4446 40.6486 17.843 41.2276C16.8203 42.1925 16.4834 43.9415 15.1719 44.3998" stroke="#F2F2F2" stroke-width="0.5" stroke-miterlimit="10"/>
<path d="M15.0522 44.5078C14.8157 45.0845 14.7089 45.7064 14.7393 46.3291C14.7393 46.5463 14.7393 46.7754 14.7393 46.9925C14.5248 48.2532 14.119 49.4735 13.5361 50.6111" stroke="#F2F2F2" stroke-width="0.5" stroke-miterlimit="10"/>
<path d="M14.3545 46.3173C13.9887 46.1224 13.5692 46.0534 13.1604 46.1209C12.7517 46.1885 12.3764 46.3889 12.0925 46.6912C11.5517 47.3187 11.1425 48.0488 10.8893 48.8382C9.67802 51.5605 8.05462 54.079 6.07647 56.3045C4.9639 57.3854 3.98984 58.6009 3.17676 59.923" stroke="#F2F2F2" stroke-width="0.5" stroke-miterlimit="10"/>
<path d="M44.0014 29.4316L43.4961 30.1192" stroke="#F2F2F2" stroke-width="0.5" stroke-miterlimit="10"/>
<path d="M35.5299 20.2402C35.1662 20.5502 34.9198 20.976 34.832 21.4464" stroke="#F2F2F2" stroke-width="0.5" stroke-miterlimit="10"/>
<path d="M39.7782 37.4512L38.0576 39.8635" stroke="#F2F2F2" stroke-width="0.5" stroke-miterlimit="10"/>
<path d="M19.0704 44.1816C18.6956 44.514 18.3996 44.9261 18.2041 45.3878" stroke="#F2F2F2" stroke-width="0.5" stroke-miterlimit="10"/>
<path d="M25.039 46.7266C23.1259 48.7409 21.1888 50.7431 19.2275 52.6972" stroke="#F2F2F2" stroke-width="0.5" stroke-miterlimit="10"/>
<path d="M16.0145 55.6895C15.6829 55.9463 15.4049 56.266 15.1963 56.6303C15.1963 56.6303 15.1963 56.7026 15.1963 56.7268C15.1963 56.7509 15.2805 56.7268 15.2564 56.7268" stroke="#F2F2F2" stroke-width="0.5" stroke-miterlimit="10"/>
<path d="M50.8955 45.7031L49.2471 47.5727" stroke="#F2F2F2" stroke-width="0.5" stroke-miterlimit="10"/>
<path d="M55.3473 33.5078C54.469 34.4366 53.6147 35.3774 52.7725 36.3423" stroke="#F2F2F2" stroke-width="0.5" stroke-miterlimit="10"/>
<path d="M49.4277 55.4846C50.5106 51.8661 51.7018 48.0063 54.5173 45.4613C54.6188 45.3553 54.7481 45.28 54.8903 45.2441C55.1068 45.246 55.314 45.3325 55.4678 45.4854C56.3676 46.1272 57.4784 46.3991 58.5721 46.2453C56.2799 47.3934 54.3171 49.1078 52.8689 51.2268C51.7539 52.6501 50.675 54.1136 49.6323 55.6173C49.6014 55.6484 49.5769 55.6853 49.5601 55.7259" stroke="#F2F2F2" stroke-width="0.5" stroke-miterlimit="10"/>
<path d="M46.4672 43.9648C44.4057 46.0797 42.4004 48.2267 40.4512 50.4059" stroke="#F2F2F2" stroke-width="0.5" stroke-miterlimit="10"/>
<path d="M60.8219 49.3086C59.6964 50.0774 58.7011 51.0222 57.874 52.1069" stroke="#F2F2F2" stroke-width="0.5" stroke-miterlimit="10"/>
<path d="M48.5254 60.104L48.6096 59.9955C49.3926 59.0372 50.2366 58.1306 51.1363 57.2816C51.4267 57.0313 51.7458 56.8167 52.0869 56.6423C52.5988 56.3647 53.1978 56.2955 53.7593 56.4493C54.2342 56.6938 54.6652 57.0158 55.0347 57.4022C56.2379 58.4274 58.4518 58.1621 59.8475 57.4022C58.9211 58.0921 58.1775 58.9991 57.6817 60.0437" stroke="#F2F2F2" stroke-width="0.5" stroke-miterlimit="10"/>
<path d="M59.835 57.3789C60.7094 57.9761 61.4678 58.7282 62.0729 59.5983" stroke="#F2F2F2" stroke-width="0.5" stroke-miterlimit="10"/>
<path d="M71.2778 60.0435H65.1415L62.0733 60.0315L57.6696 60.0194L48.6095 59.9953L28.4559 59.9591L3.10449 59.8867" stroke="#F2F2F2" stroke-width="0.5" stroke-miterlimit="10"/>
<path d="M80.2535 48.7533C78.9299 49.5253 78.2201 51.7929 77.4019 53.0835C77.0288 53.7471 76.7031 54.4363 76.4273 55.1461C75.7655 56.6297 74.0209 57.8479 72.8177 58.9335L71.3257 60.0432H92.2855C92.0845 59.6239 91.7989 59.2509 91.4469 58.9478C91.0948 58.6447 90.6839 58.418 90.24 58.2822C89.8676 58.1884 89.505 58.0592 89.1571 57.8962C88.3871 57.5102 88.0502 56.6056 87.4967 55.9422C86.9433 55.2788 86.1612 54.8084 85.5596 54.157C84.958 53.5057 84.4286 52.3116 83.6826 51.5517C82.6358 50.4782 80.9754 50.0198 80.2535 48.7051C79.5195 49.0549 78.7856 49.4047 78.0757 49.8027C76.8152 50.4306 75.6554 51.2437 74.6345 52.2151C74.0606 52.8688 73.4457 53.4852 72.7936 54.0605C72.2648 54.4437 71.7055 54.7826 71.1212 55.0737C70.0567 55.6745 69.0319 56.3433 68.053 57.076C67.0237 57.8497 66.0544 58.7005 65.1533 59.621" stroke="#F2F2F2" stroke-width="0.5" stroke-miterlimit="10"/>
<path d="M96.7251 43.5552C96.6048 43.5552 96.5566 43.5552 96.4845 43.2898C96.2318 42.3128 96.1476 41.77 95.9189 40.6603L97.9163 39.9969L99.1195 39.6592V33.4835C98.1571 33.4725 97.1966 33.5696 96.2558 33.773L96.0633 32.7237C97.0669 32.911 98.0868 32.9959 99.1074 32.977V28.3935C99.1074 26.6445 99.1074 25.9811 99.1074 25.5469H101.514V32.977H101.598C102.561 30.7455 102.705 30.5646 102.897 30.5646C103.09 30.5646 103.222 30.7093 103.848 31.5416C104.666 32.603 104.811 32.977 104.811 33.1579C104.811 33.3388 104.702 33.5197 104.389 33.5197H101.418V38.8993C102.464 38.5013 103.523 38.0791 104.522 37.5846L104.811 39.1888C103.728 40.0215 102.603 40.7985 101.442 41.5167L101.61 50.6596C101.639 51.4519 101.37 52.2261 100.854 52.8277C100.339 53.4292 99.6164 53.8136 98.8307 53.9042C98.2532 53.9042 98.2291 53.7836 98.1689 53.1081C98.0366 51.9019 97.8922 51.2506 96.1235 50.5148V50.1771C96.796 50.2349 97.4723 50.2349 98.1449 50.1771C98.8668 50.0565 99.0593 49.8032 99.0593 48.7417V42.5902L96.7251 43.5552ZM116.71 52.9393C116.267 53.3038 115.729 53.5337 115.16 53.6021C114.591 53.6705 114.014 53.5744 113.498 53.3252C112.294 52.8186 112.102 52.6739 110.261 49.8032C109.984 49.3087 109.732 48.79 109.479 48.211C107.411 50.5179 104.698 52.1484 101.694 52.891L101.586 52.6136C104.396 50.8243 106.766 48.4201 108.516 45.5816C107.616 42.4354 107.063 39.1994 106.868 35.9321V35.6667C105.651 35.8492 104.446 36.103 103.258 36.4266L103.018 35.4134C104.221 35.4134 105.424 35.2325 106.82 35.0757C106.724 33.2182 106.712 30.5284 106.615 28.3332C106.615 27.5009 106.615 27.32 106.615 26.741H109.13C109.13 28.8156 109.13 32.6392 109.299 34.7742L112.403 34.4123C113.425 31.8431 113.606 31.5054 113.714 31.5054C113.823 31.5054 114.208 31.5657 115.014 32.4221C116.012 33.4353 116.157 33.7007 116.157 33.9781C116.157 34.2555 116.061 34.4364 115.7 34.4967L109.323 35.329C109.323 35.5099 109.323 35.6667 109.323 35.8115C109.463 38.0588 109.813 40.288 110.369 42.4696C111.069 41.1057 111.684 39.6999 112.21 38.26C112.417 37.7528 112.539 37.2148 112.571 36.6679L112.68 36.5834C115.086 38.4771 115.471 38.8993 115.471 39.3938C115.471 39.8884 115.122 40.0572 114.424 39.9969C113.559 41.9167 112.55 43.7676 111.404 45.5333C111.821 46.4278 112.295 47.2941 112.824 48.1266C113.137 48.6694 114.027 50.2857 114.532 50.539C115.076 50.7424 115.674 50.7424 116.217 50.539L116.71 52.9393ZM110.694 28.297L111.5 26.9581L114.304 28.6829L113.101 30.842L110.694 28.297Z" fill="white"/>
<path d="M126.24 53.1932C127.454 53.0162 128.578 52.451 129.445 51.5816C130.312 50.7122 130.876 49.5852 131.053 48.3685C129.724 49.2506 128.346 50.056 126.926 50.7808C126.738 50.9126 126.517 50.9879 126.288 50.9979C126.12 50.9979 126.023 50.817 125.891 50.5155C125.561 49.6672 125.292 48.7965 125.085 47.9101L125.193 47.6327C125.794 47.6867 126.398 47.6867 126.998 47.6327C128.755 47.5362 130.054 47.3915 131.293 47.2105C131.385 46.5305 131.442 45.846 131.462 45.16H130.078C128.846 45.1358 127.615 45.2165 126.396 45.4013L126.204 44.3639C127.488 44.5416 128.783 44.6222 130.078 44.6052H131.462V42.4341H129.801C128.429 42.3929 127.056 42.4777 125.699 42.6873L125.506 41.65C126.93 41.8401 128.366 41.9207 129.801 41.8913H131.462V40.9987C131.465 40.4525 131.392 39.9085 131.245 39.3824L131.414 39.1653C134.35 39.7443 134.759 39.9011 134.759 40.3715C134.759 40.8419 134.482 41.0108 133.904 41.252V43.6644C133.904 51.5166 130.644 55.1713 126.168 55.2075L126.24 53.1932ZM136.287 27.007V28.2976H139.499C140.606 26.428 140.823 26.0662 140.991 26.0662C141.16 26.0662 141.364 26.1868 142.026 26.9467C142.856 27.9237 143.025 28.1529 143.025 28.4785C143.025 28.8042 142.904 28.8404 142.543 28.8404H136.287V29.1781V31.5905H141.003C142.206 29.6365 142.363 29.3349 142.555 29.3349C142.748 29.3349 142.977 29.4555 143.759 30.3119C144.541 31.1683 144.685 31.3734 144.685 31.7111C144.685 32.0488 144.565 32.1453 144.204 32.1453H136.299V32.4469C136.299 33.5445 135.36 33.9184 134.277 33.9184C133.531 33.9184 133.471 33.7978 133.471 33.0258V32.1453H130.247C128.691 32.125 127.136 32.2056 125.59 32.3866L125.398 31.3492C126.144 31.4337 126.89 31.506 127.648 31.5302C128.245 30.0003 128.696 28.4171 128.995 26.8019C129.092 26.3053 129.141 25.8003 129.14 25.2942L129.308 25.1133C131.715 26.0903 132.304 26.4039 132.304 26.9467C132.304 27.4895 132.136 27.4653 131.438 27.5618C131.305 27.8031 131.161 28.0443 131.029 28.2976H133.543V27.7428C133.635 26.9306 133.553 26.1082 133.303 25.3304L136.287 27.007ZM139.247 34.4371C140.053 33.0017 140.245 32.7605 140.45 32.7605C140.654 32.7605 141.088 33.0017 141.833 33.8219C142.579 34.6421 142.772 35.0281 142.772 35.3176C142.772 35.6071 142.531 35.993 141.954 36.3549V36.6926L142.086 38.0436C142.086 39.2497 141.4 39.5633 140.173 39.5633C139.535 39.5633 139.451 39.5633 139.451 38.7431V38.3089H130.74V38.7431C130.74 39.7563 129.994 40.0579 128.887 40.0579C128.31 40.0579 128.189 39.9976 128.189 38.8517L128.334 36.1257V35.3055C128.365 34.6296 128.309 33.9524 128.165 33.2912L128.31 33.0741C129.325 33.3666 130.285 33.8273 131.149 34.4371H139.247ZM130.824 28.8404C130.164 29.8658 129.353 30.785 128.418 31.5664C129.043 31.5664 129.693 31.5664 130.391 31.5664H133.555V29.2746V28.8163L130.824 28.8404ZM131.149 34.9798C131.149 35.1367 130.957 35.2573 130.668 35.4382V37.7661H139.379V34.9798H131.149ZM135.962 53.0726L136.07 46.1612V41.8913C136.162 41.0791 136.08 40.2567 135.83 39.4789L135.986 39.2377C138.85 39.684 139.259 39.9011 139.259 40.2991C139.259 40.6972 139.066 40.9143 138.489 41.2158V41.831H141.448C142.447 39.8408 142.652 39.684 142.76 39.684C142.868 39.684 143.097 39.8166 143.783 40.6007C144.469 41.3847 144.673 41.8068 144.673 42.0119C144.673 42.2169 144.565 42.3737 144.252 42.3737H138.489V45.0635H141.208C142.17 43.2301 142.279 43.0854 142.411 43.0854C142.543 43.0854 142.748 43.206 143.35 43.8694C144.108 44.7258 144.24 45.0756 144.24 45.2203C144.24 45.3651 144.132 45.6184 143.807 45.6184H138.477V46.0405V48.5494H141.665C142.664 46.5351 142.868 46.318 143.049 46.318C143.229 46.318 143.494 46.5351 144.168 47.3553C144.841 48.1755 145.07 48.5615 145.07 48.7665C145.07 48.9716 144.962 49.1284 144.637 49.1284H138.501V53.0726H135.962Z" fill="white"/>
<path d="M165.331 27.7422V49.5258H169.879V33.3268L172.623 32.8082V39.9367L172.839 51.6005C172.839 52.6378 171.901 53.2288 170.625 53.2288C169.964 53.2288 169.879 53.0961 169.879 52.2759V50.0807H158.281V52.0347C158.281 53.072 157.511 53.5907 156.199 53.5907C155.549 53.5907 155.453 53.47 155.453 52.6378L155.658 40.1417V35.317L158.281 34.4847V49.5258H162.588V28.2367L165.331 27.7422Z" fill="white"/>
<path d="M111.681 16.102H112.174V19.7205H111.681V16.102ZM113.931 17.5132C113.949 17.2479 113.868 16.9853 113.702 16.7774C113.622 16.6855 113.521 16.6137 113.409 16.5676C113.296 16.5215 113.174 16.5025 113.052 16.5121C112.933 16.506 112.814 16.5243 112.703 16.5657C112.591 16.6072 112.489 16.671 112.403 16.7533C112.244 16.9366 112.162 17.1743 112.174 17.4167L112.102 16.7292C112.204 16.5136 112.367 16.3331 112.571 16.2105C112.781 16.0957 113.018 16.0375 113.257 16.0416C113.483 16.0368 113.705 16.0998 113.895 16.2226C114.073 16.3446 114.211 16.5167 114.292 16.7171C114.39 16.9704 114.435 17.2415 114.424 17.5132V19.6964H113.931V17.5132ZM116.181 17.5132C116.199 17.2479 116.117 16.9853 115.952 16.7774C115.871 16.687 115.77 16.6161 115.657 16.5702C115.545 16.5242 115.424 16.5044 115.302 16.5121C115.182 16.5053 115.062 16.5245 114.95 16.5682C114.838 16.6118 114.737 16.6791 114.653 16.7654C114.492 16.9712 114.411 17.2281 114.424 17.4891L114.219 16.9704C114.31 16.6992 114.477 16.4603 114.701 16.2829C114.912 16.1238 115.17 16.039 115.435 16.0416C115.672 16.0339 115.907 16.0969 116.108 16.2226C116.296 16.3398 116.444 16.5126 116.53 16.7171C116.633 16.9695 116.682 17.2406 116.674 17.5132V19.6964H116.181V17.5132Z" fill="white"/>
<path d="M120.453 19.5642C120.236 19.4412 120.06 19.2565 119.947 19.0335C119.825 18.7696 119.767 18.4801 119.779 18.1892V17.5982C119.767 17.3112 119.825 17.0255 119.947 16.7659C120.057 16.5407 120.233 16.3552 120.453 16.2352C120.699 16.0993 120.978 16.0327 121.259 16.0422C121.536 16.0312 121.811 16.098 122.053 16.2352C122.278 16.3479 122.456 16.5356 122.558 16.7659C122.685 17.0245 122.747 17.3102 122.739 17.5982V18.1892C122.748 18.4812 122.686 18.7711 122.558 19.0335C122.456 19.2639 122.278 19.4515 122.053 19.5642C121.811 19.7014 121.536 19.7682 121.259 19.7572C120.978 19.7667 120.699 19.7001 120.453 19.5642ZM121.981 18.9973C122.16 18.7674 122.249 18.4803 122.233 18.1892V17.5982C122.255 17.3101 122.164 17.0249 121.981 16.8021C121.888 16.702 121.774 16.624 121.646 16.5739C121.519 16.5238 121.383 16.5029 121.247 16.5126C121.113 16.5063 120.979 16.5289 120.855 16.5789C120.73 16.6288 120.618 16.7049 120.525 16.8021C120.342 17.0249 120.251 17.3101 120.272 17.5982V18.1892C120.256 18.4803 120.346 18.7674 120.525 18.9973C120.618 19.0945 120.73 19.1706 120.855 19.2205C120.979 19.2705 121.113 19.2931 121.247 19.2868C121.383 19.2965 121.519 19.2756 121.646 19.2255C121.774 19.1754 121.888 19.0974 121.981 18.9973Z" fill="white"/>
<path d="M126.336 18.2848C126.326 18.4181 126.344 18.5521 126.387 18.6786C126.431 18.8051 126.499 18.9214 126.589 19.0205C126.678 19.1134 126.788 19.1853 126.908 19.2312C127.029 19.2771 127.158 19.2957 127.287 19.2859C127.411 19.2948 127.536 19.278 127.654 19.2365C127.772 19.195 127.881 19.1297 127.972 19.0446C128.058 18.9553 128.123 18.849 128.164 18.7326C128.206 18.6162 128.222 18.4924 128.213 18.3692V19.1291C128.115 19.3166 127.964 19.4716 127.78 19.5754C127.552 19.7026 127.294 19.7652 127.034 19.7563C126.863 19.7608 126.693 19.7288 126.535 19.6622C126.377 19.5956 126.236 19.4961 126.119 19.3703C125.884 19.0596 125.769 18.6741 125.795 18.2848V16.1016H126.336V18.2848ZM128.213 16.1016H128.706V19.7201H128.213V16.1016Z" fill="white"/>
<path d="M131.847 16.1017H132.352V19.7203H131.847V16.1017ZM134.253 17.513C134.261 17.3797 134.243 17.2461 134.2 17.1198C134.157 16.9935 134.089 16.8771 134 16.7772C133.907 16.6853 133.796 16.6142 133.674 16.5685C133.551 16.5227 133.421 16.5034 133.291 16.5118C133.041 16.496 132.795 16.5782 132.605 16.741C132.522 16.832 132.458 16.9386 132.417 17.0545C132.375 17.1705 132.357 17.2935 132.364 17.4165L132.292 16.7169C132.395 16.4932 132.574 16.3136 132.797 16.2103C133.02 16.0955 133.268 16.0375 133.519 16.0414C133.69 16.0369 133.86 16.069 134.018 16.1355C134.176 16.2021 134.317 16.3016 134.434 16.4274C134.659 16.7425 134.77 17.1258 134.746 17.513V19.6962H134.253V17.513Z" fill="white"/>
<path d="M137.658 16.1021H139.283V16.5243H137.658V16.1021ZM138.236 19.4794C138.088 19.2727 138.016 19.0215 138.031 18.7678V15.0527H138.524V18.7678C138.516 18.8975 138.555 19.0259 138.633 19.1296C138.672 19.1728 138.721 19.2062 138.775 19.2271C138.829 19.2481 138.888 19.256 138.946 19.2502H139.283V19.7207H138.873C138.756 19.7304 138.638 19.7138 138.527 19.6721C138.417 19.6304 138.317 19.5646 138.236 19.4794Z" fill="white"/>
<path d="M142.555 19.4671C142.437 19.3649 142.344 19.2365 142.283 19.0921C142.223 18.9477 142.196 18.7912 142.206 18.6349C142.198 18.4892 142.222 18.3436 142.276 18.2082C142.33 18.0727 142.413 17.9508 142.519 17.8508C142.77 17.649 143.088 17.5499 143.409 17.5734H144.613V18.0318H143.409C143.217 18.0248 143.027 18.0797 142.868 18.1886C142.803 18.2474 142.752 18.3191 142.716 18.399C142.681 18.479 142.663 18.5655 142.663 18.653C142.663 18.7404 142.681 18.8269 142.716 18.9069C142.752 18.9869 142.803 19.0585 142.868 19.1173C143.071 19.2388 143.305 19.2975 143.542 19.2862C143.786 19.2942 144.03 19.2616 144.264 19.1897C144.432 19.1294 144.516 19.0329 144.516 18.9243L144.589 19.3948C144.511 19.4779 144.417 19.5437 144.312 19.5877C144.191 19.6494 144.061 19.6902 143.927 19.7084C143.775 19.7268 143.621 19.7268 143.47 19.7084C143.147 19.7313 142.825 19.6464 142.555 19.4671ZM144.576 17.4166C144.591 17.2947 144.579 17.171 144.54 17.0546C144.501 16.9383 144.436 16.8322 144.351 16.7442C144.265 16.6562 144.161 16.5886 144.046 16.5463C143.931 16.504 143.808 16.4882 143.686 16.4999C143.514 16.4966 143.343 16.5252 143.181 16.5844C143.022 16.6302 142.875 16.7082 142.748 16.8135L142.375 16.5723C142.52 16.4004 142.706 16.2677 142.916 16.1863C143.152 16.0876 143.406 16.0383 143.662 16.0416C143.925 16.0346 144.185 16.0926 144.42 16.2104C144.632 16.3023 144.806 16.464 144.913 16.6688C145.029 16.8876 145.087 17.1327 145.082 17.3804V19.6963H144.576V17.4166Z" fill="white"/>
<path d="M148.379 14.6543H148.884V15.1609H148.379V14.6543ZM148.379 16.1017H148.884V19.7203H148.379V16.1017Z" fill="white"/>
<path d="M152.181 16.1027H152.686V19.7212H152.181V16.1027ZM154.587 17.5139C154.595 17.3806 154.577 17.247 154.534 17.1207C154.491 16.9945 154.423 16.878 154.334 16.7781C154.137 16.6175 153.891 16.5298 153.637 16.5298C153.382 16.5298 153.136 16.6175 152.939 16.7781C152.854 16.8675 152.788 16.9738 152.747 17.0902C152.705 17.2066 152.689 17.3304 152.698 17.4536L152.626 16.754C152.729 16.5303 152.908 16.3508 153.131 16.2474C153.354 16.1326 153.602 16.0746 153.853 16.0785C154.024 16.074 154.194 16.1061 154.352 16.1726C154.51 16.2392 154.651 16.3387 154.768 16.4645C154.993 16.7796 155.104 17.163 155.08 17.5501V19.7333H154.587V17.5139Z" fill="white"/>
</svg>
