<svg width="209" height="464" viewBox="0 0 209 464" fill="none" xmlns="http://www.w3.org/2000/svg">
<path d="M142.873 282.594C140.127 275.301 143.812 267.162 151.105 264.415C158.324 261.695 166.373 265.279 169.198 272.427L169.359 272.843C170.031 274.538 171.84 278.184 174.143 282.266L174.237 282.434C177.417 288.056 181.165 293.915 185.193 299.406C195.154 312.986 205.535 322.576 214.519 325.932C221.819 328.658 225.526 336.786 222.799 344.087C220.072 351.387 211.944 355.095 204.644 352.369C196.307 349.256 188.327 343.935 180.607 336.804C174.259 330.939 168.181 323.928 162.438 316.099C153.667 304.14 145.65 289.966 142.873 282.594Z" fill="#59443C"/>
<path d="M142.225 285.502C134.83 269.492 143.931 259.532 147.87 255.355L184.339 296.67L157.247 315.29C156.278 312.417 157.313 311.57 156.218 310.061C152.531 304.984 147.925 297.844 142.225 285.502Z" fill="#D13227"/>
<path d="M156.768 315.189L167.879 306.506L178.611 297.344L182.035 302.607L173.049 310.46L158.106 320.744L156.768 315.189Z" fill="#E23F34"/>
<path d="M162.949 321.96L176.092 308.916L189.201 296.647L195.921 300.279L189.504 307.451C189.504 307.451 186.958 314.919 179.521 317.581C172.085 320.242 164.429 326.112 164.429 326.112L162.949 321.96Z" fill="#D13227"/>
<path d="M158.074 320.54L173.887 309.362L184.203 298.066L188.3 304.397L176.307 314.233L162.777 322.183L158.074 320.54Z" fill="#B62C23"/>
<path d="M145.101 253.389C139.987 246.096 143.654 231.097 153.746 217.77L184.984 176.519L216.154 139.418C226.21 127.449 238.76 120.968 246.575 123.887C264.297 130.506 295.413 143.226 313.355 156.95C339.474 176.927 349.275 169.289 341.389 186.69C333.504 204.092 242.554 322.003 224.896 334.094C207.239 346.184 209.392 331.916 198.559 323.63C190.537 317.494 160.271 275.023 145.101 253.389Z" fill="#E23D32"/>
<path d="M116.133 213.367L176.323 93.7511L249.013 128.381L148.636 259.616L116.133 213.367Z" fill="#59443C"/>
<rect x="168.64" y="223.134" width="80.8681" height="20.9142" transform="rotate(-52.5888 168.64 223.134)" fill="#59443C"/>
<path d="M195.646 226.174C178.81 245.469 131.078 278.333 141.17 249.858C146.184 230.569 172.328 213.366 178.85 213.328C184.068 213.297 197.461 212.482 203.042 209.713C208.494 205.839 212.482 206.879 195.646 226.174Z" fill="#F06057"/>
<path d="M228.11 182.669C242.496 161.499 263.575 108.25 239.698 126.181C223.196 136.683 212.369 165.602 213.505 171.498C214.415 176.215 216.083 188.551 214.587 194.444C212.071 200.563 213.725 203.839 228.11 182.669Z" fill="#F06057"/>
<path fill-rule="evenodd" clip-rule="evenodd" d="M237.42 188.141L231.698 196.878L256.51 213.36L262.231 204.622L237.42 188.141ZM223.957 208.7L229.679 199.963L245.231 210.294C250.739 213.953 251.934 220.738 248.41 226.119C244.92 231.448 238.367 232.997 232.877 229.467L232.711 229.358L217.184 219.044L222.905 210.307L238.339 220.559C238.873 220.914 239.275 221.028 239.525 220.994C239.68 220.973 239.83 220.872 240.02 220.582C240.219 220.278 240.261 220.061 240.212 219.875C240.147 219.624 239.912 219.315 239.442 218.988L239.366 218.936L223.957 208.7ZM215.172 222.114L209.451 230.85L217.551 236.232L216.574 237.725L208.473 232.344L202.751 241.08L227.563 257.562L233.284 248.826L224.947 243.287L225.924 241.794L234.262 247.332L239.984 238.596L215.172 222.114ZM215.816 225.25L236.866 239.234L233.619 244.193L225.282 238.655L221.83 243.926L230.167 249.464L226.92 254.424L205.869 240.44L209.117 235.481L217.218 240.862L220.669 235.591L212.568 230.21L215.816 225.25ZM230.322 203.099L227.074 208.059L240.616 217.054C241.573 217.69 242.179 218.465 242.398 219.305C242.612 220.13 242.446 220.997 241.909 221.817C241.373 222.635 240.657 223.118 239.828 223.23C239.019 223.34 238.119 223.096 237.193 222.505L237.09 222.438L223.548 213.443L220.301 218.402L233.96 227.476C238.421 230.439 243.67 229.235 246.521 224.881C249.352 220.558 248.451 215.237 244.114 212.262L243.982 212.173L230.322 203.099ZM234.816 196.237L238.064 191.278L259.115 205.262L255.867 210.221L234.816 196.237Z" fill="#FFB943"/>
<path d="M200.433 213.696C201.082 212.848 202.284 212.672 203.147 213.287L203.202 213.327L235.047 237.685C235.914 238.347 236.079 239.587 235.416 240.454C234.767 241.302 233.565 241.478 232.701 240.863L232.647 240.823L200.802 216.466C199.935 215.803 199.77 214.563 200.433 213.696Z" fill="#CC2217"/>
<path d="M62.6525 134.08C66.2673 138.156 78.6992 133.638 78.6992 133.638L97.3751 108.278C97.3751 108.278 73.2882 104.528 69.6786 109.247C67.2671 112.4 71.8771 114.246 75.2029 115.124C75.6058 115.23 75.5734 116.072 75.1615 116.135C70.9663 116.783 63.655 118.394 61.46 121.948C59.3137 125.423 66.4509 125.014 71.1752 124.409C71.5989 124.355 71.8366 125.177 71.4499 125.359C66.9702 127.461 60.1631 131.273 62.6525 134.08Z" fill="#564138"/>
<path d="M109.344 209.564C67.0537 177.914 75.551 133.425 85.086 115.137C114.456 77.0198 160.965 83.4294 178.53 91.8843C196.095 100.339 203.739 121.88 204.11 141.329C204.336 153.168 162.208 249.126 109.344 209.564Z" fill="#59443C"/>
<path d="M118.868 162.166C108.259 165.022 106.191 176.49 106.6 184.634C106.654 185.704 105.118 186.265 104.527 185.371C74.6459 140.181 114.369 135.879 117.026 138.474C117.026 138.474 113.989 123.718 127.799 112.787C157.484 89.2917 180.666 103.564 185.051 103.025C186.55 102.84 182.356 104.191 177.803 106.038C172.312 108.265 165.97 109.295 160.263 110.891C150.006 113.759 141.076 123.473 148.081 134.841C152.61 142.193 174.386 125.728 176.627 123.146C178.869 120.564 198.946 115.856 203.756 135.37C208.677 155.333 170.008 212.114 151.437 214.747C136.58 216.853 125.603 203.55 121.972 196.635C126.269 183.71 131.664 158.721 118.868 162.166Z" fill="#D0BFB1"/>
<path d="M152.835 164.749L154.982 166.845L152.835 164.749ZM175.039 146.266C176.018 144.929 175.727 143.052 174.39 142.073C173.053 141.095 171.176 141.386 170.197 142.723L175.039 146.266ZM140.617 189.024C143.745 185.822 146.747 180.708 149.212 176.345C150.49 174.082 151.626 172.013 152.659 170.269C153.73 168.459 154.497 167.342 154.982 166.845L150.689 162.653C149.63 163.738 148.53 165.465 147.496 167.212C146.422 169.025 145.213 171.226 143.988 173.394C141.446 177.893 138.81 182.288 136.325 184.832L140.617 189.024ZM154.982 166.845C158.595 163.146 163.274 162.345 175.039 146.266L170.197 142.723C158.486 158.728 156.055 157.159 150.689 162.653L154.982 166.845Z" fill="#544036"/>
<ellipse cx="142.69" cy="155.425" rx="15.0432" ry="11.8648" transform="rotate(-56.7926 142.69 155.425)" fill="#684F43" fill-opacity="0.43"/>
<ellipse cx="148.024" cy="154.151" rx="4.01602" ry="3.01201" transform="rotate(-66.285 148.024 154.151)" fill="#564138"/>
<ellipse cx="148.024" cy="154.151" rx="4.01602" ry="3.01201" transform="rotate(-66.285 148.024 154.151)" fill="#564138"/>
<ellipse cx="140.874" cy="164.349" rx="4.01602" ry="3.01201" transform="rotate(-33.0593 140.874 164.349)" fill="#564138"/>
<ellipse cx="140.874" cy="164.349" rx="4.01602" ry="3.01201" transform="rotate(-33.0593 140.874 164.349)" fill="#564138"/>
<path d="M140.087 155.382C137.957 157.563 134.361 159.52 133.072 162.565C133.412 153.95 141.234 147.59 144.783 145.55C144.886 145.461 144.985 145.404 145.081 145.383C144.985 145.435 144.886 145.491 144.783 145.55C143.357 146.786 141.264 154.176 140.087 155.382Z" fill="#FAFAFA"/>
<path d="M119.773 172.16C120.976 173.334 121.097 175.561 119.548 177.147C117.999 178.733 115.77 178.664 114.568 177.489C113.365 176.315 113.244 174.089 114.793 172.503C116.342 170.917 118.571 170.985 119.773 172.16Z" fill="#543B2D" stroke="#443025" stroke-width="5"/>
<ellipse cx="115.303" cy="173" rx="3.01201" ry="1.20481" transform="rotate(-50.9226 115.303 173)" fill="#FAFAFA"/>
<path d="M160.629 120.559C161.831 121.734 161.952 123.96 160.403 125.546C158.855 127.132 156.626 127.063 155.423 125.889C154.221 124.714 154.1 122.488 155.649 120.902C157.198 119.316 159.426 119.385 160.629 120.559Z" fill="#543B2D" stroke="#443025" stroke-width="5"/>
<ellipse cx="156.158" cy="121.401" rx="3.01201" ry="1.20481" transform="rotate(-50.9226 156.158 121.401)" fill="#FAFAFA"/>
<g clip-path="url(#clip0)">
<rect x="29.7395" y="275.046" width="162.593" height="76.2037" rx="8" transform="rotate(-34.5297 29.7395 275.046)" fill="#6DA77F"/>
<path d="M66.382 291.649L67.0782 291.17L66.6213 290.506L67.9815 289.571L68.4383 290.235L69.1452 289.748L68.6883 289.084L69.9735 288.2L69.5608 287.6L68.2757 288.484L67.7746 287.756L67.0677 288.243L67.5688 288.971L66.2087 289.907L65.7076 289.178L65.0114 289.657L65.5125 290.386L64.238 291.263L64.6507 291.862L65.9252 290.985L66.382 291.649ZM70.708 297.478L71.9504 296.623L72.3925 297.266L71.1502 298.121L70.708 297.478ZM70.7935 294.942L69.5511 295.797L69.1164 295.165L70.3587 294.31L70.7935 294.942ZM71.5893 296.099L70.347 296.953L69.9122 296.321L71.1545 295.467L71.5893 296.099ZM66.5156 292.646L67.426 292.02L68.0671 292.952L67.1567 293.578L66.5156 292.646ZM70.6696 291.161L69.6843 291.839L69.0432 290.907L70.0285 290.229L70.6696 291.161ZM73.2286 287.885L74.396 287.082C74.7779 287.798 75.1752 288.582 75.3783 289.152L76.163 289.054C75.9015 288.192 75.346 286.949 74.8228 285.936L74.176 286.097L74.077 286.229L71.6137 287.924C71.3551 287.249 71.0314 286.573 70.6897 285.892L69.8375 286.305C70.7059 287.98 71.4202 289.729 71.5567 291.166L70.2671 289.292L68.1145 290.773L69.4777 292.754L71.5661 291.317L71.5762 291.516C71.8353 291.479 72.3295 291.487 72.5571 291.519C72.4945 290.694 72.2752 289.756 71.9328 288.777L72.4682 288.409L73.4851 289.887C74.019 290.64 75.4226 293.161 74.8371 295.773L74.7487 295.645L73.0779 296.794L72.6358 296.152L74.0067 295.208L73.6456 294.684L72.2747 295.627L71.84 294.995L73.2108 294.052L72.8498 293.527L71.4789 294.47L71.0441 293.838L72.6935 292.704L72.2955 292.125L70.6569 293.253C70.624 292.976 70.5797 292.659 70.5428 292.353L69.7 292.665C69.7978 292.944 69.9011 293.347 69.9715 293.724L68.8898 294.469C68.8348 294.159 68.7617 293.847 68.6779 293.541L67.9355 293.815L69.0172 293.071L67.6539 291.09L65.5869 292.512L66.9502 294.493L67.8926 293.845C68.2345 295.03 68.3475 296.341 68.1792 297.403C68.4035 297.454 68.8528 297.603 69.045 297.676C69.0978 297.339 69.1177 296.979 69.1122 296.604L71.2565 299.72L71.9313 299.256L71.5407 298.688L74.7001 296.514C74.9499 296.579 75.3342 296.725 75.5157 296.805C76.3197 294.58 75.4953 292.212 74.9948 291.278C75.6733 292.058 77.5701 293.782 79.7675 293.88C79.7601 293.617 79.7639 293.141 79.8033 292.877C76.9818 292.767 74.8129 290.188 74.2455 289.363L73.2286 287.885ZM82.318 279.927L84.0423 278.741L87.3435 283.539C87.4319 283.667 87.4186 283.74 87.29 283.828C87.1508 283.924 86.7512 284.215 86.2652 284.518C86.4869 284.633 86.8077 284.87 86.9832 285.033C87.6258 284.591 88.0468 284.286 88.2301 284.002C88.4202 283.682 88.3478 283.416 88.0898 283.041L84.3023 277.536L81.1214 279.725L86.3754 287.361L87.093 286.867L82.318 279.927ZM82.2241 288.529C82.9007 287.7 83.7968 286.595 84.6326 285.562L84.0646 284.943C83.5968 285.501 83.129 286.06 82.6967 286.578L79.4765 281.898C79.9885 281.151 80.5064 280.322 80.8489 279.581L79.8546 279.397C79.672 279.981 79.2371 280.816 78.8042 281.54L78.266 281.721L82.0904 287.28C81.8849 287.531 81.6861 287.747 81.5195 287.941L82.2241 288.529ZM78.1669 283.572C77.4986 283.243 76.2833 282.991 75.305 282.922L74.9746 283.749C75.9568 283.846 77.1655 284.135 77.8124 284.479L78.1669 283.572ZM79.4164 285.916L77.3601 287.331L77.876 288.081L79.1933 287.174L81.0944 289.937C80.9327 290.711 80.7174 291.522 80.496 292.164L81.4221 292.615C81.612 291.79 81.7844 291.009 81.91 290.228C83.1562 290.617 84.396 290.332 85.8466 289.413C87.0863 288.623 89.3849 287.01 90.5582 286.124C90.4356 285.877 90.3209 285.435 90.2994 285.198C89.0518 286.182 86.5785 287.931 85.3314 288.71C84.0416 289.519 82.8378 289.811 81.7818 289.354L79.4164 285.916ZM88.1698 280.13L88.7667 280.998L98.4912 274.307L97.8943 273.439L88.1698 280.13ZM106.628 266.088L103.608 268.166L106.003 271.647C106.622 272.547 107.073 272.583 108.069 271.898L109.944 270.609C110.854 269.982 110.806 269.431 109.874 267.847C109.605 267.938 109.203 268.041 108.943 268.031C109.777 269.335 109.839 269.608 109.389 269.917L107.643 271.118C107.129 271.472 107.017 271.47 106.774 271.117L104.866 268.343L107.115 266.795L107.299 267.063L108.07 266.532L105.38 262.623L101.482 265.306L101.968 266.013L105.096 263.861L106.628 266.088ZM103.201 272.597L104.936 271.403L104.449 270.696L102.714 271.89L101.624 270.305L103.466 269.038L102.98 268.331L100.977 269.709L100.041 268.349L101.765 267.162L101.286 266.466L99.562 267.652L98.744 266.464L97.9837 266.987L98.8016 268.176L97.0345 269.391L97.5134 270.088L99.2806 268.872L100.216 270.232L98.1708 271.639L98.6572 272.346L100.896 270.806L103.688 274.865C102.988 274.81 102.288 274.503 101.514 273.884C101.222 273.39 100.904 272.883 100.561 272.362L99.7748 272.824C101.047 274.742 102.101 276.525 102.227 278.016C102.458 277.984 102.944 277.934 103.146 277.953C103.044 277.139 102.739 276.26 102.285 275.326C104.076 276.255 105.583 275.739 107.854 274.177L111.934 271.369C111.826 271.097 111.725 270.629 111.71 270.356C111.09 270.83 107.834 273.07 107.313 273.413C106.317 274.098 105.473 274.569 104.689 274.76L103.201 272.597ZM109.722 259.21C110.186 261.305 110.014 263.601 109.291 265.44C109.579 265.447 110.128 265.511 110.386 265.586C111.042 263.651 111.187 261.201 110.72 258.871L109.722 259.21ZM110.871 264.021L111.402 264.792L113.586 263.289C114.585 265.269 115.161 267.366 113.219 269.933C113.519 269.979 113.965 270.146 114.212 270.276C116.254 267.419 115.606 265.009 114.433 262.707L117.196 260.806C118.924 263.593 119.511 264.767 119.417 265.227C119.401 265.411 119.288 265.521 119.063 265.675C118.816 265.845 118.145 266.291 117.405 266.706C117.717 266.838 118.034 267.093 118.218 267.314C118.904 266.889 119.583 266.454 119.914 266.179C120.259 265.878 120.44 265.659 120.481 265.236C120.565 264.579 119.878 263.237 117.766 259.846C117.703 259.731 117.522 259.445 117.522 259.445L110.871 264.021ZM112.859 257.462C114.742 258.502 117.278 259.297 119.112 259.44C119.107 259.112 119.193 258.595 119.279 258.284C117.562 258.266 115.086 257.602 113.403 256.646L112.859 257.462ZM127.398 248.09L123.168 251L122.527 250.069L121.702 250.636L122.343 251.568L118.145 254.456L118.624 255.153L127.877 248.786L127.398 248.09ZM121.624 254.95L126.658 251.487L127.329 252.461L122.295 255.924L121.624 254.95ZM128.562 252.465L127.096 250.333L120.445 254.909L121.911 257.041L128.562 252.465ZM131.737 254.099L127.379 257.098L127.261 256.926C128.207 255.802 129.121 254.447 129.638 253.271L128.818 253.204L128.647 253.369L121.911 258.004L122.36 258.657L127.951 254.81C127.563 255.44 127.083 256.118 126.59 256.709L126.119 257.033L126.554 257.665L122.249 260.627L122.72 261.313L127.026 258.35L127.873 259.582C127.983 259.743 127.952 259.812 127.756 259.962C127.574 260.088 126.853 260.6 126.11 261.079C126.35 261.198 126.662 261.378 126.838 261.541C127.791 260.885 128.42 260.468 128.717 260.121C129.019 259.756 129.014 259.475 128.712 259.036L127.85 257.783L132.209 254.784L131.737 254.099ZM131.845 244.209L128.761 246.332L129.203 246.974L132.287 244.852L131.845 244.209ZM133.207 245.34L129.169 248.118L129.618 248.771L133.656 245.993L133.207 245.34ZM135.54 251.025L136.778 252.824L134.989 254.054L133.751 252.255L135.54 251.025ZM135.787 249.892L132.606 252.081L135.074 255.669L135.77 255.19L135.432 254.697L137.916 252.988L135.787 249.892ZM132.082 251.274L135.252 249.092L134.81 248.45L131.64 250.631L132.082 251.274ZM131.102 249.849L134.272 247.668L133.837 247.036L130.667 249.217L131.102 249.849ZM141.341 244.777L138.781 246.538L136.128 242.683L138.474 241.069L137.965 240.33L132.621 244.007L133.129 244.746L135.346 243.221L137.999 247.076L135.364 248.889L135.88 249.639L138.515 247.826L141.146 251.649L141.927 251.111L139.297 247.288L141.856 245.527L141.341 244.777ZM133.91 245.33C134.745 245.97 135.732 246.9 136.279 247.581L136.847 246.938C136.296 246.275 135.316 245.356 134.434 244.716L133.91 245.33ZM139.72 245.197C139.538 244.313 139.09 242.996 138.728 241.92L137.845 242.243C138.263 243.171 138.755 244.552 138.985 245.435L139.72 245.197ZM142.201 237.084L139.428 238.992L139.87 239.635L142.643 237.726L142.201 237.084ZM143.509 238.251L139.879 240.749L140.328 241.402L143.959 238.904L143.509 238.251ZM145.939 243.87L147.17 245.658L145.628 246.719L144.397 244.931L145.939 243.87ZM146.164 242.752L143.273 244.742L145.741 248.329L146.416 247.865L146.07 247.362L148.287 245.836L146.164 242.752ZM142.738 243.942L145.619 241.959L145.177 241.317L142.296 243.299L142.738 243.942ZM141.758 242.517L144.639 240.535L144.204 239.903L141.323 241.885L141.758 242.517ZM150.947 240.392L149.901 238.871L150.843 238.223L151.89 239.744L150.947 240.392ZM149.459 241.416L148.412 239.896L149.323 239.269L150.369 240.79L149.459 241.416ZM147.991 242.426L146.945 240.905L147.845 240.286L148.891 241.807L147.991 242.426ZM151.093 237.073L145.814 240.705L149.409 245.932L150.084 245.468L148.441 243.079L149.341 242.46L150.903 244.731L151.47 244.34L149.908 242.07L150.819 241.443L152.381 243.714L152.959 243.316L151.397 241.045L152.339 240.397L153.474 242.046C153.54 242.143 153.541 242.19 153.445 242.256L152.781 242.713C152.995 242.818 153.283 243.03 153.44 243.19C153.89 242.88 154.204 242.649 154.345 242.394C154.478 242.129 154.409 241.892 154.188 241.571L151.093 237.073ZM145.497 238.572L145.969 239.257L149.632 236.737L149.16 236.052L145.497 238.572ZM144.889 234.729C145.065 236.155 144.785 238.178 144.104 239.688C144.372 239.756 144.735 239.917 144.964 240.043C145.597 238.487 145.879 236.558 145.797 235.178C147.118 235.721 149.074 236.064 150.602 236.038C150.573 235.742 150.556 235.328 150.562 235.039C149.071 235.166 147.141 234.837 145.618 234.228L144.889 234.729ZM152.813 231.66L155.732 235.901L154.478 236.763L151.56 232.522L152.813 231.66ZM156.914 236.129L153.009 230.453L150.395 232.251L154.949 238.869L155.613 238.413L154.965 237.47L156.914 236.129ZM158.772 226.629L159.531 227.732L155.301 230.643L154.542 229.54L158.772 226.629ZM158.079 231.698C158.184 232.241 158.295 232.907 158.338 233.429L157.539 234.01L158.024 234.623C159.133 233.781 160.692 232.63 162.208 231.461C162.472 231.547 162.708 231.638 162.897 231.729L163.224 230.967C162.553 230.655 161.366 230.399 160.384 230.301L160.052 230.988C160.463 231.036 160.908 231.109 161.328 231.214C160.536 231.806 159.755 232.391 159.052 232.906C159.03 232.369 158.959 231.739 158.882 231.146L161.87 229.09L161.435 228.458L156.252 232.024L156.2 231.949L155.758 231.307L160.727 227.888L159.062 225.467L153.354 229.395L155.461 232.458C156.677 234.225 158.25 236.74 158.237 239.29C158.46 239.247 158.914 239.219 159.134 239.241C159.14 236.933 157.853 234.489 156.676 232.664L158.079 231.698ZM162.735 235.485L161.925 234.307L164.024 232.862L163.597 232.241L161.497 233.686L160.834 232.722L160.085 233.237L160.748 234.201L158.841 235.513L159.269 236.134L161.175 234.823L161.986 236.001L159.469 237.732L159.904 238.364L165.719 234.363L165.284 233.731L162.735 235.485ZM169.011 227.474L169.718 226.988L167.073 222.685L166.225 221.407L165.047 222.217L165.938 223.466L169.011 227.474ZM171.185 229.876C171.56 229.618 171.679 229.126 171.384 228.698C171.089 228.269 170.58 228.194 170.205 228.452C169.83 228.71 169.718 229.213 170.013 229.641C170.308 230.069 170.799 230.142 171.185 229.876Z" fill="white"/>
<g filter="url(#filter0_d)">
<circle cx="43.0398" cy="274.805" r="3.5" transform="rotate(-53.1581 43.0398 274.805)" fill="#C4C4C4"/>
</g>
<g filter="url(#filter1_d)">
<ellipse rx="3.66638" ry="3.8816" transform="matrix(0.651396 -0.758738 0.836305 0.548265 75.2453 323.005)" fill="#C4C4C4"/>
</g>
<g filter="url(#filter2_d)">
<circle cx="159.077" cy="196.273" r="3.5" transform="rotate(-53.1581 159.077 196.273)" fill="#C4C4C4"/>
</g>
<g filter="url(#filter3_d)">
<ellipse rx="3.66638" ry="3.8816" transform="matrix(0.651396 -0.758738 0.836305 0.548265 192.822 242.607)" fill="#C4C4C4"/>
</g>
</g>
<rect x="132.429" y="294.238" width="13.7724" height="99.9962" transform="rotate(-34.051 132.429 294.238)" fill="#6DA77F"/>
<path d="M282.194 398.395C294.545 398.195 304.397 388.02 304.198 375.669C304.002 363.44 294.03 353.663 281.846 353.662L281.138 353.668C278.248 353.665 271.819 353.121 264.459 352.105L264.156 352.063C254.016 350.651 243.196 348.538 232.753 345.799C206.929 339.026 186.743 329.309 176.562 318.018C168.29 308.844 154.148 308.115 144.974 316.388C135.8 324.662 135.068 338.805 143.34 347.979C152.787 358.455 165.28 367.121 180.291 374.347C192.635 380.29 206.512 385.166 221.401 389.071C244.141 395.035 269.708 398.596 282.194 398.395Z" fill="#59443C"/>
<path d="M131.601 306.512C127.901 318.708 136.385 338.036 142.552 348.304C141.831 347.001 141.654 343.705 141.687 340.6C141.72 337.444 140.702 334.365 138.993 331.712C135.062 325.609 131.366 316.539 133.305 307.903C133.797 305.708 132.254 304.359 131.601 306.512Z" fill="#B9B09A"/>
<path d="M150.563 344.065C149.841 342.76 149.677 339.454 149.723 336.334C149.771 333.149 148.752 330.04 146.892 327.455C144.461 324.076 141.994 319.797 140.914 315.01C140.075 311.292 140.064 307.272 141.166 303.343C141.775 301.173 139.8 299.376 138.675 301.33C135.946 306.071 134.858 311.948 135.993 317.733C137.946 327.687 146.529 337.354 150.563 344.065Z" fill="#B9B09A"/>
<path d="M163.439 334.25C153.256 323.765 148.929 314.387 147.142 307.662C146.573 305.518 143.798 305.215 143.935 307.429C144.037 309.083 144.346 310.877 144.967 312.768C147.715 321.141 154.91 331.921 160.424 339.274C161.529 340.747 163.819 340.009 163.906 338.17L164.021 335.764C164.047 335.205 163.829 334.652 163.439 334.25Z" fill="#B9B09A"/>
<defs>
<filter id="filter0_d" x="35.5396" y="271.306" width="15.0004" height="15.0004" filterUnits="userSpaceOnUse" color-interpolation-filters="sRGB">
<feFlood flood-opacity="0" result="BackgroundImageFix"/>
<feColorMatrix in="SourceAlpha" type="matrix" values="0 0 0 0 0 0 0 0 0 0 0 0 0 0 0 0 0 0 127 0" result="hardAlpha"/>
<feOffset dy="4"/>
<feGaussianBlur stdDeviation="2"/>
<feComposite in2="hardAlpha" operator="out"/>
<feColorMatrix type="matrix" values="0 0 0 0 0 0 0 0 0 0 0 0 0 0 0 0 0 0 0.25 0"/>
<feBlend mode="normal" in2="BackgroundImageFix" result="effect1_dropShadow"/>
<feBlend mode="normal" in="SourceGraphic" in2="effect1_dropShadow" result="shape"/>
</filter>
<filter id="filter1_d" x="67.2148" y="319.502" width="16.0607" height="15.0054" filterUnits="userSpaceOnUse" color-interpolation-filters="sRGB">
<feFlood flood-opacity="0" result="BackgroundImageFix"/>
<feColorMatrix in="SourceAlpha" type="matrix" values="0 0 0 0 0 0 0 0 0 0 0 0 0 0 0 0 0 0 127 0" result="hardAlpha"/>
<feOffset dy="4"/>
<feGaussianBlur stdDeviation="2"/>
<feComposite in2="hardAlpha" operator="out"/>
<feColorMatrix type="matrix" values="0 0 0 0 0 0 0 0 0 0 0 0 0 0 0 0 0 0 0.25 0"/>
<feBlend mode="normal" in2="BackgroundImageFix" result="effect1_dropShadow"/>
<feBlend mode="normal" in="SourceGraphic" in2="effect1_dropShadow" result="shape"/>
</filter>
<filter id="filter2_d" x="151.576" y="192.773" width="15.0004" height="15.0004" filterUnits="userSpaceOnUse" color-interpolation-filters="sRGB">
<feFlood flood-opacity="0" result="BackgroundImageFix"/>
<feColorMatrix in="SourceAlpha" type="matrix" values="0 0 0 0 0 0 0 0 0 0 0 0 0 0 0 0 0 0 127 0" result="hardAlpha"/>
<feOffset dy="4"/>
<feGaussianBlur stdDeviation="2"/>
<feComposite in2="hardAlpha" operator="out"/>
<feColorMatrix type="matrix" values="0 0 0 0 0 0 0 0 0 0 0 0 0 0 0 0 0 0 0.25 0"/>
<feBlend mode="normal" in2="BackgroundImageFix" result="effect1_dropShadow"/>
<feBlend mode="normal" in="SourceGraphic" in2="effect1_dropShadow" result="shape"/>
</filter>
<filter id="filter3_d" x="184.791" y="239.104" width="16.0607" height="15.0054" filterUnits="userSpaceOnUse" color-interpolation-filters="sRGB">
<feFlood flood-opacity="0" result="BackgroundImageFix"/>
<feColorMatrix in="SourceAlpha" type="matrix" values="0 0 0 0 0 0 0 0 0 0 0 0 0 0 0 0 0 0 127 0" result="hardAlpha"/>
<feOffset dy="4"/>
<feGaussianBlur stdDeviation="2"/>
<feComposite in2="hardAlpha" operator="out"/>
<feColorMatrix type="matrix" values="0 0 0 0 0 0 0 0 0 0 0 0 0 0 0 0 0 0 0.25 0"/>
<feBlend mode="normal" in2="BackgroundImageFix" result="effect1_dropShadow"/>
<feBlend mode="normal" in="SourceGraphic" in2="effect1_dropShadow" result="shape"/>
</filter>
<clipPath id="clip0">
<rect x="29.7395" y="275.046" width="162.593" height="76.2037" rx="8" transform="rotate(-34.5297 29.7395 275.046)" fill="white"/>
</clipPath>
</defs>
</svg>
