<?xml version="1.0" encoding="utf-8"?>
<!-- Generator: Adobe Illustrator 24.2.3, SVG Export Plug-In . SVG Version: 6.00 Build 0)  -->
<svg version="1.1" id="圖層_1" xmlns="http://www.w3.org/2000/svg" xmlns:xlink="http://www.w3.org/1999/xlink" x="0px" y="0px"
	 viewBox="0 0 20 20" style="enable-background:new 0 0 20 20;" xml:space="preserve">
<style type="text/css">
	.st0{clip-path:url(#SVGID_2_);}
	.st1{fill:#6DA77F;}
</style>
<g>
	<g>
		<defs>
			<rect id="SVGID_1_" width="20" height="20"/>
		</defs>
		<clipPath id="SVGID_2_">
			<use xlink:href="#SVGID_1_"  style="overflow:visible;"/>
		</clipPath>
		<g class="st0">
			<path class="st1" d="M17.4,2.5c-3.5-0.9-6.9,5.7-5.8,10.3c0.1,0.2,0.2,0.4,0.4,0.5l4.7,1.3c0.2,0.1,0.5,0,0.6-0.2
				C20.6,10.9,20.9,3.5,17.4,2.5z"/>
			<g id="XMLID_2_">
				<g>
					<path class="st1" d="M18.5,5.7c0.6,2.4-0.3,5.7-1.8,7.6l-4-1.1c-0.2-1.1-0.1-2.4,0.2-3.8C14.1,4.1,17.5,1.8,18.5,5.7z"/>
				</g>
			</g>
			<g id="XMLID_4_">
				<g>
					<path class="st1" d="M12.1,15.9l3,0.8l-0.2,0.9c-0.2,0.8-1.1,1.3-1.9,1.1c-0.8-0.2-1.3-1.1-1.1-1.9L12.1,15.9z"/>
					<path class="st1" d="M13,18.7c0.8,0.2,1.7-0.3,1.9-1.1l0.2-0.9l-3-0.8l-0.2,0.9C11.7,17.6,12.2,18.5,13,18.7z M12.7,19.9
						c-1.5-0.4-2.4-1.9-2-3.4l0.4-1.5c0.1-0.3,0.4-0.5,0.8-0.4l4.2,1.1c0.3,0.1,0.5,0.4,0.4,0.8L16.1,18
						C15.7,19.4,14.2,20.3,12.7,19.9z"/>
				</g>
			</g>
			<path class="st1" d="M8.5,10.4c0.7-2.9-0.4-6.9-2.4-9c-2.3-2.3-5-1.7-5.8,1.5c-0.7,2.9,0.4,6.9,2.4,9c0.2,0.2,0.4,0.2,0.6,0.2
				L8,10.8C8.3,10.8,8.4,10.6,8.5,10.4z"/>
			<g id="XMLID_1_">
				<g>
					<path class="st1" d="M5.2,2.2C6.8,4,7.8,7.3,7.3,9.7l-4,1.1C2.7,9.9,2.1,8.7,1.7,7.4C0.6,3.1,2.4-0.6,5.2,2.2z"/>
				</g>
			</g>
			<g id="XMLID_3_">
				<g>
					<path class="st1" d="M8.1,14.4C8.3,15.2,7.8,16,7,16.3c-0.8,0.2-1.7-0.3-1.9-1.1l-0.2-0.9l3-0.8L8.1,14.4z"/>
					<path class="st1" d="M7,16.3c0.8-0.2,1.3-1.1,1.1-1.9l-0.2-0.9l-3,0.8l0.2,0.9C5.3,16,6.1,16.5,7,16.3z M9.3,14
						c0.5,1.8-0.9,3.5-2.7,3.5c-1.2,0-2.4-0.8-2.7-2.1L3.5,14c-0.1-0.3,0.1-0.7,0.4-0.8l4.2-1.1c0.3-0.1,0.7,0.1,0.8,0.4L9.3,14z"/>
				</g>
			</g>
		</g>
	</g>
</g>
</svg>
